G04 #@! TF.FileFunction,Soldermask,Top*
%FSLAX46Y46*%
G04 Gerber Fmt 4.6, Leading zero omitted, Abs format (unit mm)*
G04 Created by KiCad (PCBNEW 4.0.7-e1-6374~58~ubuntu16.04.1) date Fri Aug  4 19:48:43 2017*
%MOMM*%
%LPD*%
G01*
G04 APERTURE LIST*
%ADD10C,0.100000*%
%ADD11R,2.100000X2.100000*%
%ADD12O,2.100000X2.100000*%
%ADD13R,1.150000X1.600000*%
%ADD14O,0.990000X1.650000*%
%ADD15R,1.600000X1.650000*%
%ADD16O,1.350000X1.050000*%
%ADD17R,0.500000X1.450000*%
%ADD18R,1.300000X1.600000*%
%ADD19R,1.700000X1.900000*%
%ADD20R,1.700000X1.700000*%
%ADD21R,2.400000X1.700000*%
%ADD22C,2.600000*%
%ADD23R,2.600000X2.600000*%
%ADD24R,1.600000X1.300000*%
%ADD25C,2.400000*%
%ADD26R,1.600000X1.150000*%
G04 APERTURE END LIST*
D10*
D11*
X95000000Y-157000000D03*
D12*
X92460000Y-157000000D03*
X95000000Y-154460000D03*
X92460000Y-154460000D03*
X95000000Y-151920000D03*
X92460000Y-151920000D03*
D10*
G36*
X119805188Y-121209709D02*
X119133437Y-120537958D01*
X120476940Y-119194455D01*
X121148691Y-119866206D01*
X119805188Y-121209709D01*
X119805188Y-121209709D01*
G37*
G36*
X120370874Y-121775394D02*
X119699123Y-121103643D01*
X121042626Y-119760140D01*
X121714377Y-120431891D01*
X120370874Y-121775394D01*
X120370874Y-121775394D01*
G37*
G36*
X120936559Y-122341079D02*
X120264808Y-121669328D01*
X121608311Y-120325825D01*
X122280062Y-120997576D01*
X120936559Y-122341079D01*
X120936559Y-122341079D01*
G37*
G36*
X121502244Y-122906765D02*
X120830493Y-122235014D01*
X122173996Y-120891511D01*
X122845747Y-121563262D01*
X121502244Y-122906765D01*
X121502244Y-122906765D01*
G37*
G36*
X122067930Y-123472450D02*
X121396179Y-122800699D01*
X122739682Y-121457196D01*
X123411433Y-122128947D01*
X122067930Y-123472450D01*
X122067930Y-123472450D01*
G37*
G36*
X122633615Y-124038136D02*
X121961864Y-123366385D01*
X123305367Y-122022882D01*
X123977118Y-122694633D01*
X122633615Y-124038136D01*
X122633615Y-124038136D01*
G37*
G36*
X123199301Y-124603821D02*
X122527550Y-123932070D01*
X123871053Y-122588567D01*
X124542804Y-123260318D01*
X123199301Y-124603821D01*
X123199301Y-124603821D01*
G37*
G36*
X123764986Y-125169507D02*
X123093235Y-124497756D01*
X124436738Y-123154253D01*
X125108489Y-123826004D01*
X123764986Y-125169507D01*
X123764986Y-125169507D01*
G37*
G36*
X124330672Y-125735192D02*
X123658921Y-125063441D01*
X125002424Y-123719938D01*
X125674175Y-124391689D01*
X124330672Y-125735192D01*
X124330672Y-125735192D01*
G37*
G36*
X124896357Y-126300877D02*
X124224606Y-125629126D01*
X125568109Y-124285623D01*
X126239860Y-124957374D01*
X124896357Y-126300877D01*
X124896357Y-126300877D01*
G37*
G36*
X125462042Y-126866563D02*
X124790291Y-126194812D01*
X126133794Y-124851309D01*
X126805545Y-125523060D01*
X125462042Y-126866563D01*
X125462042Y-126866563D01*
G37*
G36*
X129209709Y-126194812D02*
X128537958Y-126866563D01*
X127194455Y-125523060D01*
X127866206Y-124851309D01*
X129209709Y-126194812D01*
X129209709Y-126194812D01*
G37*
G36*
X129775394Y-125629126D02*
X129103643Y-126300877D01*
X127760140Y-124957374D01*
X128431891Y-124285623D01*
X129775394Y-125629126D01*
X129775394Y-125629126D01*
G37*
G36*
X130341079Y-125063441D02*
X129669328Y-125735192D01*
X128325825Y-124391689D01*
X128997576Y-123719938D01*
X130341079Y-125063441D01*
X130341079Y-125063441D01*
G37*
G36*
X130906765Y-124497756D02*
X130235014Y-125169507D01*
X128891511Y-123826004D01*
X129563262Y-123154253D01*
X130906765Y-124497756D01*
X130906765Y-124497756D01*
G37*
G36*
X131472450Y-123932070D02*
X130800699Y-124603821D01*
X129457196Y-123260318D01*
X130128947Y-122588567D01*
X131472450Y-123932070D01*
X131472450Y-123932070D01*
G37*
G36*
X132038136Y-123366385D02*
X131366385Y-124038136D01*
X130022882Y-122694633D01*
X130694633Y-122022882D01*
X132038136Y-123366385D01*
X132038136Y-123366385D01*
G37*
G36*
X132603821Y-122800699D02*
X131932070Y-123472450D01*
X130588567Y-122128947D01*
X131260318Y-121457196D01*
X132603821Y-122800699D01*
X132603821Y-122800699D01*
G37*
G36*
X133169507Y-122235014D02*
X132497756Y-122906765D01*
X131154253Y-121563262D01*
X131826004Y-120891511D01*
X133169507Y-122235014D01*
X133169507Y-122235014D01*
G37*
G36*
X133735192Y-121669328D02*
X133063441Y-122341079D01*
X131719938Y-120997576D01*
X132391689Y-120325825D01*
X133735192Y-121669328D01*
X133735192Y-121669328D01*
G37*
G36*
X134300877Y-121103643D02*
X133629126Y-121775394D01*
X132285623Y-120431891D01*
X132957374Y-119760140D01*
X134300877Y-121103643D01*
X134300877Y-121103643D01*
G37*
G36*
X134866563Y-120537958D02*
X134194812Y-121209709D01*
X132851309Y-119866206D01*
X133523060Y-119194455D01*
X134866563Y-120537958D01*
X134866563Y-120537958D01*
G37*
G36*
X133523060Y-118805545D02*
X132851309Y-118133794D01*
X134194812Y-116790291D01*
X134866563Y-117462042D01*
X133523060Y-118805545D01*
X133523060Y-118805545D01*
G37*
G36*
X132957374Y-118239860D02*
X132285623Y-117568109D01*
X133629126Y-116224606D01*
X134300877Y-116896357D01*
X132957374Y-118239860D01*
X132957374Y-118239860D01*
G37*
G36*
X132391689Y-117674175D02*
X131719938Y-117002424D01*
X133063441Y-115658921D01*
X133735192Y-116330672D01*
X132391689Y-117674175D01*
X132391689Y-117674175D01*
G37*
G36*
X131826004Y-117108489D02*
X131154253Y-116436738D01*
X132497756Y-115093235D01*
X133169507Y-115764986D01*
X131826004Y-117108489D01*
X131826004Y-117108489D01*
G37*
G36*
X131260318Y-116542804D02*
X130588567Y-115871053D01*
X131932070Y-114527550D01*
X132603821Y-115199301D01*
X131260318Y-116542804D01*
X131260318Y-116542804D01*
G37*
G36*
X130694633Y-115977118D02*
X130022882Y-115305367D01*
X131366385Y-113961864D01*
X132038136Y-114633615D01*
X130694633Y-115977118D01*
X130694633Y-115977118D01*
G37*
G36*
X130128947Y-115411433D02*
X129457196Y-114739682D01*
X130800699Y-113396179D01*
X131472450Y-114067930D01*
X130128947Y-115411433D01*
X130128947Y-115411433D01*
G37*
G36*
X129563262Y-114845747D02*
X128891511Y-114173996D01*
X130235014Y-112830493D01*
X130906765Y-113502244D01*
X129563262Y-114845747D01*
X129563262Y-114845747D01*
G37*
G36*
X128997576Y-114280062D02*
X128325825Y-113608311D01*
X129669328Y-112264808D01*
X130341079Y-112936559D01*
X128997576Y-114280062D01*
X128997576Y-114280062D01*
G37*
G36*
X128431891Y-113714377D02*
X127760140Y-113042626D01*
X129103643Y-111699123D01*
X129775394Y-112370874D01*
X128431891Y-113714377D01*
X128431891Y-113714377D01*
G37*
G36*
X127866206Y-113148691D02*
X127194455Y-112476940D01*
X128537958Y-111133437D01*
X129209709Y-111805188D01*
X127866206Y-113148691D01*
X127866206Y-113148691D01*
G37*
G36*
X126805545Y-112476940D02*
X126133794Y-113148691D01*
X124790291Y-111805188D01*
X125462042Y-111133437D01*
X126805545Y-112476940D01*
X126805545Y-112476940D01*
G37*
G36*
X126239860Y-113042626D02*
X125568109Y-113714377D01*
X124224606Y-112370874D01*
X124896357Y-111699123D01*
X126239860Y-113042626D01*
X126239860Y-113042626D01*
G37*
G36*
X125674175Y-113608311D02*
X125002424Y-114280062D01*
X123658921Y-112936559D01*
X124330672Y-112264808D01*
X125674175Y-113608311D01*
X125674175Y-113608311D01*
G37*
G36*
X125108489Y-114173996D02*
X124436738Y-114845747D01*
X123093235Y-113502244D01*
X123764986Y-112830493D01*
X125108489Y-114173996D01*
X125108489Y-114173996D01*
G37*
G36*
X124542804Y-114739682D02*
X123871053Y-115411433D01*
X122527550Y-114067930D01*
X123199301Y-113396179D01*
X124542804Y-114739682D01*
X124542804Y-114739682D01*
G37*
G36*
X123977118Y-115305367D02*
X123305367Y-115977118D01*
X121961864Y-114633615D01*
X122633615Y-113961864D01*
X123977118Y-115305367D01*
X123977118Y-115305367D01*
G37*
G36*
X123411433Y-115871053D02*
X122739682Y-116542804D01*
X121396179Y-115199301D01*
X122067930Y-114527550D01*
X123411433Y-115871053D01*
X123411433Y-115871053D01*
G37*
G36*
X122845747Y-116436738D02*
X122173996Y-117108489D01*
X120830493Y-115764986D01*
X121502244Y-115093235D01*
X122845747Y-116436738D01*
X122845747Y-116436738D01*
G37*
G36*
X122280062Y-117002424D02*
X121608311Y-117674175D01*
X120264808Y-116330672D01*
X120936559Y-115658921D01*
X122280062Y-117002424D01*
X122280062Y-117002424D01*
G37*
G36*
X121714377Y-117568109D02*
X121042626Y-118239860D01*
X119699123Y-116896357D01*
X120370874Y-116224606D01*
X121714377Y-117568109D01*
X121714377Y-117568109D01*
G37*
G36*
X121148691Y-118133794D02*
X120476940Y-118805545D01*
X119133437Y-117462042D01*
X119805188Y-116790291D01*
X121148691Y-118133794D01*
X121148691Y-118133794D01*
G37*
G36*
X119694023Y-114230850D02*
X118880850Y-115044023D01*
X117749479Y-113912652D01*
X118562652Y-113099479D01*
X119694023Y-114230850D01*
X119694023Y-114230850D01*
G37*
G36*
X118350521Y-112887348D02*
X117537348Y-113700521D01*
X116405977Y-112569150D01*
X117219150Y-111755977D01*
X118350521Y-112887348D01*
X118350521Y-112887348D01*
G37*
G36*
X139219150Y-130194023D02*
X138405977Y-129380850D01*
X139537348Y-128249479D01*
X140350521Y-129062652D01*
X139219150Y-130194023D01*
X139219150Y-130194023D01*
G37*
G36*
X140562652Y-128850521D02*
X139749479Y-128037348D01*
X140880850Y-126905977D01*
X141694023Y-127719150D01*
X140562652Y-128850521D01*
X140562652Y-128850521D01*
G37*
G36*
X142119150Y-127244023D02*
X141305977Y-126430850D01*
X142437348Y-125299479D01*
X143250521Y-126112652D01*
X142119150Y-127244023D01*
X142119150Y-127244023D01*
G37*
G36*
X143462652Y-125900521D02*
X142649479Y-125087348D01*
X143780850Y-123955977D01*
X144594023Y-124769150D01*
X143462652Y-125900521D01*
X143462652Y-125900521D01*
G37*
D13*
X121050000Y-125150000D03*
X121050000Y-127050000D03*
D14*
X133500000Y-159550000D03*
D15*
X131000000Y-159550000D03*
D16*
X132500000Y-156850000D03*
D14*
X126500000Y-159550000D03*
D15*
X129000000Y-159550000D03*
D17*
X128700000Y-156850000D03*
X129350000Y-156850000D03*
X130000000Y-156850000D03*
X130650000Y-156850000D03*
X131300000Y-156850000D03*
D16*
X127500000Y-156850000D03*
D18*
X134000000Y-142100000D03*
X134000000Y-139900000D03*
D19*
X129000000Y-142350000D03*
X129000000Y-139650000D03*
X126900000Y-142350000D03*
X126900000Y-139650000D03*
D20*
X86150000Y-157750000D03*
D21*
X85000000Y-152250000D03*
D20*
X83850000Y-157750000D03*
D22*
X160000000Y-150000000D03*
X156000000Y-150000000D03*
X152000000Y-150000000D03*
X170500000Y-150000000D03*
X166500000Y-150000000D03*
D23*
X148000000Y-150000000D03*
D22*
X174500000Y-150000000D03*
D18*
X119350000Y-154350000D03*
X116050000Y-154350000D03*
X119350000Y-151350000D03*
X122650000Y-151350000D03*
D24*
X124300000Y-154550000D03*
X126500000Y-154550000D03*
D25*
X110450000Y-151900000D03*
X110450000Y-156400000D03*
X103950000Y-151900000D03*
X103950000Y-156400000D03*
D26*
X136700000Y-131650000D03*
X138600000Y-131650000D03*
X136700000Y-135850000D03*
X138600000Y-135850000D03*
D13*
X117750000Y-146700000D03*
X117750000Y-144800000D03*
D18*
X114150000Y-147700000D03*
X114150000Y-149900000D03*
D10*
G36*
X135222613Y-129657286D02*
X133242714Y-127677387D01*
X136000431Y-124919670D01*
X137980330Y-126899569D01*
X135222613Y-129657286D01*
X135222613Y-129657286D01*
G37*
G36*
X138899569Y-125980330D02*
X136919670Y-124000431D01*
X139677387Y-121242714D01*
X141657286Y-123222613D01*
X138899569Y-125980330D01*
X138899569Y-125980330D01*
G37*
D11*
X90000000Y-90000000D03*
D12*
X92540000Y-90000000D03*
X95080000Y-90000000D03*
X97620000Y-90000000D03*
X100160000Y-90000000D03*
X102700000Y-90000000D03*
X105240000Y-90000000D03*
X107780000Y-90000000D03*
X110320000Y-90000000D03*
X112860000Y-90000000D03*
X115400000Y-90000000D03*
X117940000Y-90000000D03*
X120480000Y-90000000D03*
X123020000Y-90000000D03*
X125560000Y-90000000D03*
X128100000Y-90000000D03*
M02*
