%FSLAX45Y45*%
G04 Gerber Fmt 4.5, Leading zero omitted, Abs format (unit mm)*
G04 Created by KiCad (PCBNEW 4.0.7-e1-6374~58~ubuntu16.04.1) date Fri Aug  4 19:49:14 2017*
%MOMM*%
%LPD*%
G01*
G04 APERTURE LIST*
%ADD10C,0.127000*%
%ADD11C,0.150000*%
%ADD12C,0.200000*%
%ADD13C,0.300000*%
G04 APERTURE END LIST*
D10*
D11*
X7900000Y-8700000D02*
X17900000Y-8700000D01*
X7900000Y-16100000D02*
X7900000Y-8700000D01*
X17900000Y-16100000D02*
X7900000Y-16100000D01*
X17900000Y-8700000D02*
X17900000Y-16100000D01*
D12*
X11395000Y-14615000D02*
X11435000Y-14655000D01*
X11435000Y-14615000D02*
X11395000Y-14655000D01*
X11480000Y-13430000D02*
X11520000Y-13470000D01*
X11520000Y-13430000D02*
X11480000Y-13470000D01*
X11650000Y-13015000D02*
X11690000Y-13055000D01*
X11690000Y-13015000D02*
X11650000Y-13055000D01*
X11910000Y-13215000D02*
X11950000Y-13255000D01*
X11950000Y-13215000D02*
X11910000Y-13255000D01*
X12185000Y-12805000D02*
X12225000Y-12845000D01*
X12225000Y-12805000D02*
X12185000Y-12845000D01*
X12265000Y-12860000D02*
X12305000Y-12900000D01*
X12305000Y-12860000D02*
X12265000Y-12900000D01*
X12345000Y-12550000D02*
X12385000Y-12590000D01*
X12385000Y-12550000D02*
X12345000Y-12590000D01*
X13080000Y-11025000D02*
X13120000Y-11065000D01*
X13120000Y-11025000D02*
X13080000Y-11065000D01*
X13085000Y-11135000D02*
X13125000Y-11175000D01*
X13125000Y-11135000D02*
X13085000Y-11175000D01*
X13105000Y-12680000D02*
X13145000Y-12720000D01*
X13145000Y-12680000D02*
X13105000Y-12720000D01*
X13140000Y-13970000D02*
X13180000Y-14010000D01*
X13180000Y-13970000D02*
X13140000Y-14010000D01*
X13195000Y-11250000D02*
X13235000Y-11290000D01*
X13235000Y-11250000D02*
X13195000Y-11290000D01*
X15180000Y-11470000D02*
X15220000Y-11510000D01*
X15220000Y-11470000D02*
X15180000Y-11510000D01*
X15580000Y-12445000D02*
X15620000Y-12485000D01*
X15620000Y-12445000D02*
X15580000Y-12485000D01*
X15990000Y-11660000D02*
X16030000Y-11700000D01*
X16030000Y-11660000D02*
X15990000Y-11700000D01*
X11830000Y-11595000D02*
G75*
G03X11830000Y-11595000I-25000J0D01*
G01*
X12105000Y-14820000D02*
G75*
G03X12105000Y-14820000I-25000J0D01*
G01*
X12200000Y-11975000D02*
G75*
G03X12200000Y-11975000I-25000J0D01*
G01*
X12270000Y-13510000D02*
G75*
G03X12270000Y-13510000I-25000J0D01*
G01*
X12365000Y-10960000D02*
G75*
G03X12365000Y-10960000I-25000J0D01*
G01*
X12480000Y-11090000D02*
G75*
G03X12480000Y-11090000I-25000J0D01*
G01*
X12485000Y-12260000D02*
G75*
G03X12485000Y-12260000I-25000J0D01*
G01*
X12585000Y-9365000D02*
G75*
G03X12585000Y-9365000I-25000J0D01*
G01*
X12675000Y-15165000D02*
G75*
G03X12675000Y-15165000I-25000J0D01*
G01*
X12675000Y-15955000D02*
G75*
G03X12675000Y-15955000I-25000J0D01*
G01*
X12635000Y-15922500D02*
X12635000Y-15987500D01*
X12665000Y-15922500D02*
X12665000Y-15987500D01*
X12635000Y-15987500D02*
G75*
G03X12665000Y-15987500I15000J0D01*
G01*
X12665000Y-15922500D02*
G75*
G03X12635000Y-15922500I-15000J0D01*
G01*
X12760000Y-10810000D02*
G75*
G03X12760000Y-10810000I-25000J0D01*
G01*
X13155000Y-15500000D02*
G75*
G03X13155000Y-15500000I-25000J0D01*
G01*
X13285000Y-12690000D02*
G75*
G03X13285000Y-12690000I-25000J0D01*
G01*
X13375000Y-15955000D02*
G75*
G03X13375000Y-15955000I-25000J0D01*
G01*
X13335000Y-15922500D02*
X13335000Y-15987500D01*
X13365000Y-15922500D02*
X13365000Y-15987500D01*
X13335000Y-15987500D02*
G75*
G03X13365000Y-15987500I15000J0D01*
G01*
X13365000Y-15922500D02*
G75*
G03X13335000Y-15922500I-15000J0D01*
G01*
X13420000Y-14820000D02*
G75*
G03X13420000Y-14820000I-25000J0D01*
G01*
X13485000Y-11600000D02*
G75*
G03X13485000Y-11600000I-25000J0D01*
G01*
X13735000Y-11680000D02*
G75*
G03X13735000Y-11680000I-25000J0D01*
G01*
X12750000Y-15657500D02*
X12750000Y-15712500D01*
X12722500Y-15685000D02*
X12777500Y-15685000D01*
X12735000Y-15702500D02*
X12765000Y-15702500D01*
X12735000Y-15667500D02*
X12765000Y-15667500D01*
X12765000Y-15702500D02*
G75*
G03X12765000Y-15667500I0J17500D01*
G01*
X12735000Y-15667500D02*
G75*
G03X12735000Y-15702500I0J-17500D01*
G01*
X13250000Y-15657500D02*
X13250000Y-15712500D01*
X13222500Y-15685000D02*
X13277500Y-15685000D01*
X13235000Y-15702500D02*
X13265000Y-15702500D01*
X13235000Y-15667500D02*
X13265000Y-15667500D01*
X13265000Y-15702500D02*
G75*
G03X13265000Y-15667500I0J17500D01*
G01*
X13235000Y-15667500D02*
G75*
G03X13235000Y-15702500I0J-17500D01*
G01*
X9035356Y-9035356D02*
X9035356Y-8964644D01*
X8964644Y-8964644D01*
X8964644Y-9035356D01*
X9035356Y-9035356D01*
X9281356Y-15227356D02*
X9281356Y-15156644D01*
X9210644Y-15156644D01*
X9210644Y-15227356D01*
X9281356Y-15227356D01*
X9281356Y-15481356D02*
X9281356Y-15410644D01*
X9210644Y-15410644D01*
X9210644Y-15481356D01*
X9281356Y-15481356D01*
X9281356Y-15735356D02*
X9281356Y-15664644D01*
X9210644Y-15664644D01*
X9210644Y-15735356D01*
X9281356Y-15735356D01*
X9289356Y-9035356D02*
X9289356Y-8964644D01*
X9218644Y-8964644D01*
X9218644Y-9035356D01*
X9289356Y-9035356D01*
X9535356Y-15227356D02*
X9535356Y-15156644D01*
X9464644Y-15156644D01*
X9464644Y-15227356D01*
X9535356Y-15227356D01*
X9535356Y-15481356D02*
X9535356Y-15410644D01*
X9464644Y-15410644D01*
X9464644Y-15481356D01*
X9535356Y-15481356D01*
X9535356Y-15735356D02*
X9535356Y-15664644D01*
X9464644Y-15664644D01*
X9464644Y-15735356D01*
X9535356Y-15735356D01*
X9543356Y-9035356D02*
X9543356Y-8964644D01*
X9472644Y-8964644D01*
X9472644Y-9035356D01*
X9543356Y-9035356D01*
X9797356Y-9035356D02*
X9797356Y-8964644D01*
X9726644Y-8964644D01*
X9726644Y-9035356D01*
X9797356Y-9035356D01*
X10051356Y-9035356D02*
X10051356Y-8964644D01*
X9980644Y-8964644D01*
X9980644Y-9035356D01*
X10051356Y-9035356D01*
X10305356Y-9035356D02*
X10305356Y-8964644D01*
X10234644Y-8964644D01*
X10234644Y-9035356D01*
X10305356Y-9035356D01*
X10559356Y-9035356D02*
X10559356Y-8964644D01*
X10488644Y-8964644D01*
X10488644Y-9035356D01*
X10559356Y-9035356D01*
X10813356Y-9035356D02*
X10813356Y-8964644D01*
X10742644Y-8964644D01*
X10742644Y-9035356D01*
X10813356Y-9035356D01*
X11067356Y-9035356D02*
X11067356Y-8964644D01*
X10996644Y-8964644D01*
X10996644Y-9035356D01*
X11067356Y-9035356D01*
X11321356Y-9035356D02*
X11321356Y-8964644D01*
X11250644Y-8964644D01*
X11250644Y-9035356D01*
X11321356Y-9035356D01*
X11575356Y-9035356D02*
X11575356Y-8964644D01*
X11504644Y-8964644D01*
X11504644Y-9035356D01*
X11575356Y-9035356D01*
X11829356Y-9035356D02*
X11829356Y-8964644D01*
X11758644Y-8964644D01*
X11758644Y-9035356D01*
X11829356Y-9035356D01*
X12083356Y-9035356D02*
X12083356Y-8964644D01*
X12012644Y-8964644D01*
X12012644Y-9035356D01*
X12083356Y-9035356D01*
X12337356Y-9035356D02*
X12337356Y-8964644D01*
X12266644Y-8964644D01*
X12266644Y-9035356D01*
X12337356Y-9035356D01*
X12591356Y-9035356D02*
X12591356Y-8964644D01*
X12520644Y-8964644D01*
X12520644Y-9035356D01*
X12591356Y-9035356D01*
X12845356Y-9035356D02*
X12845356Y-8964644D01*
X12774644Y-8964644D01*
X12774644Y-9035356D01*
X12845356Y-9035356D01*
X10395000Y-15245000D02*
X10450000Y-15190000D01*
X10395000Y-15135000D01*
X10340000Y-15190000D01*
X10395000Y-15245000D01*
X10395000Y-15695000D02*
X10450000Y-15640000D01*
X10395000Y-15585000D01*
X10340000Y-15640000D01*
X10395000Y-15695000D01*
X11045000Y-15245000D02*
X11100000Y-15190000D01*
X11045000Y-15135000D01*
X10990000Y-15190000D01*
X11045000Y-15245000D01*
X11045000Y-15695000D02*
X11100000Y-15640000D01*
X11045000Y-15585000D01*
X10990000Y-15640000D01*
X11045000Y-15695000D01*
X14735000Y-14935000D02*
X14865000Y-15065000D01*
X14865000Y-14935000D02*
X14735000Y-15065000D01*
X14865000Y-15000000D02*
G75*
G03X14865000Y-15000000I-65000J0D01*
G01*
X15135000Y-14935000D02*
X15265000Y-15065000D01*
X15265000Y-14935000D02*
X15135000Y-15065000D01*
X15265000Y-15000000D02*
G75*
G03X15265000Y-15000000I-65000J0D01*
G01*
X15535000Y-14935000D02*
X15665000Y-15065000D01*
X15665000Y-14935000D02*
X15535000Y-15065000D01*
X15665000Y-15000000D02*
G75*
G03X15665000Y-15000000I-65000J0D01*
G01*
X15935000Y-14935000D02*
X16065000Y-15065000D01*
X16065000Y-14935000D02*
X15935000Y-15065000D01*
X16065000Y-15000000D02*
G75*
G03X16065000Y-15000000I-65000J0D01*
G01*
X16585000Y-14935000D02*
X16715000Y-15065000D01*
X16715000Y-14935000D02*
X16585000Y-15065000D01*
X16715000Y-15000000D02*
G75*
G03X16715000Y-15000000I-65000J0D01*
G01*
X16985000Y-14935000D02*
X17115000Y-15065000D01*
X17115000Y-14935000D02*
X16985000Y-15065000D01*
X17115000Y-15000000D02*
G75*
G03X17115000Y-15000000I-65000J0D01*
G01*
X17385000Y-14935000D02*
X17515000Y-15065000D01*
X17515000Y-14935000D02*
X17385000Y-15065000D01*
X17515000Y-15000000D02*
G75*
G03X17515000Y-15000000I-65000J0D01*
G01*
D13*
X8163928Y-16573214D02*
X8163928Y-16273214D01*
X8235357Y-16273214D01*
X8278214Y-16287500D01*
X8306786Y-16316071D01*
X8321071Y-16344643D01*
X8335357Y-16401786D01*
X8335357Y-16444643D01*
X8321071Y-16501786D01*
X8306786Y-16530357D01*
X8278214Y-16558929D01*
X8235357Y-16573214D01*
X8163928Y-16573214D01*
X8463929Y-16573214D02*
X8463929Y-16373214D01*
X8463929Y-16430357D02*
X8478214Y-16401786D01*
X8492500Y-16387500D01*
X8521071Y-16373214D01*
X8549643Y-16373214D01*
X8649643Y-16573214D02*
X8649643Y-16373214D01*
X8649643Y-16273214D02*
X8635357Y-16287500D01*
X8649643Y-16301786D01*
X8663929Y-16287500D01*
X8649643Y-16273214D01*
X8649643Y-16301786D01*
X8835357Y-16573214D02*
X8806786Y-16558929D01*
X8792500Y-16530357D01*
X8792500Y-16273214D01*
X8992500Y-16573214D02*
X8963929Y-16558929D01*
X8949643Y-16530357D01*
X8949643Y-16273214D01*
X9335357Y-16573214D02*
X9335357Y-16273214D01*
X9435357Y-16487500D01*
X9535357Y-16273214D01*
X9535357Y-16573214D01*
X9806786Y-16573214D02*
X9806786Y-16416071D01*
X9792500Y-16387500D01*
X9763929Y-16373214D01*
X9706786Y-16373214D01*
X9678214Y-16387500D01*
X9806786Y-16558929D02*
X9778214Y-16573214D01*
X9706786Y-16573214D01*
X9678214Y-16558929D01*
X9663929Y-16530357D01*
X9663929Y-16501786D01*
X9678214Y-16473214D01*
X9706786Y-16458929D01*
X9778214Y-16458929D01*
X9806786Y-16444643D01*
X9949643Y-16373214D02*
X9949643Y-16673214D01*
X9949643Y-16387500D02*
X9978214Y-16373214D01*
X10035357Y-16373214D01*
X10063929Y-16387500D01*
X10078214Y-16401786D01*
X10092500Y-16430357D01*
X10092500Y-16516071D01*
X10078214Y-16544643D01*
X10063929Y-16558929D01*
X10035357Y-16573214D01*
X9978214Y-16573214D01*
X9949643Y-16558929D01*
X10221071Y-16544643D02*
X10235357Y-16558929D01*
X10221071Y-16573214D01*
X10206786Y-16558929D01*
X10221071Y-16544643D01*
X10221071Y-16573214D01*
X10221071Y-16387500D02*
X10235357Y-16401786D01*
X10221071Y-16416071D01*
X10206786Y-16401786D01*
X10221071Y-16387500D01*
X10221071Y-16416071D01*
X7852500Y-17047500D02*
X7892500Y-17087500D01*
X7892500Y-17047500D02*
X7852500Y-17087500D01*
X8221071Y-16903214D02*
X8249643Y-16903214D01*
X8278214Y-16917500D01*
X8292500Y-16931786D01*
X8306786Y-16960357D01*
X8321071Y-17017500D01*
X8321071Y-17088929D01*
X8306786Y-17146072D01*
X8292500Y-17174643D01*
X8278214Y-17188929D01*
X8249643Y-17203214D01*
X8221071Y-17203214D01*
X8192500Y-17188929D01*
X8178214Y-17174643D01*
X8163928Y-17146072D01*
X8149643Y-17088929D01*
X8149643Y-17017500D01*
X8163928Y-16960357D01*
X8178214Y-16931786D01*
X8192500Y-16917500D01*
X8221071Y-16903214D01*
X8449643Y-17174643D02*
X8463929Y-17188929D01*
X8449643Y-17203214D01*
X8435357Y-17188929D01*
X8449643Y-17174643D01*
X8449643Y-17203214D01*
X8721071Y-17003214D02*
X8721071Y-17203214D01*
X8649643Y-16888929D02*
X8578214Y-17103214D01*
X8763928Y-17103214D01*
X8935357Y-16903214D02*
X8963929Y-16903214D01*
X8992500Y-16917500D01*
X9006786Y-16931786D01*
X9021071Y-16960357D01*
X9035357Y-17017500D01*
X9035357Y-17088929D01*
X9021071Y-17146072D01*
X9006786Y-17174643D01*
X8992500Y-17188929D01*
X8963929Y-17203214D01*
X8935357Y-17203214D01*
X8906786Y-17188929D01*
X8892500Y-17174643D01*
X8878214Y-17146072D01*
X8863929Y-17088929D01*
X8863929Y-17017500D01*
X8878214Y-16960357D01*
X8892500Y-16931786D01*
X8906786Y-16917500D01*
X8935357Y-16903214D01*
X9163929Y-17203214D02*
X9163929Y-17003214D01*
X9163929Y-17031786D02*
X9178214Y-17017500D01*
X9206786Y-17003214D01*
X9249643Y-17003214D01*
X9278214Y-17017500D01*
X9292500Y-17046072D01*
X9292500Y-17203214D01*
X9292500Y-17046072D02*
X9306786Y-17017500D01*
X9335357Y-17003214D01*
X9378214Y-17003214D01*
X9406786Y-17017500D01*
X9421071Y-17046072D01*
X9421071Y-17203214D01*
X9563929Y-17203214D02*
X9563929Y-17003214D01*
X9563929Y-17031786D02*
X9578214Y-17017500D01*
X9606786Y-17003214D01*
X9649643Y-17003214D01*
X9678214Y-17017500D01*
X9692500Y-17046072D01*
X9692500Y-17203214D01*
X9692500Y-17046072D02*
X9706786Y-17017500D01*
X9735357Y-17003214D01*
X9778214Y-17003214D01*
X9806786Y-17017500D01*
X9821071Y-17046072D01*
X9821071Y-17203214D01*
X10406786Y-16888929D02*
X10149643Y-17274643D01*
X10792500Y-16903214D02*
X10821071Y-16903214D01*
X10849643Y-16917500D01*
X10863928Y-16931786D01*
X10878214Y-16960357D01*
X10892500Y-17017500D01*
X10892500Y-17088929D01*
X10878214Y-17146072D01*
X10863928Y-17174643D01*
X10849643Y-17188929D01*
X10821071Y-17203214D01*
X10792500Y-17203214D01*
X10763928Y-17188929D01*
X10749643Y-17174643D01*
X10735357Y-17146072D01*
X10721071Y-17088929D01*
X10721071Y-17017500D01*
X10735357Y-16960357D01*
X10749643Y-16931786D01*
X10763928Y-16917500D01*
X10792500Y-16903214D01*
X11021071Y-17174643D02*
X11035357Y-17188929D01*
X11021071Y-17203214D01*
X11006786Y-17188929D01*
X11021071Y-17174643D01*
X11021071Y-17203214D01*
X11221071Y-16903214D02*
X11249643Y-16903214D01*
X11278214Y-16917500D01*
X11292500Y-16931786D01*
X11306785Y-16960357D01*
X11321071Y-17017500D01*
X11321071Y-17088929D01*
X11306785Y-17146072D01*
X11292500Y-17174643D01*
X11278214Y-17188929D01*
X11249643Y-17203214D01*
X11221071Y-17203214D01*
X11192500Y-17188929D01*
X11178214Y-17174643D01*
X11163928Y-17146072D01*
X11149643Y-17088929D01*
X11149643Y-17017500D01*
X11163928Y-16960357D01*
X11178214Y-16931786D01*
X11192500Y-16917500D01*
X11221071Y-16903214D01*
X11606785Y-17203214D02*
X11435357Y-17203214D01*
X11521071Y-17203214D02*
X11521071Y-16903214D01*
X11492500Y-16946072D01*
X11463928Y-16974643D01*
X11435357Y-16988929D01*
X11863928Y-16903214D02*
X11806785Y-16903214D01*
X11778214Y-16917500D01*
X11763928Y-16931786D01*
X11735357Y-16974643D01*
X11721071Y-17031786D01*
X11721071Y-17146072D01*
X11735357Y-17174643D01*
X11749643Y-17188929D01*
X11778214Y-17203214D01*
X11835357Y-17203214D01*
X11863928Y-17188929D01*
X11878214Y-17174643D01*
X11892500Y-17146072D01*
X11892500Y-17074643D01*
X11878214Y-17046072D01*
X11863928Y-17031786D01*
X11835357Y-17017500D01*
X11778214Y-17017500D01*
X11749643Y-17031786D01*
X11735357Y-17046072D01*
X11721071Y-17074643D01*
X12006786Y-16903214D02*
X12006786Y-16960357D01*
X12121071Y-16903214D02*
X12121071Y-16960357D01*
X12563928Y-17317500D02*
X12549643Y-17303214D01*
X12521071Y-17260357D01*
X12506785Y-17231786D01*
X12492500Y-17188929D01*
X12478214Y-17117500D01*
X12478214Y-17060357D01*
X12492500Y-16988929D01*
X12506785Y-16946072D01*
X12521071Y-16917500D01*
X12549643Y-16874643D01*
X12563928Y-16860357D01*
X12835357Y-17203214D02*
X12663928Y-17203214D01*
X12749643Y-17203214D02*
X12749643Y-16903214D01*
X12721071Y-16946072D01*
X12692500Y-16974643D01*
X12663928Y-16988929D01*
X13106785Y-16903214D02*
X12963928Y-16903214D01*
X12949643Y-17046072D01*
X12963928Y-17031786D01*
X12992500Y-17017500D01*
X13063928Y-17017500D01*
X13092500Y-17031786D01*
X13106785Y-17046072D01*
X13121071Y-17074643D01*
X13121071Y-17146072D01*
X13106785Y-17174643D01*
X13092500Y-17188929D01*
X13063928Y-17203214D01*
X12992500Y-17203214D01*
X12963928Y-17188929D01*
X12949643Y-17174643D01*
X13478214Y-17203214D02*
X13478214Y-16903214D01*
X13606785Y-17203214D02*
X13606785Y-17046072D01*
X13592500Y-17017500D01*
X13563928Y-17003214D01*
X13521071Y-17003214D01*
X13492500Y-17017500D01*
X13478214Y-17031786D01*
X13792500Y-17203214D02*
X13763928Y-17188929D01*
X13749643Y-17174643D01*
X13735357Y-17146072D01*
X13735357Y-17060357D01*
X13749643Y-17031786D01*
X13763928Y-17017500D01*
X13792500Y-17003214D01*
X13835357Y-17003214D01*
X13863928Y-17017500D01*
X13878214Y-17031786D01*
X13892500Y-17060357D01*
X13892500Y-17146072D01*
X13878214Y-17174643D01*
X13863928Y-17188929D01*
X13835357Y-17203214D01*
X13792500Y-17203214D01*
X14063928Y-17203214D02*
X14035357Y-17188929D01*
X14021071Y-17160357D01*
X14021071Y-16903214D01*
X14292500Y-17188929D02*
X14263928Y-17203214D01*
X14206786Y-17203214D01*
X14178214Y-17188929D01*
X14163928Y-17160357D01*
X14163928Y-17046072D01*
X14178214Y-17017500D01*
X14206786Y-17003214D01*
X14263928Y-17003214D01*
X14292500Y-17017500D01*
X14306786Y-17046072D01*
X14306786Y-17074643D01*
X14163928Y-17103214D01*
X14421071Y-17188929D02*
X14449643Y-17203214D01*
X14506786Y-17203214D01*
X14535357Y-17188929D01*
X14549643Y-17160357D01*
X14549643Y-17146072D01*
X14535357Y-17117500D01*
X14506786Y-17103214D01*
X14463928Y-17103214D01*
X14435357Y-17088929D01*
X14421071Y-17060357D01*
X14421071Y-17046072D01*
X14435357Y-17017500D01*
X14463928Y-17003214D01*
X14506786Y-17003214D01*
X14535357Y-17017500D01*
X14649643Y-17317500D02*
X14663928Y-17303214D01*
X14692500Y-17260357D01*
X14706786Y-17231786D01*
X14721071Y-17188929D01*
X14735357Y-17117500D01*
X14735357Y-17060357D01*
X14721071Y-16988929D01*
X14706786Y-16946072D01*
X14692500Y-16917500D01*
X14663928Y-16874643D01*
X14649643Y-16860357D01*
X7892500Y-17463500D02*
G75*
G03X7892500Y-17463500I-25000J0D01*
G01*
X8221071Y-17299214D02*
X8249643Y-17299214D01*
X8278214Y-17313500D01*
X8292500Y-17327786D01*
X8306786Y-17356357D01*
X8321071Y-17413500D01*
X8321071Y-17484929D01*
X8306786Y-17542072D01*
X8292500Y-17570643D01*
X8278214Y-17584929D01*
X8249643Y-17599214D01*
X8221071Y-17599214D01*
X8192500Y-17584929D01*
X8178214Y-17570643D01*
X8163928Y-17542072D01*
X8149643Y-17484929D01*
X8149643Y-17413500D01*
X8163928Y-17356357D01*
X8178214Y-17327786D01*
X8192500Y-17313500D01*
X8221071Y-17299214D01*
X8449643Y-17570643D02*
X8463929Y-17584929D01*
X8449643Y-17599214D01*
X8435357Y-17584929D01*
X8449643Y-17570643D01*
X8449643Y-17599214D01*
X8735357Y-17299214D02*
X8592500Y-17299214D01*
X8578214Y-17442072D01*
X8592500Y-17427786D01*
X8621071Y-17413500D01*
X8692500Y-17413500D01*
X8721071Y-17427786D01*
X8735357Y-17442072D01*
X8749643Y-17470643D01*
X8749643Y-17542072D01*
X8735357Y-17570643D01*
X8721071Y-17584929D01*
X8692500Y-17599214D01*
X8621071Y-17599214D01*
X8592500Y-17584929D01*
X8578214Y-17570643D01*
X8935357Y-17299214D02*
X8963929Y-17299214D01*
X8992500Y-17313500D01*
X9006786Y-17327786D01*
X9021071Y-17356357D01*
X9035357Y-17413500D01*
X9035357Y-17484929D01*
X9021071Y-17542072D01*
X9006786Y-17570643D01*
X8992500Y-17584929D01*
X8963929Y-17599214D01*
X8935357Y-17599214D01*
X8906786Y-17584929D01*
X8892500Y-17570643D01*
X8878214Y-17542072D01*
X8863929Y-17484929D01*
X8863929Y-17413500D01*
X8878214Y-17356357D01*
X8892500Y-17327786D01*
X8906786Y-17313500D01*
X8935357Y-17299214D01*
X9163929Y-17599214D02*
X9163929Y-17399214D01*
X9163929Y-17427786D02*
X9178214Y-17413500D01*
X9206786Y-17399214D01*
X9249643Y-17399214D01*
X9278214Y-17413500D01*
X9292500Y-17442072D01*
X9292500Y-17599214D01*
X9292500Y-17442072D02*
X9306786Y-17413500D01*
X9335357Y-17399214D01*
X9378214Y-17399214D01*
X9406786Y-17413500D01*
X9421071Y-17442072D01*
X9421071Y-17599214D01*
X9563929Y-17599214D02*
X9563929Y-17399214D01*
X9563929Y-17427786D02*
X9578214Y-17413500D01*
X9606786Y-17399214D01*
X9649643Y-17399214D01*
X9678214Y-17413500D01*
X9692500Y-17442072D01*
X9692500Y-17599214D01*
X9692500Y-17442072D02*
X9706786Y-17413500D01*
X9735357Y-17399214D01*
X9778214Y-17399214D01*
X9806786Y-17413500D01*
X9821071Y-17442072D01*
X9821071Y-17599214D01*
X10406786Y-17284929D02*
X10149643Y-17670643D01*
X10792500Y-17299214D02*
X10821071Y-17299214D01*
X10849643Y-17313500D01*
X10863928Y-17327786D01*
X10878214Y-17356357D01*
X10892500Y-17413500D01*
X10892500Y-17484929D01*
X10878214Y-17542072D01*
X10863928Y-17570643D01*
X10849643Y-17584929D01*
X10821071Y-17599214D01*
X10792500Y-17599214D01*
X10763928Y-17584929D01*
X10749643Y-17570643D01*
X10735357Y-17542072D01*
X10721071Y-17484929D01*
X10721071Y-17413500D01*
X10735357Y-17356357D01*
X10749643Y-17327786D01*
X10763928Y-17313500D01*
X10792500Y-17299214D01*
X11021071Y-17570643D02*
X11035357Y-17584929D01*
X11021071Y-17599214D01*
X11006786Y-17584929D01*
X11021071Y-17570643D01*
X11021071Y-17599214D01*
X11221071Y-17299214D02*
X11249643Y-17299214D01*
X11278214Y-17313500D01*
X11292500Y-17327786D01*
X11306785Y-17356357D01*
X11321071Y-17413500D01*
X11321071Y-17484929D01*
X11306785Y-17542072D01*
X11292500Y-17570643D01*
X11278214Y-17584929D01*
X11249643Y-17599214D01*
X11221071Y-17599214D01*
X11192500Y-17584929D01*
X11178214Y-17570643D01*
X11163928Y-17542072D01*
X11149643Y-17484929D01*
X11149643Y-17413500D01*
X11163928Y-17356357D01*
X11178214Y-17327786D01*
X11192500Y-17313500D01*
X11221071Y-17299214D01*
X11435357Y-17327786D02*
X11449643Y-17313500D01*
X11478214Y-17299214D01*
X11549643Y-17299214D01*
X11578214Y-17313500D01*
X11592500Y-17327786D01*
X11606785Y-17356357D01*
X11606785Y-17384929D01*
X11592500Y-17427786D01*
X11421071Y-17599214D01*
X11606785Y-17599214D01*
X11792500Y-17299214D02*
X11821071Y-17299214D01*
X11849643Y-17313500D01*
X11863928Y-17327786D01*
X11878214Y-17356357D01*
X11892500Y-17413500D01*
X11892500Y-17484929D01*
X11878214Y-17542072D01*
X11863928Y-17570643D01*
X11849643Y-17584929D01*
X11821071Y-17599214D01*
X11792500Y-17599214D01*
X11763928Y-17584929D01*
X11749643Y-17570643D01*
X11735357Y-17542072D01*
X11721071Y-17484929D01*
X11721071Y-17413500D01*
X11735357Y-17356357D01*
X11749643Y-17327786D01*
X11763928Y-17313500D01*
X11792500Y-17299214D01*
X12006786Y-17299214D02*
X12006786Y-17356357D01*
X12121071Y-17299214D02*
X12121071Y-17356357D01*
X12563928Y-17713500D02*
X12549643Y-17699214D01*
X12521071Y-17656357D01*
X12506785Y-17627786D01*
X12492500Y-17584929D01*
X12478214Y-17513500D01*
X12478214Y-17456357D01*
X12492500Y-17384929D01*
X12506785Y-17342072D01*
X12521071Y-17313500D01*
X12549643Y-17270643D01*
X12563928Y-17256357D01*
X12835357Y-17599214D02*
X12663928Y-17599214D01*
X12749643Y-17599214D02*
X12749643Y-17299214D01*
X12721071Y-17342072D01*
X12692500Y-17370643D01*
X12663928Y-17384929D01*
X13106785Y-17299214D02*
X12963928Y-17299214D01*
X12949643Y-17442072D01*
X12963928Y-17427786D01*
X12992500Y-17413500D01*
X13063928Y-17413500D01*
X13092500Y-17427786D01*
X13106785Y-17442072D01*
X13121071Y-17470643D01*
X13121071Y-17542072D01*
X13106785Y-17570643D01*
X13092500Y-17584929D01*
X13063928Y-17599214D01*
X12992500Y-17599214D01*
X12963928Y-17584929D01*
X12949643Y-17570643D01*
X13478214Y-17599214D02*
X13478214Y-17299214D01*
X13606785Y-17599214D02*
X13606785Y-17442072D01*
X13592500Y-17413500D01*
X13563928Y-17399214D01*
X13521071Y-17399214D01*
X13492500Y-17413500D01*
X13478214Y-17427786D01*
X13792500Y-17599214D02*
X13763928Y-17584929D01*
X13749643Y-17570643D01*
X13735357Y-17542072D01*
X13735357Y-17456357D01*
X13749643Y-17427786D01*
X13763928Y-17413500D01*
X13792500Y-17399214D01*
X13835357Y-17399214D01*
X13863928Y-17413500D01*
X13878214Y-17427786D01*
X13892500Y-17456357D01*
X13892500Y-17542072D01*
X13878214Y-17570643D01*
X13863928Y-17584929D01*
X13835357Y-17599214D01*
X13792500Y-17599214D01*
X14063928Y-17599214D02*
X14035357Y-17584929D01*
X14021071Y-17556357D01*
X14021071Y-17299214D01*
X14292500Y-17584929D02*
X14263928Y-17599214D01*
X14206786Y-17599214D01*
X14178214Y-17584929D01*
X14163928Y-17556357D01*
X14163928Y-17442072D01*
X14178214Y-17413500D01*
X14206786Y-17399214D01*
X14263928Y-17399214D01*
X14292500Y-17413500D01*
X14306786Y-17442072D01*
X14306786Y-17470643D01*
X14163928Y-17499214D01*
X14421071Y-17584929D02*
X14449643Y-17599214D01*
X14506786Y-17599214D01*
X14535357Y-17584929D01*
X14549643Y-17556357D01*
X14549643Y-17542072D01*
X14535357Y-17513500D01*
X14506786Y-17499214D01*
X14463928Y-17499214D01*
X14435357Y-17484929D01*
X14421071Y-17456357D01*
X14421071Y-17442072D01*
X14435357Y-17413500D01*
X14463928Y-17399214D01*
X14506786Y-17399214D01*
X14535357Y-17413500D01*
X14906786Y-17484929D02*
X15135357Y-17484929D01*
X15021071Y-17599214D02*
X15021071Y-17370643D01*
X15492500Y-17327786D02*
X15506786Y-17313500D01*
X15535357Y-17299214D01*
X15606786Y-17299214D01*
X15635357Y-17313500D01*
X15649643Y-17327786D01*
X15663928Y-17356357D01*
X15663928Y-17384929D01*
X15649643Y-17427786D01*
X15478214Y-17599214D01*
X15663928Y-17599214D01*
X16006786Y-17584929D02*
X16035357Y-17599214D01*
X16092500Y-17599214D01*
X16121071Y-17584929D01*
X16135357Y-17556357D01*
X16135357Y-17542072D01*
X16121071Y-17513500D01*
X16092500Y-17499214D01*
X16049643Y-17499214D01*
X16021071Y-17484929D01*
X16006786Y-17456357D01*
X16006786Y-17442072D01*
X16021071Y-17413500D01*
X16049643Y-17399214D01*
X16092500Y-17399214D01*
X16121071Y-17413500D01*
X16306785Y-17599214D02*
X16278214Y-17584929D01*
X16263928Y-17556357D01*
X16263928Y-17299214D01*
X16463928Y-17599214D02*
X16435357Y-17584929D01*
X16421071Y-17570643D01*
X16406786Y-17542072D01*
X16406786Y-17456357D01*
X16421071Y-17427786D01*
X16435357Y-17413500D01*
X16463928Y-17399214D01*
X16506786Y-17399214D01*
X16535357Y-17413500D01*
X16549643Y-17427786D01*
X16563928Y-17456357D01*
X16563928Y-17542072D01*
X16549643Y-17570643D01*
X16535357Y-17584929D01*
X16506786Y-17599214D01*
X16463928Y-17599214D01*
X16649643Y-17399214D02*
X16763928Y-17399214D01*
X16692500Y-17299214D02*
X16692500Y-17556357D01*
X16706786Y-17584929D01*
X16735357Y-17599214D01*
X16763928Y-17599214D01*
X16849643Y-17584929D02*
X16878214Y-17599214D01*
X16935357Y-17599214D01*
X16963929Y-17584929D01*
X16978214Y-17556357D01*
X16978214Y-17542072D01*
X16963929Y-17513500D01*
X16935357Y-17499214D01*
X16892500Y-17499214D01*
X16863929Y-17484929D01*
X16849643Y-17456357D01*
X16849643Y-17442072D01*
X16863929Y-17413500D01*
X16892500Y-17399214D01*
X16935357Y-17399214D01*
X16963929Y-17413500D01*
X17078214Y-17713500D02*
X17092500Y-17699214D01*
X17121071Y-17656357D01*
X17135357Y-17627786D01*
X17149643Y-17584929D01*
X17163928Y-17513500D01*
X17163928Y-17456357D01*
X17149643Y-17384929D01*
X17135357Y-17342072D01*
X17121071Y-17313500D01*
X17092500Y-17270643D01*
X17078214Y-17256357D01*
X7865000Y-17832000D02*
X7865000Y-17887000D01*
X7837500Y-17859500D02*
X7892500Y-17859500D01*
X8221071Y-17695214D02*
X8249643Y-17695214D01*
X8278214Y-17709500D01*
X8292500Y-17723786D01*
X8306786Y-17752357D01*
X8321071Y-17809500D01*
X8321071Y-17880929D01*
X8306786Y-17938072D01*
X8292500Y-17966643D01*
X8278214Y-17980929D01*
X8249643Y-17995214D01*
X8221071Y-17995214D01*
X8192500Y-17980929D01*
X8178214Y-17966643D01*
X8163928Y-17938072D01*
X8149643Y-17880929D01*
X8149643Y-17809500D01*
X8163928Y-17752357D01*
X8178214Y-17723786D01*
X8192500Y-17709500D01*
X8221071Y-17695214D01*
X8449643Y-17966643D02*
X8463929Y-17980929D01*
X8449643Y-17995214D01*
X8435357Y-17980929D01*
X8449643Y-17966643D01*
X8449643Y-17995214D01*
X8735357Y-17695214D02*
X8592500Y-17695214D01*
X8578214Y-17838072D01*
X8592500Y-17823786D01*
X8621071Y-17809500D01*
X8692500Y-17809500D01*
X8721071Y-17823786D01*
X8735357Y-17838072D01*
X8749643Y-17866643D01*
X8749643Y-17938072D01*
X8735357Y-17966643D01*
X8721071Y-17980929D01*
X8692500Y-17995214D01*
X8621071Y-17995214D01*
X8592500Y-17980929D01*
X8578214Y-17966643D01*
X9021071Y-17695214D02*
X8878214Y-17695214D01*
X8863929Y-17838072D01*
X8878214Y-17823786D01*
X8906786Y-17809500D01*
X8978214Y-17809500D01*
X9006786Y-17823786D01*
X9021071Y-17838072D01*
X9035357Y-17866643D01*
X9035357Y-17938072D01*
X9021071Y-17966643D01*
X9006786Y-17980929D01*
X8978214Y-17995214D01*
X8906786Y-17995214D01*
X8878214Y-17980929D01*
X8863929Y-17966643D01*
X9163929Y-17995214D02*
X9163929Y-17795214D01*
X9163929Y-17823786D02*
X9178214Y-17809500D01*
X9206786Y-17795214D01*
X9249643Y-17795214D01*
X9278214Y-17809500D01*
X9292500Y-17838072D01*
X9292500Y-17995214D01*
X9292500Y-17838072D02*
X9306786Y-17809500D01*
X9335357Y-17795214D01*
X9378214Y-17795214D01*
X9406786Y-17809500D01*
X9421071Y-17838072D01*
X9421071Y-17995214D01*
X9563929Y-17995214D02*
X9563929Y-17795214D01*
X9563929Y-17823786D02*
X9578214Y-17809500D01*
X9606786Y-17795214D01*
X9649643Y-17795214D01*
X9678214Y-17809500D01*
X9692500Y-17838072D01*
X9692500Y-17995214D01*
X9692500Y-17838072D02*
X9706786Y-17809500D01*
X9735357Y-17795214D01*
X9778214Y-17795214D01*
X9806786Y-17809500D01*
X9821071Y-17838072D01*
X9821071Y-17995214D01*
X10406786Y-17680929D02*
X10149643Y-18066643D01*
X10792500Y-17695214D02*
X10821071Y-17695214D01*
X10849643Y-17709500D01*
X10863928Y-17723786D01*
X10878214Y-17752357D01*
X10892500Y-17809500D01*
X10892500Y-17880929D01*
X10878214Y-17938072D01*
X10863928Y-17966643D01*
X10849643Y-17980929D01*
X10821071Y-17995214D01*
X10792500Y-17995214D01*
X10763928Y-17980929D01*
X10749643Y-17966643D01*
X10735357Y-17938072D01*
X10721071Y-17880929D01*
X10721071Y-17809500D01*
X10735357Y-17752357D01*
X10749643Y-17723786D01*
X10763928Y-17709500D01*
X10792500Y-17695214D01*
X11021071Y-17966643D02*
X11035357Y-17980929D01*
X11021071Y-17995214D01*
X11006786Y-17980929D01*
X11021071Y-17966643D01*
X11021071Y-17995214D01*
X11221071Y-17695214D02*
X11249643Y-17695214D01*
X11278214Y-17709500D01*
X11292500Y-17723786D01*
X11306785Y-17752357D01*
X11321071Y-17809500D01*
X11321071Y-17880929D01*
X11306785Y-17938072D01*
X11292500Y-17966643D01*
X11278214Y-17980929D01*
X11249643Y-17995214D01*
X11221071Y-17995214D01*
X11192500Y-17980929D01*
X11178214Y-17966643D01*
X11163928Y-17938072D01*
X11149643Y-17880929D01*
X11149643Y-17809500D01*
X11163928Y-17752357D01*
X11178214Y-17723786D01*
X11192500Y-17709500D01*
X11221071Y-17695214D01*
X11435357Y-17723786D02*
X11449643Y-17709500D01*
X11478214Y-17695214D01*
X11549643Y-17695214D01*
X11578214Y-17709500D01*
X11592500Y-17723786D01*
X11606785Y-17752357D01*
X11606785Y-17780929D01*
X11592500Y-17823786D01*
X11421071Y-17995214D01*
X11606785Y-17995214D01*
X11721071Y-17723786D02*
X11735357Y-17709500D01*
X11763928Y-17695214D01*
X11835357Y-17695214D01*
X11863928Y-17709500D01*
X11878214Y-17723786D01*
X11892500Y-17752357D01*
X11892500Y-17780929D01*
X11878214Y-17823786D01*
X11706785Y-17995214D01*
X11892500Y-17995214D01*
X12006786Y-17695214D02*
X12006786Y-17752357D01*
X12121071Y-17695214D02*
X12121071Y-17752357D01*
X12563928Y-18109500D02*
X12549643Y-18095214D01*
X12521071Y-18052357D01*
X12506785Y-18023786D01*
X12492500Y-17980929D01*
X12478214Y-17909500D01*
X12478214Y-17852357D01*
X12492500Y-17780929D01*
X12506785Y-17738072D01*
X12521071Y-17709500D01*
X12549643Y-17666643D01*
X12563928Y-17652357D01*
X12735357Y-17695214D02*
X12763928Y-17695214D01*
X12792500Y-17709500D01*
X12806785Y-17723786D01*
X12821071Y-17752357D01*
X12835357Y-17809500D01*
X12835357Y-17880929D01*
X12821071Y-17938072D01*
X12806785Y-17966643D01*
X12792500Y-17980929D01*
X12763928Y-17995214D01*
X12735357Y-17995214D01*
X12706785Y-17980929D01*
X12692500Y-17966643D01*
X12678214Y-17938072D01*
X12663928Y-17880929D01*
X12663928Y-17809500D01*
X12678214Y-17752357D01*
X12692500Y-17723786D01*
X12706785Y-17709500D01*
X12735357Y-17695214D01*
X13192500Y-17995214D02*
X13192500Y-17695214D01*
X13321071Y-17995214D02*
X13321071Y-17838072D01*
X13306785Y-17809500D01*
X13278214Y-17795214D01*
X13235357Y-17795214D01*
X13206785Y-17809500D01*
X13192500Y-17823786D01*
X13506785Y-17995214D02*
X13478214Y-17980929D01*
X13463928Y-17966643D01*
X13449643Y-17938072D01*
X13449643Y-17852357D01*
X13463928Y-17823786D01*
X13478214Y-17809500D01*
X13506785Y-17795214D01*
X13549643Y-17795214D01*
X13578214Y-17809500D01*
X13592500Y-17823786D01*
X13606785Y-17852357D01*
X13606785Y-17938072D01*
X13592500Y-17966643D01*
X13578214Y-17980929D01*
X13549643Y-17995214D01*
X13506785Y-17995214D01*
X13778214Y-17995214D02*
X13749643Y-17980929D01*
X13735357Y-17952357D01*
X13735357Y-17695214D01*
X14006786Y-17980929D02*
X13978214Y-17995214D01*
X13921071Y-17995214D01*
X13892500Y-17980929D01*
X13878214Y-17952357D01*
X13878214Y-17838072D01*
X13892500Y-17809500D01*
X13921071Y-17795214D01*
X13978214Y-17795214D01*
X14006786Y-17809500D01*
X14021071Y-17838072D01*
X14021071Y-17866643D01*
X13878214Y-17895214D01*
X14135357Y-17980929D02*
X14163928Y-17995214D01*
X14221071Y-17995214D01*
X14249643Y-17980929D01*
X14263928Y-17952357D01*
X14263928Y-17938072D01*
X14249643Y-17909500D01*
X14221071Y-17895214D01*
X14178214Y-17895214D01*
X14149643Y-17880929D01*
X14135357Y-17852357D01*
X14135357Y-17838072D01*
X14149643Y-17809500D01*
X14178214Y-17795214D01*
X14221071Y-17795214D01*
X14249643Y-17809500D01*
X14621071Y-17880929D02*
X14849643Y-17880929D01*
X14735357Y-17995214D02*
X14735357Y-17766643D01*
X15206786Y-17723786D02*
X15221071Y-17709500D01*
X15249643Y-17695214D01*
X15321071Y-17695214D01*
X15349643Y-17709500D01*
X15363928Y-17723786D01*
X15378214Y-17752357D01*
X15378214Y-17780929D01*
X15363928Y-17823786D01*
X15192500Y-17995214D01*
X15378214Y-17995214D01*
X15721071Y-17980929D02*
X15749643Y-17995214D01*
X15806785Y-17995214D01*
X15835357Y-17980929D01*
X15849643Y-17952357D01*
X15849643Y-17938072D01*
X15835357Y-17909500D01*
X15806785Y-17895214D01*
X15763928Y-17895214D01*
X15735357Y-17880929D01*
X15721071Y-17852357D01*
X15721071Y-17838072D01*
X15735357Y-17809500D01*
X15763928Y-17795214D01*
X15806785Y-17795214D01*
X15835357Y-17809500D01*
X16021071Y-17995214D02*
X15992500Y-17980929D01*
X15978214Y-17952357D01*
X15978214Y-17695214D01*
X16178214Y-17995214D02*
X16149643Y-17980929D01*
X16135357Y-17966643D01*
X16121071Y-17938072D01*
X16121071Y-17852357D01*
X16135357Y-17823786D01*
X16149643Y-17809500D01*
X16178214Y-17795214D01*
X16221071Y-17795214D01*
X16249643Y-17809500D01*
X16263928Y-17823786D01*
X16278214Y-17852357D01*
X16278214Y-17938072D01*
X16263928Y-17966643D01*
X16249643Y-17980929D01*
X16221071Y-17995214D01*
X16178214Y-17995214D01*
X16363928Y-17795214D02*
X16478214Y-17795214D01*
X16406786Y-17695214D02*
X16406786Y-17952357D01*
X16421071Y-17980929D01*
X16449643Y-17995214D01*
X16478214Y-17995214D01*
X16563928Y-17980929D02*
X16592500Y-17995214D01*
X16649643Y-17995214D01*
X16678214Y-17980929D01*
X16692500Y-17952357D01*
X16692500Y-17938072D01*
X16678214Y-17909500D01*
X16649643Y-17895214D01*
X16606786Y-17895214D01*
X16578214Y-17880929D01*
X16563928Y-17852357D01*
X16563928Y-17838072D01*
X16578214Y-17809500D01*
X16606786Y-17795214D01*
X16649643Y-17795214D01*
X16678214Y-17809500D01*
X16792500Y-18109500D02*
X16806786Y-18095214D01*
X16835357Y-18052357D01*
X16849643Y-18023786D01*
X16863928Y-17980929D01*
X16878214Y-17909500D01*
X16878214Y-17852357D01*
X16863928Y-17780929D01*
X16849643Y-17738072D01*
X16835357Y-17709500D01*
X16806786Y-17666643D01*
X16792500Y-17652357D01*
X7877856Y-18290856D02*
X7877856Y-18220144D01*
X7807144Y-18220144D01*
X7807144Y-18290856D01*
X7877856Y-18290856D01*
X8321071Y-18391214D02*
X8149643Y-18391214D01*
X8235357Y-18391214D02*
X8235357Y-18091214D01*
X8206786Y-18134072D01*
X8178214Y-18162643D01*
X8149643Y-18176929D01*
X8449643Y-18362643D02*
X8463929Y-18376929D01*
X8449643Y-18391214D01*
X8435357Y-18376929D01*
X8449643Y-18362643D01*
X8449643Y-18391214D01*
X8649643Y-18091214D02*
X8678214Y-18091214D01*
X8706786Y-18105500D01*
X8721071Y-18119786D01*
X8735357Y-18148357D01*
X8749643Y-18205500D01*
X8749643Y-18276929D01*
X8735357Y-18334072D01*
X8721071Y-18362643D01*
X8706786Y-18376929D01*
X8678214Y-18391214D01*
X8649643Y-18391214D01*
X8621071Y-18376929D01*
X8606786Y-18362643D01*
X8592500Y-18334072D01*
X8578214Y-18276929D01*
X8578214Y-18205500D01*
X8592500Y-18148357D01*
X8606786Y-18119786D01*
X8621071Y-18105500D01*
X8649643Y-18091214D01*
X8935357Y-18091214D02*
X8963929Y-18091214D01*
X8992500Y-18105500D01*
X9006786Y-18119786D01*
X9021071Y-18148357D01*
X9035357Y-18205500D01*
X9035357Y-18276929D01*
X9021071Y-18334072D01*
X9006786Y-18362643D01*
X8992500Y-18376929D01*
X8963929Y-18391214D01*
X8935357Y-18391214D01*
X8906786Y-18376929D01*
X8892500Y-18362643D01*
X8878214Y-18334072D01*
X8863929Y-18276929D01*
X8863929Y-18205500D01*
X8878214Y-18148357D01*
X8892500Y-18119786D01*
X8906786Y-18105500D01*
X8935357Y-18091214D01*
X9163929Y-18391214D02*
X9163929Y-18191214D01*
X9163929Y-18219786D02*
X9178214Y-18205500D01*
X9206786Y-18191214D01*
X9249643Y-18191214D01*
X9278214Y-18205500D01*
X9292500Y-18234072D01*
X9292500Y-18391214D01*
X9292500Y-18234072D02*
X9306786Y-18205500D01*
X9335357Y-18191214D01*
X9378214Y-18191214D01*
X9406786Y-18205500D01*
X9421071Y-18234072D01*
X9421071Y-18391214D01*
X9563929Y-18391214D02*
X9563929Y-18191214D01*
X9563929Y-18219786D02*
X9578214Y-18205500D01*
X9606786Y-18191214D01*
X9649643Y-18191214D01*
X9678214Y-18205500D01*
X9692500Y-18234072D01*
X9692500Y-18391214D01*
X9692500Y-18234072D02*
X9706786Y-18205500D01*
X9735357Y-18191214D01*
X9778214Y-18191214D01*
X9806786Y-18205500D01*
X9821071Y-18234072D01*
X9821071Y-18391214D01*
X10406786Y-18076929D02*
X10149643Y-18462643D01*
X10792500Y-18091214D02*
X10821071Y-18091214D01*
X10849643Y-18105500D01*
X10863928Y-18119786D01*
X10878214Y-18148357D01*
X10892500Y-18205500D01*
X10892500Y-18276929D01*
X10878214Y-18334072D01*
X10863928Y-18362643D01*
X10849643Y-18376929D01*
X10821071Y-18391214D01*
X10792500Y-18391214D01*
X10763928Y-18376929D01*
X10749643Y-18362643D01*
X10735357Y-18334072D01*
X10721071Y-18276929D01*
X10721071Y-18205500D01*
X10735357Y-18148357D01*
X10749643Y-18119786D01*
X10763928Y-18105500D01*
X10792500Y-18091214D01*
X11021071Y-18362643D02*
X11035357Y-18376929D01*
X11021071Y-18391214D01*
X11006786Y-18376929D01*
X11021071Y-18362643D01*
X11021071Y-18391214D01*
X11221071Y-18091214D02*
X11249643Y-18091214D01*
X11278214Y-18105500D01*
X11292500Y-18119786D01*
X11306785Y-18148357D01*
X11321071Y-18205500D01*
X11321071Y-18276929D01*
X11306785Y-18334072D01*
X11292500Y-18362643D01*
X11278214Y-18376929D01*
X11249643Y-18391214D01*
X11221071Y-18391214D01*
X11192500Y-18376929D01*
X11178214Y-18362643D01*
X11163928Y-18334072D01*
X11149643Y-18276929D01*
X11149643Y-18205500D01*
X11163928Y-18148357D01*
X11178214Y-18119786D01*
X11192500Y-18105500D01*
X11221071Y-18091214D01*
X11421071Y-18091214D02*
X11606785Y-18091214D01*
X11506785Y-18205500D01*
X11549643Y-18205500D01*
X11578214Y-18219786D01*
X11592500Y-18234072D01*
X11606785Y-18262643D01*
X11606785Y-18334072D01*
X11592500Y-18362643D01*
X11578214Y-18376929D01*
X11549643Y-18391214D01*
X11463928Y-18391214D01*
X11435357Y-18376929D01*
X11421071Y-18362643D01*
X11749643Y-18391214D02*
X11806785Y-18391214D01*
X11835357Y-18376929D01*
X11849643Y-18362643D01*
X11878214Y-18319786D01*
X11892500Y-18262643D01*
X11892500Y-18148357D01*
X11878214Y-18119786D01*
X11863928Y-18105500D01*
X11835357Y-18091214D01*
X11778214Y-18091214D01*
X11749643Y-18105500D01*
X11735357Y-18119786D01*
X11721071Y-18148357D01*
X11721071Y-18219786D01*
X11735357Y-18248357D01*
X11749643Y-18262643D01*
X11778214Y-18276929D01*
X11835357Y-18276929D01*
X11863928Y-18262643D01*
X11878214Y-18248357D01*
X11892500Y-18219786D01*
X12006786Y-18091214D02*
X12006786Y-18148357D01*
X12121071Y-18091214D02*
X12121071Y-18148357D01*
X12563928Y-18505500D02*
X12549643Y-18491214D01*
X12521071Y-18448357D01*
X12506785Y-18419786D01*
X12492500Y-18376929D01*
X12478214Y-18305500D01*
X12478214Y-18248357D01*
X12492500Y-18176929D01*
X12506785Y-18134072D01*
X12521071Y-18105500D01*
X12549643Y-18062643D01*
X12563928Y-18048357D01*
X12663928Y-18119786D02*
X12678214Y-18105500D01*
X12706785Y-18091214D01*
X12778214Y-18091214D01*
X12806785Y-18105500D01*
X12821071Y-18119786D01*
X12835357Y-18148357D01*
X12835357Y-18176929D01*
X12821071Y-18219786D01*
X12649643Y-18391214D01*
X12835357Y-18391214D01*
X12949643Y-18119786D02*
X12963928Y-18105500D01*
X12992500Y-18091214D01*
X13063928Y-18091214D01*
X13092500Y-18105500D01*
X13106785Y-18119786D01*
X13121071Y-18148357D01*
X13121071Y-18176929D01*
X13106785Y-18219786D01*
X12935357Y-18391214D01*
X13121071Y-18391214D01*
X13478214Y-18391214D02*
X13478214Y-18091214D01*
X13606785Y-18391214D02*
X13606785Y-18234072D01*
X13592500Y-18205500D01*
X13563928Y-18191214D01*
X13521071Y-18191214D01*
X13492500Y-18205500D01*
X13478214Y-18219786D01*
X13792500Y-18391214D02*
X13763928Y-18376929D01*
X13749643Y-18362643D01*
X13735357Y-18334072D01*
X13735357Y-18248357D01*
X13749643Y-18219786D01*
X13763928Y-18205500D01*
X13792500Y-18191214D01*
X13835357Y-18191214D01*
X13863928Y-18205500D01*
X13878214Y-18219786D01*
X13892500Y-18248357D01*
X13892500Y-18334072D01*
X13878214Y-18362643D01*
X13863928Y-18376929D01*
X13835357Y-18391214D01*
X13792500Y-18391214D01*
X14063928Y-18391214D02*
X14035357Y-18376929D01*
X14021071Y-18348357D01*
X14021071Y-18091214D01*
X14292500Y-18376929D02*
X14263928Y-18391214D01*
X14206786Y-18391214D01*
X14178214Y-18376929D01*
X14163928Y-18348357D01*
X14163928Y-18234072D01*
X14178214Y-18205500D01*
X14206786Y-18191214D01*
X14263928Y-18191214D01*
X14292500Y-18205500D01*
X14306786Y-18234072D01*
X14306786Y-18262643D01*
X14163928Y-18291214D01*
X14421071Y-18376929D02*
X14449643Y-18391214D01*
X14506786Y-18391214D01*
X14535357Y-18376929D01*
X14549643Y-18348357D01*
X14549643Y-18334072D01*
X14535357Y-18305500D01*
X14506786Y-18291214D01*
X14463928Y-18291214D01*
X14435357Y-18276929D01*
X14421071Y-18248357D01*
X14421071Y-18234072D01*
X14435357Y-18205500D01*
X14463928Y-18191214D01*
X14506786Y-18191214D01*
X14535357Y-18205500D01*
X14649643Y-18505500D02*
X14663928Y-18491214D01*
X14692500Y-18448357D01*
X14706786Y-18419786D01*
X14721071Y-18376929D01*
X14735357Y-18305500D01*
X14735357Y-18248357D01*
X14721071Y-18176929D01*
X14706786Y-18134072D01*
X14692500Y-18105500D01*
X14663928Y-18062643D01*
X14649643Y-18048357D01*
X7837500Y-18706500D02*
X7892500Y-18651500D01*
X7837500Y-18596500D01*
X7782500Y-18651500D01*
X7837500Y-18706500D01*
X8321071Y-18787214D02*
X8149643Y-18787214D01*
X8235357Y-18787214D02*
X8235357Y-18487214D01*
X8206786Y-18530072D01*
X8178214Y-18558643D01*
X8149643Y-18572929D01*
X8449643Y-18758643D02*
X8463929Y-18772929D01*
X8449643Y-18787214D01*
X8435357Y-18772929D01*
X8449643Y-18758643D01*
X8449643Y-18787214D01*
X8749643Y-18787214D02*
X8578214Y-18787214D01*
X8663928Y-18787214D02*
X8663928Y-18487214D01*
X8635357Y-18530072D01*
X8606786Y-18558643D01*
X8578214Y-18572929D01*
X8935357Y-18487214D02*
X8963929Y-18487214D01*
X8992500Y-18501500D01*
X9006786Y-18515786D01*
X9021071Y-18544357D01*
X9035357Y-18601500D01*
X9035357Y-18672929D01*
X9021071Y-18730072D01*
X9006786Y-18758643D01*
X8992500Y-18772929D01*
X8963929Y-18787214D01*
X8935357Y-18787214D01*
X8906786Y-18772929D01*
X8892500Y-18758643D01*
X8878214Y-18730072D01*
X8863929Y-18672929D01*
X8863929Y-18601500D01*
X8878214Y-18544357D01*
X8892500Y-18515786D01*
X8906786Y-18501500D01*
X8935357Y-18487214D01*
X9163929Y-18787214D02*
X9163929Y-18587214D01*
X9163929Y-18615786D02*
X9178214Y-18601500D01*
X9206786Y-18587214D01*
X9249643Y-18587214D01*
X9278214Y-18601500D01*
X9292500Y-18630072D01*
X9292500Y-18787214D01*
X9292500Y-18630072D02*
X9306786Y-18601500D01*
X9335357Y-18587214D01*
X9378214Y-18587214D01*
X9406786Y-18601500D01*
X9421071Y-18630072D01*
X9421071Y-18787214D01*
X9563929Y-18787214D02*
X9563929Y-18587214D01*
X9563929Y-18615786D02*
X9578214Y-18601500D01*
X9606786Y-18587214D01*
X9649643Y-18587214D01*
X9678214Y-18601500D01*
X9692500Y-18630072D01*
X9692500Y-18787214D01*
X9692500Y-18630072D02*
X9706786Y-18601500D01*
X9735357Y-18587214D01*
X9778214Y-18587214D01*
X9806786Y-18601500D01*
X9821071Y-18630072D01*
X9821071Y-18787214D01*
X10406786Y-18472929D02*
X10149643Y-18858643D01*
X10792500Y-18487214D02*
X10821071Y-18487214D01*
X10849643Y-18501500D01*
X10863928Y-18515786D01*
X10878214Y-18544357D01*
X10892500Y-18601500D01*
X10892500Y-18672929D01*
X10878214Y-18730072D01*
X10863928Y-18758643D01*
X10849643Y-18772929D01*
X10821071Y-18787214D01*
X10792500Y-18787214D01*
X10763928Y-18772929D01*
X10749643Y-18758643D01*
X10735357Y-18730072D01*
X10721071Y-18672929D01*
X10721071Y-18601500D01*
X10735357Y-18544357D01*
X10749643Y-18515786D01*
X10763928Y-18501500D01*
X10792500Y-18487214D01*
X11021071Y-18758643D02*
X11035357Y-18772929D01*
X11021071Y-18787214D01*
X11006786Y-18772929D01*
X11021071Y-18758643D01*
X11021071Y-18787214D01*
X11221071Y-18487214D02*
X11249643Y-18487214D01*
X11278214Y-18501500D01*
X11292500Y-18515786D01*
X11306785Y-18544357D01*
X11321071Y-18601500D01*
X11321071Y-18672929D01*
X11306785Y-18730072D01*
X11292500Y-18758643D01*
X11278214Y-18772929D01*
X11249643Y-18787214D01*
X11221071Y-18787214D01*
X11192500Y-18772929D01*
X11178214Y-18758643D01*
X11163928Y-18730072D01*
X11149643Y-18672929D01*
X11149643Y-18601500D01*
X11163928Y-18544357D01*
X11178214Y-18515786D01*
X11192500Y-18501500D01*
X11221071Y-18487214D01*
X11578214Y-18587214D02*
X11578214Y-18787214D01*
X11506785Y-18472929D02*
X11435357Y-18687214D01*
X11621071Y-18687214D01*
X11706785Y-18487214D02*
X11892500Y-18487214D01*
X11792500Y-18601500D01*
X11835357Y-18601500D01*
X11863928Y-18615786D01*
X11878214Y-18630072D01*
X11892500Y-18658643D01*
X11892500Y-18730072D01*
X11878214Y-18758643D01*
X11863928Y-18772929D01*
X11835357Y-18787214D01*
X11749643Y-18787214D01*
X11721071Y-18772929D01*
X11706785Y-18758643D01*
X12006786Y-18487214D02*
X12006786Y-18544357D01*
X12121071Y-18487214D02*
X12121071Y-18544357D01*
X12563928Y-18901500D02*
X12549643Y-18887214D01*
X12521071Y-18844357D01*
X12506785Y-18815786D01*
X12492500Y-18772929D01*
X12478214Y-18701500D01*
X12478214Y-18644357D01*
X12492500Y-18572929D01*
X12506785Y-18530072D01*
X12521071Y-18501500D01*
X12549643Y-18458643D01*
X12563928Y-18444357D01*
X12806785Y-18587214D02*
X12806785Y-18787214D01*
X12735357Y-18472929D02*
X12663928Y-18687214D01*
X12849643Y-18687214D01*
X13192500Y-18787214D02*
X13192500Y-18487214D01*
X13321071Y-18787214D02*
X13321071Y-18630072D01*
X13306785Y-18601500D01*
X13278214Y-18587214D01*
X13235357Y-18587214D01*
X13206785Y-18601500D01*
X13192500Y-18615786D01*
X13506785Y-18787214D02*
X13478214Y-18772929D01*
X13463928Y-18758643D01*
X13449643Y-18730072D01*
X13449643Y-18644357D01*
X13463928Y-18615786D01*
X13478214Y-18601500D01*
X13506785Y-18587214D01*
X13549643Y-18587214D01*
X13578214Y-18601500D01*
X13592500Y-18615786D01*
X13606785Y-18644357D01*
X13606785Y-18730072D01*
X13592500Y-18758643D01*
X13578214Y-18772929D01*
X13549643Y-18787214D01*
X13506785Y-18787214D01*
X13778214Y-18787214D02*
X13749643Y-18772929D01*
X13735357Y-18744357D01*
X13735357Y-18487214D01*
X14006786Y-18772929D02*
X13978214Y-18787214D01*
X13921071Y-18787214D01*
X13892500Y-18772929D01*
X13878214Y-18744357D01*
X13878214Y-18630072D01*
X13892500Y-18601500D01*
X13921071Y-18587214D01*
X13978214Y-18587214D01*
X14006786Y-18601500D01*
X14021071Y-18630072D01*
X14021071Y-18658643D01*
X13878214Y-18687214D01*
X14135357Y-18772929D02*
X14163928Y-18787214D01*
X14221071Y-18787214D01*
X14249643Y-18772929D01*
X14263928Y-18744357D01*
X14263928Y-18730072D01*
X14249643Y-18701500D01*
X14221071Y-18687214D01*
X14178214Y-18687214D01*
X14149643Y-18672929D01*
X14135357Y-18644357D01*
X14135357Y-18630072D01*
X14149643Y-18601500D01*
X14178214Y-18587214D01*
X14221071Y-18587214D01*
X14249643Y-18601500D01*
X14363928Y-18901500D02*
X14378214Y-18887214D01*
X14406786Y-18844357D01*
X14421071Y-18815786D01*
X14435357Y-18772929D01*
X14449643Y-18701500D01*
X14449643Y-18644357D01*
X14435357Y-18572929D01*
X14421071Y-18530072D01*
X14406786Y-18501500D01*
X14378214Y-18458643D01*
X14363928Y-18444357D01*
X7762500Y-18982500D02*
X7892500Y-19112500D01*
X7892500Y-18982500D02*
X7762500Y-19112500D01*
X7892500Y-19047500D02*
G75*
G03X7892500Y-19047500I-65000J0D01*
G01*
X8321071Y-19183214D02*
X8149643Y-19183214D01*
X8235357Y-19183214D02*
X8235357Y-18883214D01*
X8206786Y-18926072D01*
X8178214Y-18954643D01*
X8149643Y-18968929D01*
X8449643Y-19154643D02*
X8463929Y-19168929D01*
X8449643Y-19183214D01*
X8435357Y-19168929D01*
X8449643Y-19154643D01*
X8449643Y-19183214D01*
X8563928Y-18883214D02*
X8749643Y-18883214D01*
X8649643Y-18997500D01*
X8692500Y-18997500D01*
X8721071Y-19011786D01*
X8735357Y-19026072D01*
X8749643Y-19054643D01*
X8749643Y-19126072D01*
X8735357Y-19154643D01*
X8721071Y-19168929D01*
X8692500Y-19183214D01*
X8606786Y-19183214D01*
X8578214Y-19168929D01*
X8563928Y-19154643D01*
X8935357Y-18883214D02*
X8963929Y-18883214D01*
X8992500Y-18897500D01*
X9006786Y-18911786D01*
X9021071Y-18940357D01*
X9035357Y-18997500D01*
X9035357Y-19068929D01*
X9021071Y-19126072D01*
X9006786Y-19154643D01*
X8992500Y-19168929D01*
X8963929Y-19183214D01*
X8935357Y-19183214D01*
X8906786Y-19168929D01*
X8892500Y-19154643D01*
X8878214Y-19126072D01*
X8863929Y-19068929D01*
X8863929Y-18997500D01*
X8878214Y-18940357D01*
X8892500Y-18911786D01*
X8906786Y-18897500D01*
X8935357Y-18883214D01*
X9163929Y-19183214D02*
X9163929Y-18983214D01*
X9163929Y-19011786D02*
X9178214Y-18997500D01*
X9206786Y-18983214D01*
X9249643Y-18983214D01*
X9278214Y-18997500D01*
X9292500Y-19026072D01*
X9292500Y-19183214D01*
X9292500Y-19026072D02*
X9306786Y-18997500D01*
X9335357Y-18983214D01*
X9378214Y-18983214D01*
X9406786Y-18997500D01*
X9421071Y-19026072D01*
X9421071Y-19183214D01*
X9563929Y-19183214D02*
X9563929Y-18983214D01*
X9563929Y-19011786D02*
X9578214Y-18997500D01*
X9606786Y-18983214D01*
X9649643Y-18983214D01*
X9678214Y-18997500D01*
X9692500Y-19026072D01*
X9692500Y-19183214D01*
X9692500Y-19026072D02*
X9706786Y-18997500D01*
X9735357Y-18983214D01*
X9778214Y-18983214D01*
X9806786Y-18997500D01*
X9821071Y-19026072D01*
X9821071Y-19183214D01*
X10406786Y-18868929D02*
X10149643Y-19254643D01*
X10792500Y-18883214D02*
X10821071Y-18883214D01*
X10849643Y-18897500D01*
X10863928Y-18911786D01*
X10878214Y-18940357D01*
X10892500Y-18997500D01*
X10892500Y-19068929D01*
X10878214Y-19126072D01*
X10863928Y-19154643D01*
X10849643Y-19168929D01*
X10821071Y-19183214D01*
X10792500Y-19183214D01*
X10763928Y-19168929D01*
X10749643Y-19154643D01*
X10735357Y-19126072D01*
X10721071Y-19068929D01*
X10721071Y-18997500D01*
X10735357Y-18940357D01*
X10749643Y-18911786D01*
X10763928Y-18897500D01*
X10792500Y-18883214D01*
X11021071Y-19154643D02*
X11035357Y-19168929D01*
X11021071Y-19183214D01*
X11006786Y-19168929D01*
X11021071Y-19154643D01*
X11021071Y-19183214D01*
X11221071Y-18883214D02*
X11249643Y-18883214D01*
X11278214Y-18897500D01*
X11292500Y-18911786D01*
X11306785Y-18940357D01*
X11321071Y-18997500D01*
X11321071Y-19068929D01*
X11306785Y-19126072D01*
X11292500Y-19154643D01*
X11278214Y-19168929D01*
X11249643Y-19183214D01*
X11221071Y-19183214D01*
X11192500Y-19168929D01*
X11178214Y-19154643D01*
X11163928Y-19126072D01*
X11149643Y-19068929D01*
X11149643Y-18997500D01*
X11163928Y-18940357D01*
X11178214Y-18911786D01*
X11192500Y-18897500D01*
X11221071Y-18883214D01*
X11592500Y-18883214D02*
X11449643Y-18883214D01*
X11435357Y-19026072D01*
X11449643Y-19011786D01*
X11478214Y-18997500D01*
X11549643Y-18997500D01*
X11578214Y-19011786D01*
X11592500Y-19026072D01*
X11606785Y-19054643D01*
X11606785Y-19126072D01*
X11592500Y-19154643D01*
X11578214Y-19168929D01*
X11549643Y-19183214D01*
X11478214Y-19183214D01*
X11449643Y-19168929D01*
X11435357Y-19154643D01*
X11892500Y-19183214D02*
X11721071Y-19183214D01*
X11806785Y-19183214D02*
X11806785Y-18883214D01*
X11778214Y-18926072D01*
X11749643Y-18954643D01*
X11721071Y-18968929D01*
X12006786Y-18883214D02*
X12006786Y-18940357D01*
X12121071Y-18883214D02*
X12121071Y-18940357D01*
X12563928Y-19297500D02*
X12549643Y-19283214D01*
X12521071Y-19240357D01*
X12506785Y-19211786D01*
X12492500Y-19168929D01*
X12478214Y-19097500D01*
X12478214Y-19040357D01*
X12492500Y-18968929D01*
X12506785Y-18926072D01*
X12521071Y-18897500D01*
X12549643Y-18854643D01*
X12563928Y-18840357D01*
X12649643Y-18883214D02*
X12849643Y-18883214D01*
X12721071Y-19183214D01*
X13192500Y-19183214D02*
X13192500Y-18883214D01*
X13321071Y-19183214D02*
X13321071Y-19026072D01*
X13306785Y-18997500D01*
X13278214Y-18983214D01*
X13235357Y-18983214D01*
X13206785Y-18997500D01*
X13192500Y-19011786D01*
X13506785Y-19183214D02*
X13478214Y-19168929D01*
X13463928Y-19154643D01*
X13449643Y-19126072D01*
X13449643Y-19040357D01*
X13463928Y-19011786D01*
X13478214Y-18997500D01*
X13506785Y-18983214D01*
X13549643Y-18983214D01*
X13578214Y-18997500D01*
X13592500Y-19011786D01*
X13606785Y-19040357D01*
X13606785Y-19126072D01*
X13592500Y-19154643D01*
X13578214Y-19168929D01*
X13549643Y-19183214D01*
X13506785Y-19183214D01*
X13778214Y-19183214D02*
X13749643Y-19168929D01*
X13735357Y-19140357D01*
X13735357Y-18883214D01*
X14006786Y-19168929D02*
X13978214Y-19183214D01*
X13921071Y-19183214D01*
X13892500Y-19168929D01*
X13878214Y-19140357D01*
X13878214Y-19026072D01*
X13892500Y-18997500D01*
X13921071Y-18983214D01*
X13978214Y-18983214D01*
X14006786Y-18997500D01*
X14021071Y-19026072D01*
X14021071Y-19054643D01*
X13878214Y-19083214D01*
X14135357Y-19168929D02*
X14163928Y-19183214D01*
X14221071Y-19183214D01*
X14249643Y-19168929D01*
X14263928Y-19140357D01*
X14263928Y-19126072D01*
X14249643Y-19097500D01*
X14221071Y-19083214D01*
X14178214Y-19083214D01*
X14149643Y-19068929D01*
X14135357Y-19040357D01*
X14135357Y-19026072D01*
X14149643Y-18997500D01*
X14178214Y-18983214D01*
X14221071Y-18983214D01*
X14249643Y-18997500D01*
X14363928Y-19297500D02*
X14378214Y-19283214D01*
X14406786Y-19240357D01*
X14421071Y-19211786D01*
X14435357Y-19168929D01*
X14449643Y-19097500D01*
X14449643Y-19040357D01*
X14435357Y-18968929D01*
X14421071Y-18926072D01*
X14406786Y-18897500D01*
X14378214Y-18854643D01*
X14363928Y-18840357D01*
M02*
