G04 #@! TF.FileFunction,Soldermask,Top*
%FSLAX46Y46*%
G04 Gerber Fmt 4.6, Leading zero omitted, Abs format (unit mm)*
G04 Created by KiCad (PCBNEW 4.0.7-e1-6374~58~ubuntu16.04.1) date Sat Aug  5 03:05:00 2017*
%MOMM*%
%LPD*%
G01*
G04 APERTURE LIST*
%ADD10C,0.100000*%
%ADD11R,2.100000X2.100000*%
%ADD12O,2.100000X2.100000*%
%ADD13R,0.950000X1.900000*%
%ADD14R,1.900000X0.950000*%
%ADD15R,1.600000X1.150000*%
%ADD16R,1.150000X1.600000*%
%ADD17O,0.990000X1.650000*%
%ADD18R,1.600000X1.650000*%
%ADD19O,1.350000X1.050000*%
%ADD20R,0.500000X1.450000*%
%ADD21R,1.300000X1.600000*%
%ADD22R,1.700000X1.900000*%
%ADD23R,1.700000X1.700000*%
%ADD24R,2.400000X1.700000*%
%ADD25C,2.600000*%
%ADD26R,2.600000X2.600000*%
%ADD27R,1.600000X1.300000*%
%ADD28C,2.400000*%
%ADD29R,2.800000X3.900000*%
G04 APERTURE END LIST*
D10*
D11*
X90000000Y-90000000D03*
D12*
X92540000Y-90000000D03*
X95080000Y-90000000D03*
X97620000Y-90000000D03*
X100160000Y-90000000D03*
X102700000Y-90000000D03*
X105240000Y-90000000D03*
X107780000Y-90000000D03*
X110320000Y-90000000D03*
X112860000Y-90000000D03*
X115400000Y-90000000D03*
X117940000Y-90000000D03*
X120480000Y-90000000D03*
X123020000Y-90000000D03*
X125560000Y-90000000D03*
X128100000Y-90000000D03*
D11*
X95000000Y-157000000D03*
D12*
X92460000Y-157000000D03*
X95000000Y-154460000D03*
X92460000Y-154460000D03*
X95000000Y-151920000D03*
X92460000Y-151920000D03*
D13*
X127700000Y-145850000D03*
X128500000Y-145850000D03*
X129300000Y-145850000D03*
X130100000Y-145850000D03*
X130900000Y-145850000D03*
X131700000Y-145850000D03*
X132500000Y-145850000D03*
X133300000Y-145850000D03*
X134100000Y-145850000D03*
X134900000Y-145850000D03*
X135700000Y-145850000D03*
D14*
X137400000Y-144150000D03*
X137400000Y-143350000D03*
X137400000Y-142550000D03*
X137400000Y-141750000D03*
X137400000Y-140950000D03*
X137400000Y-140150000D03*
X137400000Y-139350000D03*
X137400000Y-138550000D03*
X137400000Y-137750000D03*
X137400000Y-136950000D03*
X137400000Y-136150000D03*
D13*
X135700000Y-134450000D03*
X134900000Y-134450000D03*
X134100000Y-134450000D03*
X133300000Y-134450000D03*
X132500000Y-134450000D03*
X131700000Y-134450000D03*
X130900000Y-134450000D03*
X130100000Y-134450000D03*
X129300000Y-134450000D03*
X128500000Y-134450000D03*
X127700000Y-134450000D03*
D14*
X126000000Y-136150000D03*
X126000000Y-136950000D03*
X126000000Y-137750000D03*
X126000000Y-138550000D03*
X126000000Y-139350000D03*
X126000000Y-140150000D03*
X126000000Y-140950000D03*
X126000000Y-141750000D03*
X126000000Y-142550000D03*
X126000000Y-143350000D03*
X126000000Y-144150000D03*
D15*
X123800000Y-142550000D03*
X121900000Y-142550000D03*
D16*
X146900000Y-143150000D03*
X146900000Y-141250000D03*
X146900000Y-137950000D03*
X146900000Y-136050000D03*
D15*
X133900000Y-149400000D03*
X135800000Y-149400000D03*
D17*
X133500000Y-159550000D03*
D18*
X131000000Y-159550000D03*
D19*
X132500000Y-156850000D03*
D17*
X126500000Y-159550000D03*
D18*
X129000000Y-159550000D03*
D20*
X128700000Y-156850000D03*
X129350000Y-156850000D03*
X130000000Y-156850000D03*
X130650000Y-156850000D03*
X131300000Y-156850000D03*
D19*
X127500000Y-156850000D03*
D21*
X117050000Y-148050000D03*
X117050000Y-145850000D03*
D22*
X130750000Y-152900000D03*
X130750000Y-150200000D03*
X128650000Y-152900000D03*
X128650000Y-150200000D03*
D23*
X86150000Y-157750000D03*
D24*
X85000000Y-152250000D03*
D23*
X83850000Y-157750000D03*
D25*
X160000000Y-150000000D03*
X156000000Y-150000000D03*
X152000000Y-150000000D03*
X170500000Y-150000000D03*
X166500000Y-150000000D03*
D26*
X148000000Y-150000000D03*
D25*
X174500000Y-150000000D03*
D21*
X119350000Y-154350000D03*
X116050000Y-154350000D03*
X119350000Y-151350000D03*
X122650000Y-151350000D03*
D27*
X124300000Y-154550000D03*
X126500000Y-154550000D03*
D28*
X110450000Y-151900000D03*
X110450000Y-156400000D03*
X103950000Y-151900000D03*
X103950000Y-156400000D03*
D15*
X139250000Y-127700000D03*
X141150000Y-127700000D03*
X139250000Y-132100000D03*
X141150000Y-132100000D03*
X123800000Y-146650000D03*
X121900000Y-146650000D03*
D21*
X110450000Y-145850000D03*
X110450000Y-148050000D03*
D29*
X142950000Y-143150000D03*
X142950000Y-137950000D03*
M02*
