G04 #@! TF.FileFunction,Copper,L2,Bot,Mixed*
%FSLAX46Y46*%
G04 Gerber Fmt 4.6, Leading zero omitted, Abs format (unit mm)*
G04 Created by KiCad (PCBNEW 4.0.7-e1-6374~58~ubuntu16.04.1) date Mon Aug  7 18:57:22 2017*
%MOMM*%
%LPD*%
G01*
G04 APERTURE LIST*
%ADD10C,0.100000*%
%ADD11R,1.700000X1.700000*%
%ADD12O,1.700000X1.700000*%
%ADD13O,0.890000X1.550000*%
%ADD14O,1.250000X0.950000*%
%ADD15C,2.200000*%
%ADD16R,2.200000X2.200000*%
%ADD17C,2.000000*%
%ADD18C,0.600000*%
%ADD19C,0.250000*%
%ADD20C,0.254000*%
G04 APERTURE END LIST*
D10*
D11*
X90000000Y-90000000D03*
D12*
X92540000Y-90000000D03*
X95080000Y-90000000D03*
X97620000Y-90000000D03*
X100160000Y-90000000D03*
X102700000Y-90000000D03*
X105240000Y-90000000D03*
X107780000Y-90000000D03*
X110320000Y-90000000D03*
X112860000Y-90000000D03*
X115400000Y-90000000D03*
X117940000Y-90000000D03*
X120480000Y-90000000D03*
X123020000Y-90000000D03*
X125560000Y-90000000D03*
X128100000Y-90000000D03*
D11*
X120200000Y-153200000D03*
D12*
X120200000Y-155740000D03*
X117660000Y-153200000D03*
X117660000Y-155740000D03*
X115120000Y-153200000D03*
X115120000Y-155740000D03*
D13*
X106550000Y-159550000D03*
D14*
X105550000Y-156850000D03*
D13*
X99550000Y-159550000D03*
D14*
X100550000Y-156850000D03*
D15*
X158500000Y-150100000D03*
X154500000Y-150100000D03*
X150500000Y-150100000D03*
X169000000Y-150100000D03*
X165000000Y-150100000D03*
D16*
X146500000Y-150100000D03*
D15*
X173000000Y-150100000D03*
D17*
X128450000Y-150900000D03*
X132950000Y-150900000D03*
X128450000Y-157400000D03*
X132950000Y-157400000D03*
D18*
X105700000Y-153150000D03*
X109000000Y-141750000D03*
X103950000Y-144550000D03*
X103950000Y-147300000D03*
X93550000Y-142550000D03*
X93550000Y-146650000D03*
X98800000Y-134450000D03*
X87700000Y-157750000D03*
X100800000Y-159550000D03*
X104350000Y-155500000D03*
X97450000Y-136700000D03*
X121500000Y-136750000D03*
X105300000Y-159550000D03*
X109800000Y-134450000D03*
X97300000Y-144000000D03*
X112000000Y-141750000D03*
X109700000Y-150250000D03*
X111300000Y-150250000D03*
X118750000Y-144750000D03*
X117050000Y-145700000D03*
X115100000Y-149600000D03*
X115100000Y-147700000D03*
X115100000Y-145700000D03*
X112400000Y-125800000D03*
X106250000Y-119650000D03*
X106150000Y-123250000D03*
X110850000Y-128000000D03*
X106250000Y-121400000D03*
X111450000Y-126600000D03*
X147850000Y-129800000D03*
X147850000Y-126600000D03*
D19*
X111300000Y-150250000D02*
X109700000Y-150250000D01*
X117800000Y-145700000D02*
X117050000Y-145700000D01*
X118750000Y-144750000D02*
X117800000Y-145700000D01*
X115120000Y-153200000D02*
X115120000Y-149620000D01*
X115120000Y-149620000D02*
X115100000Y-149600000D01*
X115100000Y-147700000D02*
X115100000Y-145700000D01*
X128450000Y-150900000D02*
X128450000Y-157400000D01*
X115120000Y-145720000D02*
X115100000Y-145700000D01*
X106250000Y-119650000D02*
X112400000Y-125800000D01*
X106150000Y-123250000D02*
X110850000Y-127950000D01*
X110850000Y-127950000D02*
X110850000Y-128000000D01*
X106250000Y-121400000D02*
X111450000Y-126600000D01*
X147850000Y-126600000D02*
X147850000Y-129800000D01*
D20*
G36*
X178290000Y-160290000D02*
X107553941Y-160290000D01*
X107630000Y-159907624D01*
X107630000Y-159192376D01*
X107547790Y-158779078D01*
X107313675Y-158428701D01*
X106963298Y-158194586D01*
X106550000Y-158112376D01*
X106136702Y-158194586D01*
X105786325Y-158428701D01*
X105552210Y-158779078D01*
X105470000Y-159192376D01*
X105470000Y-159907624D01*
X105546059Y-160290000D01*
X100553941Y-160290000D01*
X100630000Y-159907624D01*
X100630000Y-159192376D01*
X100547790Y-158779078D01*
X100313675Y-158428701D01*
X99963298Y-158194586D01*
X99550000Y-158112376D01*
X99136702Y-158194586D01*
X98786325Y-158428701D01*
X98552210Y-158779078D01*
X98470000Y-159192376D01*
X98470000Y-159907624D01*
X98546059Y-160290000D01*
X79710000Y-160290000D01*
X79710000Y-156850000D01*
X99265315Y-156850000D01*
X99349809Y-157274779D01*
X99590426Y-157634889D01*
X99950536Y-157875506D01*
X100375315Y-157960000D01*
X100724685Y-157960000D01*
X101149464Y-157875506D01*
X101509574Y-157634889D01*
X101750191Y-157274779D01*
X101834685Y-156850000D01*
X104265315Y-156850000D01*
X104349809Y-157274779D01*
X104590426Y-157634889D01*
X104950536Y-157875506D01*
X105375315Y-157960000D01*
X105724685Y-157960000D01*
X106149464Y-157875506D01*
X106509574Y-157634889D01*
X106750191Y-157274779D01*
X106834685Y-156850000D01*
X106750191Y-156425221D01*
X106530810Y-156096892D01*
X113678514Y-156096892D01*
X113924817Y-156621358D01*
X114353076Y-157011645D01*
X114763110Y-157181476D01*
X114993000Y-157060155D01*
X114993000Y-155867000D01*
X113799181Y-155867000D01*
X113678514Y-156096892D01*
X106530810Y-156096892D01*
X106509574Y-156065111D01*
X106149464Y-155824494D01*
X105724685Y-155740000D01*
X105375315Y-155740000D01*
X104950536Y-155824494D01*
X104590426Y-156065111D01*
X104349809Y-156425221D01*
X104265315Y-156850000D01*
X101834685Y-156850000D01*
X101750191Y-156425221D01*
X101509574Y-156065111D01*
X101149464Y-155824494D01*
X100724685Y-155740000D01*
X100375315Y-155740000D01*
X99950536Y-155824494D01*
X99590426Y-156065111D01*
X99349809Y-156425221D01*
X99265315Y-156850000D01*
X79710000Y-156850000D01*
X79710000Y-153170907D01*
X113635000Y-153170907D01*
X113635000Y-153229093D01*
X113748039Y-153797378D01*
X114069946Y-154279147D01*
X114353101Y-154468345D01*
X114353076Y-154468355D01*
X113924817Y-154858642D01*
X113678514Y-155383108D01*
X113799181Y-155613000D01*
X114993000Y-155613000D01*
X114993000Y-155593000D01*
X115247000Y-155593000D01*
X115247000Y-155613000D01*
X115267000Y-155613000D01*
X115267000Y-155867000D01*
X115247000Y-155867000D01*
X115247000Y-157060155D01*
X115476890Y-157181476D01*
X115886924Y-157011645D01*
X116315183Y-156621358D01*
X116382298Y-156478447D01*
X116609946Y-156819147D01*
X117091715Y-157141054D01*
X117660000Y-157254093D01*
X118228285Y-157141054D01*
X118710054Y-156819147D01*
X118930000Y-156489974D01*
X119149946Y-156819147D01*
X119631715Y-157141054D01*
X120200000Y-157254093D01*
X120768285Y-157141054D01*
X121250054Y-156819147D01*
X121571961Y-156337378D01*
X121685000Y-155769093D01*
X121685000Y-155710907D01*
X121571961Y-155142622D01*
X121250054Y-154660853D01*
X121248821Y-154660029D01*
X121285317Y-154653162D01*
X121501441Y-154514090D01*
X121646431Y-154301890D01*
X121697440Y-154050000D01*
X121697440Y-152350000D01*
X121653162Y-152114683D01*
X121514090Y-151898559D01*
X121301890Y-151753569D01*
X121050000Y-151702560D01*
X119350000Y-151702560D01*
X119114683Y-151746838D01*
X118898559Y-151885910D01*
X118753569Y-152098110D01*
X118739914Y-152165541D01*
X118710054Y-152120853D01*
X118228285Y-151798946D01*
X117660000Y-151685907D01*
X117091715Y-151798946D01*
X116609946Y-152120853D01*
X116390000Y-152450026D01*
X116170054Y-152120853D01*
X115880000Y-151927046D01*
X115880000Y-151223795D01*
X126814716Y-151223795D01*
X127063106Y-151824943D01*
X127522637Y-152285278D01*
X127690000Y-152354773D01*
X127690000Y-155944953D01*
X127525057Y-156013106D01*
X127064722Y-156472637D01*
X126815284Y-157073352D01*
X126814716Y-157723795D01*
X127063106Y-158324943D01*
X127522637Y-158785278D01*
X128123352Y-159034716D01*
X128773795Y-159035284D01*
X129374943Y-158786894D01*
X129609715Y-158552532D01*
X131977073Y-158552532D01*
X132075736Y-158819387D01*
X132685461Y-159045908D01*
X133335460Y-159021856D01*
X133824264Y-158819387D01*
X133922927Y-158552532D01*
X132950000Y-157579605D01*
X131977073Y-158552532D01*
X129609715Y-158552532D01*
X129835278Y-158327363D01*
X130084716Y-157726648D01*
X130085232Y-157135461D01*
X131304092Y-157135461D01*
X131328144Y-157785460D01*
X131530613Y-158274264D01*
X131797468Y-158372927D01*
X132770395Y-157400000D01*
X133129605Y-157400000D01*
X134102532Y-158372927D01*
X134369387Y-158274264D01*
X134595908Y-157664539D01*
X134571856Y-157014540D01*
X134369387Y-156525736D01*
X134102532Y-156427073D01*
X133129605Y-157400000D01*
X132770395Y-157400000D01*
X131797468Y-156427073D01*
X131530613Y-156525736D01*
X131304092Y-157135461D01*
X130085232Y-157135461D01*
X130085284Y-157076205D01*
X129836894Y-156475057D01*
X129609703Y-156247468D01*
X131977073Y-156247468D01*
X132950000Y-157220395D01*
X133922927Y-156247468D01*
X133824264Y-155980613D01*
X133214539Y-155754092D01*
X132564540Y-155778144D01*
X132075736Y-155980613D01*
X131977073Y-156247468D01*
X129609703Y-156247468D01*
X129377363Y-156014722D01*
X129210000Y-155945227D01*
X129210000Y-152355047D01*
X129374943Y-152286894D01*
X129609715Y-152052532D01*
X131977073Y-152052532D01*
X132075736Y-152319387D01*
X132685461Y-152545908D01*
X133335460Y-152521856D01*
X133824264Y-152319387D01*
X133922927Y-152052532D01*
X132950000Y-151079605D01*
X131977073Y-152052532D01*
X129609715Y-152052532D01*
X129835278Y-151827363D01*
X130084716Y-151226648D01*
X130085232Y-150635461D01*
X131304092Y-150635461D01*
X131328144Y-151285460D01*
X131530613Y-151774264D01*
X131797468Y-151872927D01*
X132770395Y-150900000D01*
X133129605Y-150900000D01*
X134102532Y-151872927D01*
X134369387Y-151774264D01*
X134595908Y-151164539D01*
X134571856Y-150514540D01*
X134369387Y-150025736D01*
X134102532Y-149927073D01*
X133129605Y-150900000D01*
X132770395Y-150900000D01*
X131797468Y-149927073D01*
X131530613Y-150025736D01*
X131304092Y-150635461D01*
X130085232Y-150635461D01*
X130085284Y-150576205D01*
X129836894Y-149975057D01*
X129609703Y-149747468D01*
X131977073Y-149747468D01*
X132950000Y-150720395D01*
X133922927Y-149747468D01*
X133824264Y-149480613D01*
X133214539Y-149254092D01*
X132564540Y-149278144D01*
X132075736Y-149480613D01*
X131977073Y-149747468D01*
X129609703Y-149747468D01*
X129377363Y-149514722D01*
X128776648Y-149265284D01*
X128126205Y-149264716D01*
X127525057Y-149513106D01*
X127064722Y-149972637D01*
X126815284Y-150573352D01*
X126814716Y-151223795D01*
X115880000Y-151223795D01*
X115880000Y-150142498D01*
X115892192Y-150130327D01*
X116034838Y-149786799D01*
X116035162Y-149414833D01*
X115893117Y-149071057D01*
X115822184Y-149000000D01*
X144752560Y-149000000D01*
X144752560Y-151200000D01*
X144796838Y-151435317D01*
X144935910Y-151651441D01*
X145148110Y-151796431D01*
X145400000Y-151847440D01*
X147600000Y-151847440D01*
X147835317Y-151803162D01*
X148051441Y-151664090D01*
X148196431Y-151451890D01*
X148247440Y-151200000D01*
X148247440Y-150443599D01*
X148764699Y-150443599D01*
X149028281Y-151081515D01*
X149515918Y-151570004D01*
X150153373Y-151834699D01*
X150843599Y-151835301D01*
X151481515Y-151571719D01*
X151970004Y-151084082D01*
X152234699Y-150446627D01*
X152234701Y-150443599D01*
X152764699Y-150443599D01*
X153028281Y-151081515D01*
X153515918Y-151570004D01*
X154153373Y-151834699D01*
X154843599Y-151835301D01*
X155481515Y-151571719D01*
X155970004Y-151084082D01*
X156234699Y-150446627D01*
X156234701Y-150443599D01*
X156764699Y-150443599D01*
X157028281Y-151081515D01*
X157515918Y-151570004D01*
X158153373Y-151834699D01*
X158843599Y-151835301D01*
X159481515Y-151571719D01*
X159970004Y-151084082D01*
X160234699Y-150446627D01*
X160234701Y-150443599D01*
X163264699Y-150443599D01*
X163528281Y-151081515D01*
X164015918Y-151570004D01*
X164653373Y-151834699D01*
X165343599Y-151835301D01*
X165981515Y-151571719D01*
X166470004Y-151084082D01*
X166734699Y-150446627D01*
X166734701Y-150443599D01*
X167264699Y-150443599D01*
X167528281Y-151081515D01*
X168015918Y-151570004D01*
X168653373Y-151834699D01*
X169343599Y-151835301D01*
X169981515Y-151571719D01*
X170228797Y-151324868D01*
X171954737Y-151324868D01*
X172065641Y-151602099D01*
X172711593Y-151845323D01*
X173401453Y-151822836D01*
X173934359Y-151602099D01*
X174045263Y-151324868D01*
X173000000Y-150279605D01*
X171954737Y-151324868D01*
X170228797Y-151324868D01*
X170470004Y-151084082D01*
X170734699Y-150446627D01*
X170735252Y-149811593D01*
X171254677Y-149811593D01*
X171277164Y-150501453D01*
X171497901Y-151034359D01*
X171775132Y-151145263D01*
X172820395Y-150100000D01*
X173179605Y-150100000D01*
X174224868Y-151145263D01*
X174502099Y-151034359D01*
X174745323Y-150388407D01*
X174722836Y-149698547D01*
X174502099Y-149165641D01*
X174224868Y-149054737D01*
X173179605Y-150100000D01*
X172820395Y-150100000D01*
X171775132Y-149054737D01*
X171497901Y-149165641D01*
X171254677Y-149811593D01*
X170735252Y-149811593D01*
X170735301Y-149756401D01*
X170471719Y-149118485D01*
X170228791Y-148875132D01*
X171954737Y-148875132D01*
X173000000Y-149920395D01*
X174045263Y-148875132D01*
X173934359Y-148597901D01*
X173288407Y-148354677D01*
X172598547Y-148377164D01*
X172065641Y-148597901D01*
X171954737Y-148875132D01*
X170228791Y-148875132D01*
X169984082Y-148629996D01*
X169346627Y-148365301D01*
X168656401Y-148364699D01*
X168018485Y-148628281D01*
X167529996Y-149115918D01*
X167265301Y-149753373D01*
X167264699Y-150443599D01*
X166734701Y-150443599D01*
X166735301Y-149756401D01*
X166471719Y-149118485D01*
X165984082Y-148629996D01*
X165346627Y-148365301D01*
X164656401Y-148364699D01*
X164018485Y-148628281D01*
X163529996Y-149115918D01*
X163265301Y-149753373D01*
X163264699Y-150443599D01*
X160234701Y-150443599D01*
X160235301Y-149756401D01*
X159971719Y-149118485D01*
X159484082Y-148629996D01*
X158846627Y-148365301D01*
X158156401Y-148364699D01*
X157518485Y-148628281D01*
X157029996Y-149115918D01*
X156765301Y-149753373D01*
X156764699Y-150443599D01*
X156234701Y-150443599D01*
X156235301Y-149756401D01*
X155971719Y-149118485D01*
X155484082Y-148629996D01*
X154846627Y-148365301D01*
X154156401Y-148364699D01*
X153518485Y-148628281D01*
X153029996Y-149115918D01*
X152765301Y-149753373D01*
X152764699Y-150443599D01*
X152234701Y-150443599D01*
X152235301Y-149756401D01*
X151971719Y-149118485D01*
X151484082Y-148629996D01*
X150846627Y-148365301D01*
X150156401Y-148364699D01*
X149518485Y-148628281D01*
X149029996Y-149115918D01*
X148765301Y-149753373D01*
X148764699Y-150443599D01*
X148247440Y-150443599D01*
X148247440Y-149000000D01*
X148203162Y-148764683D01*
X148064090Y-148548559D01*
X147851890Y-148403569D01*
X147600000Y-148352560D01*
X145400000Y-148352560D01*
X145164683Y-148396838D01*
X144948559Y-148535910D01*
X144803569Y-148748110D01*
X144752560Y-149000000D01*
X115822184Y-149000000D01*
X115630327Y-148807808D01*
X115286799Y-148665162D01*
X114914833Y-148664838D01*
X114571057Y-148806883D01*
X114307808Y-149069673D01*
X114165162Y-149413201D01*
X114164838Y-149785167D01*
X114306883Y-150128943D01*
X114360000Y-150182153D01*
X114360000Y-151927046D01*
X114069946Y-152120853D01*
X113748039Y-152602622D01*
X113635000Y-153170907D01*
X79710000Y-153170907D01*
X79710000Y-150435167D01*
X108764838Y-150435167D01*
X108906883Y-150778943D01*
X109169673Y-151042192D01*
X109513201Y-151184838D01*
X109885167Y-151185162D01*
X110228943Y-151043117D01*
X110262118Y-151010000D01*
X110737537Y-151010000D01*
X110769673Y-151042192D01*
X111113201Y-151184838D01*
X111485167Y-151185162D01*
X111828943Y-151043117D01*
X112092192Y-150780327D01*
X112234838Y-150436799D01*
X112235162Y-150064833D01*
X112093117Y-149721057D01*
X111830327Y-149457808D01*
X111486799Y-149315162D01*
X111114833Y-149314838D01*
X110771057Y-149456883D01*
X110737882Y-149490000D01*
X110262463Y-149490000D01*
X110230327Y-149457808D01*
X109886799Y-149315162D01*
X109514833Y-149314838D01*
X109171057Y-149456883D01*
X108907808Y-149719673D01*
X108765162Y-150063201D01*
X108764838Y-150435167D01*
X79710000Y-150435167D01*
X79710000Y-145885167D01*
X114164838Y-145885167D01*
X114306883Y-146228943D01*
X114340000Y-146262118D01*
X114340000Y-147137537D01*
X114307808Y-147169673D01*
X114165162Y-147513201D01*
X114164838Y-147885167D01*
X114306883Y-148228943D01*
X114569673Y-148492192D01*
X114913201Y-148634838D01*
X115285167Y-148635162D01*
X115628943Y-148493117D01*
X115892192Y-148230327D01*
X116034838Y-147886799D01*
X116035162Y-147514833D01*
X115893117Y-147171057D01*
X115860000Y-147137882D01*
X115860000Y-146262463D01*
X115892192Y-146230327D01*
X116034838Y-145886799D01*
X116034839Y-145885167D01*
X116114838Y-145885167D01*
X116256883Y-146228943D01*
X116519673Y-146492192D01*
X116863201Y-146634838D01*
X117235167Y-146635162D01*
X117578943Y-146493117D01*
X117612118Y-146460000D01*
X117800000Y-146460000D01*
X118090839Y-146402148D01*
X118337401Y-146237401D01*
X118889680Y-145685122D01*
X118935167Y-145685162D01*
X119278943Y-145543117D01*
X119542192Y-145280327D01*
X119684838Y-144936799D01*
X119685162Y-144564833D01*
X119543117Y-144221057D01*
X119280327Y-143957808D01*
X118936799Y-143815162D01*
X118564833Y-143814838D01*
X118221057Y-143956883D01*
X117957808Y-144219673D01*
X117815162Y-144563201D01*
X117815121Y-144610077D01*
X117535856Y-144889342D01*
X117236799Y-144765162D01*
X116864833Y-144764838D01*
X116521057Y-144906883D01*
X116257808Y-145169673D01*
X116115162Y-145513201D01*
X116114838Y-145885167D01*
X116034839Y-145885167D01*
X116035162Y-145514833D01*
X115893117Y-145171057D01*
X115630327Y-144907808D01*
X115286799Y-144765162D01*
X114914833Y-144764838D01*
X114571057Y-144906883D01*
X114307808Y-145169673D01*
X114165162Y-145513201D01*
X114164838Y-145885167D01*
X79710000Y-145885167D01*
X79710000Y-123435167D01*
X105214838Y-123435167D01*
X105356883Y-123778943D01*
X105619673Y-124042192D01*
X105963201Y-124184838D01*
X106010077Y-124184879D01*
X109914921Y-128089723D01*
X109914838Y-128185167D01*
X110056883Y-128528943D01*
X110319673Y-128792192D01*
X110663201Y-128934838D01*
X111035167Y-128935162D01*
X111378943Y-128793117D01*
X111642192Y-128530327D01*
X111784838Y-128186799D01*
X111785162Y-127814833D01*
X111664583Y-127523008D01*
X111978943Y-127393117D01*
X112242192Y-127130327D01*
X112384838Y-126786799D01*
X112384839Y-126785167D01*
X146914838Y-126785167D01*
X147056883Y-127128943D01*
X147090000Y-127162118D01*
X147090000Y-129237537D01*
X147057808Y-129269673D01*
X146915162Y-129613201D01*
X146914838Y-129985167D01*
X147056883Y-130328943D01*
X147319673Y-130592192D01*
X147663201Y-130734838D01*
X148035167Y-130735162D01*
X148378943Y-130593117D01*
X148642192Y-130330327D01*
X148784838Y-129986799D01*
X148785162Y-129614833D01*
X148643117Y-129271057D01*
X148610000Y-129237882D01*
X148610000Y-127162463D01*
X148642192Y-127130327D01*
X148784838Y-126786799D01*
X148785162Y-126414833D01*
X148643117Y-126071057D01*
X148380327Y-125807808D01*
X148036799Y-125665162D01*
X147664833Y-125664838D01*
X147321057Y-125806883D01*
X147057808Y-126069673D01*
X146915162Y-126413201D01*
X146914838Y-126785167D01*
X112384839Y-126785167D01*
X112384883Y-126734988D01*
X112585167Y-126735162D01*
X112928943Y-126593117D01*
X113192192Y-126330327D01*
X113334838Y-125986799D01*
X113335162Y-125614833D01*
X113193117Y-125271057D01*
X112930327Y-125007808D01*
X112586799Y-124865162D01*
X112539923Y-124865121D01*
X107185122Y-119510320D01*
X107185162Y-119464833D01*
X107043117Y-119121057D01*
X106780327Y-118857808D01*
X106436799Y-118715162D01*
X106064833Y-118714838D01*
X105721057Y-118856883D01*
X105457808Y-119119673D01*
X105315162Y-119463201D01*
X105314838Y-119835167D01*
X105456883Y-120178943D01*
X105719673Y-120442192D01*
X105919162Y-120525028D01*
X105721057Y-120606883D01*
X105457808Y-120869673D01*
X105315162Y-121213201D01*
X105314838Y-121585167D01*
X105456883Y-121928943D01*
X105719673Y-122192192D01*
X106015141Y-122314882D01*
X105964833Y-122314838D01*
X105621057Y-122456883D01*
X105357808Y-122719673D01*
X105215162Y-123063201D01*
X105214838Y-123435167D01*
X79710000Y-123435167D01*
X79710000Y-90285750D01*
X88515000Y-90285750D01*
X88515000Y-90976309D01*
X88611673Y-91209698D01*
X88790301Y-91388327D01*
X89023690Y-91485000D01*
X89714250Y-91485000D01*
X89873000Y-91326250D01*
X89873000Y-90127000D01*
X88673750Y-90127000D01*
X88515000Y-90285750D01*
X79710000Y-90285750D01*
X79710000Y-89023691D01*
X88515000Y-89023691D01*
X88515000Y-89714250D01*
X88673750Y-89873000D01*
X89873000Y-89873000D01*
X89873000Y-88673750D01*
X90127000Y-88673750D01*
X90127000Y-89873000D01*
X90147000Y-89873000D01*
X90147000Y-90127000D01*
X90127000Y-90127000D01*
X90127000Y-91326250D01*
X90285750Y-91485000D01*
X90976310Y-91485000D01*
X91209699Y-91388327D01*
X91388327Y-91209698D01*
X91460597Y-91035223D01*
X91489946Y-91079147D01*
X91971715Y-91401054D01*
X92540000Y-91514093D01*
X93108285Y-91401054D01*
X93590054Y-91079147D01*
X93810000Y-90749974D01*
X94029946Y-91079147D01*
X94511715Y-91401054D01*
X95080000Y-91514093D01*
X95648285Y-91401054D01*
X96130054Y-91079147D01*
X96350000Y-90749974D01*
X96569946Y-91079147D01*
X97051715Y-91401054D01*
X97620000Y-91514093D01*
X98188285Y-91401054D01*
X98670054Y-91079147D01*
X98890000Y-90749974D01*
X99109946Y-91079147D01*
X99591715Y-91401054D01*
X100160000Y-91514093D01*
X100728285Y-91401054D01*
X101210054Y-91079147D01*
X101430000Y-90749974D01*
X101649946Y-91079147D01*
X102131715Y-91401054D01*
X102700000Y-91514093D01*
X103268285Y-91401054D01*
X103750054Y-91079147D01*
X103970000Y-90749974D01*
X104189946Y-91079147D01*
X104671715Y-91401054D01*
X105240000Y-91514093D01*
X105808285Y-91401054D01*
X106290054Y-91079147D01*
X106510000Y-90749974D01*
X106729946Y-91079147D01*
X107211715Y-91401054D01*
X107780000Y-91514093D01*
X108348285Y-91401054D01*
X108830054Y-91079147D01*
X109050000Y-90749974D01*
X109269946Y-91079147D01*
X109751715Y-91401054D01*
X110320000Y-91514093D01*
X110888285Y-91401054D01*
X111370054Y-91079147D01*
X111590000Y-90749974D01*
X111809946Y-91079147D01*
X112291715Y-91401054D01*
X112860000Y-91514093D01*
X113428285Y-91401054D01*
X113910054Y-91079147D01*
X114130000Y-90749974D01*
X114349946Y-91079147D01*
X114831715Y-91401054D01*
X115400000Y-91514093D01*
X115968285Y-91401054D01*
X116450054Y-91079147D01*
X116670000Y-90749974D01*
X116889946Y-91079147D01*
X117371715Y-91401054D01*
X117940000Y-91514093D01*
X118508285Y-91401054D01*
X118990054Y-91079147D01*
X119210000Y-90749974D01*
X119429946Y-91079147D01*
X119911715Y-91401054D01*
X120480000Y-91514093D01*
X121048285Y-91401054D01*
X121530054Y-91079147D01*
X121750000Y-90749974D01*
X121969946Y-91079147D01*
X122451715Y-91401054D01*
X123020000Y-91514093D01*
X123588285Y-91401054D01*
X124070054Y-91079147D01*
X124290000Y-90749974D01*
X124509946Y-91079147D01*
X124991715Y-91401054D01*
X125560000Y-91514093D01*
X126128285Y-91401054D01*
X126610054Y-91079147D01*
X126837702Y-90738447D01*
X126904817Y-90881358D01*
X127333076Y-91271645D01*
X127743110Y-91441476D01*
X127973000Y-91320155D01*
X127973000Y-90127000D01*
X128227000Y-90127000D01*
X128227000Y-91320155D01*
X128456890Y-91441476D01*
X128866924Y-91271645D01*
X129295183Y-90881358D01*
X129541486Y-90356892D01*
X129420819Y-90127000D01*
X128227000Y-90127000D01*
X127973000Y-90127000D01*
X127953000Y-90127000D01*
X127953000Y-89873000D01*
X127973000Y-89873000D01*
X127973000Y-88679845D01*
X128227000Y-88679845D01*
X128227000Y-89873000D01*
X129420819Y-89873000D01*
X129541486Y-89643108D01*
X129295183Y-89118642D01*
X128866924Y-88728355D01*
X128456890Y-88558524D01*
X128227000Y-88679845D01*
X127973000Y-88679845D01*
X127743110Y-88558524D01*
X127333076Y-88728355D01*
X126904817Y-89118642D01*
X126837702Y-89261553D01*
X126610054Y-88920853D01*
X126128285Y-88598946D01*
X125560000Y-88485907D01*
X124991715Y-88598946D01*
X124509946Y-88920853D01*
X124290000Y-89250026D01*
X124070054Y-88920853D01*
X123588285Y-88598946D01*
X123020000Y-88485907D01*
X122451715Y-88598946D01*
X121969946Y-88920853D01*
X121750000Y-89250026D01*
X121530054Y-88920853D01*
X121048285Y-88598946D01*
X120480000Y-88485907D01*
X119911715Y-88598946D01*
X119429946Y-88920853D01*
X119210000Y-89250026D01*
X118990054Y-88920853D01*
X118508285Y-88598946D01*
X117940000Y-88485907D01*
X117371715Y-88598946D01*
X116889946Y-88920853D01*
X116670000Y-89250026D01*
X116450054Y-88920853D01*
X115968285Y-88598946D01*
X115400000Y-88485907D01*
X114831715Y-88598946D01*
X114349946Y-88920853D01*
X114130000Y-89250026D01*
X113910054Y-88920853D01*
X113428285Y-88598946D01*
X112860000Y-88485907D01*
X112291715Y-88598946D01*
X111809946Y-88920853D01*
X111590000Y-89250026D01*
X111370054Y-88920853D01*
X110888285Y-88598946D01*
X110320000Y-88485907D01*
X109751715Y-88598946D01*
X109269946Y-88920853D01*
X109050000Y-89250026D01*
X108830054Y-88920853D01*
X108348285Y-88598946D01*
X107780000Y-88485907D01*
X107211715Y-88598946D01*
X106729946Y-88920853D01*
X106510000Y-89250026D01*
X106290054Y-88920853D01*
X105808285Y-88598946D01*
X105240000Y-88485907D01*
X104671715Y-88598946D01*
X104189946Y-88920853D01*
X103970000Y-89250026D01*
X103750054Y-88920853D01*
X103268285Y-88598946D01*
X102700000Y-88485907D01*
X102131715Y-88598946D01*
X101649946Y-88920853D01*
X101430000Y-89250026D01*
X101210054Y-88920853D01*
X100728285Y-88598946D01*
X100160000Y-88485907D01*
X99591715Y-88598946D01*
X99109946Y-88920853D01*
X98890000Y-89250026D01*
X98670054Y-88920853D01*
X98188285Y-88598946D01*
X97620000Y-88485907D01*
X97051715Y-88598946D01*
X96569946Y-88920853D01*
X96350000Y-89250026D01*
X96130054Y-88920853D01*
X95648285Y-88598946D01*
X95080000Y-88485907D01*
X94511715Y-88598946D01*
X94029946Y-88920853D01*
X93810000Y-89250026D01*
X93590054Y-88920853D01*
X93108285Y-88598946D01*
X92540000Y-88485907D01*
X91971715Y-88598946D01*
X91489946Y-88920853D01*
X91460597Y-88964777D01*
X91388327Y-88790302D01*
X91209699Y-88611673D01*
X90976310Y-88515000D01*
X90285750Y-88515000D01*
X90127000Y-88673750D01*
X89873000Y-88673750D01*
X89714250Y-88515000D01*
X89023690Y-88515000D01*
X88790301Y-88611673D01*
X88611673Y-88790302D01*
X88515000Y-89023691D01*
X79710000Y-89023691D01*
X79710000Y-87710000D01*
X178290000Y-87710000D01*
X178290000Y-160290000D01*
X178290000Y-160290000D01*
G37*
X178290000Y-160290000D02*
X107553941Y-160290000D01*
X107630000Y-159907624D01*
X107630000Y-159192376D01*
X107547790Y-158779078D01*
X107313675Y-158428701D01*
X106963298Y-158194586D01*
X106550000Y-158112376D01*
X106136702Y-158194586D01*
X105786325Y-158428701D01*
X105552210Y-158779078D01*
X105470000Y-159192376D01*
X105470000Y-159907624D01*
X105546059Y-160290000D01*
X100553941Y-160290000D01*
X100630000Y-159907624D01*
X100630000Y-159192376D01*
X100547790Y-158779078D01*
X100313675Y-158428701D01*
X99963298Y-158194586D01*
X99550000Y-158112376D01*
X99136702Y-158194586D01*
X98786325Y-158428701D01*
X98552210Y-158779078D01*
X98470000Y-159192376D01*
X98470000Y-159907624D01*
X98546059Y-160290000D01*
X79710000Y-160290000D01*
X79710000Y-156850000D01*
X99265315Y-156850000D01*
X99349809Y-157274779D01*
X99590426Y-157634889D01*
X99950536Y-157875506D01*
X100375315Y-157960000D01*
X100724685Y-157960000D01*
X101149464Y-157875506D01*
X101509574Y-157634889D01*
X101750191Y-157274779D01*
X101834685Y-156850000D01*
X104265315Y-156850000D01*
X104349809Y-157274779D01*
X104590426Y-157634889D01*
X104950536Y-157875506D01*
X105375315Y-157960000D01*
X105724685Y-157960000D01*
X106149464Y-157875506D01*
X106509574Y-157634889D01*
X106750191Y-157274779D01*
X106834685Y-156850000D01*
X106750191Y-156425221D01*
X106530810Y-156096892D01*
X113678514Y-156096892D01*
X113924817Y-156621358D01*
X114353076Y-157011645D01*
X114763110Y-157181476D01*
X114993000Y-157060155D01*
X114993000Y-155867000D01*
X113799181Y-155867000D01*
X113678514Y-156096892D01*
X106530810Y-156096892D01*
X106509574Y-156065111D01*
X106149464Y-155824494D01*
X105724685Y-155740000D01*
X105375315Y-155740000D01*
X104950536Y-155824494D01*
X104590426Y-156065111D01*
X104349809Y-156425221D01*
X104265315Y-156850000D01*
X101834685Y-156850000D01*
X101750191Y-156425221D01*
X101509574Y-156065111D01*
X101149464Y-155824494D01*
X100724685Y-155740000D01*
X100375315Y-155740000D01*
X99950536Y-155824494D01*
X99590426Y-156065111D01*
X99349809Y-156425221D01*
X99265315Y-156850000D01*
X79710000Y-156850000D01*
X79710000Y-153170907D01*
X113635000Y-153170907D01*
X113635000Y-153229093D01*
X113748039Y-153797378D01*
X114069946Y-154279147D01*
X114353101Y-154468345D01*
X114353076Y-154468355D01*
X113924817Y-154858642D01*
X113678514Y-155383108D01*
X113799181Y-155613000D01*
X114993000Y-155613000D01*
X114993000Y-155593000D01*
X115247000Y-155593000D01*
X115247000Y-155613000D01*
X115267000Y-155613000D01*
X115267000Y-155867000D01*
X115247000Y-155867000D01*
X115247000Y-157060155D01*
X115476890Y-157181476D01*
X115886924Y-157011645D01*
X116315183Y-156621358D01*
X116382298Y-156478447D01*
X116609946Y-156819147D01*
X117091715Y-157141054D01*
X117660000Y-157254093D01*
X118228285Y-157141054D01*
X118710054Y-156819147D01*
X118930000Y-156489974D01*
X119149946Y-156819147D01*
X119631715Y-157141054D01*
X120200000Y-157254093D01*
X120768285Y-157141054D01*
X121250054Y-156819147D01*
X121571961Y-156337378D01*
X121685000Y-155769093D01*
X121685000Y-155710907D01*
X121571961Y-155142622D01*
X121250054Y-154660853D01*
X121248821Y-154660029D01*
X121285317Y-154653162D01*
X121501441Y-154514090D01*
X121646431Y-154301890D01*
X121697440Y-154050000D01*
X121697440Y-152350000D01*
X121653162Y-152114683D01*
X121514090Y-151898559D01*
X121301890Y-151753569D01*
X121050000Y-151702560D01*
X119350000Y-151702560D01*
X119114683Y-151746838D01*
X118898559Y-151885910D01*
X118753569Y-152098110D01*
X118739914Y-152165541D01*
X118710054Y-152120853D01*
X118228285Y-151798946D01*
X117660000Y-151685907D01*
X117091715Y-151798946D01*
X116609946Y-152120853D01*
X116390000Y-152450026D01*
X116170054Y-152120853D01*
X115880000Y-151927046D01*
X115880000Y-151223795D01*
X126814716Y-151223795D01*
X127063106Y-151824943D01*
X127522637Y-152285278D01*
X127690000Y-152354773D01*
X127690000Y-155944953D01*
X127525057Y-156013106D01*
X127064722Y-156472637D01*
X126815284Y-157073352D01*
X126814716Y-157723795D01*
X127063106Y-158324943D01*
X127522637Y-158785278D01*
X128123352Y-159034716D01*
X128773795Y-159035284D01*
X129374943Y-158786894D01*
X129609715Y-158552532D01*
X131977073Y-158552532D01*
X132075736Y-158819387D01*
X132685461Y-159045908D01*
X133335460Y-159021856D01*
X133824264Y-158819387D01*
X133922927Y-158552532D01*
X132950000Y-157579605D01*
X131977073Y-158552532D01*
X129609715Y-158552532D01*
X129835278Y-158327363D01*
X130084716Y-157726648D01*
X130085232Y-157135461D01*
X131304092Y-157135461D01*
X131328144Y-157785460D01*
X131530613Y-158274264D01*
X131797468Y-158372927D01*
X132770395Y-157400000D01*
X133129605Y-157400000D01*
X134102532Y-158372927D01*
X134369387Y-158274264D01*
X134595908Y-157664539D01*
X134571856Y-157014540D01*
X134369387Y-156525736D01*
X134102532Y-156427073D01*
X133129605Y-157400000D01*
X132770395Y-157400000D01*
X131797468Y-156427073D01*
X131530613Y-156525736D01*
X131304092Y-157135461D01*
X130085232Y-157135461D01*
X130085284Y-157076205D01*
X129836894Y-156475057D01*
X129609703Y-156247468D01*
X131977073Y-156247468D01*
X132950000Y-157220395D01*
X133922927Y-156247468D01*
X133824264Y-155980613D01*
X133214539Y-155754092D01*
X132564540Y-155778144D01*
X132075736Y-155980613D01*
X131977073Y-156247468D01*
X129609703Y-156247468D01*
X129377363Y-156014722D01*
X129210000Y-155945227D01*
X129210000Y-152355047D01*
X129374943Y-152286894D01*
X129609715Y-152052532D01*
X131977073Y-152052532D01*
X132075736Y-152319387D01*
X132685461Y-152545908D01*
X133335460Y-152521856D01*
X133824264Y-152319387D01*
X133922927Y-152052532D01*
X132950000Y-151079605D01*
X131977073Y-152052532D01*
X129609715Y-152052532D01*
X129835278Y-151827363D01*
X130084716Y-151226648D01*
X130085232Y-150635461D01*
X131304092Y-150635461D01*
X131328144Y-151285460D01*
X131530613Y-151774264D01*
X131797468Y-151872927D01*
X132770395Y-150900000D01*
X133129605Y-150900000D01*
X134102532Y-151872927D01*
X134369387Y-151774264D01*
X134595908Y-151164539D01*
X134571856Y-150514540D01*
X134369387Y-150025736D01*
X134102532Y-149927073D01*
X133129605Y-150900000D01*
X132770395Y-150900000D01*
X131797468Y-149927073D01*
X131530613Y-150025736D01*
X131304092Y-150635461D01*
X130085232Y-150635461D01*
X130085284Y-150576205D01*
X129836894Y-149975057D01*
X129609703Y-149747468D01*
X131977073Y-149747468D01*
X132950000Y-150720395D01*
X133922927Y-149747468D01*
X133824264Y-149480613D01*
X133214539Y-149254092D01*
X132564540Y-149278144D01*
X132075736Y-149480613D01*
X131977073Y-149747468D01*
X129609703Y-149747468D01*
X129377363Y-149514722D01*
X128776648Y-149265284D01*
X128126205Y-149264716D01*
X127525057Y-149513106D01*
X127064722Y-149972637D01*
X126815284Y-150573352D01*
X126814716Y-151223795D01*
X115880000Y-151223795D01*
X115880000Y-150142498D01*
X115892192Y-150130327D01*
X116034838Y-149786799D01*
X116035162Y-149414833D01*
X115893117Y-149071057D01*
X115822184Y-149000000D01*
X144752560Y-149000000D01*
X144752560Y-151200000D01*
X144796838Y-151435317D01*
X144935910Y-151651441D01*
X145148110Y-151796431D01*
X145400000Y-151847440D01*
X147600000Y-151847440D01*
X147835317Y-151803162D01*
X148051441Y-151664090D01*
X148196431Y-151451890D01*
X148247440Y-151200000D01*
X148247440Y-150443599D01*
X148764699Y-150443599D01*
X149028281Y-151081515D01*
X149515918Y-151570004D01*
X150153373Y-151834699D01*
X150843599Y-151835301D01*
X151481515Y-151571719D01*
X151970004Y-151084082D01*
X152234699Y-150446627D01*
X152234701Y-150443599D01*
X152764699Y-150443599D01*
X153028281Y-151081515D01*
X153515918Y-151570004D01*
X154153373Y-151834699D01*
X154843599Y-151835301D01*
X155481515Y-151571719D01*
X155970004Y-151084082D01*
X156234699Y-150446627D01*
X156234701Y-150443599D01*
X156764699Y-150443599D01*
X157028281Y-151081515D01*
X157515918Y-151570004D01*
X158153373Y-151834699D01*
X158843599Y-151835301D01*
X159481515Y-151571719D01*
X159970004Y-151084082D01*
X160234699Y-150446627D01*
X160234701Y-150443599D01*
X163264699Y-150443599D01*
X163528281Y-151081515D01*
X164015918Y-151570004D01*
X164653373Y-151834699D01*
X165343599Y-151835301D01*
X165981515Y-151571719D01*
X166470004Y-151084082D01*
X166734699Y-150446627D01*
X166734701Y-150443599D01*
X167264699Y-150443599D01*
X167528281Y-151081515D01*
X168015918Y-151570004D01*
X168653373Y-151834699D01*
X169343599Y-151835301D01*
X169981515Y-151571719D01*
X170228797Y-151324868D01*
X171954737Y-151324868D01*
X172065641Y-151602099D01*
X172711593Y-151845323D01*
X173401453Y-151822836D01*
X173934359Y-151602099D01*
X174045263Y-151324868D01*
X173000000Y-150279605D01*
X171954737Y-151324868D01*
X170228797Y-151324868D01*
X170470004Y-151084082D01*
X170734699Y-150446627D01*
X170735252Y-149811593D01*
X171254677Y-149811593D01*
X171277164Y-150501453D01*
X171497901Y-151034359D01*
X171775132Y-151145263D01*
X172820395Y-150100000D01*
X173179605Y-150100000D01*
X174224868Y-151145263D01*
X174502099Y-151034359D01*
X174745323Y-150388407D01*
X174722836Y-149698547D01*
X174502099Y-149165641D01*
X174224868Y-149054737D01*
X173179605Y-150100000D01*
X172820395Y-150100000D01*
X171775132Y-149054737D01*
X171497901Y-149165641D01*
X171254677Y-149811593D01*
X170735252Y-149811593D01*
X170735301Y-149756401D01*
X170471719Y-149118485D01*
X170228791Y-148875132D01*
X171954737Y-148875132D01*
X173000000Y-149920395D01*
X174045263Y-148875132D01*
X173934359Y-148597901D01*
X173288407Y-148354677D01*
X172598547Y-148377164D01*
X172065641Y-148597901D01*
X171954737Y-148875132D01*
X170228791Y-148875132D01*
X169984082Y-148629996D01*
X169346627Y-148365301D01*
X168656401Y-148364699D01*
X168018485Y-148628281D01*
X167529996Y-149115918D01*
X167265301Y-149753373D01*
X167264699Y-150443599D01*
X166734701Y-150443599D01*
X166735301Y-149756401D01*
X166471719Y-149118485D01*
X165984082Y-148629996D01*
X165346627Y-148365301D01*
X164656401Y-148364699D01*
X164018485Y-148628281D01*
X163529996Y-149115918D01*
X163265301Y-149753373D01*
X163264699Y-150443599D01*
X160234701Y-150443599D01*
X160235301Y-149756401D01*
X159971719Y-149118485D01*
X159484082Y-148629996D01*
X158846627Y-148365301D01*
X158156401Y-148364699D01*
X157518485Y-148628281D01*
X157029996Y-149115918D01*
X156765301Y-149753373D01*
X156764699Y-150443599D01*
X156234701Y-150443599D01*
X156235301Y-149756401D01*
X155971719Y-149118485D01*
X155484082Y-148629996D01*
X154846627Y-148365301D01*
X154156401Y-148364699D01*
X153518485Y-148628281D01*
X153029996Y-149115918D01*
X152765301Y-149753373D01*
X152764699Y-150443599D01*
X152234701Y-150443599D01*
X152235301Y-149756401D01*
X151971719Y-149118485D01*
X151484082Y-148629996D01*
X150846627Y-148365301D01*
X150156401Y-148364699D01*
X149518485Y-148628281D01*
X149029996Y-149115918D01*
X148765301Y-149753373D01*
X148764699Y-150443599D01*
X148247440Y-150443599D01*
X148247440Y-149000000D01*
X148203162Y-148764683D01*
X148064090Y-148548559D01*
X147851890Y-148403569D01*
X147600000Y-148352560D01*
X145400000Y-148352560D01*
X145164683Y-148396838D01*
X144948559Y-148535910D01*
X144803569Y-148748110D01*
X144752560Y-149000000D01*
X115822184Y-149000000D01*
X115630327Y-148807808D01*
X115286799Y-148665162D01*
X114914833Y-148664838D01*
X114571057Y-148806883D01*
X114307808Y-149069673D01*
X114165162Y-149413201D01*
X114164838Y-149785167D01*
X114306883Y-150128943D01*
X114360000Y-150182153D01*
X114360000Y-151927046D01*
X114069946Y-152120853D01*
X113748039Y-152602622D01*
X113635000Y-153170907D01*
X79710000Y-153170907D01*
X79710000Y-150435167D01*
X108764838Y-150435167D01*
X108906883Y-150778943D01*
X109169673Y-151042192D01*
X109513201Y-151184838D01*
X109885167Y-151185162D01*
X110228943Y-151043117D01*
X110262118Y-151010000D01*
X110737537Y-151010000D01*
X110769673Y-151042192D01*
X111113201Y-151184838D01*
X111485167Y-151185162D01*
X111828943Y-151043117D01*
X112092192Y-150780327D01*
X112234838Y-150436799D01*
X112235162Y-150064833D01*
X112093117Y-149721057D01*
X111830327Y-149457808D01*
X111486799Y-149315162D01*
X111114833Y-149314838D01*
X110771057Y-149456883D01*
X110737882Y-149490000D01*
X110262463Y-149490000D01*
X110230327Y-149457808D01*
X109886799Y-149315162D01*
X109514833Y-149314838D01*
X109171057Y-149456883D01*
X108907808Y-149719673D01*
X108765162Y-150063201D01*
X108764838Y-150435167D01*
X79710000Y-150435167D01*
X79710000Y-145885167D01*
X114164838Y-145885167D01*
X114306883Y-146228943D01*
X114340000Y-146262118D01*
X114340000Y-147137537D01*
X114307808Y-147169673D01*
X114165162Y-147513201D01*
X114164838Y-147885167D01*
X114306883Y-148228943D01*
X114569673Y-148492192D01*
X114913201Y-148634838D01*
X115285167Y-148635162D01*
X115628943Y-148493117D01*
X115892192Y-148230327D01*
X116034838Y-147886799D01*
X116035162Y-147514833D01*
X115893117Y-147171057D01*
X115860000Y-147137882D01*
X115860000Y-146262463D01*
X115892192Y-146230327D01*
X116034838Y-145886799D01*
X116034839Y-145885167D01*
X116114838Y-145885167D01*
X116256883Y-146228943D01*
X116519673Y-146492192D01*
X116863201Y-146634838D01*
X117235167Y-146635162D01*
X117578943Y-146493117D01*
X117612118Y-146460000D01*
X117800000Y-146460000D01*
X118090839Y-146402148D01*
X118337401Y-146237401D01*
X118889680Y-145685122D01*
X118935167Y-145685162D01*
X119278943Y-145543117D01*
X119542192Y-145280327D01*
X119684838Y-144936799D01*
X119685162Y-144564833D01*
X119543117Y-144221057D01*
X119280327Y-143957808D01*
X118936799Y-143815162D01*
X118564833Y-143814838D01*
X118221057Y-143956883D01*
X117957808Y-144219673D01*
X117815162Y-144563201D01*
X117815121Y-144610077D01*
X117535856Y-144889342D01*
X117236799Y-144765162D01*
X116864833Y-144764838D01*
X116521057Y-144906883D01*
X116257808Y-145169673D01*
X116115162Y-145513201D01*
X116114838Y-145885167D01*
X116034839Y-145885167D01*
X116035162Y-145514833D01*
X115893117Y-145171057D01*
X115630327Y-144907808D01*
X115286799Y-144765162D01*
X114914833Y-144764838D01*
X114571057Y-144906883D01*
X114307808Y-145169673D01*
X114165162Y-145513201D01*
X114164838Y-145885167D01*
X79710000Y-145885167D01*
X79710000Y-123435167D01*
X105214838Y-123435167D01*
X105356883Y-123778943D01*
X105619673Y-124042192D01*
X105963201Y-124184838D01*
X106010077Y-124184879D01*
X109914921Y-128089723D01*
X109914838Y-128185167D01*
X110056883Y-128528943D01*
X110319673Y-128792192D01*
X110663201Y-128934838D01*
X111035167Y-128935162D01*
X111378943Y-128793117D01*
X111642192Y-128530327D01*
X111784838Y-128186799D01*
X111785162Y-127814833D01*
X111664583Y-127523008D01*
X111978943Y-127393117D01*
X112242192Y-127130327D01*
X112384838Y-126786799D01*
X112384839Y-126785167D01*
X146914838Y-126785167D01*
X147056883Y-127128943D01*
X147090000Y-127162118D01*
X147090000Y-129237537D01*
X147057808Y-129269673D01*
X146915162Y-129613201D01*
X146914838Y-129985167D01*
X147056883Y-130328943D01*
X147319673Y-130592192D01*
X147663201Y-130734838D01*
X148035167Y-130735162D01*
X148378943Y-130593117D01*
X148642192Y-130330327D01*
X148784838Y-129986799D01*
X148785162Y-129614833D01*
X148643117Y-129271057D01*
X148610000Y-129237882D01*
X148610000Y-127162463D01*
X148642192Y-127130327D01*
X148784838Y-126786799D01*
X148785162Y-126414833D01*
X148643117Y-126071057D01*
X148380327Y-125807808D01*
X148036799Y-125665162D01*
X147664833Y-125664838D01*
X147321057Y-125806883D01*
X147057808Y-126069673D01*
X146915162Y-126413201D01*
X146914838Y-126785167D01*
X112384839Y-126785167D01*
X112384883Y-126734988D01*
X112585167Y-126735162D01*
X112928943Y-126593117D01*
X113192192Y-126330327D01*
X113334838Y-125986799D01*
X113335162Y-125614833D01*
X113193117Y-125271057D01*
X112930327Y-125007808D01*
X112586799Y-124865162D01*
X112539923Y-124865121D01*
X107185122Y-119510320D01*
X107185162Y-119464833D01*
X107043117Y-119121057D01*
X106780327Y-118857808D01*
X106436799Y-118715162D01*
X106064833Y-118714838D01*
X105721057Y-118856883D01*
X105457808Y-119119673D01*
X105315162Y-119463201D01*
X105314838Y-119835167D01*
X105456883Y-120178943D01*
X105719673Y-120442192D01*
X105919162Y-120525028D01*
X105721057Y-120606883D01*
X105457808Y-120869673D01*
X105315162Y-121213201D01*
X105314838Y-121585167D01*
X105456883Y-121928943D01*
X105719673Y-122192192D01*
X106015141Y-122314882D01*
X105964833Y-122314838D01*
X105621057Y-122456883D01*
X105357808Y-122719673D01*
X105215162Y-123063201D01*
X105214838Y-123435167D01*
X79710000Y-123435167D01*
X79710000Y-90285750D01*
X88515000Y-90285750D01*
X88515000Y-90976309D01*
X88611673Y-91209698D01*
X88790301Y-91388327D01*
X89023690Y-91485000D01*
X89714250Y-91485000D01*
X89873000Y-91326250D01*
X89873000Y-90127000D01*
X88673750Y-90127000D01*
X88515000Y-90285750D01*
X79710000Y-90285750D01*
X79710000Y-89023691D01*
X88515000Y-89023691D01*
X88515000Y-89714250D01*
X88673750Y-89873000D01*
X89873000Y-89873000D01*
X89873000Y-88673750D01*
X90127000Y-88673750D01*
X90127000Y-89873000D01*
X90147000Y-89873000D01*
X90147000Y-90127000D01*
X90127000Y-90127000D01*
X90127000Y-91326250D01*
X90285750Y-91485000D01*
X90976310Y-91485000D01*
X91209699Y-91388327D01*
X91388327Y-91209698D01*
X91460597Y-91035223D01*
X91489946Y-91079147D01*
X91971715Y-91401054D01*
X92540000Y-91514093D01*
X93108285Y-91401054D01*
X93590054Y-91079147D01*
X93810000Y-90749974D01*
X94029946Y-91079147D01*
X94511715Y-91401054D01*
X95080000Y-91514093D01*
X95648285Y-91401054D01*
X96130054Y-91079147D01*
X96350000Y-90749974D01*
X96569946Y-91079147D01*
X97051715Y-91401054D01*
X97620000Y-91514093D01*
X98188285Y-91401054D01*
X98670054Y-91079147D01*
X98890000Y-90749974D01*
X99109946Y-91079147D01*
X99591715Y-91401054D01*
X100160000Y-91514093D01*
X100728285Y-91401054D01*
X101210054Y-91079147D01*
X101430000Y-90749974D01*
X101649946Y-91079147D01*
X102131715Y-91401054D01*
X102700000Y-91514093D01*
X103268285Y-91401054D01*
X103750054Y-91079147D01*
X103970000Y-90749974D01*
X104189946Y-91079147D01*
X104671715Y-91401054D01*
X105240000Y-91514093D01*
X105808285Y-91401054D01*
X106290054Y-91079147D01*
X106510000Y-90749974D01*
X106729946Y-91079147D01*
X107211715Y-91401054D01*
X107780000Y-91514093D01*
X108348285Y-91401054D01*
X108830054Y-91079147D01*
X109050000Y-90749974D01*
X109269946Y-91079147D01*
X109751715Y-91401054D01*
X110320000Y-91514093D01*
X110888285Y-91401054D01*
X111370054Y-91079147D01*
X111590000Y-90749974D01*
X111809946Y-91079147D01*
X112291715Y-91401054D01*
X112860000Y-91514093D01*
X113428285Y-91401054D01*
X113910054Y-91079147D01*
X114130000Y-90749974D01*
X114349946Y-91079147D01*
X114831715Y-91401054D01*
X115400000Y-91514093D01*
X115968285Y-91401054D01*
X116450054Y-91079147D01*
X116670000Y-90749974D01*
X116889946Y-91079147D01*
X117371715Y-91401054D01*
X117940000Y-91514093D01*
X118508285Y-91401054D01*
X118990054Y-91079147D01*
X119210000Y-90749974D01*
X119429946Y-91079147D01*
X119911715Y-91401054D01*
X120480000Y-91514093D01*
X121048285Y-91401054D01*
X121530054Y-91079147D01*
X121750000Y-90749974D01*
X121969946Y-91079147D01*
X122451715Y-91401054D01*
X123020000Y-91514093D01*
X123588285Y-91401054D01*
X124070054Y-91079147D01*
X124290000Y-90749974D01*
X124509946Y-91079147D01*
X124991715Y-91401054D01*
X125560000Y-91514093D01*
X126128285Y-91401054D01*
X126610054Y-91079147D01*
X126837702Y-90738447D01*
X126904817Y-90881358D01*
X127333076Y-91271645D01*
X127743110Y-91441476D01*
X127973000Y-91320155D01*
X127973000Y-90127000D01*
X128227000Y-90127000D01*
X128227000Y-91320155D01*
X128456890Y-91441476D01*
X128866924Y-91271645D01*
X129295183Y-90881358D01*
X129541486Y-90356892D01*
X129420819Y-90127000D01*
X128227000Y-90127000D01*
X127973000Y-90127000D01*
X127953000Y-90127000D01*
X127953000Y-89873000D01*
X127973000Y-89873000D01*
X127973000Y-88679845D01*
X128227000Y-88679845D01*
X128227000Y-89873000D01*
X129420819Y-89873000D01*
X129541486Y-89643108D01*
X129295183Y-89118642D01*
X128866924Y-88728355D01*
X128456890Y-88558524D01*
X128227000Y-88679845D01*
X127973000Y-88679845D01*
X127743110Y-88558524D01*
X127333076Y-88728355D01*
X126904817Y-89118642D01*
X126837702Y-89261553D01*
X126610054Y-88920853D01*
X126128285Y-88598946D01*
X125560000Y-88485907D01*
X124991715Y-88598946D01*
X124509946Y-88920853D01*
X124290000Y-89250026D01*
X124070054Y-88920853D01*
X123588285Y-88598946D01*
X123020000Y-88485907D01*
X122451715Y-88598946D01*
X121969946Y-88920853D01*
X121750000Y-89250026D01*
X121530054Y-88920853D01*
X121048285Y-88598946D01*
X120480000Y-88485907D01*
X119911715Y-88598946D01*
X119429946Y-88920853D01*
X119210000Y-89250026D01*
X118990054Y-88920853D01*
X118508285Y-88598946D01*
X117940000Y-88485907D01*
X117371715Y-88598946D01*
X116889946Y-88920853D01*
X116670000Y-89250026D01*
X116450054Y-88920853D01*
X115968285Y-88598946D01*
X115400000Y-88485907D01*
X114831715Y-88598946D01*
X114349946Y-88920853D01*
X114130000Y-89250026D01*
X113910054Y-88920853D01*
X113428285Y-88598946D01*
X112860000Y-88485907D01*
X112291715Y-88598946D01*
X111809946Y-88920853D01*
X111590000Y-89250026D01*
X111370054Y-88920853D01*
X110888285Y-88598946D01*
X110320000Y-88485907D01*
X109751715Y-88598946D01*
X109269946Y-88920853D01*
X109050000Y-89250026D01*
X108830054Y-88920853D01*
X108348285Y-88598946D01*
X107780000Y-88485907D01*
X107211715Y-88598946D01*
X106729946Y-88920853D01*
X106510000Y-89250026D01*
X106290054Y-88920853D01*
X105808285Y-88598946D01*
X105240000Y-88485907D01*
X104671715Y-88598946D01*
X104189946Y-88920853D01*
X103970000Y-89250026D01*
X103750054Y-88920853D01*
X103268285Y-88598946D01*
X102700000Y-88485907D01*
X102131715Y-88598946D01*
X101649946Y-88920853D01*
X101430000Y-89250026D01*
X101210054Y-88920853D01*
X100728285Y-88598946D01*
X100160000Y-88485907D01*
X99591715Y-88598946D01*
X99109946Y-88920853D01*
X98890000Y-89250026D01*
X98670054Y-88920853D01*
X98188285Y-88598946D01*
X97620000Y-88485907D01*
X97051715Y-88598946D01*
X96569946Y-88920853D01*
X96350000Y-89250026D01*
X96130054Y-88920853D01*
X95648285Y-88598946D01*
X95080000Y-88485907D01*
X94511715Y-88598946D01*
X94029946Y-88920853D01*
X93810000Y-89250026D01*
X93590054Y-88920853D01*
X93108285Y-88598946D01*
X92540000Y-88485907D01*
X91971715Y-88598946D01*
X91489946Y-88920853D01*
X91460597Y-88964777D01*
X91388327Y-88790302D01*
X91209699Y-88611673D01*
X90976310Y-88515000D01*
X90285750Y-88515000D01*
X90127000Y-88673750D01*
X89873000Y-88673750D01*
X89714250Y-88515000D01*
X89023690Y-88515000D01*
X88790301Y-88611673D01*
X88611673Y-88790302D01*
X88515000Y-89023691D01*
X79710000Y-89023691D01*
X79710000Y-87710000D01*
X178290000Y-87710000D01*
X178290000Y-160290000D01*
M02*
