G04 #@! TF.FileFunction,Soldermask,Top*
%FSLAX46Y46*%
G04 Gerber Fmt 4.6, Leading zero omitted, Abs format (unit mm)*
G04 Created by KiCad (PCBNEW 4.0.7-e1-6374~58~ubuntu16.04.1) date Wed Aug 30 00:48:10 2017*
%MOMM*%
%LPD*%
G01*
G04 APERTURE LIST*
%ADD10C,0.100000*%
%ADD11C,4.400000*%
%ADD12R,2.100000X2.100000*%
%ADD13O,2.100000X2.100000*%
%ADD14R,0.950000X1.900000*%
%ADD15R,1.900000X0.950000*%
%ADD16R,1.600000X1.150000*%
%ADD17R,1.150000X1.600000*%
%ADD18O,0.990000X1.650000*%
%ADD19R,1.600000X1.650000*%
%ADD20O,1.350000X1.050000*%
%ADD21R,0.500000X1.450000*%
%ADD22R,1.600000X1.300000*%
%ADD23R,1.700000X1.900000*%
%ADD24R,1.700000X1.700000*%
%ADD25R,2.400000X1.700000*%
%ADD26C,2.600000*%
%ADD27R,2.600000X2.600000*%
%ADD28R,1.300000X1.600000*%
%ADD29C,2.400000*%
%ADD30R,2.800000X3.900000*%
%ADD31R,1.200000X2.300000*%
G04 APERTURE END LIST*
D10*
D11*
X175500000Y-144500000D03*
X82500000Y-144500000D03*
X175500000Y-89500000D03*
D12*
X120200000Y-153200000D03*
D13*
X120200000Y-155740000D03*
X117660000Y-153200000D03*
X117660000Y-155740000D03*
X115120000Y-153200000D03*
X115120000Y-155740000D03*
D14*
X100750000Y-145850000D03*
X101550000Y-145850000D03*
X102350000Y-145850000D03*
X103150000Y-145850000D03*
X103950000Y-145850000D03*
X104750000Y-145850000D03*
X105550000Y-145850000D03*
X106350000Y-145850000D03*
X107150000Y-145850000D03*
X107950000Y-145850000D03*
X108750000Y-145850000D03*
D15*
X110450000Y-144150000D03*
X110450000Y-143350000D03*
X110450000Y-142550000D03*
X110450000Y-141750000D03*
X110450000Y-140950000D03*
X110450000Y-140150000D03*
X110450000Y-139350000D03*
X110450000Y-138550000D03*
X110450000Y-137750000D03*
X110450000Y-136950000D03*
X110450000Y-136150000D03*
D14*
X108750000Y-134450000D03*
X107950000Y-134450000D03*
X107150000Y-134450000D03*
X106350000Y-134450000D03*
X105550000Y-134450000D03*
X104750000Y-134450000D03*
X103950000Y-134450000D03*
X103150000Y-134450000D03*
X102350000Y-134450000D03*
X101550000Y-134450000D03*
X100750000Y-134450000D03*
D15*
X99050000Y-136150000D03*
X99050000Y-136950000D03*
X99050000Y-137750000D03*
X99050000Y-138550000D03*
X99050000Y-139350000D03*
X99050000Y-140150000D03*
X99050000Y-140950000D03*
X99050000Y-141750000D03*
X99050000Y-142550000D03*
X99050000Y-143350000D03*
X99050000Y-144150000D03*
D16*
X96850000Y-142550000D03*
X94950000Y-142550000D03*
D17*
X121500000Y-140150000D03*
X121500000Y-138250000D03*
X121500000Y-133300000D03*
X121500000Y-135200000D03*
X105700000Y-150050000D03*
X105700000Y-151950000D03*
D18*
X106550000Y-159550000D03*
D19*
X104050000Y-159550000D03*
D20*
X105550000Y-156850000D03*
D18*
X99550000Y-159550000D03*
D19*
X102050000Y-159550000D03*
D21*
X101750000Y-156850000D03*
X102400000Y-156850000D03*
X103050000Y-156850000D03*
X103700000Y-156850000D03*
X104350000Y-156850000D03*
D20*
X100550000Y-156850000D03*
D22*
X122450000Y-143700000D03*
X120250000Y-143700000D03*
D23*
X103800000Y-152900000D03*
X103800000Y-150200000D03*
X101700000Y-152900000D03*
X101700000Y-150200000D03*
D24*
X86150000Y-157750000D03*
D25*
X85000000Y-152250000D03*
D24*
X83850000Y-157750000D03*
D26*
X158500000Y-150100000D03*
X154500000Y-150100000D03*
X150500000Y-150100000D03*
X169000000Y-150100000D03*
X165000000Y-150100000D03*
D27*
X146500000Y-150100000D03*
D26*
X173000000Y-150100000D03*
D22*
X122450000Y-147350000D03*
X122450000Y-150650000D03*
D28*
X124050000Y-158550000D03*
X120750000Y-158550000D03*
D22*
X97350000Y-154550000D03*
X99550000Y-154550000D03*
D29*
X134950000Y-151150000D03*
X134950000Y-155650000D03*
X128450000Y-151150000D03*
X128450000Y-155650000D03*
D16*
X108200000Y-132300000D03*
X110100000Y-132300000D03*
X108200000Y-130750000D03*
X110100000Y-130750000D03*
X96850000Y-146650000D03*
X94950000Y-146650000D03*
D30*
X117550000Y-139300000D03*
X117550000Y-134100000D03*
D22*
X132900000Y-131050000D03*
X135100000Y-131050000D03*
D28*
X132900000Y-120050000D03*
X132900000Y-117850000D03*
X133850000Y-106150000D03*
X133850000Y-108350000D03*
X90350000Y-143050000D03*
X90350000Y-145250000D03*
X92250000Y-143050000D03*
X92250000Y-145250000D03*
D31*
X132900000Y-114350000D03*
X134800000Y-114350000D03*
X133850000Y-111350000D03*
X90350000Y-155100000D03*
X92250000Y-155100000D03*
X91300000Y-152100000D03*
D12*
X90000000Y-89540000D03*
D13*
X92540000Y-89540000D03*
X95080000Y-89540000D03*
X97620000Y-89540000D03*
X100160000Y-89540000D03*
X102700000Y-89540000D03*
X105240000Y-89540000D03*
X107780000Y-89540000D03*
X110320000Y-89540000D03*
X112860000Y-89540000D03*
X115400000Y-89540000D03*
X117940000Y-89540000D03*
X120480000Y-89540000D03*
X123020000Y-89540000D03*
X125560000Y-89540000D03*
X128100000Y-89540000D03*
D11*
X82500000Y-89500000D03*
M02*
