G04 #@! TF.FileFunction,Soldermask,Top*
%FSLAX46Y46*%
G04 Gerber Fmt 4.6, Leading zero omitted, Abs format (unit mm)*
G04 Created by KiCad (PCBNEW 4.0.7-e1-6374~58~ubuntu16.04.1) date Sun Aug  6 14:38:17 2017*
%MOMM*%
%LPD*%
G01*
G04 APERTURE LIST*
%ADD10C,0.100000*%
%ADD11R,2.100000X2.100000*%
%ADD12O,2.100000X2.100000*%
%ADD13R,0.950000X1.900000*%
%ADD14R,1.900000X0.950000*%
%ADD15R,1.600000X1.150000*%
%ADD16R,1.150000X1.600000*%
%ADD17O,0.990000X1.650000*%
%ADD18R,1.600000X1.650000*%
%ADD19O,1.350000X1.050000*%
%ADD20R,0.500000X1.450000*%
%ADD21R,1.600000X1.300000*%
%ADD22R,1.700000X1.900000*%
%ADD23R,1.700000X1.700000*%
%ADD24R,2.400000X1.700000*%
%ADD25C,2.600000*%
%ADD26R,2.600000X2.600000*%
%ADD27R,1.300000X1.600000*%
%ADD28C,2.400000*%
%ADD29R,2.800000X3.900000*%
G04 APERTURE END LIST*
D10*
D11*
X90000000Y-90000000D03*
D12*
X92540000Y-90000000D03*
X95080000Y-90000000D03*
X97620000Y-90000000D03*
X100160000Y-90000000D03*
X102700000Y-90000000D03*
X105240000Y-90000000D03*
X107780000Y-90000000D03*
X110320000Y-90000000D03*
X112860000Y-90000000D03*
X115400000Y-90000000D03*
X117940000Y-90000000D03*
X120480000Y-90000000D03*
X123020000Y-90000000D03*
X125560000Y-90000000D03*
X128100000Y-90000000D03*
D11*
X120200000Y-153200000D03*
D12*
X120200000Y-155740000D03*
X117660000Y-153200000D03*
X117660000Y-155740000D03*
X115120000Y-153200000D03*
X115120000Y-155740000D03*
D13*
X100750000Y-145850000D03*
X101550000Y-145850000D03*
X102350000Y-145850000D03*
X103150000Y-145850000D03*
X103950000Y-145850000D03*
X104750000Y-145850000D03*
X105550000Y-145850000D03*
X106350000Y-145850000D03*
X107150000Y-145850000D03*
X107950000Y-145850000D03*
X108750000Y-145850000D03*
D14*
X110450000Y-144150000D03*
X110450000Y-143350000D03*
X110450000Y-142550000D03*
X110450000Y-141750000D03*
X110450000Y-140950000D03*
X110450000Y-140150000D03*
X110450000Y-139350000D03*
X110450000Y-138550000D03*
X110450000Y-137750000D03*
X110450000Y-136950000D03*
X110450000Y-136150000D03*
D13*
X108750000Y-134450000D03*
X107950000Y-134450000D03*
X107150000Y-134450000D03*
X106350000Y-134450000D03*
X105550000Y-134450000D03*
X104750000Y-134450000D03*
X103950000Y-134450000D03*
X103150000Y-134450000D03*
X102350000Y-134450000D03*
X101550000Y-134450000D03*
X100750000Y-134450000D03*
D14*
X99050000Y-136150000D03*
X99050000Y-136950000D03*
X99050000Y-137750000D03*
X99050000Y-138550000D03*
X99050000Y-139350000D03*
X99050000Y-140150000D03*
X99050000Y-140950000D03*
X99050000Y-141750000D03*
X99050000Y-142550000D03*
X99050000Y-143350000D03*
X99050000Y-144150000D03*
D15*
X96850000Y-142550000D03*
X94950000Y-142550000D03*
D16*
X121500000Y-140150000D03*
X121500000Y-138250000D03*
X121500000Y-133300000D03*
X121500000Y-135200000D03*
X105700000Y-150050000D03*
X105700000Y-151950000D03*
D17*
X106550000Y-159550000D03*
D18*
X104050000Y-159550000D03*
D19*
X105550000Y-156850000D03*
D17*
X99550000Y-159550000D03*
D18*
X102050000Y-159550000D03*
D20*
X101750000Y-156850000D03*
X102400000Y-156850000D03*
X103050000Y-156850000D03*
X103700000Y-156850000D03*
X104350000Y-156850000D03*
D19*
X100550000Y-156850000D03*
D21*
X122450000Y-143700000D03*
X120250000Y-143700000D03*
D22*
X103800000Y-152900000D03*
X103800000Y-150200000D03*
X101700000Y-152900000D03*
X101700000Y-150200000D03*
D23*
X86150000Y-157750000D03*
D24*
X85000000Y-152250000D03*
D23*
X83850000Y-157750000D03*
D25*
X158500000Y-150100000D03*
X154500000Y-150100000D03*
X150500000Y-150100000D03*
X169000000Y-150100000D03*
X165000000Y-150100000D03*
D26*
X146500000Y-150100000D03*
D25*
X173000000Y-150100000D03*
D21*
X122450000Y-147350000D03*
X122450000Y-150650000D03*
D27*
X124050000Y-158550000D03*
X120750000Y-158550000D03*
D21*
X97350000Y-154550000D03*
X99550000Y-154550000D03*
D28*
X128450000Y-150900000D03*
X132950000Y-150900000D03*
X128450000Y-157400000D03*
X132950000Y-157400000D03*
D15*
X108200000Y-132300000D03*
X110100000Y-132300000D03*
X108200000Y-130750000D03*
X110100000Y-130750000D03*
X96850000Y-146650000D03*
X94950000Y-146650000D03*
D29*
X117550000Y-139300000D03*
X117550000Y-134100000D03*
M02*
