G04 #@! TF.FileFunction,Copper,L1,Top,Mixed*
%FSLAX46Y46*%
G04 Gerber Fmt 4.6, Leading zero omitted, Abs format (unit mm)*
G04 Created by KiCad (PCBNEW 4.0.7-e1-6374~58~ubuntu16.04.1) date Fri Aug 11 00:53:43 2017*
%MOMM*%
%LPD*%
G01*
G04 APERTURE LIST*
%ADD10C,0.100000*%
%ADD11R,1.700000X1.700000*%
%ADD12O,1.700000X1.700000*%
%ADD13R,0.550000X1.500000*%
%ADD14R,1.500000X0.550000*%
%ADD15R,1.200000X0.750000*%
%ADD16R,0.750000X1.200000*%
%ADD17O,0.890000X1.550000*%
%ADD18R,1.500000X1.550000*%
%ADD19O,1.250000X0.950000*%
%ADD20R,0.400000X1.350000*%
%ADD21R,1.200000X0.900000*%
%ADD22R,1.300000X1.500000*%
%ADD23R,1.300000X1.300000*%
%ADD24R,2.000000X1.300000*%
%ADD25C,2.200000*%
%ADD26R,2.200000X2.200000*%
%ADD27R,0.900000X1.200000*%
%ADD28C,2.000000*%
%ADD29R,2.400000X3.500000*%
%ADD30R,0.800000X0.900000*%
%ADD31C,0.600000*%
%ADD32C,0.250000*%
%ADD33C,0.400000*%
%ADD34C,0.254000*%
G04 APERTURE END LIST*
D10*
D11*
X90000000Y-90000000D03*
D12*
X92540000Y-90000000D03*
X95080000Y-90000000D03*
X97620000Y-90000000D03*
X100160000Y-90000000D03*
X102700000Y-90000000D03*
X105240000Y-90000000D03*
X107780000Y-90000000D03*
X110320000Y-90000000D03*
X112860000Y-90000000D03*
X115400000Y-90000000D03*
X117940000Y-90000000D03*
X120480000Y-90000000D03*
X123020000Y-90000000D03*
X125560000Y-90000000D03*
X128100000Y-90000000D03*
D11*
X120200000Y-153200000D03*
D12*
X120200000Y-155740000D03*
X117660000Y-153200000D03*
X117660000Y-155740000D03*
X115120000Y-153200000D03*
X115120000Y-155740000D03*
D13*
X100750000Y-145850000D03*
X101550000Y-145850000D03*
X102350000Y-145850000D03*
X103150000Y-145850000D03*
X103950000Y-145850000D03*
X104750000Y-145850000D03*
X105550000Y-145850000D03*
X106350000Y-145850000D03*
X107150000Y-145850000D03*
X107950000Y-145850000D03*
X108750000Y-145850000D03*
D14*
X110450000Y-144150000D03*
X110450000Y-143350000D03*
X110450000Y-142550000D03*
X110450000Y-141750000D03*
X110450000Y-140950000D03*
X110450000Y-140150000D03*
X110450000Y-139350000D03*
X110450000Y-138550000D03*
X110450000Y-137750000D03*
X110450000Y-136950000D03*
X110450000Y-136150000D03*
D13*
X108750000Y-134450000D03*
X107950000Y-134450000D03*
X107150000Y-134450000D03*
X106350000Y-134450000D03*
X105550000Y-134450000D03*
X104750000Y-134450000D03*
X103950000Y-134450000D03*
X103150000Y-134450000D03*
X102350000Y-134450000D03*
X101550000Y-134450000D03*
X100750000Y-134450000D03*
D14*
X99050000Y-136150000D03*
X99050000Y-136950000D03*
X99050000Y-137750000D03*
X99050000Y-138550000D03*
X99050000Y-139350000D03*
X99050000Y-140150000D03*
X99050000Y-140950000D03*
X99050000Y-141750000D03*
X99050000Y-142550000D03*
X99050000Y-143350000D03*
X99050000Y-144150000D03*
D15*
X96850000Y-142550000D03*
X94950000Y-142550000D03*
D16*
X121500000Y-140150000D03*
X121500000Y-138250000D03*
X121500000Y-133300000D03*
X121500000Y-135200000D03*
X105700000Y-150050000D03*
X105700000Y-151950000D03*
D17*
X106550000Y-159550000D03*
D18*
X104050000Y-159550000D03*
D19*
X105550000Y-156850000D03*
D17*
X99550000Y-159550000D03*
D18*
X102050000Y-159550000D03*
D20*
X101750000Y-156850000D03*
X102400000Y-156850000D03*
X103050000Y-156850000D03*
X103700000Y-156850000D03*
X104350000Y-156850000D03*
D19*
X100550000Y-156850000D03*
D21*
X122450000Y-143700000D03*
X120250000Y-143700000D03*
D22*
X103800000Y-152900000D03*
X103800000Y-150200000D03*
X101700000Y-152900000D03*
X101700000Y-150200000D03*
D23*
X86150000Y-157750000D03*
D24*
X85000000Y-152250000D03*
D23*
X83850000Y-157750000D03*
D25*
X158500000Y-150100000D03*
X154500000Y-150100000D03*
X150500000Y-150100000D03*
X169000000Y-150100000D03*
X165000000Y-150100000D03*
D26*
X146500000Y-150100000D03*
D25*
X173000000Y-150100000D03*
D21*
X122450000Y-147350000D03*
X122450000Y-150650000D03*
D27*
X124050000Y-158550000D03*
X120750000Y-158550000D03*
D21*
X97350000Y-154550000D03*
X99550000Y-154550000D03*
D28*
X128450000Y-150900000D03*
X132950000Y-150900000D03*
X128450000Y-157400000D03*
X132950000Y-157400000D03*
D15*
X108200000Y-132300000D03*
X110100000Y-132300000D03*
X108200000Y-130750000D03*
X110100000Y-130750000D03*
X96850000Y-146650000D03*
X94950000Y-146650000D03*
D29*
X117550000Y-139300000D03*
X117550000Y-134100000D03*
D30*
X132900000Y-115700000D03*
X134800000Y-115700000D03*
X133850000Y-113700000D03*
X88150000Y-132300000D03*
X90050000Y-132300000D03*
X89100000Y-130300000D03*
D21*
X132900000Y-131050000D03*
X135100000Y-131050000D03*
D27*
X132900000Y-120050000D03*
X132900000Y-117850000D03*
X133850000Y-109400000D03*
X133850000Y-111600000D03*
X88150000Y-138900000D03*
X88150000Y-136700000D03*
X88150000Y-140950000D03*
X88150000Y-143150000D03*
D31*
X136350000Y-131050000D03*
X90050000Y-133400000D03*
X134800000Y-116900000D03*
X88150000Y-144550000D03*
X105700000Y-153150000D03*
X109000000Y-141750000D03*
X103950000Y-144550000D03*
X103950000Y-147300000D03*
X93550000Y-142550000D03*
X93550000Y-146650000D03*
X98800000Y-134450000D03*
X87700000Y-157750000D03*
X100800000Y-159550000D03*
X104350000Y-155500000D03*
X97450000Y-136700000D03*
X121500000Y-136750000D03*
X105300000Y-159550000D03*
X109800000Y-134450000D03*
X97300000Y-144000000D03*
X112000000Y-141750000D03*
X109700000Y-150250000D03*
X111300000Y-150250000D03*
X118750000Y-144750000D03*
X117050000Y-145700000D03*
X115100000Y-149600000D03*
X115100000Y-147700000D03*
X115100000Y-145700000D03*
X112400000Y-125800000D03*
X106250000Y-119650000D03*
X106150000Y-123250000D03*
X110850000Y-128000000D03*
X106250000Y-121400000D03*
X111450000Y-126600000D03*
X147850000Y-129800000D03*
X147850000Y-126600000D03*
X90000000Y-106100000D03*
X94850000Y-110950000D03*
X132900000Y-121300000D03*
X132900000Y-128850000D03*
D32*
X99050000Y-142550000D02*
X96850000Y-142550000D01*
X135100000Y-131050000D02*
X136350000Y-131050000D01*
X90050000Y-132300000D02*
X90050000Y-133400000D01*
X134800000Y-115700000D02*
X134800000Y-116900000D01*
X88150000Y-143150000D02*
X88150000Y-144550000D01*
X105700000Y-151950000D02*
X105700000Y-153150000D01*
X110450000Y-141750000D02*
X109000000Y-141750000D01*
X103950000Y-145850000D02*
X103950000Y-144550000D01*
X103950000Y-145850000D02*
X103950000Y-147300000D01*
X94950000Y-142550000D02*
X93550000Y-142550000D01*
X94950000Y-146650000D02*
X93550000Y-146650000D01*
X100750000Y-134450000D02*
X98800000Y-134450000D01*
X86150000Y-157750000D02*
X87700000Y-157750000D01*
X102050000Y-159550000D02*
X100800000Y-159550000D01*
X104350000Y-156850000D02*
X104350000Y-155500000D01*
X99050000Y-136950000D02*
X97700000Y-136950000D01*
X97700000Y-136950000D02*
X97450000Y-136700000D01*
X121500000Y-135200000D02*
X121500000Y-136750000D01*
X121500000Y-136750000D02*
X121500000Y-138250000D01*
X104050000Y-159550000D02*
X105300000Y-159550000D01*
X108750000Y-134450000D02*
X109800000Y-134450000D01*
X99050000Y-143350000D02*
X97950000Y-143350000D01*
X97950000Y-143350000D02*
X97300000Y-144000000D01*
X110450000Y-141750000D02*
X112000000Y-141750000D01*
X117550000Y-139300000D02*
X119350000Y-139300000D01*
X120200000Y-140150000D02*
X121500000Y-140150000D01*
X119350000Y-139300000D02*
X120200000Y-140150000D01*
X117550000Y-139300000D02*
X115300000Y-139300000D01*
X115300000Y-139300000D02*
X113650000Y-140950000D01*
X113650000Y-140950000D02*
X110450000Y-140950000D01*
X117550000Y-134100000D02*
X119200000Y-134100000D01*
X120000000Y-133300000D02*
X121500000Y-133300000D01*
X119200000Y-134100000D02*
X120000000Y-133300000D01*
X117550000Y-134100000D02*
X115750000Y-134100000D01*
X113800000Y-140150000D02*
X110450000Y-140150000D01*
X115100000Y-138850000D02*
X113800000Y-140150000D01*
X115100000Y-134750000D02*
X115100000Y-138850000D01*
X115750000Y-134100000D02*
X115100000Y-134750000D01*
X104750000Y-145850000D02*
X104750000Y-148050000D01*
X105700000Y-149000000D02*
X105700000Y-150050000D01*
X104750000Y-148050000D02*
X105700000Y-149000000D01*
D33*
X101550000Y-145850000D02*
X101550000Y-144450000D01*
X105550000Y-144350000D02*
X105550000Y-145850000D01*
X104950000Y-143750000D02*
X105550000Y-144350000D01*
X102250000Y-143750000D02*
X104950000Y-143750000D01*
X101550000Y-144450000D02*
X102250000Y-143750000D01*
X97350000Y-154550000D02*
X97350000Y-157500000D01*
X111200000Y-158550000D02*
X120750000Y-158550000D01*
X110700000Y-158050000D02*
X111200000Y-158550000D01*
X97900000Y-158050000D02*
X110700000Y-158050000D01*
X97350000Y-157500000D02*
X97900000Y-158050000D01*
X97350000Y-154550000D02*
X97350000Y-150200000D01*
X101550000Y-147650000D02*
X101550000Y-145850000D01*
X100750000Y-148450000D02*
X101550000Y-147650000D01*
X99100000Y-148450000D02*
X100750000Y-148450000D01*
X97350000Y-150200000D02*
X99100000Y-148450000D01*
D32*
X97350000Y-154550000D02*
X96900000Y-154550000D01*
X85000000Y-152250000D02*
X85000000Y-117950000D01*
X85000000Y-117950000D02*
X95080000Y-107870000D01*
X95080000Y-107870000D02*
X95080000Y-90000000D01*
X99050000Y-139350000D02*
X95350000Y-139350000D01*
X97620000Y-111380000D02*
X97620000Y-90000000D01*
X92450000Y-116550000D02*
X97620000Y-111380000D01*
X92450000Y-136450000D02*
X92450000Y-116550000D01*
X95350000Y-139350000D02*
X92450000Y-136450000D01*
X99050000Y-138550000D02*
X96250000Y-138550000D01*
X100160000Y-111590000D02*
X100160000Y-90000000D01*
X94350000Y-117400000D02*
X100160000Y-111590000D01*
X94350000Y-136650000D02*
X94350000Y-117400000D01*
X96250000Y-138550000D02*
X94350000Y-136650000D01*
X99050000Y-137750000D02*
X96850000Y-137750000D01*
X102700000Y-111900000D02*
X102700000Y-90000000D01*
X96450000Y-118150000D02*
X102700000Y-111900000D01*
X96450000Y-137350000D02*
X96450000Y-118150000D01*
X96850000Y-137750000D02*
X96450000Y-137350000D01*
X104750000Y-134450000D02*
X104750000Y-126300000D01*
X115400000Y-115650000D02*
X115400000Y-90000000D01*
X104750000Y-126300000D02*
X115400000Y-115650000D01*
X105550000Y-134450000D02*
X105550000Y-127450000D01*
X117940000Y-115060000D02*
X117940000Y-90000000D01*
X105550000Y-127450000D02*
X117940000Y-115060000D01*
X106350000Y-134450000D02*
X106350000Y-128300000D01*
X120480000Y-114170000D02*
X120480000Y-90000000D01*
X106350000Y-128300000D02*
X120480000Y-114170000D01*
X107150000Y-134450000D02*
X107150000Y-129350000D01*
X123020000Y-113480000D02*
X123020000Y-90000000D01*
X107150000Y-129350000D02*
X123020000Y-113480000D01*
X123050000Y-90030000D02*
X123020000Y-90000000D01*
X120200000Y-153200000D02*
X120200000Y-149600000D01*
X108750000Y-146750000D02*
X108750000Y-145850000D01*
X109050000Y-147050000D02*
X108750000Y-146750000D01*
X117650000Y-147050000D02*
X109050000Y-147050000D01*
X120200000Y-149600000D02*
X117650000Y-147050000D01*
X117660000Y-153200000D02*
X117660000Y-151110000D01*
X109700000Y-150250000D02*
X108400000Y-150250000D01*
X108400000Y-150250000D02*
X107150000Y-149000000D01*
X107150000Y-149000000D02*
X107150000Y-145850000D01*
X116800000Y-150250000D02*
X111300000Y-150250000D01*
X117660000Y-151110000D02*
X116800000Y-150250000D01*
X117660000Y-155740000D02*
X117660000Y-157440000D01*
X107950000Y-147050000D02*
X107950000Y-145850000D01*
X108550000Y-147650000D02*
X107950000Y-147050000D01*
X109300000Y-147650000D02*
X108550000Y-147650000D01*
X110600000Y-148950000D02*
X109300000Y-147650000D01*
X110600000Y-156000000D02*
X110600000Y-148950000D01*
X112500000Y-157900000D02*
X110600000Y-156000000D01*
X117200000Y-157900000D02*
X112500000Y-157900000D01*
X117660000Y-157440000D02*
X117200000Y-157900000D01*
X120250000Y-144400000D02*
X119900000Y-144750000D01*
X119900000Y-144750000D02*
X118750000Y-144750000D01*
X120250000Y-143700000D02*
X120250000Y-144400000D01*
X117050000Y-145700000D02*
X115100000Y-145700000D01*
X115100000Y-149600000D02*
X115100000Y-147700000D01*
X123400000Y-142800000D02*
X120500000Y-142800000D01*
X123450000Y-142850000D02*
X128450000Y-147850000D01*
X123400000Y-142800000D02*
X123450000Y-142850000D01*
X128450000Y-150900000D02*
X128450000Y-147850000D01*
X120250000Y-143050000D02*
X120250000Y-143700000D01*
X120500000Y-142800000D02*
X120250000Y-143050000D01*
X114050000Y-143350000D02*
X110450000Y-143350000D01*
X115100000Y-144400000D02*
X114050000Y-143350000D01*
X115100000Y-145700000D02*
X115100000Y-144400000D01*
X101550000Y-134450000D02*
X101550000Y-124350000D01*
X158500000Y-130700000D02*
X158500000Y-150100000D01*
X153600000Y-125800000D02*
X158500000Y-130700000D01*
X112400000Y-125800000D02*
X153600000Y-125800000D01*
X101550000Y-124350000D02*
X106250000Y-119650000D01*
X149950000Y-127750000D02*
X154500000Y-132300000D01*
X103950000Y-125300000D02*
X106000000Y-123250000D01*
X106000000Y-123250000D02*
X106150000Y-123250000D01*
X110850000Y-128000000D02*
X111100000Y-127750000D01*
X111100000Y-127750000D02*
X149950000Y-127750000D01*
X103950000Y-134450000D02*
X103950000Y-125300000D01*
X154500000Y-132300000D02*
X154500000Y-150100000D01*
X111450000Y-126600000D02*
X147850000Y-126600000D01*
X102350000Y-125300000D02*
X106250000Y-121400000D01*
X102350000Y-134450000D02*
X102350000Y-125300000D01*
X150500000Y-132450000D02*
X150500000Y-150100000D01*
X147850000Y-129800000D02*
X150500000Y-132450000D01*
X101700000Y-152900000D02*
X101700000Y-154150000D01*
X102400000Y-154850000D02*
X102400000Y-156850000D01*
X101700000Y-154150000D02*
X102400000Y-154850000D01*
X103800000Y-152900000D02*
X103800000Y-154150000D01*
X103050000Y-154900000D02*
X103050000Y-156850000D01*
X103800000Y-154150000D02*
X103050000Y-154900000D01*
X103800000Y-150200000D02*
X103800000Y-149000000D01*
X103150000Y-148350000D02*
X103150000Y-145850000D01*
X103800000Y-149000000D02*
X103150000Y-148350000D01*
X101700000Y-150200000D02*
X101700000Y-149000000D01*
X102350000Y-148350000D02*
X102350000Y-145850000D01*
X101700000Y-149000000D02*
X102350000Y-148350000D01*
X102450000Y-145950000D02*
X102350000Y-145850000D01*
D33*
X107950000Y-136150000D02*
X107950000Y-141800000D01*
X108700000Y-142550000D02*
X110450000Y-142550000D01*
X107950000Y-141800000D02*
X108700000Y-142550000D01*
X100550000Y-136150000D02*
X107950000Y-136150000D01*
X107950000Y-136150000D02*
X107950000Y-134450000D01*
X100550000Y-143650000D02*
X100550000Y-136150000D01*
X100050000Y-144150000D02*
X100550000Y-143650000D01*
X99050000Y-144150000D02*
X100050000Y-144150000D01*
X100550000Y-136150000D02*
X99050000Y-136150000D01*
X146500000Y-150100000D02*
X146500000Y-151650000D01*
X125560000Y-119360000D02*
X125560000Y-90000000D01*
X130050000Y-123850000D02*
X125560000Y-119360000D01*
X155700000Y-123850000D02*
X130050000Y-123850000D01*
X161300000Y-129450000D02*
X155700000Y-123850000D01*
X161300000Y-151600000D02*
X161300000Y-129450000D01*
X160450000Y-152450000D02*
X161300000Y-151600000D01*
X147300000Y-152450000D02*
X160450000Y-152450000D01*
X146500000Y-151650000D02*
X147300000Y-152450000D01*
X146500000Y-150100000D02*
X141900000Y-150100000D01*
X139950000Y-154300000D02*
X124050000Y-154300000D01*
X140550000Y-153700000D02*
X139950000Y-154300000D01*
X140550000Y-151450000D02*
X140550000Y-153700000D01*
X141900000Y-150100000D02*
X140550000Y-151450000D01*
X124050000Y-158550000D02*
X124050000Y-154300000D01*
X124050000Y-154300000D02*
X124050000Y-147900000D01*
X123500000Y-147350000D02*
X122450000Y-147350000D01*
X124050000Y-147900000D02*
X123500000Y-147350000D01*
X122450000Y-147350000D02*
X122450000Y-143700000D01*
X110450000Y-142550000D02*
X115100000Y-142550000D01*
X119900000Y-147350000D02*
X122450000Y-147350000D01*
X115100000Y-142550000D02*
X119900000Y-147350000D01*
X108200000Y-132300000D02*
X108200000Y-130750000D01*
X107950000Y-134450000D02*
X107950000Y-132550000D01*
X107950000Y-132550000D02*
X108200000Y-132300000D01*
X96850000Y-146650000D02*
X97750000Y-146650000D01*
X99050000Y-145350000D02*
X99050000Y-144150000D01*
X97750000Y-146650000D02*
X99050000Y-145350000D01*
X125560000Y-90000000D02*
X125500000Y-90000000D01*
X125500000Y-90000000D02*
X123800000Y-88300000D01*
X123800000Y-88300000D02*
X93250000Y-88300000D01*
X93250000Y-88300000D02*
X92540000Y-89010000D01*
X92540000Y-89010000D02*
X92540000Y-90000000D01*
X92540000Y-105960000D02*
X92540000Y-90000000D01*
X92540000Y-90000000D02*
X92540000Y-89010000D01*
X81150000Y-117350000D02*
X92540000Y-105960000D01*
X81150000Y-157250000D02*
X81150000Y-117350000D01*
X81650000Y-157750000D02*
X81150000Y-157250000D01*
X83850000Y-157750000D02*
X81650000Y-157750000D01*
X120200000Y-155740000D02*
X121760000Y-155740000D01*
X122450000Y-155050000D02*
X122450000Y-150650000D01*
X121760000Y-155740000D02*
X122450000Y-155050000D01*
X101750000Y-156850000D02*
X101750000Y-155500000D01*
X100800000Y-154550000D02*
X99550000Y-154550000D01*
X101750000Y-155500000D02*
X100800000Y-154550000D01*
D32*
X89100000Y-130300000D02*
X89100000Y-116700000D01*
X90000000Y-106100000D02*
X90000000Y-90000000D01*
X89100000Y-116700000D02*
X94850000Y-110950000D01*
X133850000Y-109400000D02*
X133850000Y-104400000D01*
X128100000Y-98650000D02*
X128100000Y-90000000D01*
X133850000Y-104400000D02*
X128100000Y-98650000D01*
X132900000Y-117850000D02*
X132900000Y-115700000D01*
X133850000Y-113700000D02*
X133850000Y-111600000D01*
X88150000Y-136700000D02*
X88150000Y-132300000D01*
X132900000Y-131050000D02*
X132900000Y-128850000D01*
X132900000Y-121300000D02*
X132900000Y-120050000D01*
X110450000Y-139350000D02*
X112800000Y-139350000D01*
X115850000Y-131050000D02*
X132900000Y-131050000D01*
X113700000Y-133200000D02*
X115850000Y-131050000D01*
X113700000Y-138450000D02*
X113700000Y-133200000D01*
X112800000Y-139350000D02*
X113700000Y-138450000D01*
X88150000Y-140950000D02*
X88150000Y-138900000D01*
X99050000Y-140950000D02*
X88150000Y-140950000D01*
D34*
G36*
X100665000Y-159264250D02*
X100823750Y-159423000D01*
X101923000Y-159423000D01*
X101923000Y-159403000D01*
X102177000Y-159403000D01*
X102177000Y-159423000D01*
X103923000Y-159423000D01*
X103923000Y-159403000D01*
X104177000Y-159403000D01*
X104177000Y-159423000D01*
X105276250Y-159423000D01*
X105435000Y-159264250D01*
X105435000Y-158885000D01*
X105531141Y-158885000D01*
X105470000Y-159192376D01*
X105470000Y-159907624D01*
X105546059Y-160290000D01*
X105435000Y-160290000D01*
X105435000Y-159835750D01*
X105276250Y-159677000D01*
X104177000Y-159677000D01*
X104177000Y-159697000D01*
X103923000Y-159697000D01*
X103923000Y-159677000D01*
X102177000Y-159677000D01*
X102177000Y-159697000D01*
X101923000Y-159697000D01*
X101923000Y-159677000D01*
X100823750Y-159677000D01*
X100665000Y-159835750D01*
X100665000Y-160290000D01*
X100553941Y-160290000D01*
X100630000Y-159907624D01*
X100630000Y-159192376D01*
X100568859Y-158885000D01*
X100665000Y-158885000D01*
X100665000Y-159264250D01*
X100665000Y-159264250D01*
G37*
X100665000Y-159264250D02*
X100823750Y-159423000D01*
X101923000Y-159423000D01*
X101923000Y-159403000D01*
X102177000Y-159403000D01*
X102177000Y-159423000D01*
X103923000Y-159423000D01*
X103923000Y-159403000D01*
X104177000Y-159403000D01*
X104177000Y-159423000D01*
X105276250Y-159423000D01*
X105435000Y-159264250D01*
X105435000Y-158885000D01*
X105531141Y-158885000D01*
X105470000Y-159192376D01*
X105470000Y-159907624D01*
X105546059Y-160290000D01*
X105435000Y-160290000D01*
X105435000Y-159835750D01*
X105276250Y-159677000D01*
X104177000Y-159677000D01*
X104177000Y-159697000D01*
X103923000Y-159697000D01*
X103923000Y-159677000D01*
X102177000Y-159677000D01*
X102177000Y-159697000D01*
X101923000Y-159697000D01*
X101923000Y-159677000D01*
X100823750Y-159677000D01*
X100665000Y-159835750D01*
X100665000Y-160290000D01*
X100553941Y-160290000D01*
X100630000Y-159907624D01*
X100630000Y-159192376D01*
X100568859Y-158885000D01*
X100665000Y-158885000D01*
X100665000Y-159264250D01*
G36*
X178290000Y-160290000D02*
X107553941Y-160290000D01*
X107630000Y-159907624D01*
X107630000Y-159192376D01*
X107568859Y-158885000D01*
X110354132Y-158885000D01*
X110609566Y-159140434D01*
X110880460Y-159321440D01*
X111200000Y-159385000D01*
X119696778Y-159385000D01*
X119696838Y-159385317D01*
X119835910Y-159601441D01*
X120048110Y-159746431D01*
X120300000Y-159797440D01*
X121200000Y-159797440D01*
X121435317Y-159753162D01*
X121651441Y-159614090D01*
X121796431Y-159401890D01*
X121847440Y-159150000D01*
X121847440Y-157950000D01*
X121803162Y-157714683D01*
X121664090Y-157498559D01*
X121451890Y-157353569D01*
X121200000Y-157302560D01*
X120300000Y-157302560D01*
X120064683Y-157346838D01*
X119848559Y-157485910D01*
X119703569Y-157698110D01*
X119700149Y-157715000D01*
X118365299Y-157715000D01*
X118420000Y-157440000D01*
X118420000Y-157012954D01*
X118710054Y-156819147D01*
X118930000Y-156489974D01*
X119149946Y-156819147D01*
X119631715Y-157141054D01*
X120200000Y-157254093D01*
X120768285Y-157141054D01*
X121250054Y-156819147D01*
X121413187Y-156575000D01*
X121760000Y-156575000D01*
X122079541Y-156511439D01*
X122350434Y-156330434D01*
X123040434Y-155640434D01*
X123086268Y-155571838D01*
X123215000Y-155379178D01*
X123215000Y-157443156D01*
X123148559Y-157485910D01*
X123003569Y-157698110D01*
X122952560Y-157950000D01*
X122952560Y-159150000D01*
X122996838Y-159385317D01*
X123135910Y-159601441D01*
X123348110Y-159746431D01*
X123600000Y-159797440D01*
X124500000Y-159797440D01*
X124735317Y-159753162D01*
X124951441Y-159614090D01*
X125096431Y-159401890D01*
X125147440Y-159150000D01*
X125147440Y-157950000D01*
X125104877Y-157723795D01*
X126814716Y-157723795D01*
X127063106Y-158324943D01*
X127522637Y-158785278D01*
X128123352Y-159034716D01*
X128773795Y-159035284D01*
X129374943Y-158786894D01*
X129609715Y-158552532D01*
X131977073Y-158552532D01*
X132075736Y-158819387D01*
X132685461Y-159045908D01*
X133335460Y-159021856D01*
X133824264Y-158819387D01*
X133922927Y-158552532D01*
X132950000Y-157579605D01*
X131977073Y-158552532D01*
X129609715Y-158552532D01*
X129835278Y-158327363D01*
X130084716Y-157726648D01*
X130085232Y-157135461D01*
X131304092Y-157135461D01*
X131328144Y-157785460D01*
X131530613Y-158274264D01*
X131797468Y-158372927D01*
X132770395Y-157400000D01*
X133129605Y-157400000D01*
X134102532Y-158372927D01*
X134369387Y-158274264D01*
X134595908Y-157664539D01*
X134571856Y-157014540D01*
X134369387Y-156525736D01*
X134102532Y-156427073D01*
X133129605Y-157400000D01*
X132770395Y-157400000D01*
X131797468Y-156427073D01*
X131530613Y-156525736D01*
X131304092Y-157135461D01*
X130085232Y-157135461D01*
X130085284Y-157076205D01*
X129836894Y-156475057D01*
X129609703Y-156247468D01*
X131977073Y-156247468D01*
X132950000Y-157220395D01*
X133922927Y-156247468D01*
X133824264Y-155980613D01*
X133214539Y-155754092D01*
X132564540Y-155778144D01*
X132075736Y-155980613D01*
X131977073Y-156247468D01*
X129609703Y-156247468D01*
X129377363Y-156014722D01*
X128776648Y-155765284D01*
X128126205Y-155764716D01*
X127525057Y-156013106D01*
X127064722Y-156472637D01*
X126815284Y-157073352D01*
X126814716Y-157723795D01*
X125104877Y-157723795D01*
X125103162Y-157714683D01*
X124964090Y-157498559D01*
X124885000Y-157444519D01*
X124885000Y-155135000D01*
X139950000Y-155135000D01*
X140269541Y-155071439D01*
X140540434Y-154890434D01*
X141140434Y-154290434D01*
X141180508Y-154230459D01*
X141321439Y-154019541D01*
X141385000Y-153700000D01*
X141385000Y-151795868D01*
X142245868Y-150935000D01*
X144752560Y-150935000D01*
X144752560Y-151200000D01*
X144796838Y-151435317D01*
X144935910Y-151651441D01*
X145148110Y-151796431D01*
X145400000Y-151847440D01*
X145704273Y-151847440D01*
X145728561Y-151969541D01*
X145836083Y-152130459D01*
X145909566Y-152240434D01*
X146709566Y-153040434D01*
X146980459Y-153221439D01*
X147300000Y-153285000D01*
X160450000Y-153285000D01*
X160769541Y-153221439D01*
X161040434Y-153040434D01*
X161890434Y-152190434D01*
X162071440Y-151919540D01*
X162135000Y-151600000D01*
X162135000Y-150443599D01*
X163264699Y-150443599D01*
X163528281Y-151081515D01*
X164015918Y-151570004D01*
X164653373Y-151834699D01*
X165343599Y-151835301D01*
X165981515Y-151571719D01*
X166470004Y-151084082D01*
X166734699Y-150446627D01*
X166734701Y-150443599D01*
X167264699Y-150443599D01*
X167528281Y-151081515D01*
X168015918Y-151570004D01*
X168653373Y-151834699D01*
X169343599Y-151835301D01*
X169981515Y-151571719D01*
X170228797Y-151324868D01*
X171954737Y-151324868D01*
X172065641Y-151602099D01*
X172711593Y-151845323D01*
X173401453Y-151822836D01*
X173934359Y-151602099D01*
X174045263Y-151324868D01*
X173000000Y-150279605D01*
X171954737Y-151324868D01*
X170228797Y-151324868D01*
X170470004Y-151084082D01*
X170734699Y-150446627D01*
X170735252Y-149811593D01*
X171254677Y-149811593D01*
X171277164Y-150501453D01*
X171497901Y-151034359D01*
X171775132Y-151145263D01*
X172820395Y-150100000D01*
X173179605Y-150100000D01*
X174224868Y-151145263D01*
X174502099Y-151034359D01*
X174745323Y-150388407D01*
X174722836Y-149698547D01*
X174502099Y-149165641D01*
X174224868Y-149054737D01*
X173179605Y-150100000D01*
X172820395Y-150100000D01*
X171775132Y-149054737D01*
X171497901Y-149165641D01*
X171254677Y-149811593D01*
X170735252Y-149811593D01*
X170735301Y-149756401D01*
X170471719Y-149118485D01*
X170228791Y-148875132D01*
X171954737Y-148875132D01*
X173000000Y-149920395D01*
X174045263Y-148875132D01*
X173934359Y-148597901D01*
X173288407Y-148354677D01*
X172598547Y-148377164D01*
X172065641Y-148597901D01*
X171954737Y-148875132D01*
X170228791Y-148875132D01*
X169984082Y-148629996D01*
X169346627Y-148365301D01*
X168656401Y-148364699D01*
X168018485Y-148628281D01*
X167529996Y-149115918D01*
X167265301Y-149753373D01*
X167264699Y-150443599D01*
X166734701Y-150443599D01*
X166735301Y-149756401D01*
X166471719Y-149118485D01*
X165984082Y-148629996D01*
X165346627Y-148365301D01*
X164656401Y-148364699D01*
X164018485Y-148628281D01*
X163529996Y-149115918D01*
X163265301Y-149753373D01*
X163264699Y-150443599D01*
X162135000Y-150443599D01*
X162135000Y-129450000D01*
X162071439Y-129130459D01*
X161890434Y-128859566D01*
X156290434Y-123259566D01*
X156276117Y-123250000D01*
X156019541Y-123078561D01*
X155700000Y-123015000D01*
X130395868Y-123015000D01*
X126395000Y-119014132D01*
X126395000Y-91222841D01*
X126610054Y-91079147D01*
X126830000Y-90749974D01*
X127049946Y-91079147D01*
X127340000Y-91272954D01*
X127340000Y-98650000D01*
X127397852Y-98940839D01*
X127562599Y-99187401D01*
X133090000Y-104714802D01*
X133090000Y-108244895D01*
X132948559Y-108335910D01*
X132803569Y-108548110D01*
X132752560Y-108800000D01*
X132752560Y-110000000D01*
X132796838Y-110235317D01*
X132935910Y-110451441D01*
X133005711Y-110499134D01*
X132948559Y-110535910D01*
X132803569Y-110748110D01*
X132752560Y-111000000D01*
X132752560Y-112200000D01*
X132796838Y-112435317D01*
X132935910Y-112651441D01*
X133067647Y-112741453D01*
X132998559Y-112785910D01*
X132853569Y-112998110D01*
X132802560Y-113250000D01*
X132802560Y-114150000D01*
X132846838Y-114385317D01*
X132985910Y-114601441D01*
X132987548Y-114602560D01*
X132500000Y-114602560D01*
X132264683Y-114646838D01*
X132048559Y-114785910D01*
X131903569Y-114998110D01*
X131852560Y-115250000D01*
X131852560Y-116150000D01*
X131896838Y-116385317D01*
X132035910Y-116601441D01*
X132140000Y-116672563D01*
X132140000Y-116694895D01*
X131998559Y-116785910D01*
X131853569Y-116998110D01*
X131802560Y-117250000D01*
X131802560Y-118450000D01*
X131846838Y-118685317D01*
X131985910Y-118901441D01*
X132055711Y-118949134D01*
X131998559Y-118985910D01*
X131853569Y-119198110D01*
X131802560Y-119450000D01*
X131802560Y-120650000D01*
X131846838Y-120885317D01*
X131976267Y-121086456D01*
X131965162Y-121113201D01*
X131964838Y-121485167D01*
X132106883Y-121828943D01*
X132369673Y-122092192D01*
X132713201Y-122234838D01*
X133085167Y-122235162D01*
X133428943Y-122093117D01*
X133692192Y-121830327D01*
X133834838Y-121486799D01*
X133835162Y-121114833D01*
X133822263Y-121083616D01*
X133946431Y-120901890D01*
X133997440Y-120650000D01*
X133997440Y-119450000D01*
X133953162Y-119214683D01*
X133814090Y-118998559D01*
X133744289Y-118950866D01*
X133801441Y-118914090D01*
X133946431Y-118701890D01*
X133997440Y-118450000D01*
X133997440Y-117250000D01*
X133953162Y-117014683D01*
X133814090Y-116798559D01*
X133660000Y-116693274D01*
X133660000Y-116672931D01*
X133751441Y-116614090D01*
X133846990Y-116474250D01*
X133861673Y-116509698D01*
X134040301Y-116688327D01*
X134273690Y-116785000D01*
X134514250Y-116785000D01*
X134673000Y-116626250D01*
X134673000Y-115827000D01*
X134927000Y-115827000D01*
X134927000Y-116626250D01*
X135085750Y-116785000D01*
X135326310Y-116785000D01*
X135559699Y-116688327D01*
X135738327Y-116509698D01*
X135835000Y-116276309D01*
X135835000Y-115985750D01*
X135676250Y-115827000D01*
X134927000Y-115827000D01*
X134673000Y-115827000D01*
X134653000Y-115827000D01*
X134653000Y-115573000D01*
X134673000Y-115573000D01*
X134673000Y-114773750D01*
X134927000Y-114773750D01*
X134927000Y-115573000D01*
X135676250Y-115573000D01*
X135835000Y-115414250D01*
X135835000Y-115123691D01*
X135738327Y-114890302D01*
X135559699Y-114711673D01*
X135326310Y-114615000D01*
X135085750Y-114615000D01*
X134927000Y-114773750D01*
X134673000Y-114773750D01*
X134586988Y-114687738D01*
X134701441Y-114614090D01*
X134846431Y-114401890D01*
X134897440Y-114150000D01*
X134897440Y-113250000D01*
X134853162Y-113014683D01*
X134714090Y-112798559D01*
X134630853Y-112741686D01*
X134751441Y-112664090D01*
X134896431Y-112451890D01*
X134947440Y-112200000D01*
X134947440Y-111000000D01*
X134903162Y-110764683D01*
X134764090Y-110548559D01*
X134694289Y-110500866D01*
X134751441Y-110464090D01*
X134896431Y-110251890D01*
X134947440Y-110000000D01*
X134947440Y-108800000D01*
X134903162Y-108564683D01*
X134764090Y-108348559D01*
X134610000Y-108243274D01*
X134610000Y-104400000D01*
X134552148Y-104109161D01*
X134387401Y-103862599D01*
X128860000Y-98335198D01*
X128860000Y-91272954D01*
X129150054Y-91079147D01*
X129471961Y-90597378D01*
X129585000Y-90029093D01*
X129585000Y-89970907D01*
X129471961Y-89402622D01*
X129150054Y-88920853D01*
X128668285Y-88598946D01*
X128100000Y-88485907D01*
X127531715Y-88598946D01*
X127049946Y-88920853D01*
X126830000Y-89250026D01*
X126610054Y-88920853D01*
X126128285Y-88598946D01*
X125560000Y-88485907D01*
X125232015Y-88551147D01*
X124390868Y-87710000D01*
X178290000Y-87710000D01*
X178290000Y-160290000D01*
X178290000Y-160290000D01*
G37*
X178290000Y-160290000D02*
X107553941Y-160290000D01*
X107630000Y-159907624D01*
X107630000Y-159192376D01*
X107568859Y-158885000D01*
X110354132Y-158885000D01*
X110609566Y-159140434D01*
X110880460Y-159321440D01*
X111200000Y-159385000D01*
X119696778Y-159385000D01*
X119696838Y-159385317D01*
X119835910Y-159601441D01*
X120048110Y-159746431D01*
X120300000Y-159797440D01*
X121200000Y-159797440D01*
X121435317Y-159753162D01*
X121651441Y-159614090D01*
X121796431Y-159401890D01*
X121847440Y-159150000D01*
X121847440Y-157950000D01*
X121803162Y-157714683D01*
X121664090Y-157498559D01*
X121451890Y-157353569D01*
X121200000Y-157302560D01*
X120300000Y-157302560D01*
X120064683Y-157346838D01*
X119848559Y-157485910D01*
X119703569Y-157698110D01*
X119700149Y-157715000D01*
X118365299Y-157715000D01*
X118420000Y-157440000D01*
X118420000Y-157012954D01*
X118710054Y-156819147D01*
X118930000Y-156489974D01*
X119149946Y-156819147D01*
X119631715Y-157141054D01*
X120200000Y-157254093D01*
X120768285Y-157141054D01*
X121250054Y-156819147D01*
X121413187Y-156575000D01*
X121760000Y-156575000D01*
X122079541Y-156511439D01*
X122350434Y-156330434D01*
X123040434Y-155640434D01*
X123086268Y-155571838D01*
X123215000Y-155379178D01*
X123215000Y-157443156D01*
X123148559Y-157485910D01*
X123003569Y-157698110D01*
X122952560Y-157950000D01*
X122952560Y-159150000D01*
X122996838Y-159385317D01*
X123135910Y-159601441D01*
X123348110Y-159746431D01*
X123600000Y-159797440D01*
X124500000Y-159797440D01*
X124735317Y-159753162D01*
X124951441Y-159614090D01*
X125096431Y-159401890D01*
X125147440Y-159150000D01*
X125147440Y-157950000D01*
X125104877Y-157723795D01*
X126814716Y-157723795D01*
X127063106Y-158324943D01*
X127522637Y-158785278D01*
X128123352Y-159034716D01*
X128773795Y-159035284D01*
X129374943Y-158786894D01*
X129609715Y-158552532D01*
X131977073Y-158552532D01*
X132075736Y-158819387D01*
X132685461Y-159045908D01*
X133335460Y-159021856D01*
X133824264Y-158819387D01*
X133922927Y-158552532D01*
X132950000Y-157579605D01*
X131977073Y-158552532D01*
X129609715Y-158552532D01*
X129835278Y-158327363D01*
X130084716Y-157726648D01*
X130085232Y-157135461D01*
X131304092Y-157135461D01*
X131328144Y-157785460D01*
X131530613Y-158274264D01*
X131797468Y-158372927D01*
X132770395Y-157400000D01*
X133129605Y-157400000D01*
X134102532Y-158372927D01*
X134369387Y-158274264D01*
X134595908Y-157664539D01*
X134571856Y-157014540D01*
X134369387Y-156525736D01*
X134102532Y-156427073D01*
X133129605Y-157400000D01*
X132770395Y-157400000D01*
X131797468Y-156427073D01*
X131530613Y-156525736D01*
X131304092Y-157135461D01*
X130085232Y-157135461D01*
X130085284Y-157076205D01*
X129836894Y-156475057D01*
X129609703Y-156247468D01*
X131977073Y-156247468D01*
X132950000Y-157220395D01*
X133922927Y-156247468D01*
X133824264Y-155980613D01*
X133214539Y-155754092D01*
X132564540Y-155778144D01*
X132075736Y-155980613D01*
X131977073Y-156247468D01*
X129609703Y-156247468D01*
X129377363Y-156014722D01*
X128776648Y-155765284D01*
X128126205Y-155764716D01*
X127525057Y-156013106D01*
X127064722Y-156472637D01*
X126815284Y-157073352D01*
X126814716Y-157723795D01*
X125104877Y-157723795D01*
X125103162Y-157714683D01*
X124964090Y-157498559D01*
X124885000Y-157444519D01*
X124885000Y-155135000D01*
X139950000Y-155135000D01*
X140269541Y-155071439D01*
X140540434Y-154890434D01*
X141140434Y-154290434D01*
X141180508Y-154230459D01*
X141321439Y-154019541D01*
X141385000Y-153700000D01*
X141385000Y-151795868D01*
X142245868Y-150935000D01*
X144752560Y-150935000D01*
X144752560Y-151200000D01*
X144796838Y-151435317D01*
X144935910Y-151651441D01*
X145148110Y-151796431D01*
X145400000Y-151847440D01*
X145704273Y-151847440D01*
X145728561Y-151969541D01*
X145836083Y-152130459D01*
X145909566Y-152240434D01*
X146709566Y-153040434D01*
X146980459Y-153221439D01*
X147300000Y-153285000D01*
X160450000Y-153285000D01*
X160769541Y-153221439D01*
X161040434Y-153040434D01*
X161890434Y-152190434D01*
X162071440Y-151919540D01*
X162135000Y-151600000D01*
X162135000Y-150443599D01*
X163264699Y-150443599D01*
X163528281Y-151081515D01*
X164015918Y-151570004D01*
X164653373Y-151834699D01*
X165343599Y-151835301D01*
X165981515Y-151571719D01*
X166470004Y-151084082D01*
X166734699Y-150446627D01*
X166734701Y-150443599D01*
X167264699Y-150443599D01*
X167528281Y-151081515D01*
X168015918Y-151570004D01*
X168653373Y-151834699D01*
X169343599Y-151835301D01*
X169981515Y-151571719D01*
X170228797Y-151324868D01*
X171954737Y-151324868D01*
X172065641Y-151602099D01*
X172711593Y-151845323D01*
X173401453Y-151822836D01*
X173934359Y-151602099D01*
X174045263Y-151324868D01*
X173000000Y-150279605D01*
X171954737Y-151324868D01*
X170228797Y-151324868D01*
X170470004Y-151084082D01*
X170734699Y-150446627D01*
X170735252Y-149811593D01*
X171254677Y-149811593D01*
X171277164Y-150501453D01*
X171497901Y-151034359D01*
X171775132Y-151145263D01*
X172820395Y-150100000D01*
X173179605Y-150100000D01*
X174224868Y-151145263D01*
X174502099Y-151034359D01*
X174745323Y-150388407D01*
X174722836Y-149698547D01*
X174502099Y-149165641D01*
X174224868Y-149054737D01*
X173179605Y-150100000D01*
X172820395Y-150100000D01*
X171775132Y-149054737D01*
X171497901Y-149165641D01*
X171254677Y-149811593D01*
X170735252Y-149811593D01*
X170735301Y-149756401D01*
X170471719Y-149118485D01*
X170228791Y-148875132D01*
X171954737Y-148875132D01*
X173000000Y-149920395D01*
X174045263Y-148875132D01*
X173934359Y-148597901D01*
X173288407Y-148354677D01*
X172598547Y-148377164D01*
X172065641Y-148597901D01*
X171954737Y-148875132D01*
X170228791Y-148875132D01*
X169984082Y-148629996D01*
X169346627Y-148365301D01*
X168656401Y-148364699D01*
X168018485Y-148628281D01*
X167529996Y-149115918D01*
X167265301Y-149753373D01*
X167264699Y-150443599D01*
X166734701Y-150443599D01*
X166735301Y-149756401D01*
X166471719Y-149118485D01*
X165984082Y-148629996D01*
X165346627Y-148365301D01*
X164656401Y-148364699D01*
X164018485Y-148628281D01*
X163529996Y-149115918D01*
X163265301Y-149753373D01*
X163264699Y-150443599D01*
X162135000Y-150443599D01*
X162135000Y-129450000D01*
X162071439Y-129130459D01*
X161890434Y-128859566D01*
X156290434Y-123259566D01*
X156276117Y-123250000D01*
X156019541Y-123078561D01*
X155700000Y-123015000D01*
X130395868Y-123015000D01*
X126395000Y-119014132D01*
X126395000Y-91222841D01*
X126610054Y-91079147D01*
X126830000Y-90749974D01*
X127049946Y-91079147D01*
X127340000Y-91272954D01*
X127340000Y-98650000D01*
X127397852Y-98940839D01*
X127562599Y-99187401D01*
X133090000Y-104714802D01*
X133090000Y-108244895D01*
X132948559Y-108335910D01*
X132803569Y-108548110D01*
X132752560Y-108800000D01*
X132752560Y-110000000D01*
X132796838Y-110235317D01*
X132935910Y-110451441D01*
X133005711Y-110499134D01*
X132948559Y-110535910D01*
X132803569Y-110748110D01*
X132752560Y-111000000D01*
X132752560Y-112200000D01*
X132796838Y-112435317D01*
X132935910Y-112651441D01*
X133067647Y-112741453D01*
X132998559Y-112785910D01*
X132853569Y-112998110D01*
X132802560Y-113250000D01*
X132802560Y-114150000D01*
X132846838Y-114385317D01*
X132985910Y-114601441D01*
X132987548Y-114602560D01*
X132500000Y-114602560D01*
X132264683Y-114646838D01*
X132048559Y-114785910D01*
X131903569Y-114998110D01*
X131852560Y-115250000D01*
X131852560Y-116150000D01*
X131896838Y-116385317D01*
X132035910Y-116601441D01*
X132140000Y-116672563D01*
X132140000Y-116694895D01*
X131998559Y-116785910D01*
X131853569Y-116998110D01*
X131802560Y-117250000D01*
X131802560Y-118450000D01*
X131846838Y-118685317D01*
X131985910Y-118901441D01*
X132055711Y-118949134D01*
X131998559Y-118985910D01*
X131853569Y-119198110D01*
X131802560Y-119450000D01*
X131802560Y-120650000D01*
X131846838Y-120885317D01*
X131976267Y-121086456D01*
X131965162Y-121113201D01*
X131964838Y-121485167D01*
X132106883Y-121828943D01*
X132369673Y-122092192D01*
X132713201Y-122234838D01*
X133085167Y-122235162D01*
X133428943Y-122093117D01*
X133692192Y-121830327D01*
X133834838Y-121486799D01*
X133835162Y-121114833D01*
X133822263Y-121083616D01*
X133946431Y-120901890D01*
X133997440Y-120650000D01*
X133997440Y-119450000D01*
X133953162Y-119214683D01*
X133814090Y-118998559D01*
X133744289Y-118950866D01*
X133801441Y-118914090D01*
X133946431Y-118701890D01*
X133997440Y-118450000D01*
X133997440Y-117250000D01*
X133953162Y-117014683D01*
X133814090Y-116798559D01*
X133660000Y-116693274D01*
X133660000Y-116672931D01*
X133751441Y-116614090D01*
X133846990Y-116474250D01*
X133861673Y-116509698D01*
X134040301Y-116688327D01*
X134273690Y-116785000D01*
X134514250Y-116785000D01*
X134673000Y-116626250D01*
X134673000Y-115827000D01*
X134927000Y-115827000D01*
X134927000Y-116626250D01*
X135085750Y-116785000D01*
X135326310Y-116785000D01*
X135559699Y-116688327D01*
X135738327Y-116509698D01*
X135835000Y-116276309D01*
X135835000Y-115985750D01*
X135676250Y-115827000D01*
X134927000Y-115827000D01*
X134673000Y-115827000D01*
X134653000Y-115827000D01*
X134653000Y-115573000D01*
X134673000Y-115573000D01*
X134673000Y-114773750D01*
X134927000Y-114773750D01*
X134927000Y-115573000D01*
X135676250Y-115573000D01*
X135835000Y-115414250D01*
X135835000Y-115123691D01*
X135738327Y-114890302D01*
X135559699Y-114711673D01*
X135326310Y-114615000D01*
X135085750Y-114615000D01*
X134927000Y-114773750D01*
X134673000Y-114773750D01*
X134586988Y-114687738D01*
X134701441Y-114614090D01*
X134846431Y-114401890D01*
X134897440Y-114150000D01*
X134897440Y-113250000D01*
X134853162Y-113014683D01*
X134714090Y-112798559D01*
X134630853Y-112741686D01*
X134751441Y-112664090D01*
X134896431Y-112451890D01*
X134947440Y-112200000D01*
X134947440Y-111000000D01*
X134903162Y-110764683D01*
X134764090Y-110548559D01*
X134694289Y-110500866D01*
X134751441Y-110464090D01*
X134896431Y-110251890D01*
X134947440Y-110000000D01*
X134947440Y-108800000D01*
X134903162Y-108564683D01*
X134764090Y-108348559D01*
X134610000Y-108243274D01*
X134610000Y-104400000D01*
X134552148Y-104109161D01*
X134387401Y-103862599D01*
X128860000Y-98335198D01*
X128860000Y-91272954D01*
X129150054Y-91079147D01*
X129471961Y-90597378D01*
X129585000Y-90029093D01*
X129585000Y-89970907D01*
X129471961Y-89402622D01*
X129150054Y-88920853D01*
X128668285Y-88598946D01*
X128100000Y-88485907D01*
X127531715Y-88598946D01*
X127049946Y-88920853D01*
X126830000Y-89250026D01*
X126610054Y-88920853D01*
X126128285Y-88598946D01*
X125560000Y-88485907D01*
X125232015Y-88551147D01*
X124390868Y-87710000D01*
X178290000Y-87710000D01*
X178290000Y-160290000D01*
G36*
X91949566Y-88419566D02*
X91768561Y-88690459D01*
X91758415Y-88741468D01*
X91489946Y-88920853D01*
X91462150Y-88962452D01*
X91453162Y-88914683D01*
X91314090Y-88698559D01*
X91101890Y-88553569D01*
X90850000Y-88502560D01*
X89150000Y-88502560D01*
X88914683Y-88546838D01*
X88698559Y-88685910D01*
X88553569Y-88898110D01*
X88502560Y-89150000D01*
X88502560Y-90850000D01*
X88546838Y-91085317D01*
X88685910Y-91301441D01*
X88898110Y-91446431D01*
X89150000Y-91497440D01*
X89240000Y-91497440D01*
X89240000Y-105537537D01*
X89207808Y-105569673D01*
X89065162Y-105913201D01*
X89064838Y-106285167D01*
X89206883Y-106628943D01*
X89469673Y-106892192D01*
X89813201Y-107034838D01*
X90185167Y-107035162D01*
X90353540Y-106965592D01*
X80559566Y-116759566D01*
X80378561Y-117030459D01*
X80315000Y-117350000D01*
X80315000Y-157250000D01*
X80378561Y-157569541D01*
X80483537Y-157726648D01*
X80559566Y-157840434D01*
X81059566Y-158340434D01*
X81330460Y-158521440D01*
X81650000Y-158585000D01*
X82587370Y-158585000D01*
X82596838Y-158635317D01*
X82735910Y-158851441D01*
X82948110Y-158996431D01*
X83200000Y-159047440D01*
X84500000Y-159047440D01*
X84735317Y-159003162D01*
X84951441Y-158864090D01*
X84997969Y-158795994D01*
X85140301Y-158938327D01*
X85373690Y-159035000D01*
X85864250Y-159035000D01*
X86023000Y-158876250D01*
X86023000Y-157877000D01*
X86277000Y-157877000D01*
X86277000Y-158876250D01*
X86435750Y-159035000D01*
X86926310Y-159035000D01*
X87159699Y-158938327D01*
X87338327Y-158759698D01*
X87435000Y-158526309D01*
X87435000Y-158035750D01*
X87276250Y-157877000D01*
X86277000Y-157877000D01*
X86023000Y-157877000D01*
X86003000Y-157877000D01*
X86003000Y-157623000D01*
X86023000Y-157623000D01*
X86023000Y-156623750D01*
X86277000Y-156623750D01*
X86277000Y-157623000D01*
X87276250Y-157623000D01*
X87435000Y-157464250D01*
X87435000Y-156973691D01*
X87338327Y-156740302D01*
X87159699Y-156561673D01*
X86926310Y-156465000D01*
X86435750Y-156465000D01*
X86277000Y-156623750D01*
X86023000Y-156623750D01*
X85864250Y-156465000D01*
X85373690Y-156465000D01*
X85140301Y-156561673D01*
X84999064Y-156702911D01*
X84964090Y-156648559D01*
X84751890Y-156503569D01*
X84500000Y-156452560D01*
X83200000Y-156452560D01*
X82964683Y-156496838D01*
X82748559Y-156635910D01*
X82603569Y-156848110D01*
X82590023Y-156915000D01*
X81995868Y-156915000D01*
X81985000Y-156904132D01*
X81985000Y-117695868D01*
X93130434Y-106550434D01*
X93306589Y-106286799D01*
X93311439Y-106279541D01*
X93375000Y-105960000D01*
X93375000Y-91222841D01*
X93590054Y-91079147D01*
X93810000Y-90749974D01*
X94029946Y-91079147D01*
X94320000Y-91272954D01*
X94320000Y-107555198D01*
X84462599Y-117412599D01*
X84297852Y-117659161D01*
X84240000Y-117950000D01*
X84240000Y-150952560D01*
X84000000Y-150952560D01*
X83764683Y-150996838D01*
X83548559Y-151135910D01*
X83403569Y-151348110D01*
X83352560Y-151600000D01*
X83352560Y-152900000D01*
X83396838Y-153135317D01*
X83535910Y-153351441D01*
X83748110Y-153496431D01*
X84000000Y-153547440D01*
X86000000Y-153547440D01*
X86235317Y-153503162D01*
X86451441Y-153364090D01*
X86596431Y-153151890D01*
X86647440Y-152900000D01*
X86647440Y-151600000D01*
X86603162Y-151364683D01*
X86464090Y-151148559D01*
X86251890Y-151003569D01*
X86000000Y-150952560D01*
X85760000Y-150952560D01*
X85760000Y-146935750D01*
X93715000Y-146935750D01*
X93715000Y-147151310D01*
X93811673Y-147384699D01*
X93990302Y-147563327D01*
X94223691Y-147660000D01*
X94664250Y-147660000D01*
X94823000Y-147501250D01*
X94823000Y-146777000D01*
X93873750Y-146777000D01*
X93715000Y-146935750D01*
X85760000Y-146935750D01*
X85760000Y-146148690D01*
X93715000Y-146148690D01*
X93715000Y-146364250D01*
X93873750Y-146523000D01*
X94823000Y-146523000D01*
X94823000Y-145798750D01*
X94664250Y-145640000D01*
X94223691Y-145640000D01*
X93990302Y-145736673D01*
X93811673Y-145915301D01*
X93715000Y-146148690D01*
X85760000Y-146148690D01*
X85760000Y-143435750D01*
X87065000Y-143435750D01*
X87065000Y-143876309D01*
X87161673Y-144109698D01*
X87340301Y-144288327D01*
X87573690Y-144385000D01*
X87864250Y-144385000D01*
X88023000Y-144226250D01*
X88023000Y-143277000D01*
X88277000Y-143277000D01*
X88277000Y-144226250D01*
X88435750Y-144385000D01*
X88726310Y-144385000D01*
X88959699Y-144288327D01*
X89138327Y-144109698D01*
X89235000Y-143876309D01*
X89235000Y-143435750D01*
X89076250Y-143277000D01*
X88277000Y-143277000D01*
X88023000Y-143277000D01*
X87223750Y-143277000D01*
X87065000Y-143435750D01*
X85760000Y-143435750D01*
X85760000Y-118264802D01*
X95617401Y-108407401D01*
X95782148Y-108160839D01*
X95840000Y-107870000D01*
X95840000Y-91272954D01*
X96130054Y-91079147D01*
X96350000Y-90749974D01*
X96569946Y-91079147D01*
X96860000Y-91272954D01*
X96860000Y-111065198D01*
X91912599Y-116012599D01*
X91747852Y-116259161D01*
X91690000Y-116550000D01*
X91690000Y-136450000D01*
X91747852Y-136740839D01*
X91912599Y-136987401D01*
X94812599Y-139887401D01*
X95059160Y-140052148D01*
X95350000Y-140110000D01*
X97652560Y-140110000D01*
X97652560Y-140190000D01*
X89217334Y-140190000D01*
X89203162Y-140114683D01*
X89079671Y-139922773D01*
X89196431Y-139751890D01*
X89247440Y-139500000D01*
X89247440Y-138300000D01*
X89203162Y-138064683D01*
X89064090Y-137848559D01*
X88994289Y-137800866D01*
X89051441Y-137764090D01*
X89196431Y-137551890D01*
X89247440Y-137300000D01*
X89247440Y-136100000D01*
X89203162Y-135864683D01*
X89064090Y-135648559D01*
X88910000Y-135543274D01*
X88910000Y-133272931D01*
X89001441Y-133214090D01*
X89096990Y-133074250D01*
X89111673Y-133109698D01*
X89290301Y-133288327D01*
X89523690Y-133385000D01*
X89764250Y-133385000D01*
X89923000Y-133226250D01*
X89923000Y-132427000D01*
X90177000Y-132427000D01*
X90177000Y-133226250D01*
X90335750Y-133385000D01*
X90576310Y-133385000D01*
X90809699Y-133288327D01*
X90988327Y-133109698D01*
X91085000Y-132876309D01*
X91085000Y-132585750D01*
X90926250Y-132427000D01*
X90177000Y-132427000D01*
X89923000Y-132427000D01*
X89903000Y-132427000D01*
X89903000Y-132173000D01*
X89923000Y-132173000D01*
X89923000Y-131373750D01*
X90177000Y-131373750D01*
X90177000Y-132173000D01*
X90926250Y-132173000D01*
X91085000Y-132014250D01*
X91085000Y-131723691D01*
X90988327Y-131490302D01*
X90809699Y-131311673D01*
X90576310Y-131215000D01*
X90335750Y-131215000D01*
X90177000Y-131373750D01*
X89923000Y-131373750D01*
X89836988Y-131287738D01*
X89951441Y-131214090D01*
X90096431Y-131001890D01*
X90147440Y-130750000D01*
X90147440Y-129850000D01*
X90103162Y-129614683D01*
X89964090Y-129398559D01*
X89860000Y-129327437D01*
X89860000Y-117014802D01*
X94989680Y-111885122D01*
X95035167Y-111885162D01*
X95378943Y-111743117D01*
X95642192Y-111480327D01*
X95784838Y-111136799D01*
X95785162Y-110764833D01*
X95643117Y-110421057D01*
X95380327Y-110157808D01*
X95036799Y-110015162D01*
X94664833Y-110014838D01*
X94321057Y-110156883D01*
X94057808Y-110419673D01*
X93915162Y-110763201D01*
X93915121Y-110810077D01*
X88562599Y-116162599D01*
X88397852Y-116409161D01*
X88340000Y-116700000D01*
X88340000Y-129327069D01*
X88248559Y-129385910D01*
X88103569Y-129598110D01*
X88052560Y-129850000D01*
X88052560Y-130750000D01*
X88096838Y-130985317D01*
X88235910Y-131201441D01*
X88237548Y-131202560D01*
X87750000Y-131202560D01*
X87514683Y-131246838D01*
X87298559Y-131385910D01*
X87153569Y-131598110D01*
X87102560Y-131850000D01*
X87102560Y-132750000D01*
X87146838Y-132985317D01*
X87285910Y-133201441D01*
X87390000Y-133272563D01*
X87390000Y-135544895D01*
X87248559Y-135635910D01*
X87103569Y-135848110D01*
X87052560Y-136100000D01*
X87052560Y-137300000D01*
X87096838Y-137535317D01*
X87235910Y-137751441D01*
X87305711Y-137799134D01*
X87248559Y-137835910D01*
X87103569Y-138048110D01*
X87052560Y-138300000D01*
X87052560Y-139500000D01*
X87096838Y-139735317D01*
X87220329Y-139927227D01*
X87103569Y-140098110D01*
X87052560Y-140350000D01*
X87052560Y-141550000D01*
X87096838Y-141785317D01*
X87235910Y-142001441D01*
X87304006Y-142047969D01*
X87161673Y-142190302D01*
X87065000Y-142423691D01*
X87065000Y-142864250D01*
X87223750Y-143023000D01*
X88023000Y-143023000D01*
X88023000Y-143003000D01*
X88277000Y-143003000D01*
X88277000Y-143023000D01*
X89076250Y-143023000D01*
X89235000Y-142864250D01*
X89235000Y-142835750D01*
X93715000Y-142835750D01*
X93715000Y-143051310D01*
X93811673Y-143284699D01*
X93990302Y-143463327D01*
X94223691Y-143560000D01*
X94664250Y-143560000D01*
X94823000Y-143401250D01*
X94823000Y-142677000D01*
X93873750Y-142677000D01*
X93715000Y-142835750D01*
X89235000Y-142835750D01*
X89235000Y-142423691D01*
X89138327Y-142190302D01*
X88997090Y-142049064D01*
X89051441Y-142014090D01*
X89196431Y-141801890D01*
X89215039Y-141710000D01*
X93916975Y-141710000D01*
X93811673Y-141815301D01*
X93715000Y-142048690D01*
X93715000Y-142264250D01*
X93873750Y-142423000D01*
X94823000Y-142423000D01*
X94823000Y-142403000D01*
X95077000Y-142403000D01*
X95077000Y-142423000D01*
X95097000Y-142423000D01*
X95097000Y-142677000D01*
X95077000Y-142677000D01*
X95077000Y-143401250D01*
X95235750Y-143560000D01*
X95676309Y-143560000D01*
X95909698Y-143463327D01*
X95911068Y-143461957D01*
X95998110Y-143521431D01*
X96250000Y-143572440D01*
X97450000Y-143572440D01*
X97685317Y-143528162D01*
X97764822Y-143477002D01*
X97803400Y-143477002D01*
X97759505Y-143541245D01*
X97665000Y-143635750D01*
X97665000Y-143751310D01*
X97673468Y-143771753D01*
X97652560Y-143875000D01*
X97652560Y-144425000D01*
X97696838Y-144660317D01*
X97835910Y-144876441D01*
X98048110Y-145021431D01*
X98172509Y-145046623D01*
X97567731Y-145651401D01*
X97450000Y-145627560D01*
X96250000Y-145627560D01*
X96014683Y-145671838D01*
X95911354Y-145738329D01*
X95909698Y-145736673D01*
X95676309Y-145640000D01*
X95235750Y-145640000D01*
X95077000Y-145798750D01*
X95077000Y-146523000D01*
X95097000Y-146523000D01*
X95097000Y-146777000D01*
X95077000Y-146777000D01*
X95077000Y-147501250D01*
X95235750Y-147660000D01*
X95676309Y-147660000D01*
X95909698Y-147563327D01*
X95911068Y-147561957D01*
X95998110Y-147621431D01*
X96250000Y-147672440D01*
X97450000Y-147672440D01*
X97685317Y-147628162D01*
X97901441Y-147489090D01*
X97928495Y-147449495D01*
X98069541Y-147421439D01*
X98340434Y-147240434D01*
X99640434Y-145940434D01*
X99821440Y-145669540D01*
X99827560Y-145638772D01*
X99827560Y-146600000D01*
X99871838Y-146835317D01*
X100010910Y-147051441D01*
X100223110Y-147196431D01*
X100475000Y-147247440D01*
X100715000Y-147247440D01*
X100715000Y-147304132D01*
X100404132Y-147615000D01*
X99100000Y-147615000D01*
X98780460Y-147678560D01*
X98509566Y-147859566D01*
X96759566Y-149609566D01*
X96578561Y-149880459D01*
X96515000Y-150200000D01*
X96515000Y-153496778D01*
X96514683Y-153496838D01*
X96298559Y-153635910D01*
X96153569Y-153848110D01*
X96102560Y-154100000D01*
X96102560Y-155000000D01*
X96146838Y-155235317D01*
X96285910Y-155451441D01*
X96498110Y-155596431D01*
X96515000Y-155599851D01*
X96515000Y-157500000D01*
X96578561Y-157819541D01*
X96684040Y-157977401D01*
X96759566Y-158090434D01*
X97309566Y-158640434D01*
X97580459Y-158821439D01*
X97900000Y-158885000D01*
X98531141Y-158885000D01*
X98470000Y-159192376D01*
X98470000Y-159907624D01*
X98546059Y-160290000D01*
X79710000Y-160290000D01*
X79710000Y-87710000D01*
X92659132Y-87710000D01*
X91949566Y-88419566D01*
X91949566Y-88419566D01*
G37*
X91949566Y-88419566D02*
X91768561Y-88690459D01*
X91758415Y-88741468D01*
X91489946Y-88920853D01*
X91462150Y-88962452D01*
X91453162Y-88914683D01*
X91314090Y-88698559D01*
X91101890Y-88553569D01*
X90850000Y-88502560D01*
X89150000Y-88502560D01*
X88914683Y-88546838D01*
X88698559Y-88685910D01*
X88553569Y-88898110D01*
X88502560Y-89150000D01*
X88502560Y-90850000D01*
X88546838Y-91085317D01*
X88685910Y-91301441D01*
X88898110Y-91446431D01*
X89150000Y-91497440D01*
X89240000Y-91497440D01*
X89240000Y-105537537D01*
X89207808Y-105569673D01*
X89065162Y-105913201D01*
X89064838Y-106285167D01*
X89206883Y-106628943D01*
X89469673Y-106892192D01*
X89813201Y-107034838D01*
X90185167Y-107035162D01*
X90353540Y-106965592D01*
X80559566Y-116759566D01*
X80378561Y-117030459D01*
X80315000Y-117350000D01*
X80315000Y-157250000D01*
X80378561Y-157569541D01*
X80483537Y-157726648D01*
X80559566Y-157840434D01*
X81059566Y-158340434D01*
X81330460Y-158521440D01*
X81650000Y-158585000D01*
X82587370Y-158585000D01*
X82596838Y-158635317D01*
X82735910Y-158851441D01*
X82948110Y-158996431D01*
X83200000Y-159047440D01*
X84500000Y-159047440D01*
X84735317Y-159003162D01*
X84951441Y-158864090D01*
X84997969Y-158795994D01*
X85140301Y-158938327D01*
X85373690Y-159035000D01*
X85864250Y-159035000D01*
X86023000Y-158876250D01*
X86023000Y-157877000D01*
X86277000Y-157877000D01*
X86277000Y-158876250D01*
X86435750Y-159035000D01*
X86926310Y-159035000D01*
X87159699Y-158938327D01*
X87338327Y-158759698D01*
X87435000Y-158526309D01*
X87435000Y-158035750D01*
X87276250Y-157877000D01*
X86277000Y-157877000D01*
X86023000Y-157877000D01*
X86003000Y-157877000D01*
X86003000Y-157623000D01*
X86023000Y-157623000D01*
X86023000Y-156623750D01*
X86277000Y-156623750D01*
X86277000Y-157623000D01*
X87276250Y-157623000D01*
X87435000Y-157464250D01*
X87435000Y-156973691D01*
X87338327Y-156740302D01*
X87159699Y-156561673D01*
X86926310Y-156465000D01*
X86435750Y-156465000D01*
X86277000Y-156623750D01*
X86023000Y-156623750D01*
X85864250Y-156465000D01*
X85373690Y-156465000D01*
X85140301Y-156561673D01*
X84999064Y-156702911D01*
X84964090Y-156648559D01*
X84751890Y-156503569D01*
X84500000Y-156452560D01*
X83200000Y-156452560D01*
X82964683Y-156496838D01*
X82748559Y-156635910D01*
X82603569Y-156848110D01*
X82590023Y-156915000D01*
X81995868Y-156915000D01*
X81985000Y-156904132D01*
X81985000Y-117695868D01*
X93130434Y-106550434D01*
X93306589Y-106286799D01*
X93311439Y-106279541D01*
X93375000Y-105960000D01*
X93375000Y-91222841D01*
X93590054Y-91079147D01*
X93810000Y-90749974D01*
X94029946Y-91079147D01*
X94320000Y-91272954D01*
X94320000Y-107555198D01*
X84462599Y-117412599D01*
X84297852Y-117659161D01*
X84240000Y-117950000D01*
X84240000Y-150952560D01*
X84000000Y-150952560D01*
X83764683Y-150996838D01*
X83548559Y-151135910D01*
X83403569Y-151348110D01*
X83352560Y-151600000D01*
X83352560Y-152900000D01*
X83396838Y-153135317D01*
X83535910Y-153351441D01*
X83748110Y-153496431D01*
X84000000Y-153547440D01*
X86000000Y-153547440D01*
X86235317Y-153503162D01*
X86451441Y-153364090D01*
X86596431Y-153151890D01*
X86647440Y-152900000D01*
X86647440Y-151600000D01*
X86603162Y-151364683D01*
X86464090Y-151148559D01*
X86251890Y-151003569D01*
X86000000Y-150952560D01*
X85760000Y-150952560D01*
X85760000Y-146935750D01*
X93715000Y-146935750D01*
X93715000Y-147151310D01*
X93811673Y-147384699D01*
X93990302Y-147563327D01*
X94223691Y-147660000D01*
X94664250Y-147660000D01*
X94823000Y-147501250D01*
X94823000Y-146777000D01*
X93873750Y-146777000D01*
X93715000Y-146935750D01*
X85760000Y-146935750D01*
X85760000Y-146148690D01*
X93715000Y-146148690D01*
X93715000Y-146364250D01*
X93873750Y-146523000D01*
X94823000Y-146523000D01*
X94823000Y-145798750D01*
X94664250Y-145640000D01*
X94223691Y-145640000D01*
X93990302Y-145736673D01*
X93811673Y-145915301D01*
X93715000Y-146148690D01*
X85760000Y-146148690D01*
X85760000Y-143435750D01*
X87065000Y-143435750D01*
X87065000Y-143876309D01*
X87161673Y-144109698D01*
X87340301Y-144288327D01*
X87573690Y-144385000D01*
X87864250Y-144385000D01*
X88023000Y-144226250D01*
X88023000Y-143277000D01*
X88277000Y-143277000D01*
X88277000Y-144226250D01*
X88435750Y-144385000D01*
X88726310Y-144385000D01*
X88959699Y-144288327D01*
X89138327Y-144109698D01*
X89235000Y-143876309D01*
X89235000Y-143435750D01*
X89076250Y-143277000D01*
X88277000Y-143277000D01*
X88023000Y-143277000D01*
X87223750Y-143277000D01*
X87065000Y-143435750D01*
X85760000Y-143435750D01*
X85760000Y-118264802D01*
X95617401Y-108407401D01*
X95782148Y-108160839D01*
X95840000Y-107870000D01*
X95840000Y-91272954D01*
X96130054Y-91079147D01*
X96350000Y-90749974D01*
X96569946Y-91079147D01*
X96860000Y-91272954D01*
X96860000Y-111065198D01*
X91912599Y-116012599D01*
X91747852Y-116259161D01*
X91690000Y-116550000D01*
X91690000Y-136450000D01*
X91747852Y-136740839D01*
X91912599Y-136987401D01*
X94812599Y-139887401D01*
X95059160Y-140052148D01*
X95350000Y-140110000D01*
X97652560Y-140110000D01*
X97652560Y-140190000D01*
X89217334Y-140190000D01*
X89203162Y-140114683D01*
X89079671Y-139922773D01*
X89196431Y-139751890D01*
X89247440Y-139500000D01*
X89247440Y-138300000D01*
X89203162Y-138064683D01*
X89064090Y-137848559D01*
X88994289Y-137800866D01*
X89051441Y-137764090D01*
X89196431Y-137551890D01*
X89247440Y-137300000D01*
X89247440Y-136100000D01*
X89203162Y-135864683D01*
X89064090Y-135648559D01*
X88910000Y-135543274D01*
X88910000Y-133272931D01*
X89001441Y-133214090D01*
X89096990Y-133074250D01*
X89111673Y-133109698D01*
X89290301Y-133288327D01*
X89523690Y-133385000D01*
X89764250Y-133385000D01*
X89923000Y-133226250D01*
X89923000Y-132427000D01*
X90177000Y-132427000D01*
X90177000Y-133226250D01*
X90335750Y-133385000D01*
X90576310Y-133385000D01*
X90809699Y-133288327D01*
X90988327Y-133109698D01*
X91085000Y-132876309D01*
X91085000Y-132585750D01*
X90926250Y-132427000D01*
X90177000Y-132427000D01*
X89923000Y-132427000D01*
X89903000Y-132427000D01*
X89903000Y-132173000D01*
X89923000Y-132173000D01*
X89923000Y-131373750D01*
X90177000Y-131373750D01*
X90177000Y-132173000D01*
X90926250Y-132173000D01*
X91085000Y-132014250D01*
X91085000Y-131723691D01*
X90988327Y-131490302D01*
X90809699Y-131311673D01*
X90576310Y-131215000D01*
X90335750Y-131215000D01*
X90177000Y-131373750D01*
X89923000Y-131373750D01*
X89836988Y-131287738D01*
X89951441Y-131214090D01*
X90096431Y-131001890D01*
X90147440Y-130750000D01*
X90147440Y-129850000D01*
X90103162Y-129614683D01*
X89964090Y-129398559D01*
X89860000Y-129327437D01*
X89860000Y-117014802D01*
X94989680Y-111885122D01*
X95035167Y-111885162D01*
X95378943Y-111743117D01*
X95642192Y-111480327D01*
X95784838Y-111136799D01*
X95785162Y-110764833D01*
X95643117Y-110421057D01*
X95380327Y-110157808D01*
X95036799Y-110015162D01*
X94664833Y-110014838D01*
X94321057Y-110156883D01*
X94057808Y-110419673D01*
X93915162Y-110763201D01*
X93915121Y-110810077D01*
X88562599Y-116162599D01*
X88397852Y-116409161D01*
X88340000Y-116700000D01*
X88340000Y-129327069D01*
X88248559Y-129385910D01*
X88103569Y-129598110D01*
X88052560Y-129850000D01*
X88052560Y-130750000D01*
X88096838Y-130985317D01*
X88235910Y-131201441D01*
X88237548Y-131202560D01*
X87750000Y-131202560D01*
X87514683Y-131246838D01*
X87298559Y-131385910D01*
X87153569Y-131598110D01*
X87102560Y-131850000D01*
X87102560Y-132750000D01*
X87146838Y-132985317D01*
X87285910Y-133201441D01*
X87390000Y-133272563D01*
X87390000Y-135544895D01*
X87248559Y-135635910D01*
X87103569Y-135848110D01*
X87052560Y-136100000D01*
X87052560Y-137300000D01*
X87096838Y-137535317D01*
X87235910Y-137751441D01*
X87305711Y-137799134D01*
X87248559Y-137835910D01*
X87103569Y-138048110D01*
X87052560Y-138300000D01*
X87052560Y-139500000D01*
X87096838Y-139735317D01*
X87220329Y-139927227D01*
X87103569Y-140098110D01*
X87052560Y-140350000D01*
X87052560Y-141550000D01*
X87096838Y-141785317D01*
X87235910Y-142001441D01*
X87304006Y-142047969D01*
X87161673Y-142190302D01*
X87065000Y-142423691D01*
X87065000Y-142864250D01*
X87223750Y-143023000D01*
X88023000Y-143023000D01*
X88023000Y-143003000D01*
X88277000Y-143003000D01*
X88277000Y-143023000D01*
X89076250Y-143023000D01*
X89235000Y-142864250D01*
X89235000Y-142835750D01*
X93715000Y-142835750D01*
X93715000Y-143051310D01*
X93811673Y-143284699D01*
X93990302Y-143463327D01*
X94223691Y-143560000D01*
X94664250Y-143560000D01*
X94823000Y-143401250D01*
X94823000Y-142677000D01*
X93873750Y-142677000D01*
X93715000Y-142835750D01*
X89235000Y-142835750D01*
X89235000Y-142423691D01*
X89138327Y-142190302D01*
X88997090Y-142049064D01*
X89051441Y-142014090D01*
X89196431Y-141801890D01*
X89215039Y-141710000D01*
X93916975Y-141710000D01*
X93811673Y-141815301D01*
X93715000Y-142048690D01*
X93715000Y-142264250D01*
X93873750Y-142423000D01*
X94823000Y-142423000D01*
X94823000Y-142403000D01*
X95077000Y-142403000D01*
X95077000Y-142423000D01*
X95097000Y-142423000D01*
X95097000Y-142677000D01*
X95077000Y-142677000D01*
X95077000Y-143401250D01*
X95235750Y-143560000D01*
X95676309Y-143560000D01*
X95909698Y-143463327D01*
X95911068Y-143461957D01*
X95998110Y-143521431D01*
X96250000Y-143572440D01*
X97450000Y-143572440D01*
X97685317Y-143528162D01*
X97764822Y-143477002D01*
X97803400Y-143477002D01*
X97759505Y-143541245D01*
X97665000Y-143635750D01*
X97665000Y-143751310D01*
X97673468Y-143771753D01*
X97652560Y-143875000D01*
X97652560Y-144425000D01*
X97696838Y-144660317D01*
X97835910Y-144876441D01*
X98048110Y-145021431D01*
X98172509Y-145046623D01*
X97567731Y-145651401D01*
X97450000Y-145627560D01*
X96250000Y-145627560D01*
X96014683Y-145671838D01*
X95911354Y-145738329D01*
X95909698Y-145736673D01*
X95676309Y-145640000D01*
X95235750Y-145640000D01*
X95077000Y-145798750D01*
X95077000Y-146523000D01*
X95097000Y-146523000D01*
X95097000Y-146777000D01*
X95077000Y-146777000D01*
X95077000Y-147501250D01*
X95235750Y-147660000D01*
X95676309Y-147660000D01*
X95909698Y-147563327D01*
X95911068Y-147561957D01*
X95998110Y-147621431D01*
X96250000Y-147672440D01*
X97450000Y-147672440D01*
X97685317Y-147628162D01*
X97901441Y-147489090D01*
X97928495Y-147449495D01*
X98069541Y-147421439D01*
X98340434Y-147240434D01*
X99640434Y-145940434D01*
X99821440Y-145669540D01*
X99827560Y-145638772D01*
X99827560Y-146600000D01*
X99871838Y-146835317D01*
X100010910Y-147051441D01*
X100223110Y-147196431D01*
X100475000Y-147247440D01*
X100715000Y-147247440D01*
X100715000Y-147304132D01*
X100404132Y-147615000D01*
X99100000Y-147615000D01*
X98780460Y-147678560D01*
X98509566Y-147859566D01*
X96759566Y-149609566D01*
X96578561Y-149880459D01*
X96515000Y-150200000D01*
X96515000Y-153496778D01*
X96514683Y-153496838D01*
X96298559Y-153635910D01*
X96153569Y-153848110D01*
X96102560Y-154100000D01*
X96102560Y-155000000D01*
X96146838Y-155235317D01*
X96285910Y-155451441D01*
X96498110Y-155596431D01*
X96515000Y-155599851D01*
X96515000Y-157500000D01*
X96578561Y-157819541D01*
X96684040Y-157977401D01*
X96759566Y-158090434D01*
X97309566Y-158640434D01*
X97580459Y-158821439D01*
X97900000Y-158885000D01*
X98531141Y-158885000D01*
X98470000Y-159192376D01*
X98470000Y-159907624D01*
X98546059Y-160290000D01*
X79710000Y-160290000D01*
X79710000Y-87710000D01*
X92659132Y-87710000D01*
X91949566Y-88419566D01*
G36*
X107862599Y-150787401D02*
X108109161Y-150952148D01*
X108400000Y-151010000D01*
X109137537Y-151010000D01*
X109169673Y-151042192D01*
X109513201Y-151184838D01*
X109840000Y-151185123D01*
X109840000Y-156000000D01*
X109897852Y-156290839D01*
X110062599Y-156537401D01*
X110750179Y-157224981D01*
X110700000Y-157215000D01*
X106762082Y-157215000D01*
X106834685Y-156850000D01*
X106750191Y-156425221D01*
X106509574Y-156065111D01*
X106149464Y-155824494D01*
X105724685Y-155740000D01*
X105375315Y-155740000D01*
X105073134Y-155800108D01*
X104909698Y-155636673D01*
X104676309Y-155540000D01*
X104608750Y-155540000D01*
X104450000Y-155698750D01*
X104450000Y-155857067D01*
X104364090Y-155723559D01*
X104151890Y-155578569D01*
X104124215Y-155572965D01*
X104091250Y-155540000D01*
X104023691Y-155540000D01*
X104003247Y-155548468D01*
X103900000Y-155527560D01*
X103810000Y-155527560D01*
X103810000Y-155214802D01*
X104337401Y-154687401D01*
X104502148Y-154440840D01*
X104533809Y-154281670D01*
X104685317Y-154253162D01*
X104901441Y-154114090D01*
X105046431Y-153901890D01*
X105097440Y-153650000D01*
X105097440Y-153143061D01*
X105198690Y-153185000D01*
X105414250Y-153185000D01*
X105573000Y-153026250D01*
X105573000Y-152077000D01*
X105827000Y-152077000D01*
X105827000Y-153026250D01*
X105985750Y-153185000D01*
X106201310Y-153185000D01*
X106434699Y-153088327D01*
X106613327Y-152909698D01*
X106710000Y-152676309D01*
X106710000Y-152235750D01*
X106551250Y-152077000D01*
X105827000Y-152077000D01*
X105573000Y-152077000D01*
X105553000Y-152077000D01*
X105553000Y-151823000D01*
X105573000Y-151823000D01*
X105573000Y-151803000D01*
X105827000Y-151803000D01*
X105827000Y-151823000D01*
X106551250Y-151823000D01*
X106710000Y-151664250D01*
X106710000Y-151223691D01*
X106613327Y-150990302D01*
X106611957Y-150988932D01*
X106671431Y-150901890D01*
X106722440Y-150650000D01*
X106722440Y-149647242D01*
X107862599Y-150787401D01*
X107862599Y-150787401D01*
G37*
X107862599Y-150787401D02*
X108109161Y-150952148D01*
X108400000Y-151010000D01*
X109137537Y-151010000D01*
X109169673Y-151042192D01*
X109513201Y-151184838D01*
X109840000Y-151185123D01*
X109840000Y-156000000D01*
X109897852Y-156290839D01*
X110062599Y-156537401D01*
X110750179Y-157224981D01*
X110700000Y-157215000D01*
X106762082Y-157215000D01*
X106834685Y-156850000D01*
X106750191Y-156425221D01*
X106509574Y-156065111D01*
X106149464Y-155824494D01*
X105724685Y-155740000D01*
X105375315Y-155740000D01*
X105073134Y-155800108D01*
X104909698Y-155636673D01*
X104676309Y-155540000D01*
X104608750Y-155540000D01*
X104450000Y-155698750D01*
X104450000Y-155857067D01*
X104364090Y-155723559D01*
X104151890Y-155578569D01*
X104124215Y-155572965D01*
X104091250Y-155540000D01*
X104023691Y-155540000D01*
X104003247Y-155548468D01*
X103900000Y-155527560D01*
X103810000Y-155527560D01*
X103810000Y-155214802D01*
X104337401Y-154687401D01*
X104502148Y-154440840D01*
X104533809Y-154281670D01*
X104685317Y-154253162D01*
X104901441Y-154114090D01*
X105046431Y-153901890D01*
X105097440Y-153650000D01*
X105097440Y-153143061D01*
X105198690Y-153185000D01*
X105414250Y-153185000D01*
X105573000Y-153026250D01*
X105573000Y-152077000D01*
X105827000Y-152077000D01*
X105827000Y-153026250D01*
X105985750Y-153185000D01*
X106201310Y-153185000D01*
X106434699Y-153088327D01*
X106613327Y-152909698D01*
X106710000Y-152676309D01*
X106710000Y-152235750D01*
X106551250Y-152077000D01*
X105827000Y-152077000D01*
X105573000Y-152077000D01*
X105553000Y-152077000D01*
X105553000Y-151823000D01*
X105573000Y-151823000D01*
X105573000Y-151803000D01*
X105827000Y-151803000D01*
X105827000Y-151823000D01*
X106551250Y-151823000D01*
X106710000Y-151664250D01*
X106710000Y-151223691D01*
X106613327Y-150990302D01*
X106611957Y-150988932D01*
X106671431Y-150901890D01*
X106722440Y-150650000D01*
X106722440Y-149647242D01*
X107862599Y-150787401D01*
G36*
X116900000Y-151424802D02*
X116900000Y-151927046D01*
X116609946Y-152120853D01*
X116390000Y-152450026D01*
X116170054Y-152120853D01*
X115688285Y-151798946D01*
X115120000Y-151685907D01*
X114551715Y-151798946D01*
X114069946Y-152120853D01*
X113748039Y-152602622D01*
X113635000Y-153170907D01*
X113635000Y-153229093D01*
X113748039Y-153797378D01*
X114069946Y-154279147D01*
X114353101Y-154468345D01*
X114353076Y-154468355D01*
X113924817Y-154858642D01*
X113678514Y-155383108D01*
X113799181Y-155613000D01*
X114993000Y-155613000D01*
X114993000Y-155593000D01*
X115247000Y-155593000D01*
X115247000Y-155613000D01*
X115267000Y-155613000D01*
X115267000Y-155867000D01*
X115247000Y-155867000D01*
X115247000Y-155887000D01*
X114993000Y-155887000D01*
X114993000Y-155867000D01*
X113799181Y-155867000D01*
X113678514Y-156096892D01*
X113924817Y-156621358D01*
X114353076Y-157011645D01*
X114662972Y-157140000D01*
X112814802Y-157140000D01*
X111360000Y-155685198D01*
X111360000Y-151185053D01*
X111485167Y-151185162D01*
X111828943Y-151043117D01*
X111862118Y-151010000D01*
X116485198Y-151010000D01*
X116900000Y-151424802D01*
X116900000Y-151424802D01*
G37*
X116900000Y-151424802D02*
X116900000Y-151927046D01*
X116609946Y-152120853D01*
X116390000Y-152450026D01*
X116170054Y-152120853D01*
X115688285Y-151798946D01*
X115120000Y-151685907D01*
X114551715Y-151798946D01*
X114069946Y-152120853D01*
X113748039Y-152602622D01*
X113635000Y-153170907D01*
X113635000Y-153229093D01*
X113748039Y-153797378D01*
X114069946Y-154279147D01*
X114353101Y-154468345D01*
X114353076Y-154468355D01*
X113924817Y-154858642D01*
X113678514Y-155383108D01*
X113799181Y-155613000D01*
X114993000Y-155613000D01*
X114993000Y-155593000D01*
X115247000Y-155593000D01*
X115247000Y-155613000D01*
X115267000Y-155613000D01*
X115267000Y-155867000D01*
X115247000Y-155867000D01*
X115247000Y-155887000D01*
X114993000Y-155887000D01*
X114993000Y-155867000D01*
X113799181Y-155867000D01*
X113678514Y-156096892D01*
X113924817Y-156621358D01*
X114353076Y-157011645D01*
X114662972Y-157140000D01*
X112814802Y-157140000D01*
X111360000Y-155685198D01*
X111360000Y-151185053D01*
X111485167Y-151185162D01*
X111828943Y-151043117D01*
X111862118Y-151010000D01*
X116485198Y-151010000D01*
X116900000Y-151424802D01*
G36*
X153740000Y-132614802D02*
X153740000Y-148536753D01*
X153518485Y-148628281D01*
X153029996Y-149115918D01*
X152765301Y-149753373D01*
X152764699Y-150443599D01*
X153028281Y-151081515D01*
X153515918Y-151570004D01*
X153624280Y-151615000D01*
X151376767Y-151615000D01*
X151481515Y-151571719D01*
X151970004Y-151084082D01*
X152234699Y-150446627D01*
X152235301Y-149756401D01*
X151971719Y-149118485D01*
X151484082Y-148629996D01*
X151260000Y-148536949D01*
X151260000Y-132450000D01*
X151202148Y-132159161D01*
X151037401Y-131912599D01*
X148785122Y-129660320D01*
X148785162Y-129614833D01*
X148643117Y-129271057D01*
X148380327Y-129007808D01*
X148036799Y-128865162D01*
X147664833Y-128864838D01*
X147321057Y-129006883D01*
X147057808Y-129269673D01*
X146915162Y-129613201D01*
X146914838Y-129985167D01*
X147056883Y-130328943D01*
X147319673Y-130592192D01*
X147663201Y-130734838D01*
X147710077Y-130734879D01*
X149740000Y-132764802D01*
X149740000Y-148536753D01*
X149518485Y-148628281D01*
X149029996Y-149115918D01*
X148765301Y-149753373D01*
X148764699Y-150443599D01*
X149028281Y-151081515D01*
X149515918Y-151570004D01*
X149624280Y-151615000D01*
X148084983Y-151615000D01*
X148196431Y-151451890D01*
X148247440Y-151200000D01*
X148247440Y-149000000D01*
X148203162Y-148764683D01*
X148064090Y-148548559D01*
X147851890Y-148403569D01*
X147600000Y-148352560D01*
X145400000Y-148352560D01*
X145164683Y-148396838D01*
X144948559Y-148535910D01*
X144803569Y-148748110D01*
X144752560Y-149000000D01*
X144752560Y-149265000D01*
X141900000Y-149265000D01*
X141580459Y-149328561D01*
X141352897Y-149480613D01*
X141309566Y-149509566D01*
X139959566Y-150859566D01*
X139778561Y-151130459D01*
X139715000Y-151450000D01*
X139715000Y-153354132D01*
X139604132Y-153465000D01*
X124885000Y-153465000D01*
X124885000Y-147900000D01*
X124821439Y-147580459D01*
X124640434Y-147309566D01*
X124090434Y-146759566D01*
X123978838Y-146685000D01*
X123819541Y-146578561D01*
X123565187Y-146527967D01*
X123514090Y-146448559D01*
X123301890Y-146303569D01*
X123285000Y-146300149D01*
X123285000Y-144753222D01*
X123285317Y-144753162D01*
X123501441Y-144614090D01*
X123646431Y-144401890D01*
X123693694Y-144168496D01*
X127690000Y-148164802D01*
X127690000Y-149444953D01*
X127525057Y-149513106D01*
X127064722Y-149972637D01*
X126815284Y-150573352D01*
X126814716Y-151223795D01*
X127063106Y-151824943D01*
X127522637Y-152285278D01*
X128123352Y-152534716D01*
X128773795Y-152535284D01*
X129374943Y-152286894D01*
X129609715Y-152052532D01*
X131977073Y-152052532D01*
X132075736Y-152319387D01*
X132685461Y-152545908D01*
X133335460Y-152521856D01*
X133824264Y-152319387D01*
X133922927Y-152052532D01*
X132950000Y-151079605D01*
X131977073Y-152052532D01*
X129609715Y-152052532D01*
X129835278Y-151827363D01*
X130084716Y-151226648D01*
X130085232Y-150635461D01*
X131304092Y-150635461D01*
X131328144Y-151285460D01*
X131530613Y-151774264D01*
X131797468Y-151872927D01*
X132770395Y-150900000D01*
X133129605Y-150900000D01*
X134102532Y-151872927D01*
X134369387Y-151774264D01*
X134595908Y-151164539D01*
X134571856Y-150514540D01*
X134369387Y-150025736D01*
X134102532Y-149927073D01*
X133129605Y-150900000D01*
X132770395Y-150900000D01*
X131797468Y-149927073D01*
X131530613Y-150025736D01*
X131304092Y-150635461D01*
X130085232Y-150635461D01*
X130085284Y-150576205D01*
X129836894Y-149975057D01*
X129609703Y-149747468D01*
X131977073Y-149747468D01*
X132950000Y-150720395D01*
X133922927Y-149747468D01*
X133824264Y-149480613D01*
X133214539Y-149254092D01*
X132564540Y-149278144D01*
X132075736Y-149480613D01*
X131977073Y-149747468D01*
X129609703Y-149747468D01*
X129377363Y-149514722D01*
X129210000Y-149445227D01*
X129210000Y-147850000D01*
X129152148Y-147559161D01*
X128987401Y-147312599D01*
X123937401Y-142262599D01*
X123690839Y-142097852D01*
X123400000Y-142040000D01*
X120500000Y-142040000D01*
X120209160Y-142097852D01*
X119962599Y-142262599D01*
X119712599Y-142512599D01*
X119652489Y-142602560D01*
X119650000Y-142602560D01*
X119414683Y-142646838D01*
X119198559Y-142785910D01*
X119053569Y-142998110D01*
X119002560Y-143250000D01*
X119002560Y-143842468D01*
X118936799Y-143815162D01*
X118564833Y-143814838D01*
X118221057Y-143956883D01*
X117957808Y-144219673D01*
X117955676Y-144224808D01*
X115690434Y-141959566D01*
X115566865Y-141877000D01*
X115419541Y-141778561D01*
X115100000Y-141715000D01*
X111835000Y-141715000D01*
X111835000Y-141710000D01*
X113650000Y-141710000D01*
X113940839Y-141652148D01*
X114187401Y-141487401D01*
X115614802Y-140060000D01*
X115702560Y-140060000D01*
X115702560Y-141050000D01*
X115746838Y-141285317D01*
X115885910Y-141501441D01*
X116098110Y-141646431D01*
X116350000Y-141697440D01*
X118750000Y-141697440D01*
X118985317Y-141653162D01*
X119201441Y-141514090D01*
X119346431Y-141301890D01*
X119397440Y-141050000D01*
X119397440Y-140422242D01*
X119662599Y-140687401D01*
X119909161Y-140852148D01*
X120200000Y-140910000D01*
X120507666Y-140910000D01*
X120521838Y-140985317D01*
X120660910Y-141201441D01*
X120873110Y-141346431D01*
X121125000Y-141397440D01*
X121875000Y-141397440D01*
X122110317Y-141353162D01*
X122326441Y-141214090D01*
X122471431Y-141001890D01*
X122522440Y-140750000D01*
X122522440Y-139550000D01*
X122478162Y-139314683D01*
X122411671Y-139211354D01*
X122413327Y-139209698D01*
X122510000Y-138976309D01*
X122510000Y-138535750D01*
X122351250Y-138377000D01*
X121627000Y-138377000D01*
X121627000Y-138397000D01*
X121373000Y-138397000D01*
X121373000Y-138377000D01*
X120648750Y-138377000D01*
X120490000Y-138535750D01*
X120490000Y-138976309D01*
X120586673Y-139209698D01*
X120588043Y-139211068D01*
X120528569Y-139298110D01*
X120510776Y-139385974D01*
X119887401Y-138762599D01*
X119640839Y-138597852D01*
X119397440Y-138549436D01*
X119397440Y-137550000D01*
X119392490Y-137523691D01*
X120490000Y-137523691D01*
X120490000Y-137964250D01*
X120648750Y-138123000D01*
X121373000Y-138123000D01*
X121373000Y-137173750D01*
X121627000Y-137173750D01*
X121627000Y-138123000D01*
X122351250Y-138123000D01*
X122510000Y-137964250D01*
X122510000Y-137523691D01*
X122413327Y-137290302D01*
X122234699Y-137111673D01*
X122001310Y-137015000D01*
X121785750Y-137015000D01*
X121627000Y-137173750D01*
X121373000Y-137173750D01*
X121214250Y-137015000D01*
X120998690Y-137015000D01*
X120765301Y-137111673D01*
X120586673Y-137290302D01*
X120490000Y-137523691D01*
X119392490Y-137523691D01*
X119353162Y-137314683D01*
X119214090Y-137098559D01*
X119001890Y-136953569D01*
X118750000Y-136902560D01*
X116350000Y-136902560D01*
X116114683Y-136946838D01*
X115898559Y-137085910D01*
X115860000Y-137142343D01*
X115860000Y-136261176D01*
X115885910Y-136301441D01*
X116098110Y-136446431D01*
X116350000Y-136497440D01*
X118750000Y-136497440D01*
X118985317Y-136453162D01*
X119201441Y-136314090D01*
X119346431Y-136101890D01*
X119397440Y-135850000D01*
X119397440Y-135485750D01*
X120490000Y-135485750D01*
X120490000Y-135926309D01*
X120586673Y-136159698D01*
X120765301Y-136338327D01*
X120998690Y-136435000D01*
X121214250Y-136435000D01*
X121373000Y-136276250D01*
X121373000Y-135327000D01*
X121627000Y-135327000D01*
X121627000Y-136276250D01*
X121785750Y-136435000D01*
X122001310Y-136435000D01*
X122234699Y-136338327D01*
X122413327Y-136159698D01*
X122510000Y-135926309D01*
X122510000Y-135485750D01*
X122351250Y-135327000D01*
X121627000Y-135327000D01*
X121373000Y-135327000D01*
X120648750Y-135327000D01*
X120490000Y-135485750D01*
X119397440Y-135485750D01*
X119397440Y-134820726D01*
X119490839Y-134802148D01*
X119737401Y-134637401D01*
X120314802Y-134060000D01*
X120507666Y-134060000D01*
X120521838Y-134135317D01*
X120588329Y-134238646D01*
X120586673Y-134240302D01*
X120490000Y-134473691D01*
X120490000Y-134914250D01*
X120648750Y-135073000D01*
X121373000Y-135073000D01*
X121373000Y-135053000D01*
X121627000Y-135053000D01*
X121627000Y-135073000D01*
X122351250Y-135073000D01*
X122510000Y-134914250D01*
X122510000Y-134473691D01*
X122413327Y-134240302D01*
X122411957Y-134238932D01*
X122471431Y-134151890D01*
X122522440Y-133900000D01*
X122522440Y-132700000D01*
X122478162Y-132464683D01*
X122339090Y-132248559D01*
X122126890Y-132103569D01*
X121875000Y-132052560D01*
X121125000Y-132052560D01*
X120889683Y-132096838D01*
X120673559Y-132235910D01*
X120528569Y-132448110D01*
X120509961Y-132540000D01*
X120000000Y-132540000D01*
X119709161Y-132597852D01*
X119462599Y-132762599D01*
X119397440Y-132827758D01*
X119397440Y-132350000D01*
X119353162Y-132114683D01*
X119214090Y-131898559D01*
X119084480Y-131810000D01*
X131744895Y-131810000D01*
X131835910Y-131951441D01*
X132048110Y-132096431D01*
X132300000Y-132147440D01*
X133500000Y-132147440D01*
X133735317Y-132103162D01*
X133951441Y-131964090D01*
X133997969Y-131895994D01*
X134140302Y-132038327D01*
X134373691Y-132135000D01*
X134814250Y-132135000D01*
X134973000Y-131976250D01*
X134973000Y-131177000D01*
X135227000Y-131177000D01*
X135227000Y-131976250D01*
X135385750Y-132135000D01*
X135826309Y-132135000D01*
X136059698Y-132038327D01*
X136238327Y-131859699D01*
X136335000Y-131626310D01*
X136335000Y-131335750D01*
X136176250Y-131177000D01*
X135227000Y-131177000D01*
X134973000Y-131177000D01*
X134953000Y-131177000D01*
X134953000Y-130923000D01*
X134973000Y-130923000D01*
X134973000Y-130123750D01*
X135227000Y-130123750D01*
X135227000Y-130923000D01*
X136176250Y-130923000D01*
X136335000Y-130764250D01*
X136335000Y-130473690D01*
X136238327Y-130240301D01*
X136059698Y-130061673D01*
X135826309Y-129965000D01*
X135385750Y-129965000D01*
X135227000Y-130123750D01*
X134973000Y-130123750D01*
X134814250Y-129965000D01*
X134373691Y-129965000D01*
X134140302Y-130061673D01*
X133999064Y-130202910D01*
X133964090Y-130148559D01*
X133751890Y-130003569D01*
X133660000Y-129984961D01*
X133660000Y-129412463D01*
X133692192Y-129380327D01*
X133834838Y-129036799D01*
X133835162Y-128664833D01*
X133771186Y-128510000D01*
X149635198Y-128510000D01*
X153740000Y-132614802D01*
X153740000Y-132614802D01*
G37*
X153740000Y-132614802D02*
X153740000Y-148536753D01*
X153518485Y-148628281D01*
X153029996Y-149115918D01*
X152765301Y-149753373D01*
X152764699Y-150443599D01*
X153028281Y-151081515D01*
X153515918Y-151570004D01*
X153624280Y-151615000D01*
X151376767Y-151615000D01*
X151481515Y-151571719D01*
X151970004Y-151084082D01*
X152234699Y-150446627D01*
X152235301Y-149756401D01*
X151971719Y-149118485D01*
X151484082Y-148629996D01*
X151260000Y-148536949D01*
X151260000Y-132450000D01*
X151202148Y-132159161D01*
X151037401Y-131912599D01*
X148785122Y-129660320D01*
X148785162Y-129614833D01*
X148643117Y-129271057D01*
X148380327Y-129007808D01*
X148036799Y-128865162D01*
X147664833Y-128864838D01*
X147321057Y-129006883D01*
X147057808Y-129269673D01*
X146915162Y-129613201D01*
X146914838Y-129985167D01*
X147056883Y-130328943D01*
X147319673Y-130592192D01*
X147663201Y-130734838D01*
X147710077Y-130734879D01*
X149740000Y-132764802D01*
X149740000Y-148536753D01*
X149518485Y-148628281D01*
X149029996Y-149115918D01*
X148765301Y-149753373D01*
X148764699Y-150443599D01*
X149028281Y-151081515D01*
X149515918Y-151570004D01*
X149624280Y-151615000D01*
X148084983Y-151615000D01*
X148196431Y-151451890D01*
X148247440Y-151200000D01*
X148247440Y-149000000D01*
X148203162Y-148764683D01*
X148064090Y-148548559D01*
X147851890Y-148403569D01*
X147600000Y-148352560D01*
X145400000Y-148352560D01*
X145164683Y-148396838D01*
X144948559Y-148535910D01*
X144803569Y-148748110D01*
X144752560Y-149000000D01*
X144752560Y-149265000D01*
X141900000Y-149265000D01*
X141580459Y-149328561D01*
X141352897Y-149480613D01*
X141309566Y-149509566D01*
X139959566Y-150859566D01*
X139778561Y-151130459D01*
X139715000Y-151450000D01*
X139715000Y-153354132D01*
X139604132Y-153465000D01*
X124885000Y-153465000D01*
X124885000Y-147900000D01*
X124821439Y-147580459D01*
X124640434Y-147309566D01*
X124090434Y-146759566D01*
X123978838Y-146685000D01*
X123819541Y-146578561D01*
X123565187Y-146527967D01*
X123514090Y-146448559D01*
X123301890Y-146303569D01*
X123285000Y-146300149D01*
X123285000Y-144753222D01*
X123285317Y-144753162D01*
X123501441Y-144614090D01*
X123646431Y-144401890D01*
X123693694Y-144168496D01*
X127690000Y-148164802D01*
X127690000Y-149444953D01*
X127525057Y-149513106D01*
X127064722Y-149972637D01*
X126815284Y-150573352D01*
X126814716Y-151223795D01*
X127063106Y-151824943D01*
X127522637Y-152285278D01*
X128123352Y-152534716D01*
X128773795Y-152535284D01*
X129374943Y-152286894D01*
X129609715Y-152052532D01*
X131977073Y-152052532D01*
X132075736Y-152319387D01*
X132685461Y-152545908D01*
X133335460Y-152521856D01*
X133824264Y-152319387D01*
X133922927Y-152052532D01*
X132950000Y-151079605D01*
X131977073Y-152052532D01*
X129609715Y-152052532D01*
X129835278Y-151827363D01*
X130084716Y-151226648D01*
X130085232Y-150635461D01*
X131304092Y-150635461D01*
X131328144Y-151285460D01*
X131530613Y-151774264D01*
X131797468Y-151872927D01*
X132770395Y-150900000D01*
X133129605Y-150900000D01*
X134102532Y-151872927D01*
X134369387Y-151774264D01*
X134595908Y-151164539D01*
X134571856Y-150514540D01*
X134369387Y-150025736D01*
X134102532Y-149927073D01*
X133129605Y-150900000D01*
X132770395Y-150900000D01*
X131797468Y-149927073D01*
X131530613Y-150025736D01*
X131304092Y-150635461D01*
X130085232Y-150635461D01*
X130085284Y-150576205D01*
X129836894Y-149975057D01*
X129609703Y-149747468D01*
X131977073Y-149747468D01*
X132950000Y-150720395D01*
X133922927Y-149747468D01*
X133824264Y-149480613D01*
X133214539Y-149254092D01*
X132564540Y-149278144D01*
X132075736Y-149480613D01*
X131977073Y-149747468D01*
X129609703Y-149747468D01*
X129377363Y-149514722D01*
X129210000Y-149445227D01*
X129210000Y-147850000D01*
X129152148Y-147559161D01*
X128987401Y-147312599D01*
X123937401Y-142262599D01*
X123690839Y-142097852D01*
X123400000Y-142040000D01*
X120500000Y-142040000D01*
X120209160Y-142097852D01*
X119962599Y-142262599D01*
X119712599Y-142512599D01*
X119652489Y-142602560D01*
X119650000Y-142602560D01*
X119414683Y-142646838D01*
X119198559Y-142785910D01*
X119053569Y-142998110D01*
X119002560Y-143250000D01*
X119002560Y-143842468D01*
X118936799Y-143815162D01*
X118564833Y-143814838D01*
X118221057Y-143956883D01*
X117957808Y-144219673D01*
X117955676Y-144224808D01*
X115690434Y-141959566D01*
X115566865Y-141877000D01*
X115419541Y-141778561D01*
X115100000Y-141715000D01*
X111835000Y-141715000D01*
X111835000Y-141710000D01*
X113650000Y-141710000D01*
X113940839Y-141652148D01*
X114187401Y-141487401D01*
X115614802Y-140060000D01*
X115702560Y-140060000D01*
X115702560Y-141050000D01*
X115746838Y-141285317D01*
X115885910Y-141501441D01*
X116098110Y-141646431D01*
X116350000Y-141697440D01*
X118750000Y-141697440D01*
X118985317Y-141653162D01*
X119201441Y-141514090D01*
X119346431Y-141301890D01*
X119397440Y-141050000D01*
X119397440Y-140422242D01*
X119662599Y-140687401D01*
X119909161Y-140852148D01*
X120200000Y-140910000D01*
X120507666Y-140910000D01*
X120521838Y-140985317D01*
X120660910Y-141201441D01*
X120873110Y-141346431D01*
X121125000Y-141397440D01*
X121875000Y-141397440D01*
X122110317Y-141353162D01*
X122326441Y-141214090D01*
X122471431Y-141001890D01*
X122522440Y-140750000D01*
X122522440Y-139550000D01*
X122478162Y-139314683D01*
X122411671Y-139211354D01*
X122413327Y-139209698D01*
X122510000Y-138976309D01*
X122510000Y-138535750D01*
X122351250Y-138377000D01*
X121627000Y-138377000D01*
X121627000Y-138397000D01*
X121373000Y-138397000D01*
X121373000Y-138377000D01*
X120648750Y-138377000D01*
X120490000Y-138535750D01*
X120490000Y-138976309D01*
X120586673Y-139209698D01*
X120588043Y-139211068D01*
X120528569Y-139298110D01*
X120510776Y-139385974D01*
X119887401Y-138762599D01*
X119640839Y-138597852D01*
X119397440Y-138549436D01*
X119397440Y-137550000D01*
X119392490Y-137523691D01*
X120490000Y-137523691D01*
X120490000Y-137964250D01*
X120648750Y-138123000D01*
X121373000Y-138123000D01*
X121373000Y-137173750D01*
X121627000Y-137173750D01*
X121627000Y-138123000D01*
X122351250Y-138123000D01*
X122510000Y-137964250D01*
X122510000Y-137523691D01*
X122413327Y-137290302D01*
X122234699Y-137111673D01*
X122001310Y-137015000D01*
X121785750Y-137015000D01*
X121627000Y-137173750D01*
X121373000Y-137173750D01*
X121214250Y-137015000D01*
X120998690Y-137015000D01*
X120765301Y-137111673D01*
X120586673Y-137290302D01*
X120490000Y-137523691D01*
X119392490Y-137523691D01*
X119353162Y-137314683D01*
X119214090Y-137098559D01*
X119001890Y-136953569D01*
X118750000Y-136902560D01*
X116350000Y-136902560D01*
X116114683Y-136946838D01*
X115898559Y-137085910D01*
X115860000Y-137142343D01*
X115860000Y-136261176D01*
X115885910Y-136301441D01*
X116098110Y-136446431D01*
X116350000Y-136497440D01*
X118750000Y-136497440D01*
X118985317Y-136453162D01*
X119201441Y-136314090D01*
X119346431Y-136101890D01*
X119397440Y-135850000D01*
X119397440Y-135485750D01*
X120490000Y-135485750D01*
X120490000Y-135926309D01*
X120586673Y-136159698D01*
X120765301Y-136338327D01*
X120998690Y-136435000D01*
X121214250Y-136435000D01*
X121373000Y-136276250D01*
X121373000Y-135327000D01*
X121627000Y-135327000D01*
X121627000Y-136276250D01*
X121785750Y-136435000D01*
X122001310Y-136435000D01*
X122234699Y-136338327D01*
X122413327Y-136159698D01*
X122510000Y-135926309D01*
X122510000Y-135485750D01*
X122351250Y-135327000D01*
X121627000Y-135327000D01*
X121373000Y-135327000D01*
X120648750Y-135327000D01*
X120490000Y-135485750D01*
X119397440Y-135485750D01*
X119397440Y-134820726D01*
X119490839Y-134802148D01*
X119737401Y-134637401D01*
X120314802Y-134060000D01*
X120507666Y-134060000D01*
X120521838Y-134135317D01*
X120588329Y-134238646D01*
X120586673Y-134240302D01*
X120490000Y-134473691D01*
X120490000Y-134914250D01*
X120648750Y-135073000D01*
X121373000Y-135073000D01*
X121373000Y-135053000D01*
X121627000Y-135053000D01*
X121627000Y-135073000D01*
X122351250Y-135073000D01*
X122510000Y-134914250D01*
X122510000Y-134473691D01*
X122413327Y-134240302D01*
X122411957Y-134238932D01*
X122471431Y-134151890D01*
X122522440Y-133900000D01*
X122522440Y-132700000D01*
X122478162Y-132464683D01*
X122339090Y-132248559D01*
X122126890Y-132103569D01*
X121875000Y-132052560D01*
X121125000Y-132052560D01*
X120889683Y-132096838D01*
X120673559Y-132235910D01*
X120528569Y-132448110D01*
X120509961Y-132540000D01*
X120000000Y-132540000D01*
X119709161Y-132597852D01*
X119462599Y-132762599D01*
X119397440Y-132827758D01*
X119397440Y-132350000D01*
X119353162Y-132114683D01*
X119214090Y-131898559D01*
X119084480Y-131810000D01*
X131744895Y-131810000D01*
X131835910Y-131951441D01*
X132048110Y-132096431D01*
X132300000Y-132147440D01*
X133500000Y-132147440D01*
X133735317Y-132103162D01*
X133951441Y-131964090D01*
X133997969Y-131895994D01*
X134140302Y-132038327D01*
X134373691Y-132135000D01*
X134814250Y-132135000D01*
X134973000Y-131976250D01*
X134973000Y-131177000D01*
X135227000Y-131177000D01*
X135227000Y-131976250D01*
X135385750Y-132135000D01*
X135826309Y-132135000D01*
X136059698Y-132038327D01*
X136238327Y-131859699D01*
X136335000Y-131626310D01*
X136335000Y-131335750D01*
X136176250Y-131177000D01*
X135227000Y-131177000D01*
X134973000Y-131177000D01*
X134953000Y-131177000D01*
X134953000Y-130923000D01*
X134973000Y-130923000D01*
X134973000Y-130123750D01*
X135227000Y-130123750D01*
X135227000Y-130923000D01*
X136176250Y-130923000D01*
X136335000Y-130764250D01*
X136335000Y-130473690D01*
X136238327Y-130240301D01*
X136059698Y-130061673D01*
X135826309Y-129965000D01*
X135385750Y-129965000D01*
X135227000Y-130123750D01*
X134973000Y-130123750D01*
X134814250Y-129965000D01*
X134373691Y-129965000D01*
X134140302Y-130061673D01*
X133999064Y-130202910D01*
X133964090Y-130148559D01*
X133751890Y-130003569D01*
X133660000Y-129984961D01*
X133660000Y-129412463D01*
X133692192Y-129380327D01*
X133834838Y-129036799D01*
X133835162Y-128664833D01*
X133771186Y-128510000D01*
X149635198Y-128510000D01*
X153740000Y-132614802D01*
G36*
X103990000Y-147018946D02*
X103990000Y-148050000D01*
X104006189Y-148131387D01*
X103910000Y-148035198D01*
X103910000Y-147014975D01*
X103949884Y-146956603D01*
X103990000Y-147018946D01*
X103990000Y-147018946D01*
G37*
X103990000Y-147018946D02*
X103990000Y-148050000D01*
X104006189Y-148131387D01*
X103910000Y-148035198D01*
X103910000Y-147014975D01*
X103949884Y-146956603D01*
X103990000Y-147018946D01*
G36*
X109915162Y-127813201D02*
X109914838Y-128185167D01*
X110056883Y-128528943D01*
X110319673Y-128792192D01*
X110663201Y-128934838D01*
X111035167Y-128935162D01*
X111378943Y-128793117D01*
X111642192Y-128530327D01*
X111650633Y-128510000D01*
X132028777Y-128510000D01*
X131965162Y-128663201D01*
X131964838Y-129035167D01*
X132106883Y-129378943D01*
X132140000Y-129412118D01*
X132140000Y-129982666D01*
X132064683Y-129996838D01*
X131848559Y-130135910D01*
X131743274Y-130290000D01*
X115850000Y-130290000D01*
X115559161Y-130347852D01*
X115312599Y-130512599D01*
X113162599Y-132662599D01*
X112997852Y-132909161D01*
X112940000Y-133200000D01*
X112940000Y-138135198D01*
X112485198Y-138590000D01*
X111847440Y-138590000D01*
X111847440Y-138275000D01*
X111823056Y-138145411D01*
X111847440Y-138025000D01*
X111847440Y-137475000D01*
X111823056Y-137345411D01*
X111847440Y-137225000D01*
X111847440Y-136675000D01*
X111823056Y-136545411D01*
X111847440Y-136425000D01*
X111847440Y-135875000D01*
X111803162Y-135639683D01*
X111664090Y-135423559D01*
X111451890Y-135278569D01*
X111200000Y-135227560D01*
X109700000Y-135227560D01*
X109660000Y-135235087D01*
X109660000Y-134735750D01*
X109501250Y-134577000D01*
X108877000Y-134577000D01*
X108877000Y-134597000D01*
X108872440Y-134597000D01*
X108872440Y-134303000D01*
X108877000Y-134303000D01*
X108877000Y-134323000D01*
X109501250Y-134323000D01*
X109660000Y-134164250D01*
X109660000Y-133573691D01*
X109563327Y-133340302D01*
X109533025Y-133310000D01*
X109814250Y-133310000D01*
X109973000Y-133151250D01*
X109973000Y-132427000D01*
X110227000Y-132427000D01*
X110227000Y-133151250D01*
X110385750Y-133310000D01*
X110826309Y-133310000D01*
X111059698Y-133213327D01*
X111238327Y-133034699D01*
X111335000Y-132801310D01*
X111335000Y-132585750D01*
X111176250Y-132427000D01*
X110227000Y-132427000D01*
X109973000Y-132427000D01*
X109953000Y-132427000D01*
X109953000Y-132173000D01*
X109973000Y-132173000D01*
X109973000Y-130877000D01*
X110227000Y-130877000D01*
X110227000Y-132173000D01*
X111176250Y-132173000D01*
X111335000Y-132014250D01*
X111335000Y-131798690D01*
X111238327Y-131565301D01*
X111198026Y-131525000D01*
X111238327Y-131484699D01*
X111335000Y-131251310D01*
X111335000Y-131035750D01*
X111176250Y-130877000D01*
X110227000Y-130877000D01*
X109973000Y-130877000D01*
X109953000Y-130877000D01*
X109953000Y-130623000D01*
X109973000Y-130623000D01*
X109973000Y-129898750D01*
X110227000Y-129898750D01*
X110227000Y-130623000D01*
X111176250Y-130623000D01*
X111335000Y-130464250D01*
X111335000Y-130248690D01*
X111238327Y-130015301D01*
X111059698Y-129836673D01*
X110826309Y-129740000D01*
X110385750Y-129740000D01*
X110227000Y-129898750D01*
X109973000Y-129898750D01*
X109814250Y-129740000D01*
X109373691Y-129740000D01*
X109140302Y-129836673D01*
X109138932Y-129838043D01*
X109051890Y-129778569D01*
X108800000Y-129727560D01*
X107910000Y-129727560D01*
X107910000Y-129664802D01*
X110024205Y-127550597D01*
X109915162Y-127813201D01*
X109915162Y-127813201D01*
G37*
X109915162Y-127813201D02*
X109914838Y-128185167D01*
X110056883Y-128528943D01*
X110319673Y-128792192D01*
X110663201Y-128934838D01*
X111035167Y-128935162D01*
X111378943Y-128793117D01*
X111642192Y-128530327D01*
X111650633Y-128510000D01*
X132028777Y-128510000D01*
X131965162Y-128663201D01*
X131964838Y-129035167D01*
X132106883Y-129378943D01*
X132140000Y-129412118D01*
X132140000Y-129982666D01*
X132064683Y-129996838D01*
X131848559Y-130135910D01*
X131743274Y-130290000D01*
X115850000Y-130290000D01*
X115559161Y-130347852D01*
X115312599Y-130512599D01*
X113162599Y-132662599D01*
X112997852Y-132909161D01*
X112940000Y-133200000D01*
X112940000Y-138135198D01*
X112485198Y-138590000D01*
X111847440Y-138590000D01*
X111847440Y-138275000D01*
X111823056Y-138145411D01*
X111847440Y-138025000D01*
X111847440Y-137475000D01*
X111823056Y-137345411D01*
X111847440Y-137225000D01*
X111847440Y-136675000D01*
X111823056Y-136545411D01*
X111847440Y-136425000D01*
X111847440Y-135875000D01*
X111803162Y-135639683D01*
X111664090Y-135423559D01*
X111451890Y-135278569D01*
X111200000Y-135227560D01*
X109700000Y-135227560D01*
X109660000Y-135235087D01*
X109660000Y-134735750D01*
X109501250Y-134577000D01*
X108877000Y-134577000D01*
X108877000Y-134597000D01*
X108872440Y-134597000D01*
X108872440Y-134303000D01*
X108877000Y-134303000D01*
X108877000Y-134323000D01*
X109501250Y-134323000D01*
X109660000Y-134164250D01*
X109660000Y-133573691D01*
X109563327Y-133340302D01*
X109533025Y-133310000D01*
X109814250Y-133310000D01*
X109973000Y-133151250D01*
X109973000Y-132427000D01*
X110227000Y-132427000D01*
X110227000Y-133151250D01*
X110385750Y-133310000D01*
X110826309Y-133310000D01*
X111059698Y-133213327D01*
X111238327Y-133034699D01*
X111335000Y-132801310D01*
X111335000Y-132585750D01*
X111176250Y-132427000D01*
X110227000Y-132427000D01*
X109973000Y-132427000D01*
X109953000Y-132427000D01*
X109953000Y-132173000D01*
X109973000Y-132173000D01*
X109973000Y-130877000D01*
X110227000Y-130877000D01*
X110227000Y-132173000D01*
X111176250Y-132173000D01*
X111335000Y-132014250D01*
X111335000Y-131798690D01*
X111238327Y-131565301D01*
X111198026Y-131525000D01*
X111238327Y-131484699D01*
X111335000Y-131251310D01*
X111335000Y-131035750D01*
X111176250Y-130877000D01*
X110227000Y-130877000D01*
X109973000Y-130877000D01*
X109953000Y-130877000D01*
X109953000Y-130623000D01*
X109973000Y-130623000D01*
X109973000Y-129898750D01*
X110227000Y-129898750D01*
X110227000Y-130623000D01*
X111176250Y-130623000D01*
X111335000Y-130464250D01*
X111335000Y-130248690D01*
X111238327Y-130015301D01*
X111059698Y-129836673D01*
X110826309Y-129740000D01*
X110385750Y-129740000D01*
X110227000Y-129898750D01*
X109973000Y-129898750D01*
X109814250Y-129740000D01*
X109373691Y-129740000D01*
X109140302Y-129836673D01*
X109138932Y-129838043D01*
X109051890Y-129778569D01*
X108800000Y-129727560D01*
X107910000Y-129727560D01*
X107910000Y-129664802D01*
X110024205Y-127550597D01*
X109915162Y-127813201D01*
G36*
X114349946Y-91079147D02*
X114640000Y-91272954D01*
X114640000Y-115335198D01*
X107034055Y-122941143D01*
X106943117Y-122721057D01*
X106680327Y-122457808D01*
X106388268Y-122336534D01*
X106389680Y-122335122D01*
X106435167Y-122335162D01*
X106778943Y-122193117D01*
X107042192Y-121930327D01*
X107184838Y-121586799D01*
X107185162Y-121214833D01*
X107043117Y-120871057D01*
X106780327Y-120607808D01*
X106580838Y-120524972D01*
X106778943Y-120443117D01*
X107042192Y-120180327D01*
X107184838Y-119836799D01*
X107185162Y-119464833D01*
X107043117Y-119121057D01*
X106780327Y-118857808D01*
X106436799Y-118715162D01*
X106064833Y-118714838D01*
X105721057Y-118856883D01*
X105457808Y-119119673D01*
X105315162Y-119463201D01*
X105315121Y-119510077D01*
X101012599Y-123812599D01*
X100847852Y-124059161D01*
X100790000Y-124350000D01*
X100790000Y-133285025D01*
X100678569Y-133448110D01*
X100627560Y-133700000D01*
X100627560Y-134597000D01*
X100623000Y-134597000D01*
X100623000Y-134577000D01*
X99998750Y-134577000D01*
X99840000Y-134735750D01*
X99840000Y-135235660D01*
X99800000Y-135227560D01*
X98300000Y-135227560D01*
X98064683Y-135271838D01*
X97848559Y-135410910D01*
X97703569Y-135623110D01*
X97652560Y-135875000D01*
X97652560Y-136425000D01*
X97672450Y-136530705D01*
X97665000Y-136548690D01*
X97665000Y-136664250D01*
X97761401Y-136760651D01*
X97835910Y-136876441D01*
X97943397Y-136949884D01*
X97881054Y-136990000D01*
X97210000Y-136990000D01*
X97210000Y-133573691D01*
X99840000Y-133573691D01*
X99840000Y-134164250D01*
X99998750Y-134323000D01*
X100623000Y-134323000D01*
X100623000Y-133223750D01*
X100464250Y-133065000D01*
X100348690Y-133065000D01*
X100115301Y-133161673D01*
X99936673Y-133340302D01*
X99840000Y-133573691D01*
X97210000Y-133573691D01*
X97210000Y-118464802D01*
X103237401Y-112437401D01*
X103402148Y-112190839D01*
X103460000Y-111900000D01*
X103460000Y-91272954D01*
X103750054Y-91079147D01*
X103970000Y-90749974D01*
X104189946Y-91079147D01*
X104671715Y-91401054D01*
X105240000Y-91514093D01*
X105808285Y-91401054D01*
X106290054Y-91079147D01*
X106510000Y-90749974D01*
X106729946Y-91079147D01*
X107211715Y-91401054D01*
X107780000Y-91514093D01*
X108348285Y-91401054D01*
X108830054Y-91079147D01*
X109050000Y-90749974D01*
X109269946Y-91079147D01*
X109751715Y-91401054D01*
X110320000Y-91514093D01*
X110888285Y-91401054D01*
X111370054Y-91079147D01*
X111590000Y-90749974D01*
X111809946Y-91079147D01*
X112291715Y-91401054D01*
X112860000Y-91514093D01*
X113428285Y-91401054D01*
X113910054Y-91079147D01*
X114130000Y-90749974D01*
X114349946Y-91079147D01*
X114349946Y-91079147D01*
G37*
X114349946Y-91079147D02*
X114640000Y-91272954D01*
X114640000Y-115335198D01*
X107034055Y-122941143D01*
X106943117Y-122721057D01*
X106680327Y-122457808D01*
X106388268Y-122336534D01*
X106389680Y-122335122D01*
X106435167Y-122335162D01*
X106778943Y-122193117D01*
X107042192Y-121930327D01*
X107184838Y-121586799D01*
X107185162Y-121214833D01*
X107043117Y-120871057D01*
X106780327Y-120607808D01*
X106580838Y-120524972D01*
X106778943Y-120443117D01*
X107042192Y-120180327D01*
X107184838Y-119836799D01*
X107185162Y-119464833D01*
X107043117Y-119121057D01*
X106780327Y-118857808D01*
X106436799Y-118715162D01*
X106064833Y-118714838D01*
X105721057Y-118856883D01*
X105457808Y-119119673D01*
X105315162Y-119463201D01*
X105315121Y-119510077D01*
X101012599Y-123812599D01*
X100847852Y-124059161D01*
X100790000Y-124350000D01*
X100790000Y-133285025D01*
X100678569Y-133448110D01*
X100627560Y-133700000D01*
X100627560Y-134597000D01*
X100623000Y-134597000D01*
X100623000Y-134577000D01*
X99998750Y-134577000D01*
X99840000Y-134735750D01*
X99840000Y-135235660D01*
X99800000Y-135227560D01*
X98300000Y-135227560D01*
X98064683Y-135271838D01*
X97848559Y-135410910D01*
X97703569Y-135623110D01*
X97652560Y-135875000D01*
X97652560Y-136425000D01*
X97672450Y-136530705D01*
X97665000Y-136548690D01*
X97665000Y-136664250D01*
X97761401Y-136760651D01*
X97835910Y-136876441D01*
X97943397Y-136949884D01*
X97881054Y-136990000D01*
X97210000Y-136990000D01*
X97210000Y-133573691D01*
X99840000Y-133573691D01*
X99840000Y-134164250D01*
X99998750Y-134323000D01*
X100623000Y-134323000D01*
X100623000Y-133223750D01*
X100464250Y-133065000D01*
X100348690Y-133065000D01*
X100115301Y-133161673D01*
X99936673Y-133340302D01*
X99840000Y-133573691D01*
X97210000Y-133573691D01*
X97210000Y-118464802D01*
X103237401Y-112437401D01*
X103402148Y-112190839D01*
X103460000Y-111900000D01*
X103460000Y-91272954D01*
X103750054Y-91079147D01*
X103970000Y-90749974D01*
X104189946Y-91079147D01*
X104671715Y-91401054D01*
X105240000Y-91514093D01*
X105808285Y-91401054D01*
X106290054Y-91079147D01*
X106510000Y-90749974D01*
X106729946Y-91079147D01*
X107211715Y-91401054D01*
X107780000Y-91514093D01*
X108348285Y-91401054D01*
X108830054Y-91079147D01*
X109050000Y-90749974D01*
X109269946Y-91079147D01*
X109751715Y-91401054D01*
X110320000Y-91514093D01*
X110888285Y-91401054D01*
X111370054Y-91079147D01*
X111590000Y-90749974D01*
X111809946Y-91079147D01*
X112291715Y-91401054D01*
X112860000Y-91514093D01*
X113428285Y-91401054D01*
X113910054Y-91079147D01*
X114130000Y-90749974D01*
X114349946Y-91079147D01*
M02*
