M48
;DRILL file {KiCad 4.0.7-e1-6374~58~ubuntu16.04.1} date Tue Aug 15 21:07:35 2017
;FORMAT={-:-/ absolute / metric / decimal}
FMAT,2
METRIC,TZ
T1C0.400
T2C0.500
T3C0.550
T4C1.000
T5C1.100
T6C1.300
%
G90
G05
M71
T1
X87.7Y-157.75
X93.55Y-142.55
X93.55Y-146.65
X97.3Y-144.
X97.45Y-136.7
X98.8Y-134.45
X100.8Y-159.55
X103.95Y-144.55
X103.95Y-147.3
X104.35Y-155.5
X105.3Y-159.55
X105.7Y-153.15
X106.15Y-123.25
X106.25Y-119.65
X106.25Y-121.4
X109.Y-141.75
X109.7Y-150.25
X109.8Y-134.45
X110.85Y-128.
X111.3Y-150.25
X111.45Y-126.6
X112.Y-141.75
X112.4Y-125.8
X115.1Y-145.7
X115.1Y-147.7
X115.1Y-149.6
X117.05Y-145.7
X118.75Y-144.75
X121.5Y-136.75
X132.9Y-121.3
X132.9Y-128.85
X134.8Y-116.1
X136.35Y-131.05
X147.85Y-126.6
X147.85Y-129.8
T4
X90.Y-90.
X92.54Y-90.
X95.08Y-90.
X97.62Y-90.
X100.16Y-90.
X102.7Y-90.
X105.24Y-90.
X107.78Y-90.
X110.32Y-90.
X112.86Y-90.
X115.12Y-153.2
X115.12Y-155.74
X115.4Y-90.
X117.66Y-153.2
X117.66Y-155.74
X117.94Y-90.
X120.2Y-153.2
X120.2Y-155.74
X120.48Y-90.
X123.02Y-90.
X125.56Y-90.
X128.1Y-90.
T5
X128.45Y-150.9
X128.45Y-157.4
X132.95Y-150.9
X132.95Y-157.4
T6
X146.5Y-150.1
X150.5Y-150.1
X154.5Y-150.1
X158.5Y-150.1
X165.Y-150.1
X169.Y-150.1
X173.Y-150.1
T2
X99.55Y-159.225G85X99.55Y-159.875
G05
X106.55Y-159.225G85X106.55Y-159.875
G05
T3
X100.4Y-156.85G85X100.7Y-156.85
G05
X105.4Y-156.85G85X105.7Y-156.85
G05
T0
M30
