M48
;DRILL file {KiCad 4.0.7-e1-6374~58~ubuntu16.04.1} date Fri Aug  4 19:49:13 2017
;FORMAT={-:-/ absolute / metric / decimal}
FMAT,2
METRIC,TZ
T1C0.400
T2C0.500
T3C0.550
T4C1.000
T5C1.100
T6C1.300
%
G90
G05
M71
T1
X114.15Y-146.35
X115.Y-134.5
X116.7Y-130.35
X119.3Y-132.35
X122.05Y-128.25
X122.85Y-128.8
X123.65Y-125.7
X131.Y-110.45
X131.05Y-111.55
X131.25Y-127.
X131.6Y-139.9
X132.15Y-112.7
X152.Y-114.9
X156.Y-124.65
X160.1Y-116.8
T2
X118.05Y-115.95
X120.8Y-148.2
X121.75Y-119.75
X122.45Y-135.1
X123.4Y-109.6
X124.55Y-110.9
X124.6Y-122.6
X125.6Y-93.65
X126.5Y-151.65
X127.35Y-108.1
X131.3Y-155.
X132.6Y-126.9
X133.95Y-148.2
X134.6Y-116.
X137.1Y-116.8
T4
X90.Y-90.
X92.46Y-151.92
X92.46Y-154.46
X92.46Y-157.
X92.54Y-90.
X95.Y-151.92
X95.Y-154.46
X95.Y-157.
X95.08Y-90.
X97.62Y-90.
X100.16Y-90.
X102.7Y-90.
X105.24Y-90.
X107.78Y-90.
X110.32Y-90.
X112.86Y-90.
X115.4Y-90.
X117.94Y-90.
X120.48Y-90.
X123.02Y-90.
X125.56Y-90.
X128.1Y-90.
T5
X103.95Y-151.9
X103.95Y-156.4
X110.45Y-151.9
X110.45Y-156.4
T6
X148.Y-150.
X152.Y-150.
X156.Y-150.
X160.Y-150.
X166.5Y-150.
X170.5Y-150.
X174.5Y-150.
T2
X126.5Y-159.225G85X126.5Y-159.875
G05
X133.5Y-159.225G85X133.5Y-159.875
G05
T3
X127.35Y-156.85G85X127.65Y-156.85
G05
X132.35Y-156.85G85X132.65Y-156.85
G05
T0
M30
