G04 #@! TF.FileFunction,Legend,Top*
%FSLAX46Y46*%
G04 Gerber Fmt 4.6, Leading zero omitted, Abs format (unit mm)*
G04 Created by KiCad (PCBNEW 4.0.7-e1-6374~58~ubuntu16.04.1) date Wed Aug 30 00:48:10 2017*
%MOMM*%
%LPD*%
G01*
G04 APERTURE LIST*
%ADD10C,0.100000*%
%ADD11C,0.300000*%
%ADD12C,0.120000*%
%ADD13C,0.150000*%
%ADD14C,0.127000*%
G04 APERTURE END LIST*
D10*
D11*
X132857143Y-90903571D02*
X132857143Y-89903571D01*
X132857143Y-90046429D02*
X132928571Y-89975000D01*
X133071429Y-89903571D01*
X133285714Y-89903571D01*
X133428571Y-89975000D01*
X133500000Y-90117857D01*
X133500000Y-90903571D01*
X133500000Y-90117857D02*
X133571429Y-89975000D01*
X133714286Y-89903571D01*
X133928571Y-89903571D01*
X134071429Y-89975000D01*
X134142857Y-90117857D01*
X134142857Y-90903571D01*
X135428571Y-90832143D02*
X135285714Y-90903571D01*
X135000000Y-90903571D01*
X134857143Y-90832143D01*
X134785714Y-90689286D01*
X134785714Y-90117857D01*
X134857143Y-89975000D01*
X135000000Y-89903571D01*
X135285714Y-89903571D01*
X135428571Y-89975000D01*
X135500000Y-90117857D01*
X135500000Y-90260714D01*
X134785714Y-90403571D01*
X136785714Y-89903571D02*
X136785714Y-91117857D01*
X136714285Y-91260714D01*
X136642857Y-91332143D01*
X136500000Y-91403571D01*
X136285714Y-91403571D01*
X136142857Y-91332143D01*
X136785714Y-90832143D02*
X136642857Y-90903571D01*
X136357143Y-90903571D01*
X136214285Y-90832143D01*
X136142857Y-90760714D01*
X136071428Y-90617857D01*
X136071428Y-90189286D01*
X136142857Y-90046429D01*
X136214285Y-89975000D01*
X136357143Y-89903571D01*
X136642857Y-89903571D01*
X136785714Y-89975000D01*
X138142857Y-90903571D02*
X138142857Y-90117857D01*
X138071428Y-89975000D01*
X137928571Y-89903571D01*
X137642857Y-89903571D01*
X137500000Y-89975000D01*
X138142857Y-90832143D02*
X138000000Y-90903571D01*
X137642857Y-90903571D01*
X137500000Y-90832143D01*
X137428571Y-90689286D01*
X137428571Y-90546429D01*
X137500000Y-90403571D01*
X137642857Y-90332143D01*
X138000000Y-90332143D01*
X138142857Y-90260714D01*
X138857143Y-90903571D02*
X138857143Y-89903571D01*
X138857143Y-90189286D02*
X138928571Y-90046429D01*
X139000000Y-89975000D01*
X139142857Y-89903571D01*
X139285714Y-89903571D01*
X139785714Y-90903571D02*
X139785714Y-89903571D01*
X139785714Y-89403571D02*
X139714285Y-89475000D01*
X139785714Y-89546429D01*
X139857142Y-89475000D01*
X139785714Y-89403571D01*
X139785714Y-89546429D01*
X140571428Y-89403571D02*
X140428571Y-89689286D01*
X141142857Y-90832143D02*
X141285714Y-90903571D01*
X141571429Y-90903571D01*
X141714286Y-90832143D01*
X141785714Y-90689286D01*
X141785714Y-90617857D01*
X141714286Y-90475000D01*
X141571429Y-90403571D01*
X141357143Y-90403571D01*
X141214286Y-90332143D01*
X141142857Y-90189286D01*
X141142857Y-90117857D01*
X141214286Y-89975000D01*
X141357143Y-89903571D01*
X141571429Y-89903571D01*
X141714286Y-89975000D01*
X143500000Y-90832143D02*
X143714286Y-90903571D01*
X144071429Y-90903571D01*
X144214286Y-90832143D01*
X144285715Y-90760714D01*
X144357143Y-90617857D01*
X144357143Y-90475000D01*
X144285715Y-90332143D01*
X144214286Y-90260714D01*
X144071429Y-90189286D01*
X143785715Y-90117857D01*
X143642857Y-90046429D01*
X143571429Y-89975000D01*
X143500000Y-89832143D01*
X143500000Y-89689286D01*
X143571429Y-89546429D01*
X143642857Y-89475000D01*
X143785715Y-89403571D01*
X144142857Y-89403571D01*
X144357143Y-89475000D01*
X145000000Y-90903571D02*
X145000000Y-89403571D01*
X145857143Y-90903571D01*
X145857143Y-89403571D01*
X146571429Y-90117857D02*
X147071429Y-90117857D01*
X147285715Y-90903571D02*
X146571429Y-90903571D01*
X146571429Y-89403571D01*
X147285715Y-89403571D01*
X147857143Y-90832143D02*
X148071429Y-90903571D01*
X148428572Y-90903571D01*
X148571429Y-90832143D01*
X148642858Y-90760714D01*
X148714286Y-90617857D01*
X148714286Y-90475000D01*
X148642858Y-90332143D01*
X148571429Y-90260714D01*
X148428572Y-90189286D01*
X148142858Y-90117857D01*
X148000000Y-90046429D01*
X147928572Y-89975000D01*
X147857143Y-89832143D01*
X147857143Y-89689286D01*
X147928572Y-89546429D01*
X148000000Y-89475000D01*
X148142858Y-89403571D01*
X148500000Y-89403571D01*
X148714286Y-89475000D01*
X151142857Y-90832143D02*
X151000000Y-90903571D01*
X150714286Y-90903571D01*
X150571428Y-90832143D01*
X150500000Y-90760714D01*
X150428571Y-90617857D01*
X150428571Y-90189286D01*
X150500000Y-90046429D01*
X150571428Y-89975000D01*
X150714286Y-89903571D01*
X151000000Y-89903571D01*
X151142857Y-89975000D01*
X152000000Y-90903571D02*
X151857142Y-90832143D01*
X151785714Y-90760714D01*
X151714285Y-90617857D01*
X151714285Y-90189286D01*
X151785714Y-90046429D01*
X151857142Y-89975000D01*
X152000000Y-89903571D01*
X152214285Y-89903571D01*
X152357142Y-89975000D01*
X152428571Y-90046429D01*
X152500000Y-90189286D01*
X152500000Y-90617857D01*
X152428571Y-90760714D01*
X152357142Y-90832143D01*
X152214285Y-90903571D01*
X152000000Y-90903571D01*
X153142857Y-89903571D02*
X153142857Y-90903571D01*
X153142857Y-90046429D02*
X153214285Y-89975000D01*
X153357143Y-89903571D01*
X153571428Y-89903571D01*
X153714285Y-89975000D01*
X153785714Y-90117857D01*
X153785714Y-90903571D01*
X154285714Y-89903571D02*
X154857143Y-89903571D01*
X154500000Y-89403571D02*
X154500000Y-90689286D01*
X154571428Y-90832143D01*
X154714286Y-90903571D01*
X154857143Y-90903571D01*
X155357143Y-90903571D02*
X155357143Y-89903571D01*
X155357143Y-90189286D02*
X155428571Y-90046429D01*
X155500000Y-89975000D01*
X155642857Y-89903571D01*
X155785714Y-89903571D01*
X156500000Y-90903571D02*
X156357142Y-90832143D01*
X156285714Y-90760714D01*
X156214285Y-90617857D01*
X156214285Y-90189286D01*
X156285714Y-90046429D01*
X156357142Y-89975000D01*
X156500000Y-89903571D01*
X156714285Y-89903571D01*
X156857142Y-89975000D01*
X156928571Y-90046429D01*
X157000000Y-90189286D01*
X157000000Y-90617857D01*
X156928571Y-90760714D01*
X156857142Y-90832143D01*
X156714285Y-90903571D01*
X156500000Y-90903571D01*
X157857143Y-90903571D02*
X157714285Y-90832143D01*
X157642857Y-90689286D01*
X157642857Y-89403571D01*
X158642857Y-90903571D02*
X158499999Y-90832143D01*
X158428571Y-90689286D01*
X158428571Y-89403571D01*
X159785713Y-90832143D02*
X159642856Y-90903571D01*
X159357142Y-90903571D01*
X159214285Y-90832143D01*
X159142856Y-90689286D01*
X159142856Y-90117857D01*
X159214285Y-89975000D01*
X159357142Y-89903571D01*
X159642856Y-89903571D01*
X159785713Y-89975000D01*
X159857142Y-90117857D01*
X159857142Y-90260714D01*
X159142856Y-90403571D01*
X160499999Y-90903571D02*
X160499999Y-89903571D01*
X160499999Y-90189286D02*
X160571427Y-90046429D01*
X160642856Y-89975000D01*
X160785713Y-89903571D01*
X160928570Y-89903571D01*
X163214284Y-90903571D02*
X163214284Y-89403571D01*
X163214284Y-90832143D02*
X163071427Y-90903571D01*
X162785713Y-90903571D01*
X162642855Y-90832143D01*
X162571427Y-90760714D01*
X162499998Y-90617857D01*
X162499998Y-90189286D01*
X162571427Y-90046429D01*
X162642855Y-89975000D01*
X162785713Y-89903571D01*
X163071427Y-89903571D01*
X163214284Y-89975000D01*
X164499998Y-90832143D02*
X164357141Y-90903571D01*
X164071427Y-90903571D01*
X163928570Y-90832143D01*
X163857141Y-90689286D01*
X163857141Y-90117857D01*
X163928570Y-89975000D01*
X164071427Y-89903571D01*
X164357141Y-89903571D01*
X164499998Y-89975000D01*
X164571427Y-90117857D01*
X164571427Y-90260714D01*
X163857141Y-90403571D01*
X165214284Y-90903571D02*
X165214284Y-89403571D01*
X165214284Y-89975000D02*
X165357141Y-89903571D01*
X165642855Y-89903571D01*
X165785712Y-89975000D01*
X165857141Y-90046429D01*
X165928570Y-90189286D01*
X165928570Y-90617857D01*
X165857141Y-90760714D01*
X165785712Y-90832143D01*
X165642855Y-90903571D01*
X165357141Y-90903571D01*
X165214284Y-90832143D01*
X167214284Y-89903571D02*
X167214284Y-90903571D01*
X166571427Y-89903571D02*
X166571427Y-90689286D01*
X166642855Y-90832143D01*
X166785713Y-90903571D01*
X166999998Y-90903571D01*
X167142855Y-90832143D01*
X167214284Y-90760714D01*
X168571427Y-89903571D02*
X168571427Y-91117857D01*
X168499998Y-91260714D01*
X168428570Y-91332143D01*
X168285713Y-91403571D01*
X168071427Y-91403571D01*
X167928570Y-91332143D01*
X168571427Y-90832143D02*
X168428570Y-90903571D01*
X168142856Y-90903571D01*
X167999998Y-90832143D01*
X167928570Y-90760714D01*
X167857141Y-90617857D01*
X167857141Y-90189286D01*
X167928570Y-90046429D01*
X167999998Y-89975000D01*
X168142856Y-89903571D01*
X168428570Y-89903571D01*
X168571427Y-89975000D01*
X169928570Y-89903571D02*
X169928570Y-91117857D01*
X169857141Y-91260714D01*
X169785713Y-91332143D01*
X169642856Y-91403571D01*
X169428570Y-91403571D01*
X169285713Y-91332143D01*
X169928570Y-90832143D02*
X169785713Y-90903571D01*
X169499999Y-90903571D01*
X169357141Y-90832143D01*
X169285713Y-90760714D01*
X169214284Y-90617857D01*
X169214284Y-90189286D01*
X169285713Y-90046429D01*
X169357141Y-89975000D01*
X169499999Y-89903571D01*
X169785713Y-89903571D01*
X169928570Y-89975000D01*
X171214284Y-90832143D02*
X171071427Y-90903571D01*
X170785713Y-90903571D01*
X170642856Y-90832143D01*
X170571427Y-90689286D01*
X170571427Y-90117857D01*
X170642856Y-89975000D01*
X170785713Y-89903571D01*
X171071427Y-89903571D01*
X171214284Y-89975000D01*
X171285713Y-90117857D01*
X171285713Y-90260714D01*
X170571427Y-90403571D01*
X171928570Y-90903571D02*
X171928570Y-89903571D01*
X171928570Y-90189286D02*
X171999998Y-90046429D01*
X172071427Y-89975000D01*
X172214284Y-89903571D01*
X172357141Y-89903571D01*
X132857143Y-93453571D02*
X132857143Y-91953571D01*
X133428571Y-91953571D01*
X133571429Y-92025000D01*
X133642857Y-92096429D01*
X133714286Y-92239286D01*
X133714286Y-92453571D01*
X133642857Y-92596429D01*
X133571429Y-92667857D01*
X133428571Y-92739286D01*
X132857143Y-92739286D01*
X135214286Y-93310714D02*
X135142857Y-93382143D01*
X134928571Y-93453571D01*
X134785714Y-93453571D01*
X134571429Y-93382143D01*
X134428571Y-93239286D01*
X134357143Y-93096429D01*
X134285714Y-92810714D01*
X134285714Y-92596429D01*
X134357143Y-92310714D01*
X134428571Y-92167857D01*
X134571429Y-92025000D01*
X134785714Y-91953571D01*
X134928571Y-91953571D01*
X135142857Y-92025000D01*
X135214286Y-92096429D01*
X136357143Y-92667857D02*
X136571429Y-92739286D01*
X136642857Y-92810714D01*
X136714286Y-92953571D01*
X136714286Y-93167857D01*
X136642857Y-93310714D01*
X136571429Y-93382143D01*
X136428571Y-93453571D01*
X135857143Y-93453571D01*
X135857143Y-91953571D01*
X136357143Y-91953571D01*
X136500000Y-92025000D01*
X136571429Y-92096429D01*
X136642857Y-92239286D01*
X136642857Y-92382143D01*
X136571429Y-92525000D01*
X136500000Y-92596429D01*
X136357143Y-92667857D01*
X135857143Y-92667857D01*
X138357143Y-92453571D02*
X138714286Y-93453571D01*
X139071428Y-92453571D01*
X139571428Y-92096429D02*
X139642857Y-92025000D01*
X139785714Y-91953571D01*
X140142857Y-91953571D01*
X140285714Y-92025000D01*
X140357143Y-92096429D01*
X140428571Y-92239286D01*
X140428571Y-92382143D01*
X140357143Y-92596429D01*
X139500000Y-93453571D01*
X140428571Y-93453571D01*
X141071428Y-93310714D02*
X141142856Y-93382143D01*
X141071428Y-93453571D01*
X140999999Y-93382143D01*
X141071428Y-93310714D01*
X141071428Y-93453571D01*
X142071428Y-91953571D02*
X142214285Y-91953571D01*
X142357142Y-92025000D01*
X142428571Y-92096429D01*
X142500000Y-92239286D01*
X142571428Y-92525000D01*
X142571428Y-92882143D01*
X142500000Y-93167857D01*
X142428571Y-93310714D01*
X142357142Y-93382143D01*
X142214285Y-93453571D01*
X142071428Y-93453571D01*
X141928571Y-93382143D01*
X141857142Y-93310714D01*
X141785714Y-93167857D01*
X141714285Y-92882143D01*
X141714285Y-92525000D01*
X141785714Y-92239286D01*
X141857142Y-92096429D01*
X141928571Y-92025000D01*
X142071428Y-91953571D01*
D12*
X118930000Y-151810000D02*
X113730000Y-151810000D01*
X113730000Y-151810000D02*
X113730000Y-157130000D01*
X113730000Y-157130000D02*
X121590000Y-157130000D01*
X121590000Y-157130000D02*
X121590000Y-154470000D01*
X121590000Y-154470000D02*
X118930000Y-154470000D01*
X118930000Y-154470000D02*
X118930000Y-151810000D01*
X120200000Y-151810000D02*
X121590000Y-151810000D01*
X121590000Y-151810000D02*
X121590000Y-153200000D01*
D13*
X99575000Y-145325000D02*
X100150000Y-145325000D01*
X99575000Y-134975000D02*
X100250000Y-134975000D01*
X109925000Y-134975000D02*
X109250000Y-134975000D01*
X109925000Y-145325000D02*
X109250000Y-145325000D01*
X99575000Y-145325000D02*
X99575000Y-144650000D01*
X109925000Y-145325000D02*
X109925000Y-144650000D01*
X109925000Y-134975000D02*
X109925000Y-135650000D01*
X99575000Y-134975000D02*
X99575000Y-135650000D01*
X100150000Y-145325000D02*
X100150000Y-146600000D01*
D12*
X96250000Y-143150000D02*
X95550000Y-143150000D01*
X95550000Y-141950000D02*
X96250000Y-141950000D01*
X120900000Y-139550000D02*
X120900000Y-138850000D01*
X122100000Y-138850000D02*
X122100000Y-139550000D01*
X122100000Y-133900000D02*
X122100000Y-134600000D01*
X120900000Y-134600000D02*
X120900000Y-133900000D01*
X106300000Y-150650000D02*
X106300000Y-151350000D01*
X105100000Y-151350000D02*
X105100000Y-150650000D01*
D13*
X102050000Y-156050000D02*
X101350000Y-156050000D01*
X101350000Y-156050000D02*
X101350000Y-156550000D01*
X106850000Y-158350000D02*
X106850000Y-156550000D01*
X106850000Y-156550000D02*
X106250000Y-156550000D01*
X99250000Y-158150000D02*
X99250000Y-156550000D01*
X99250000Y-156550000D02*
X99850000Y-156550000D01*
D12*
X120850000Y-143020000D02*
X121850000Y-143020000D01*
X121850000Y-144380000D02*
X120850000Y-144380000D01*
X104680000Y-150950000D02*
X104680000Y-152150000D01*
X102920000Y-152150000D02*
X102920000Y-150950000D01*
X102580000Y-150950000D02*
X102580000Y-152150000D01*
X100820000Y-152150000D02*
X100820000Y-150950000D01*
X87560000Y-152440000D02*
X87560000Y-157560000D01*
X82440000Y-152440000D02*
X82440000Y-157560000D01*
X87560000Y-152440000D02*
X85830000Y-152440000D01*
X84170000Y-152440000D02*
X82440000Y-152440000D01*
X87560000Y-157560000D02*
X86980000Y-157560000D01*
X85320000Y-157560000D02*
X84680000Y-157560000D01*
X83020000Y-157560000D02*
X82440000Y-157560000D01*
X86210000Y-155000000D02*
G75*
G03X86210000Y-155000000I-1210000J0D01*
G01*
D14*
X174567000Y-151497000D02*
X174567000Y-148703000D01*
D12*
X162740000Y-148710000D02*
X162740000Y-151490000D01*
D14*
X174567000Y-148703000D02*
X162740000Y-148703000D01*
X162740000Y-151497000D02*
X174567000Y-151497000D01*
X147770000Y-151497000D02*
X160597000Y-151497000D01*
X160597000Y-151497000D02*
X160597000Y-148703000D01*
X160597000Y-148703000D02*
X147770000Y-148703000D01*
D12*
X147770000Y-148710000D02*
X147770000Y-151490000D01*
X146500000Y-151490000D02*
X145110000Y-151490000D01*
X145110000Y-151490000D02*
X145110000Y-150100000D01*
X123450000Y-146750000D02*
X121450000Y-146750000D01*
X121450000Y-146750000D02*
X121450000Y-150650000D01*
X123450000Y-146750000D02*
X123450000Y-150650000D01*
X124650000Y-159550000D02*
X124650000Y-157550000D01*
X124650000Y-157550000D02*
X120750000Y-157550000D01*
X124650000Y-159550000D02*
X120750000Y-159550000D01*
X98950000Y-155230000D02*
X97950000Y-155230000D01*
X97950000Y-153870000D02*
X98950000Y-153870000D01*
X133950000Y-150150000D02*
X129450000Y-150150000D01*
X135200000Y-154150000D02*
X135200000Y-152650000D01*
X129450000Y-156650000D02*
X133950000Y-156650000D01*
X128200000Y-152650000D02*
X128200000Y-154150000D01*
X108800000Y-131700000D02*
X109500000Y-131700000D01*
X109500000Y-132900000D02*
X108800000Y-132900000D01*
X108800000Y-130150000D02*
X109500000Y-130150000D01*
X109500000Y-131350000D02*
X108800000Y-131350000D01*
X96250000Y-147250000D02*
X95550000Y-147250000D01*
X95550000Y-146050000D02*
X96250000Y-146050000D01*
X115750000Y-134000000D02*
X115750000Y-141250000D01*
X115750000Y-141250000D02*
X119350000Y-141250000D01*
X119350000Y-141250000D02*
X119350000Y-134000000D01*
X134500000Y-131730000D02*
X133500000Y-131730000D01*
X133500000Y-130370000D02*
X134500000Y-130370000D01*
X133580000Y-118450000D02*
X133580000Y-119450000D01*
X132220000Y-119450000D02*
X132220000Y-118450000D01*
X133170000Y-107750000D02*
X133170000Y-106750000D01*
X134530000Y-106750000D02*
X134530000Y-107750000D01*
X89670000Y-144650000D02*
X89670000Y-143650000D01*
X91030000Y-143650000D02*
X91030000Y-144650000D01*
X91570000Y-144650000D02*
X91570000Y-143650000D01*
X92930000Y-143650000D02*
X92930000Y-144650000D01*
X135430000Y-112090000D02*
X134500000Y-112090000D01*
X132270000Y-112090000D02*
X133200000Y-112090000D01*
X132270000Y-112090000D02*
X132270000Y-115250000D01*
X135430000Y-112090000D02*
X135430000Y-113550000D01*
X92880000Y-152840000D02*
X91950000Y-152840000D01*
X89720000Y-152840000D02*
X90650000Y-152840000D01*
X89720000Y-152840000D02*
X89720000Y-156000000D01*
X92880000Y-152840000D02*
X92880000Y-154300000D01*
X91270000Y-90930000D02*
X129490000Y-90930000D01*
X129490000Y-90930000D02*
X129490000Y-88150000D01*
X129490000Y-88150000D02*
X91270000Y-88150000D01*
X91270000Y-88150000D02*
X91270000Y-90930000D01*
X90000000Y-90930000D02*
X88610000Y-90930000D01*
X88610000Y-90930000D02*
X88610000Y-89540000D01*
D13*
X122042381Y-154803333D02*
X122756667Y-154803333D01*
X122899524Y-154850953D01*
X122994762Y-154946191D01*
X123042381Y-155089048D01*
X123042381Y-155184286D01*
X123042381Y-153803333D02*
X123042381Y-154374762D01*
X123042381Y-154089048D02*
X122042381Y-154089048D01*
X122185238Y-154184286D01*
X122280476Y-154279524D01*
X122328095Y-154374762D01*
X113182381Y-155946190D02*
X112182381Y-155946190D01*
X113087143Y-154898571D02*
X113134762Y-154946190D01*
X113182381Y-155089047D01*
X113182381Y-155184285D01*
X113134762Y-155327143D01*
X113039524Y-155422381D01*
X112944286Y-155470000D01*
X112753810Y-155517619D01*
X112610952Y-155517619D01*
X112420476Y-155470000D01*
X112325238Y-155422381D01*
X112230000Y-155327143D01*
X112182381Y-155184285D01*
X112182381Y-155089047D01*
X112230000Y-154946190D01*
X112277619Y-154898571D01*
X113134762Y-154517619D02*
X113182381Y-154374762D01*
X113182381Y-154136666D01*
X113134762Y-154041428D01*
X113087143Y-153993809D01*
X112991905Y-153946190D01*
X112896667Y-153946190D01*
X112801429Y-153993809D01*
X112753810Y-154041428D01*
X112706190Y-154136666D01*
X112658571Y-154327143D01*
X112610952Y-154422381D01*
X112563333Y-154470000D01*
X112468095Y-154517619D01*
X112372857Y-154517619D01*
X112277619Y-154470000D01*
X112230000Y-154422381D01*
X112182381Y-154327143D01*
X112182381Y-154089047D01*
X112230000Y-153946190D01*
X113182381Y-153517619D02*
X112182381Y-153517619D01*
X112182381Y-153136666D01*
X112230000Y-153041428D01*
X112277619Y-152993809D01*
X112372857Y-152946190D01*
X112515714Y-152946190D01*
X112610952Y-152993809D01*
X112658571Y-153041428D01*
X112706190Y-153136666D01*
X112706190Y-153517619D01*
X103988095Y-139602381D02*
X103988095Y-140411905D01*
X104035714Y-140507143D01*
X104083333Y-140554762D01*
X104178571Y-140602381D01*
X104369048Y-140602381D01*
X104464286Y-140554762D01*
X104511905Y-140507143D01*
X104559524Y-140411905D01*
X104559524Y-139602381D01*
X105559524Y-140602381D02*
X104988095Y-140602381D01*
X105273809Y-140602381D02*
X105273809Y-139602381D01*
X105178571Y-139745238D01*
X105083333Y-139840476D01*
X104988095Y-139888095D01*
X95733334Y-144157143D02*
X95685715Y-144204762D01*
X95542858Y-144252381D01*
X95447620Y-144252381D01*
X95304762Y-144204762D01*
X95209524Y-144109524D01*
X95161905Y-144014286D01*
X95114286Y-143823810D01*
X95114286Y-143680952D01*
X95161905Y-143490476D01*
X95209524Y-143395238D01*
X95304762Y-143300000D01*
X95447620Y-143252381D01*
X95542858Y-143252381D01*
X95685715Y-143300000D01*
X95733334Y-143347619D01*
X96685715Y-144252381D02*
X96114286Y-144252381D01*
X96400000Y-144252381D02*
X96400000Y-143252381D01*
X96304762Y-143395238D01*
X96209524Y-143490476D01*
X96114286Y-143538095D01*
X94185714Y-140502381D02*
X94280953Y-140502381D01*
X94376191Y-140550000D01*
X94423810Y-140597619D01*
X94471429Y-140692857D01*
X94519048Y-140883333D01*
X94519048Y-141121429D01*
X94471429Y-141311905D01*
X94423810Y-141407143D01*
X94376191Y-141454762D01*
X94280953Y-141502381D01*
X94185714Y-141502381D01*
X94090476Y-141454762D01*
X94042857Y-141407143D01*
X93995238Y-141311905D01*
X93947619Y-141121429D01*
X93947619Y-140883333D01*
X93995238Y-140692857D01*
X94042857Y-140597619D01*
X94090476Y-140550000D01*
X94185714Y-140502381D01*
X94947619Y-141407143D02*
X94995238Y-141454762D01*
X94947619Y-141502381D01*
X94900000Y-141454762D01*
X94947619Y-141407143D01*
X94947619Y-141502381D01*
X95947619Y-141502381D02*
X95376190Y-141502381D01*
X95661904Y-141502381D02*
X95661904Y-140502381D01*
X95566666Y-140645238D01*
X95471428Y-140740476D01*
X95376190Y-140788095D01*
X96376190Y-140835714D02*
X96376190Y-141835714D01*
X96852381Y-141359524D02*
X96900000Y-141454762D01*
X96995238Y-141502381D01*
X96376190Y-141359524D02*
X96423809Y-141454762D01*
X96519047Y-141502381D01*
X96709524Y-141502381D01*
X96804762Y-141454762D01*
X96852381Y-141359524D01*
X96852381Y-140835714D01*
X97757143Y-140978571D02*
X97423809Y-140978571D01*
X97423809Y-141502381D02*
X97423809Y-140502381D01*
X97900000Y-140502381D01*
X120607143Y-139366666D02*
X120654762Y-139414285D01*
X120702381Y-139557142D01*
X120702381Y-139652380D01*
X120654762Y-139795238D01*
X120559524Y-139890476D01*
X120464286Y-139938095D01*
X120273810Y-139985714D01*
X120130952Y-139985714D01*
X119940476Y-139938095D01*
X119845238Y-139890476D01*
X119750000Y-139795238D01*
X119702381Y-139652380D01*
X119702381Y-139557142D01*
X119750000Y-139414285D01*
X119797619Y-139366666D01*
X119797619Y-138985714D02*
X119750000Y-138938095D01*
X119702381Y-138842857D01*
X119702381Y-138604761D01*
X119750000Y-138509523D01*
X119797619Y-138461904D01*
X119892857Y-138414285D01*
X119988095Y-138414285D01*
X120130952Y-138461904D01*
X120702381Y-139033333D01*
X120702381Y-138414285D01*
X122547619Y-140842857D02*
X122500000Y-140795238D01*
X122452381Y-140700000D01*
X122452381Y-140461904D01*
X122500000Y-140366666D01*
X122547619Y-140319047D01*
X122642857Y-140271428D01*
X122738095Y-140271428D01*
X122880952Y-140319047D01*
X123452381Y-140890476D01*
X123452381Y-140271428D01*
X122547619Y-139890476D02*
X122500000Y-139842857D01*
X122452381Y-139747619D01*
X122452381Y-139509523D01*
X122500000Y-139414285D01*
X122547619Y-139366666D01*
X122642857Y-139319047D01*
X122738095Y-139319047D01*
X122880952Y-139366666D01*
X123452381Y-139938095D01*
X123452381Y-139319047D01*
X122785714Y-138890476D02*
X123785714Y-138890476D01*
X122833333Y-138890476D02*
X122785714Y-138795238D01*
X122785714Y-138604761D01*
X122833333Y-138509523D01*
X122880952Y-138461904D01*
X122976190Y-138414285D01*
X123261905Y-138414285D01*
X123357143Y-138461904D01*
X123404762Y-138509523D01*
X123452381Y-138604761D01*
X123452381Y-138795238D01*
X123404762Y-138890476D01*
X122928571Y-137652380D02*
X122928571Y-137985714D01*
X123452381Y-137985714D02*
X122452381Y-137985714D01*
X122452381Y-137509523D01*
X123107143Y-134416666D02*
X123154762Y-134464285D01*
X123202381Y-134607142D01*
X123202381Y-134702380D01*
X123154762Y-134845238D01*
X123059524Y-134940476D01*
X122964286Y-134988095D01*
X122773810Y-135035714D01*
X122630952Y-135035714D01*
X122440476Y-134988095D01*
X122345238Y-134940476D01*
X122250000Y-134845238D01*
X122202381Y-134702380D01*
X122202381Y-134607142D01*
X122250000Y-134464285D01*
X122297619Y-134416666D01*
X122202381Y-134083333D02*
X122202381Y-133464285D01*
X122583333Y-133797619D01*
X122583333Y-133654761D01*
X122630952Y-133559523D01*
X122678571Y-133511904D01*
X122773810Y-133464285D01*
X123011905Y-133464285D01*
X123107143Y-133511904D01*
X123154762Y-133559523D01*
X123202381Y-133654761D01*
X123202381Y-133940476D01*
X123154762Y-134035714D01*
X123107143Y-134083333D01*
X119547619Y-135892857D02*
X119500000Y-135845238D01*
X119452381Y-135750000D01*
X119452381Y-135511904D01*
X119500000Y-135416666D01*
X119547619Y-135369047D01*
X119642857Y-135321428D01*
X119738095Y-135321428D01*
X119880952Y-135369047D01*
X120452381Y-135940476D01*
X120452381Y-135321428D01*
X119547619Y-134940476D02*
X119500000Y-134892857D01*
X119452381Y-134797619D01*
X119452381Y-134559523D01*
X119500000Y-134464285D01*
X119547619Y-134416666D01*
X119642857Y-134369047D01*
X119738095Y-134369047D01*
X119880952Y-134416666D01*
X120452381Y-134988095D01*
X120452381Y-134369047D01*
X119785714Y-133940476D02*
X120785714Y-133940476D01*
X119833333Y-133940476D02*
X119785714Y-133845238D01*
X119785714Y-133654761D01*
X119833333Y-133559523D01*
X119880952Y-133511904D01*
X119976190Y-133464285D01*
X120261905Y-133464285D01*
X120357143Y-133511904D01*
X120404762Y-133559523D01*
X120452381Y-133654761D01*
X120452381Y-133845238D01*
X120404762Y-133940476D01*
X119928571Y-132702380D02*
X119928571Y-133035714D01*
X120452381Y-133035714D02*
X119452381Y-133035714D01*
X119452381Y-132559523D01*
X105533334Y-148657143D02*
X105485715Y-148704762D01*
X105342858Y-148752381D01*
X105247620Y-148752381D01*
X105104762Y-148704762D01*
X105009524Y-148609524D01*
X104961905Y-148514286D01*
X104914286Y-148323810D01*
X104914286Y-148180952D01*
X104961905Y-147990476D01*
X105009524Y-147895238D01*
X105104762Y-147800000D01*
X105247620Y-147752381D01*
X105342858Y-147752381D01*
X105485715Y-147800000D01*
X105533334Y-147847619D01*
X106390477Y-148085714D02*
X106390477Y-148752381D01*
X106152381Y-147704762D02*
X105914286Y-148419048D01*
X106533334Y-148419048D01*
X107602381Y-151666666D02*
X107602381Y-152238095D01*
X107602381Y-151952381D02*
X106602381Y-151952381D01*
X106745238Y-152047619D01*
X106840476Y-152142857D01*
X106888095Y-152238095D01*
X106935714Y-151238095D02*
X107935714Y-151238095D01*
X107459524Y-150761904D02*
X107554762Y-150714285D01*
X107602381Y-150619047D01*
X107459524Y-151238095D02*
X107554762Y-151190476D01*
X107602381Y-151095238D01*
X107602381Y-150904761D01*
X107554762Y-150809523D01*
X107459524Y-150761904D01*
X106935714Y-150761904D01*
X107078571Y-149857142D02*
X107078571Y-150190476D01*
X107602381Y-150190476D02*
X106602381Y-150190476D01*
X106602381Y-149714285D01*
D10*
X108050000Y-157871429D02*
X108050000Y-158300000D01*
X108021428Y-158385714D01*
X107964285Y-158442857D01*
X107878571Y-158471429D01*
X107821428Y-158471429D01*
X108278571Y-157871429D02*
X108650000Y-157871429D01*
X108450000Y-158100000D01*
X108535714Y-158100000D01*
X108592857Y-158128571D01*
X108621428Y-158157143D01*
X108650000Y-158214286D01*
X108650000Y-158357143D01*
X108621428Y-158414286D01*
X108592857Y-158442857D01*
X108535714Y-158471429D01*
X108364286Y-158471429D01*
X108307143Y-158442857D01*
X108278571Y-158414286D01*
D13*
X121183334Y-145602381D02*
X120850000Y-145126190D01*
X120611905Y-145602381D02*
X120611905Y-144602381D01*
X120992858Y-144602381D01*
X121088096Y-144650000D01*
X121135715Y-144697619D01*
X121183334Y-144792857D01*
X121183334Y-144935714D01*
X121135715Y-145030952D01*
X121088096Y-145078571D01*
X120992858Y-145126190D01*
X120611905Y-145126190D01*
X122135715Y-145602381D02*
X121564286Y-145602381D01*
X121850000Y-145602381D02*
X121850000Y-144602381D01*
X121754762Y-144745238D01*
X121659524Y-144840476D01*
X121564286Y-144888095D01*
X120754762Y-142602381D02*
X120183333Y-142602381D01*
X120469047Y-142602381D02*
X120469047Y-141602381D01*
X120373809Y-141745238D01*
X120278571Y-141840476D01*
X120183333Y-141888095D01*
X121373809Y-141602381D02*
X121469048Y-141602381D01*
X121564286Y-141650000D01*
X121611905Y-141697619D01*
X121659524Y-141792857D01*
X121707143Y-141983333D01*
X121707143Y-142221429D01*
X121659524Y-142411905D01*
X121611905Y-142507143D01*
X121564286Y-142554762D01*
X121469048Y-142602381D01*
X121373809Y-142602381D01*
X121278571Y-142554762D01*
X121230952Y-142507143D01*
X121183333Y-142411905D01*
X121135714Y-142221429D01*
X121135714Y-141983333D01*
X121183333Y-141792857D01*
X121230952Y-141697619D01*
X121278571Y-141650000D01*
X121373809Y-141602381D01*
X122135714Y-142602381D02*
X122135714Y-141602381D01*
X122230952Y-142221429D02*
X122516667Y-142602381D01*
X122516667Y-141935714D02*
X122135714Y-142316667D01*
X103633334Y-148752381D02*
X103300000Y-148276190D01*
X103061905Y-148752381D02*
X103061905Y-147752381D01*
X103442858Y-147752381D01*
X103538096Y-147800000D01*
X103585715Y-147847619D01*
X103633334Y-147942857D01*
X103633334Y-148085714D01*
X103585715Y-148180952D01*
X103538096Y-148228571D01*
X103442858Y-148276190D01*
X103061905Y-148276190D01*
X104014286Y-147847619D02*
X104061905Y-147800000D01*
X104157143Y-147752381D01*
X104395239Y-147752381D01*
X104490477Y-147800000D01*
X104538096Y-147847619D01*
X104585715Y-147942857D01*
X104585715Y-148038095D01*
X104538096Y-148180952D01*
X103966667Y-148752381D01*
X104585715Y-148752381D01*
X103088095Y-154197619D02*
X103135714Y-154150000D01*
X103230952Y-154102381D01*
X103469048Y-154102381D01*
X103564286Y-154150000D01*
X103611905Y-154197619D01*
X103659524Y-154292857D01*
X103659524Y-154388095D01*
X103611905Y-154530952D01*
X103040476Y-155102381D01*
X103659524Y-155102381D01*
X104040476Y-154197619D02*
X104088095Y-154150000D01*
X104183333Y-154102381D01*
X104421429Y-154102381D01*
X104516667Y-154150000D01*
X104564286Y-154197619D01*
X104611905Y-154292857D01*
X104611905Y-154388095D01*
X104564286Y-154530952D01*
X103992857Y-155102381D01*
X104611905Y-155102381D01*
X101533334Y-148752381D02*
X101200000Y-148276190D01*
X100961905Y-148752381D02*
X100961905Y-147752381D01*
X101342858Y-147752381D01*
X101438096Y-147800000D01*
X101485715Y-147847619D01*
X101533334Y-147942857D01*
X101533334Y-148085714D01*
X101485715Y-148180952D01*
X101438096Y-148228571D01*
X101342858Y-148276190D01*
X100961905Y-148276190D01*
X101866667Y-147752381D02*
X102485715Y-147752381D01*
X102152381Y-148133333D01*
X102295239Y-148133333D01*
X102390477Y-148180952D01*
X102438096Y-148228571D01*
X102485715Y-148323810D01*
X102485715Y-148561905D01*
X102438096Y-148657143D01*
X102390477Y-148704762D01*
X102295239Y-148752381D01*
X102009524Y-148752381D01*
X101914286Y-148704762D01*
X101866667Y-148657143D01*
X100988095Y-154197619D02*
X101035714Y-154150000D01*
X101130952Y-154102381D01*
X101369048Y-154102381D01*
X101464286Y-154150000D01*
X101511905Y-154197619D01*
X101559524Y-154292857D01*
X101559524Y-154388095D01*
X101511905Y-154530952D01*
X100940476Y-155102381D01*
X101559524Y-155102381D01*
X101940476Y-154197619D02*
X101988095Y-154150000D01*
X102083333Y-154102381D01*
X102321429Y-154102381D01*
X102416667Y-154150000D01*
X102464286Y-154197619D01*
X102511905Y-154292857D01*
X102511905Y-154388095D01*
X102464286Y-154530952D01*
X101892857Y-155102381D01*
X102511905Y-155102381D01*
X84404762Y-160052381D02*
X84071428Y-159576190D01*
X83833333Y-160052381D02*
X83833333Y-159052381D01*
X84214286Y-159052381D01*
X84309524Y-159100000D01*
X84357143Y-159147619D01*
X84404762Y-159242857D01*
X84404762Y-159385714D01*
X84357143Y-159480952D01*
X84309524Y-159528571D01*
X84214286Y-159576190D01*
X83833333Y-159576190D01*
X84690476Y-159052381D02*
X85023809Y-160052381D01*
X85357143Y-159052381D01*
X86214286Y-160052381D02*
X85642857Y-160052381D01*
X85928571Y-160052381D02*
X85928571Y-159052381D01*
X85833333Y-159195238D01*
X85738095Y-159290476D01*
X85642857Y-159338095D01*
X83683333Y-150602381D02*
X83683333Y-149602381D01*
X84064286Y-149602381D01*
X84159524Y-149650000D01*
X84207143Y-149697619D01*
X84254762Y-149792857D01*
X84254762Y-149935714D01*
X84207143Y-150030952D01*
X84159524Y-150078571D01*
X84064286Y-150126190D01*
X83683333Y-150126190D01*
X84873809Y-149602381D02*
X85064286Y-149602381D01*
X85159524Y-149650000D01*
X85254762Y-149745238D01*
X85302381Y-149935714D01*
X85302381Y-150269048D01*
X85254762Y-150459524D01*
X85159524Y-150554762D01*
X85064286Y-150602381D01*
X84873809Y-150602381D01*
X84778571Y-150554762D01*
X84683333Y-150459524D01*
X84635714Y-150269048D01*
X84635714Y-149935714D01*
X84683333Y-149745238D01*
X84778571Y-149650000D01*
X84873809Y-149602381D01*
X85588095Y-149602381D02*
X86159524Y-149602381D01*
X85873809Y-150602381D02*
X85873809Y-149602381D01*
X143562381Y-150433333D02*
X144276667Y-150433333D01*
X144419524Y-150480953D01*
X144514762Y-150576191D01*
X144562381Y-150719048D01*
X144562381Y-150814286D01*
X143657619Y-150004762D02*
X143610000Y-149957143D01*
X143562381Y-149861905D01*
X143562381Y-149623809D01*
X143610000Y-149528571D01*
X143657619Y-149480952D01*
X143752857Y-149433333D01*
X143848095Y-149433333D01*
X143990952Y-149480952D01*
X144562381Y-150052381D01*
X144562381Y-149433333D01*
X162435714Y-153207143D02*
X162388095Y-153254762D01*
X162245238Y-153302381D01*
X162150000Y-153302381D01*
X162007142Y-153254762D01*
X161911904Y-153159524D01*
X161864285Y-153064286D01*
X161816666Y-152873810D01*
X161816666Y-152730952D01*
X161864285Y-152540476D01*
X161911904Y-152445238D01*
X162007142Y-152350000D01*
X162150000Y-152302381D01*
X162245238Y-152302381D01*
X162388095Y-152350000D01*
X162435714Y-152397619D01*
X163054761Y-152302381D02*
X163245238Y-152302381D01*
X163340476Y-152350000D01*
X163435714Y-152445238D01*
X163483333Y-152635714D01*
X163483333Y-152969048D01*
X163435714Y-153159524D01*
X163340476Y-153254762D01*
X163245238Y-153302381D01*
X163054761Y-153302381D01*
X162959523Y-153254762D01*
X162864285Y-153159524D01*
X162816666Y-152969048D01*
X162816666Y-152635714D01*
X162864285Y-152445238D01*
X162959523Y-152350000D01*
X163054761Y-152302381D01*
X163911904Y-153302381D02*
X163911904Y-152302381D01*
X164483333Y-153302381D01*
X164483333Y-152302381D01*
X164816666Y-152302381D02*
X165388095Y-152302381D01*
X165102380Y-153302381D02*
X165102380Y-152302381D01*
X166292857Y-153302381D02*
X165959523Y-152826190D01*
X165721428Y-153302381D02*
X165721428Y-152302381D01*
X166102381Y-152302381D01*
X166197619Y-152350000D01*
X166245238Y-152397619D01*
X166292857Y-152492857D01*
X166292857Y-152635714D01*
X166245238Y-152730952D01*
X166197619Y-152778571D01*
X166102381Y-152826190D01*
X165721428Y-152826190D01*
X166911904Y-152302381D02*
X167102381Y-152302381D01*
X167197619Y-152350000D01*
X167292857Y-152445238D01*
X167340476Y-152635714D01*
X167340476Y-152969048D01*
X167292857Y-153159524D01*
X167197619Y-153254762D01*
X167102381Y-153302381D01*
X166911904Y-153302381D01*
X166816666Y-153254762D01*
X166721428Y-153159524D01*
X166673809Y-152969048D01*
X166673809Y-152635714D01*
X166721428Y-152445238D01*
X166816666Y-152350000D01*
X166911904Y-152302381D01*
X168245238Y-153302381D02*
X167769047Y-153302381D01*
X167769047Y-152302381D01*
X169054762Y-153302381D02*
X168578571Y-153302381D01*
X168578571Y-152302381D01*
X169388095Y-152778571D02*
X169721429Y-152778571D01*
X169864286Y-153302381D02*
X169388095Y-153302381D01*
X169388095Y-152302381D01*
X169864286Y-152302381D01*
X170864286Y-153302381D02*
X170530952Y-152826190D01*
X170292857Y-153302381D02*
X170292857Y-152302381D01*
X170673810Y-152302381D01*
X170769048Y-152350000D01*
X170816667Y-152397619D01*
X170864286Y-152492857D01*
X170864286Y-152635714D01*
X170816667Y-152730952D01*
X170769048Y-152778571D01*
X170673810Y-152826190D01*
X170292857Y-152826190D01*
X172245238Y-152302381D02*
X172435715Y-152302381D01*
X172530953Y-152350000D01*
X172626191Y-152445238D01*
X172673810Y-152635714D01*
X172673810Y-152969048D01*
X172626191Y-153159524D01*
X172530953Y-153254762D01*
X172435715Y-153302381D01*
X172245238Y-153302381D01*
X172150000Y-153254762D01*
X172054762Y-153159524D01*
X172007143Y-152969048D01*
X172007143Y-152635714D01*
X172054762Y-152445238D01*
X172150000Y-152350000D01*
X172245238Y-152302381D01*
X173102381Y-152302381D02*
X173102381Y-153111905D01*
X173150000Y-153207143D01*
X173197619Y-153254762D01*
X173292857Y-153302381D01*
X173483334Y-153302381D01*
X173578572Y-153254762D01*
X173626191Y-153207143D01*
X173673810Y-153111905D01*
X173673810Y-152302381D01*
X174007143Y-152302381D02*
X174578572Y-152302381D01*
X174292857Y-153302381D02*
X174292857Y-152302381D01*
X124902381Y-149738095D02*
X123902381Y-149738095D01*
X123902381Y-149500000D01*
X123950000Y-149357142D01*
X124045238Y-149261904D01*
X124140476Y-149214285D01*
X124330952Y-149166666D01*
X124473810Y-149166666D01*
X124664286Y-149214285D01*
X124759524Y-149261904D01*
X124854762Y-149357142D01*
X124902381Y-149500000D01*
X124902381Y-149738095D01*
X124902381Y-148214285D02*
X124902381Y-148785714D01*
X124902381Y-148500000D02*
X123902381Y-148500000D01*
X124045238Y-148595238D01*
X124140476Y-148690476D01*
X124188095Y-148785714D01*
X122011905Y-157202381D02*
X122011905Y-156202381D01*
X122250000Y-156202381D01*
X122392858Y-156250000D01*
X122488096Y-156345238D01*
X122535715Y-156440476D01*
X122583334Y-156630952D01*
X122583334Y-156773810D01*
X122535715Y-156964286D01*
X122488096Y-157059524D01*
X122392858Y-157154762D01*
X122250000Y-157202381D01*
X122011905Y-157202381D01*
X122964286Y-156297619D02*
X123011905Y-156250000D01*
X123107143Y-156202381D01*
X123345239Y-156202381D01*
X123440477Y-156250000D01*
X123488096Y-156297619D01*
X123535715Y-156392857D01*
X123535715Y-156488095D01*
X123488096Y-156630952D01*
X122916667Y-157202381D01*
X123535715Y-157202381D01*
X98116667Y-153028571D02*
X97783333Y-153028571D01*
X97783333Y-153552381D02*
X97783333Y-152552381D01*
X98259524Y-152552381D01*
X99164286Y-153552381D02*
X98592857Y-153552381D01*
X98878571Y-153552381D02*
X98878571Y-152552381D01*
X98783333Y-152695238D01*
X98688095Y-152790476D01*
X98592857Y-152838095D01*
X95352381Y-156359523D02*
X95352381Y-156835714D01*
X95828571Y-156883333D01*
X95780952Y-156835714D01*
X95733333Y-156740476D01*
X95733333Y-156502380D01*
X95780952Y-156407142D01*
X95828571Y-156359523D01*
X95923810Y-156311904D01*
X96161905Y-156311904D01*
X96257143Y-156359523D01*
X96304762Y-156407142D01*
X96352381Y-156502380D01*
X96352381Y-156740476D01*
X96304762Y-156835714D01*
X96257143Y-156883333D01*
X95352381Y-155692857D02*
X95352381Y-155597618D01*
X95400000Y-155502380D01*
X95447619Y-155454761D01*
X95542857Y-155407142D01*
X95733333Y-155359523D01*
X95971429Y-155359523D01*
X96161905Y-155407142D01*
X96257143Y-155454761D01*
X96304762Y-155502380D01*
X96352381Y-155597618D01*
X96352381Y-155692857D01*
X96304762Y-155788095D01*
X96257143Y-155835714D01*
X96161905Y-155883333D01*
X95971429Y-155930952D01*
X95733333Y-155930952D01*
X95542857Y-155883333D01*
X95447619Y-155835714D01*
X95400000Y-155788095D01*
X95352381Y-155692857D01*
X95352381Y-154740476D02*
X95352381Y-154645237D01*
X95400000Y-154549999D01*
X95447619Y-154502380D01*
X95542857Y-154454761D01*
X95733333Y-154407142D01*
X95971429Y-154407142D01*
X96161905Y-154454761D01*
X96257143Y-154502380D01*
X96304762Y-154549999D01*
X96352381Y-154645237D01*
X96352381Y-154740476D01*
X96304762Y-154835714D01*
X96257143Y-154883333D01*
X96161905Y-154930952D01*
X95971429Y-154978571D01*
X95733333Y-154978571D01*
X95542857Y-154930952D01*
X95447619Y-154883333D01*
X95400000Y-154835714D01*
X95352381Y-154740476D01*
X96352381Y-153978571D02*
X95685714Y-153978571D01*
X95780952Y-153978571D02*
X95733333Y-153930952D01*
X95685714Y-153835714D01*
X95685714Y-153692856D01*
X95733333Y-153597618D01*
X95828571Y-153549999D01*
X96352381Y-153549999D01*
X95828571Y-153549999D02*
X95733333Y-153502380D01*
X95685714Y-153407142D01*
X95685714Y-153264285D01*
X95733333Y-153169047D01*
X95828571Y-153121428D01*
X96352381Y-153121428D01*
X96066667Y-152692857D02*
X96066667Y-152216666D01*
X96352381Y-152788095D02*
X95352381Y-152454762D01*
X96352381Y-152121428D01*
X130366667Y-158054762D02*
X130509524Y-158102381D01*
X130747620Y-158102381D01*
X130842858Y-158054762D01*
X130890477Y-158007143D01*
X130938096Y-157911905D01*
X130938096Y-157816667D01*
X130890477Y-157721429D01*
X130842858Y-157673810D01*
X130747620Y-157626190D01*
X130557143Y-157578571D01*
X130461905Y-157530952D01*
X130414286Y-157483333D01*
X130366667Y-157388095D01*
X130366667Y-157292857D01*
X130414286Y-157197619D01*
X130461905Y-157150000D01*
X130557143Y-157102381D01*
X130795239Y-157102381D01*
X130938096Y-157150000D01*
X131271429Y-157102381D02*
X131509524Y-158102381D01*
X131700001Y-157388095D01*
X131890477Y-158102381D01*
X132128572Y-157102381D01*
X133033334Y-158102381D02*
X132461905Y-158102381D01*
X132747619Y-158102381D02*
X132747619Y-157102381D01*
X132652381Y-157245238D01*
X132557143Y-157340476D01*
X132461905Y-157388095D01*
X129961905Y-149402381D02*
X129628571Y-148926190D01*
X129390476Y-149402381D02*
X129390476Y-148402381D01*
X129771429Y-148402381D01*
X129866667Y-148450000D01*
X129914286Y-148497619D01*
X129961905Y-148592857D01*
X129961905Y-148735714D01*
X129914286Y-148830952D01*
X129866667Y-148878571D01*
X129771429Y-148926190D01*
X129390476Y-148926190D01*
X130771429Y-149354762D02*
X130676191Y-149402381D01*
X130485714Y-149402381D01*
X130390476Y-149354762D01*
X130342857Y-149259524D01*
X130342857Y-148878571D01*
X130390476Y-148783333D01*
X130485714Y-148735714D01*
X130676191Y-148735714D01*
X130771429Y-148783333D01*
X130819048Y-148878571D01*
X130819048Y-148973810D01*
X130342857Y-149069048D01*
X131200000Y-149354762D02*
X131295238Y-149402381D01*
X131485714Y-149402381D01*
X131580953Y-149354762D01*
X131628572Y-149259524D01*
X131628572Y-149211905D01*
X131580953Y-149116667D01*
X131485714Y-149069048D01*
X131342857Y-149069048D01*
X131247619Y-149021429D01*
X131200000Y-148926190D01*
X131200000Y-148878571D01*
X131247619Y-148783333D01*
X131342857Y-148735714D01*
X131485714Y-148735714D01*
X131580953Y-148783333D01*
X132438096Y-149354762D02*
X132342858Y-149402381D01*
X132152381Y-149402381D01*
X132057143Y-149354762D01*
X132009524Y-149259524D01*
X132009524Y-148878571D01*
X132057143Y-148783333D01*
X132152381Y-148735714D01*
X132342858Y-148735714D01*
X132438096Y-148783333D01*
X132485715Y-148878571D01*
X132485715Y-148973810D01*
X132009524Y-149069048D01*
X132771429Y-148735714D02*
X133152381Y-148735714D01*
X132914286Y-148402381D02*
X132914286Y-149259524D01*
X132961905Y-149354762D01*
X133057143Y-149402381D01*
X133152381Y-149402381D01*
X107007143Y-132666666D02*
X107054762Y-132714285D01*
X107102381Y-132857142D01*
X107102381Y-132952380D01*
X107054762Y-133095238D01*
X106959524Y-133190476D01*
X106864286Y-133238095D01*
X106673810Y-133285714D01*
X106530952Y-133285714D01*
X106340476Y-133238095D01*
X106245238Y-133190476D01*
X106150000Y-133095238D01*
X106102381Y-132952380D01*
X106102381Y-132857142D01*
X106150000Y-132714285D01*
X106197619Y-132666666D01*
X106102381Y-131761904D02*
X106102381Y-132238095D01*
X106578571Y-132285714D01*
X106530952Y-132238095D01*
X106483333Y-132142857D01*
X106483333Y-131904761D01*
X106530952Y-131809523D01*
X106578571Y-131761904D01*
X106673810Y-131714285D01*
X106911905Y-131714285D01*
X107007143Y-131761904D01*
X107054762Y-131809523D01*
X107102381Y-131904761D01*
X107102381Y-132142857D01*
X107054762Y-132238095D01*
X107007143Y-132285714D01*
X111783334Y-132752381D02*
X111211905Y-132752381D01*
X111497619Y-132752381D02*
X111497619Y-131752381D01*
X111402381Y-131895238D01*
X111307143Y-131990476D01*
X111211905Y-132038095D01*
X112211905Y-132085714D02*
X112211905Y-133085714D01*
X112688096Y-132609524D02*
X112735715Y-132704762D01*
X112830953Y-132752381D01*
X112211905Y-132609524D02*
X112259524Y-132704762D01*
X112354762Y-132752381D01*
X112545239Y-132752381D01*
X112640477Y-132704762D01*
X112688096Y-132609524D01*
X112688096Y-132085714D01*
X113592858Y-132228571D02*
X113259524Y-132228571D01*
X113259524Y-132752381D02*
X113259524Y-131752381D01*
X113735715Y-131752381D01*
X107007143Y-130716666D02*
X107054762Y-130764285D01*
X107102381Y-130907142D01*
X107102381Y-131002380D01*
X107054762Y-131145238D01*
X106959524Y-131240476D01*
X106864286Y-131288095D01*
X106673810Y-131335714D01*
X106530952Y-131335714D01*
X106340476Y-131288095D01*
X106245238Y-131240476D01*
X106150000Y-131145238D01*
X106102381Y-131002380D01*
X106102381Y-130907142D01*
X106150000Y-130764285D01*
X106197619Y-130716666D01*
X106102381Y-129859523D02*
X106102381Y-130050000D01*
X106150000Y-130145238D01*
X106197619Y-130192857D01*
X106340476Y-130288095D01*
X106530952Y-130335714D01*
X106911905Y-130335714D01*
X107007143Y-130288095D01*
X107054762Y-130240476D01*
X107102381Y-130145238D01*
X107102381Y-129954761D01*
X107054762Y-129859523D01*
X107007143Y-129811904D01*
X106911905Y-129764285D01*
X106673810Y-129764285D01*
X106578571Y-129811904D01*
X106530952Y-129859523D01*
X106483333Y-129954761D01*
X106483333Y-130145238D01*
X106530952Y-130240476D01*
X106578571Y-130288095D01*
X106673810Y-130335714D01*
X111435714Y-130202381D02*
X111530953Y-130202381D01*
X111626191Y-130250000D01*
X111673810Y-130297619D01*
X111721429Y-130392857D01*
X111769048Y-130583333D01*
X111769048Y-130821429D01*
X111721429Y-131011905D01*
X111673810Y-131107143D01*
X111626191Y-131154762D01*
X111530953Y-131202381D01*
X111435714Y-131202381D01*
X111340476Y-131154762D01*
X111292857Y-131107143D01*
X111245238Y-131011905D01*
X111197619Y-130821429D01*
X111197619Y-130583333D01*
X111245238Y-130392857D01*
X111292857Y-130297619D01*
X111340476Y-130250000D01*
X111435714Y-130202381D01*
X112197619Y-131107143D02*
X112245238Y-131154762D01*
X112197619Y-131202381D01*
X112150000Y-131154762D01*
X112197619Y-131107143D01*
X112197619Y-131202381D01*
X113197619Y-131202381D02*
X112626190Y-131202381D01*
X112911904Y-131202381D02*
X112911904Y-130202381D01*
X112816666Y-130345238D01*
X112721428Y-130440476D01*
X112626190Y-130488095D01*
X113626190Y-130535714D02*
X113626190Y-131535714D01*
X114102381Y-131059524D02*
X114150000Y-131154762D01*
X114245238Y-131202381D01*
X113626190Y-131059524D02*
X113673809Y-131154762D01*
X113769047Y-131202381D01*
X113959524Y-131202381D01*
X114054762Y-131154762D01*
X114102381Y-131059524D01*
X114102381Y-130535714D01*
X115007143Y-130678571D02*
X114673809Y-130678571D01*
X114673809Y-131202381D02*
X114673809Y-130202381D01*
X115150000Y-130202381D01*
X95733334Y-148257143D02*
X95685715Y-148304762D01*
X95542858Y-148352381D01*
X95447620Y-148352381D01*
X95304762Y-148304762D01*
X95209524Y-148209524D01*
X95161905Y-148114286D01*
X95114286Y-147923810D01*
X95114286Y-147780952D01*
X95161905Y-147590476D01*
X95209524Y-147495238D01*
X95304762Y-147400000D01*
X95447620Y-147352381D01*
X95542858Y-147352381D01*
X95685715Y-147400000D01*
X95733334Y-147447619D01*
X96066667Y-147352381D02*
X96733334Y-147352381D01*
X96304762Y-148352381D01*
X95233334Y-145602381D02*
X94661905Y-145602381D01*
X94947619Y-145602381D02*
X94947619Y-144602381D01*
X94852381Y-144745238D01*
X94757143Y-144840476D01*
X94661905Y-144888095D01*
X95661905Y-144935714D02*
X95661905Y-145935714D01*
X96138096Y-145459524D02*
X96185715Y-145554762D01*
X96280953Y-145602381D01*
X95661905Y-145459524D02*
X95709524Y-145554762D01*
X95804762Y-145602381D01*
X95995239Y-145602381D01*
X96090477Y-145554762D01*
X96138096Y-145459524D01*
X96138096Y-144935714D01*
X97042858Y-145078571D02*
X96709524Y-145078571D01*
X96709524Y-145602381D02*
X96709524Y-144602381D01*
X97185715Y-144602381D01*
X117073809Y-131176190D02*
X117073809Y-131652381D01*
X116740476Y-130652381D02*
X117073809Y-131176190D01*
X117407143Y-130652381D01*
X118264286Y-131652381D02*
X117692857Y-131652381D01*
X117978571Y-131652381D02*
X117978571Y-130652381D01*
X117883333Y-130795238D01*
X117788095Y-130890476D01*
X117692857Y-130938095D01*
X133833334Y-130052381D02*
X133500000Y-129576190D01*
X133261905Y-130052381D02*
X133261905Y-129052381D01*
X133642858Y-129052381D01*
X133738096Y-129100000D01*
X133785715Y-129147619D01*
X133833334Y-129242857D01*
X133833334Y-129385714D01*
X133785715Y-129480952D01*
X133738096Y-129528571D01*
X133642858Y-129576190D01*
X133261905Y-129576190D01*
X134690477Y-129385714D02*
X134690477Y-130052381D01*
X134452381Y-129004762D02*
X134214286Y-129719048D01*
X134833334Y-129719048D01*
X133714286Y-133052381D02*
X133142857Y-133052381D01*
X133428571Y-133052381D02*
X133428571Y-132052381D01*
X133333333Y-132195238D01*
X133238095Y-132290476D01*
X133142857Y-132338095D01*
X134142857Y-133052381D02*
X134142857Y-132052381D01*
X134476191Y-132766667D01*
X134809524Y-132052381D01*
X134809524Y-133052381D01*
X131902381Y-119116666D02*
X131426190Y-119450000D01*
X131902381Y-119688095D02*
X130902381Y-119688095D01*
X130902381Y-119307142D01*
X130950000Y-119211904D01*
X130997619Y-119164285D01*
X131092857Y-119116666D01*
X131235714Y-119116666D01*
X131330952Y-119164285D01*
X131378571Y-119211904D01*
X131426190Y-119307142D01*
X131426190Y-119688095D01*
X130902381Y-118211904D02*
X130902381Y-118688095D01*
X131378571Y-118735714D01*
X131330952Y-118688095D01*
X131283333Y-118592857D01*
X131283333Y-118354761D01*
X131330952Y-118259523D01*
X131378571Y-118211904D01*
X131473810Y-118164285D01*
X131711905Y-118164285D01*
X131807143Y-118211904D01*
X131854762Y-118259523D01*
X131902381Y-118354761D01*
X131902381Y-118592857D01*
X131854762Y-118688095D01*
X131807143Y-118735714D01*
X133997619Y-120188095D02*
X133950000Y-120140476D01*
X133902381Y-120045238D01*
X133902381Y-119807142D01*
X133950000Y-119711904D01*
X133997619Y-119664285D01*
X134092857Y-119616666D01*
X134188095Y-119616666D01*
X134330952Y-119664285D01*
X134902381Y-120235714D01*
X134902381Y-119616666D01*
X133997619Y-119235714D02*
X133950000Y-119188095D01*
X133902381Y-119092857D01*
X133902381Y-118854761D01*
X133950000Y-118759523D01*
X133997619Y-118711904D01*
X134092857Y-118664285D01*
X134188095Y-118664285D01*
X134330952Y-118711904D01*
X134902381Y-119283333D01*
X134902381Y-118664285D01*
X133902381Y-118045238D02*
X133902381Y-117949999D01*
X133950000Y-117854761D01*
X133997619Y-117807142D01*
X134092857Y-117759523D01*
X134283333Y-117711904D01*
X134521429Y-117711904D01*
X134711905Y-117759523D01*
X134807143Y-117807142D01*
X134854762Y-117854761D01*
X134902381Y-117949999D01*
X134902381Y-118045238D01*
X134854762Y-118140476D01*
X134807143Y-118188095D01*
X134711905Y-118235714D01*
X134521429Y-118283333D01*
X134283333Y-118283333D01*
X134092857Y-118235714D01*
X133997619Y-118188095D01*
X133950000Y-118140476D01*
X133902381Y-118045238D01*
X135752381Y-107416666D02*
X135276190Y-107750000D01*
X135752381Y-107988095D02*
X134752381Y-107988095D01*
X134752381Y-107607142D01*
X134800000Y-107511904D01*
X134847619Y-107464285D01*
X134942857Y-107416666D01*
X135085714Y-107416666D01*
X135180952Y-107464285D01*
X135228571Y-107511904D01*
X135276190Y-107607142D01*
X135276190Y-107988095D01*
X134752381Y-106559523D02*
X134752381Y-106750000D01*
X134800000Y-106845238D01*
X134847619Y-106892857D01*
X134990476Y-106988095D01*
X135180952Y-107035714D01*
X135561905Y-107035714D01*
X135657143Y-106988095D01*
X135704762Y-106940476D01*
X135752381Y-106845238D01*
X135752381Y-106654761D01*
X135704762Y-106559523D01*
X135657143Y-106511904D01*
X135561905Y-106464285D01*
X135323810Y-106464285D01*
X135228571Y-106511904D01*
X135180952Y-106559523D01*
X135133333Y-106654761D01*
X135133333Y-106845238D01*
X135180952Y-106940476D01*
X135228571Y-106988095D01*
X135323810Y-107035714D01*
X131752381Y-107297619D02*
X131752381Y-107202380D01*
X131800000Y-107107142D01*
X131847619Y-107059523D01*
X131942857Y-107011904D01*
X132133333Y-106964285D01*
X132371429Y-106964285D01*
X132561905Y-107011904D01*
X132657143Y-107059523D01*
X132704762Y-107107142D01*
X132752381Y-107202380D01*
X132752381Y-107297619D01*
X132704762Y-107392857D01*
X132657143Y-107440476D01*
X132561905Y-107488095D01*
X132371429Y-107535714D01*
X132133333Y-107535714D01*
X131942857Y-107488095D01*
X131847619Y-107440476D01*
X131800000Y-107392857D01*
X131752381Y-107297619D01*
X90183334Y-141802381D02*
X89850000Y-141326190D01*
X89611905Y-141802381D02*
X89611905Y-140802381D01*
X89992858Y-140802381D01*
X90088096Y-140850000D01*
X90135715Y-140897619D01*
X90183334Y-140992857D01*
X90183334Y-141135714D01*
X90135715Y-141230952D01*
X90088096Y-141278571D01*
X89992858Y-141326190D01*
X89611905Y-141326190D01*
X90516667Y-140802381D02*
X91183334Y-140802381D01*
X90754762Y-141802381D01*
X88447619Y-145388095D02*
X88400000Y-145340476D01*
X88352381Y-145245238D01*
X88352381Y-145007142D01*
X88400000Y-144911904D01*
X88447619Y-144864285D01*
X88542857Y-144816666D01*
X88638095Y-144816666D01*
X88780952Y-144864285D01*
X89352381Y-145435714D01*
X89352381Y-144816666D01*
X88447619Y-144435714D02*
X88400000Y-144388095D01*
X88352381Y-144292857D01*
X88352381Y-144054761D01*
X88400000Y-143959523D01*
X88447619Y-143911904D01*
X88542857Y-143864285D01*
X88638095Y-143864285D01*
X88780952Y-143911904D01*
X89352381Y-144483333D01*
X89352381Y-143864285D01*
X88352381Y-143245238D02*
X88352381Y-143149999D01*
X88400000Y-143054761D01*
X88447619Y-143007142D01*
X88542857Y-142959523D01*
X88733333Y-142911904D01*
X88971429Y-142911904D01*
X89161905Y-142959523D01*
X89257143Y-143007142D01*
X89304762Y-143054761D01*
X89352381Y-143149999D01*
X89352381Y-143245238D01*
X89304762Y-143340476D01*
X89257143Y-143388095D01*
X89161905Y-143435714D01*
X88971429Y-143483333D01*
X88733333Y-143483333D01*
X88542857Y-143435714D01*
X88447619Y-143388095D01*
X88400000Y-143340476D01*
X88352381Y-143245238D01*
X92083334Y-141802381D02*
X91750000Y-141326190D01*
X91511905Y-141802381D02*
X91511905Y-140802381D01*
X91892858Y-140802381D01*
X91988096Y-140850000D01*
X92035715Y-140897619D01*
X92083334Y-140992857D01*
X92083334Y-141135714D01*
X92035715Y-141230952D01*
X91988096Y-141278571D01*
X91892858Y-141326190D01*
X91511905Y-141326190D01*
X92654762Y-141230952D02*
X92559524Y-141183333D01*
X92511905Y-141135714D01*
X92464286Y-141040476D01*
X92464286Y-140992857D01*
X92511905Y-140897619D01*
X92559524Y-140850000D01*
X92654762Y-140802381D01*
X92845239Y-140802381D01*
X92940477Y-140850000D01*
X92988096Y-140897619D01*
X93035715Y-140992857D01*
X93035715Y-141040476D01*
X92988096Y-141135714D01*
X92940477Y-141183333D01*
X92845239Y-141230952D01*
X92654762Y-141230952D01*
X92559524Y-141278571D01*
X92511905Y-141326190D01*
X92464286Y-141421429D01*
X92464286Y-141611905D01*
X92511905Y-141707143D01*
X92559524Y-141754762D01*
X92654762Y-141802381D01*
X92845239Y-141802381D01*
X92940477Y-141754762D01*
X92988096Y-141707143D01*
X93035715Y-141611905D01*
X93035715Y-141421429D01*
X92988096Y-141326190D01*
X92940477Y-141278571D01*
X92845239Y-141230952D01*
X91964286Y-147352381D02*
X91392857Y-147352381D01*
X91678571Y-147352381D02*
X91678571Y-146352381D01*
X91583333Y-146495238D01*
X91488095Y-146590476D01*
X91392857Y-146638095D01*
X92392857Y-147352381D02*
X92392857Y-146352381D01*
X92726191Y-147066667D01*
X93059524Y-146352381D01*
X93059524Y-147352381D01*
X131897619Y-112945238D02*
X131850000Y-113040476D01*
X131754762Y-113135714D01*
X131611905Y-113278571D01*
X131564286Y-113373810D01*
X131564286Y-113469048D01*
X131802381Y-113421429D02*
X131754762Y-113516667D01*
X131659524Y-113611905D01*
X131469048Y-113659524D01*
X131135714Y-113659524D01*
X130945238Y-113611905D01*
X130850000Y-113516667D01*
X130802381Y-113421429D01*
X130802381Y-113230952D01*
X130850000Y-113135714D01*
X130945238Y-113040476D01*
X131135714Y-112992857D01*
X131469048Y-112992857D01*
X131659524Y-113040476D01*
X131754762Y-113135714D01*
X131802381Y-113230952D01*
X131802381Y-113421429D01*
X131802381Y-112040476D02*
X131802381Y-112611905D01*
X131802381Y-112326191D02*
X130802381Y-112326191D01*
X130945238Y-112421429D01*
X131040476Y-112516667D01*
X131088095Y-112611905D01*
X89347619Y-153695238D02*
X89300000Y-153790476D01*
X89204762Y-153885714D01*
X89061905Y-154028571D01*
X89014286Y-154123810D01*
X89014286Y-154219048D01*
X89252381Y-154171429D02*
X89204762Y-154266667D01*
X89109524Y-154361905D01*
X88919048Y-154409524D01*
X88585714Y-154409524D01*
X88395238Y-154361905D01*
X88300000Y-154266667D01*
X88252381Y-154171429D01*
X88252381Y-153980952D01*
X88300000Y-153885714D01*
X88395238Y-153790476D01*
X88585714Y-153742857D01*
X88919048Y-153742857D01*
X89109524Y-153790476D01*
X89204762Y-153885714D01*
X89252381Y-153980952D01*
X89252381Y-154171429D01*
X88347619Y-153361905D02*
X88300000Y-153314286D01*
X88252381Y-153219048D01*
X88252381Y-152980952D01*
X88300000Y-152885714D01*
X88347619Y-152838095D01*
X88442857Y-152790476D01*
X88538095Y-152790476D01*
X88680952Y-152838095D01*
X89252381Y-153409524D01*
X89252381Y-152790476D01*
X88062381Y-90754286D02*
X87062381Y-90754286D01*
X87062381Y-90516191D01*
X87110000Y-90373333D01*
X87205238Y-90278095D01*
X87300476Y-90230476D01*
X87490952Y-90182857D01*
X87633810Y-90182857D01*
X87824286Y-90230476D01*
X87919524Y-90278095D01*
X88014762Y-90373333D01*
X88062381Y-90516191D01*
X88062381Y-90754286D01*
X88014762Y-89801905D02*
X88062381Y-89659048D01*
X88062381Y-89420952D01*
X88014762Y-89325714D01*
X87967143Y-89278095D01*
X87871905Y-89230476D01*
X87776667Y-89230476D01*
X87681429Y-89278095D01*
X87633810Y-89325714D01*
X87586190Y-89420952D01*
X87538571Y-89611429D01*
X87490952Y-89706667D01*
X87443333Y-89754286D01*
X87348095Y-89801905D01*
X87252857Y-89801905D01*
X87157619Y-89754286D01*
X87110000Y-89706667D01*
X87062381Y-89611429D01*
X87062381Y-89373333D01*
X87110000Y-89230476D01*
X88062381Y-88278095D02*
X88062381Y-88849524D01*
X88062381Y-88563810D02*
X87062381Y-88563810D01*
X87205238Y-88659048D01*
X87300476Y-88754286D01*
X87348095Y-88849524D01*
X106404762Y-92992381D02*
X105928571Y-92992381D01*
X105928571Y-91992381D01*
X107309524Y-92897143D02*
X107261905Y-92944762D01*
X107119048Y-92992381D01*
X107023810Y-92992381D01*
X106880952Y-92944762D01*
X106785714Y-92849524D01*
X106738095Y-92754286D01*
X106690476Y-92563810D01*
X106690476Y-92420952D01*
X106738095Y-92230476D01*
X106785714Y-92135238D01*
X106880952Y-92040000D01*
X107023810Y-91992381D01*
X107119048Y-91992381D01*
X107261905Y-92040000D01*
X107309524Y-92087619D01*
X107738095Y-92992381D02*
X107738095Y-91992381D01*
X107976190Y-91992381D01*
X108119048Y-92040000D01*
X108214286Y-92135238D01*
X108261905Y-92230476D01*
X108309524Y-92420952D01*
X108309524Y-92563810D01*
X108261905Y-92754286D01*
X108214286Y-92849524D01*
X108119048Y-92944762D01*
X107976190Y-92992381D01*
X107738095Y-92992381D01*
X108690476Y-92087619D02*
X108738095Y-92040000D01*
X108833333Y-91992381D01*
X109071429Y-91992381D01*
X109166667Y-92040000D01*
X109214286Y-92087619D01*
X109261905Y-92182857D01*
X109261905Y-92278095D01*
X109214286Y-92420952D01*
X108642857Y-92992381D01*
X109261905Y-92992381D01*
X109880952Y-91992381D02*
X109976191Y-91992381D01*
X110071429Y-92040000D01*
X110119048Y-92087619D01*
X110166667Y-92182857D01*
X110214286Y-92373333D01*
X110214286Y-92611429D01*
X110166667Y-92801905D01*
X110119048Y-92897143D01*
X110071429Y-92944762D01*
X109976191Y-92992381D01*
X109880952Y-92992381D01*
X109785714Y-92944762D01*
X109738095Y-92897143D01*
X109690476Y-92801905D01*
X109642857Y-92611429D01*
X109642857Y-92373333D01*
X109690476Y-92182857D01*
X109738095Y-92087619D01*
X109785714Y-92040000D01*
X109880952Y-91992381D01*
X110547619Y-91992381D02*
X111214286Y-92992381D01*
X111214286Y-91992381D02*
X110547619Y-92992381D01*
X112023810Y-92325714D02*
X112023810Y-92992381D01*
X111785714Y-91944762D02*
X111547619Y-92659048D01*
X112166667Y-92659048D01*
M02*
