M48
;DRILL file {KiCad 4.0.7-e1-6374~58~ubuntu16.04.1} date Sat Aug  5 15:21:19 2017
;FORMAT={-:-/ absolute / metric / decimal}
FMAT,2
METRIC,TZ
T1C0.400
T2C0.500
T3C0.550
T4C1.000
T5C1.100
T6C1.300
%
G90
G05
M71
T1
X100.95Y-142.
X102.1Y-141.95
X105.35Y-108.9
X105.35Y-113.4
X105.4Y-111.75
X120.05Y-140.85
X128.5Y-122.3
X129.3Y-123.15
X130.9Y-123.1
X133.1Y-143.35
X134.1Y-147.4
X134.9Y-147.25
X136.85Y-145.85
X146.85Y-111.75
X146.85Y-113.4
X149.15Y-127.2
X149.85Y-115.8
X149.85Y-129.4
X150.9Y-127.25
X152.Y-123.55
X156.Y-130.4
X160.Y-128.5
T2
X124.1Y-149.05
X124.25Y-136.45
X124.25Y-144.
X124.6Y-151.65
X127.5Y-136.15
X127.5Y-139.95
X127.7Y-132.85
X128.5Y-144.55
X128.6Y-136.95
X130.9Y-143.85
X131.3Y-155.
X132.5Y-144.65
X134.9Y-136.15
X135.9Y-142.55
X136.75Y-134.45
X138.95Y-141.75
T4
X90.Y-90.
X92.46Y-151.92
X92.46Y-154.46
X92.46Y-157.
X92.54Y-90.
X95.Y-151.92
X95.Y-154.46
X95.Y-157.
X95.08Y-90.
X97.62Y-90.
X100.16Y-90.
X102.7Y-90.
X105.24Y-90.
X107.78Y-90.
X110.32Y-90.
X112.86Y-90.
X115.4Y-90.
X117.94Y-90.
X120.48Y-90.
X123.02Y-90.
X125.56Y-90.
X128.1Y-90.
T5
X103.95Y-151.9
X103.95Y-156.4
X110.45Y-151.9
X110.45Y-156.4
T6
X148.Y-150.
X152.Y-150.
X156.Y-150.
X160.Y-150.
X166.5Y-150.
X170.5Y-150.
X174.5Y-150.
T2
X126.5Y-159.225G85X126.5Y-159.875
G05
X133.5Y-159.225G85X133.5Y-159.875
G05
T3
X127.35Y-156.85G85X127.65Y-156.85
G05
X132.35Y-156.85G85X132.65Y-156.85
G05
T0
M30
