G04 #@! TF.FileFunction,Copper,L1,Top,Signal*
%FSLAX46Y46*%
G04 Gerber Fmt 4.6, Leading zero omitted, Abs format (unit mm)*
G04 Created by KiCad (PCBNEW 4.0.7-e1-6374~58~ubuntu16.04.1) date Sat Aug  5 15:20:44 2017*
%MOMM*%
%LPD*%
G01*
G04 APERTURE LIST*
%ADD10C,0.100000*%
%ADD11R,1.700000X1.700000*%
%ADD12O,1.700000X1.700000*%
%ADD13R,0.550000X1.500000*%
%ADD14R,1.500000X0.550000*%
%ADD15R,1.200000X0.750000*%
%ADD16R,0.750000X1.200000*%
%ADD17O,0.890000X1.550000*%
%ADD18R,1.500000X1.550000*%
%ADD19O,1.250000X0.950000*%
%ADD20R,0.400000X1.350000*%
%ADD21R,0.900000X1.200000*%
%ADD22R,1.300000X1.500000*%
%ADD23R,1.300000X1.300000*%
%ADD24R,2.000000X1.300000*%
%ADD25C,2.200000*%
%ADD26R,2.200000X2.200000*%
%ADD27R,1.200000X0.900000*%
%ADD28C,2.000000*%
%ADD29R,2.400000X3.500000*%
%ADD30C,0.700000*%
%ADD31C,0.600000*%
%ADD32C,0.250000*%
%ADD33C,0.400000*%
%ADD34C,0.254000*%
G04 APERTURE END LIST*
D10*
D11*
X90000000Y-90000000D03*
D12*
X92540000Y-90000000D03*
X95080000Y-90000000D03*
X97620000Y-90000000D03*
X100160000Y-90000000D03*
X102700000Y-90000000D03*
X105240000Y-90000000D03*
X107780000Y-90000000D03*
X110320000Y-90000000D03*
X112860000Y-90000000D03*
X115400000Y-90000000D03*
X117940000Y-90000000D03*
X120480000Y-90000000D03*
X123020000Y-90000000D03*
X125560000Y-90000000D03*
X128100000Y-90000000D03*
D11*
X95000000Y-157000000D03*
D12*
X92460000Y-157000000D03*
X95000000Y-154460000D03*
X92460000Y-154460000D03*
X95000000Y-151920000D03*
X92460000Y-151920000D03*
D13*
X127700000Y-145850000D03*
X128500000Y-145850000D03*
X129300000Y-145850000D03*
X130100000Y-145850000D03*
X130900000Y-145850000D03*
X131700000Y-145850000D03*
X132500000Y-145850000D03*
X133300000Y-145850000D03*
X134100000Y-145850000D03*
X134900000Y-145850000D03*
X135700000Y-145850000D03*
D14*
X137400000Y-144150000D03*
X137400000Y-143350000D03*
X137400000Y-142550000D03*
X137400000Y-141750000D03*
X137400000Y-140950000D03*
X137400000Y-140150000D03*
X137400000Y-139350000D03*
X137400000Y-138550000D03*
X137400000Y-137750000D03*
X137400000Y-136950000D03*
X137400000Y-136150000D03*
D13*
X135700000Y-134450000D03*
X134900000Y-134450000D03*
X134100000Y-134450000D03*
X133300000Y-134450000D03*
X132500000Y-134450000D03*
X131700000Y-134450000D03*
X130900000Y-134450000D03*
X130100000Y-134450000D03*
X129300000Y-134450000D03*
X128500000Y-134450000D03*
X127700000Y-134450000D03*
D14*
X126000000Y-136150000D03*
X126000000Y-136950000D03*
X126000000Y-137750000D03*
X126000000Y-138550000D03*
X126000000Y-139350000D03*
X126000000Y-140150000D03*
X126000000Y-140950000D03*
X126000000Y-141750000D03*
X126000000Y-142550000D03*
X126000000Y-143350000D03*
X126000000Y-144150000D03*
D15*
X123800000Y-142550000D03*
X121900000Y-142550000D03*
D16*
X146900000Y-143150000D03*
X146900000Y-141250000D03*
X146900000Y-137950000D03*
X146900000Y-136050000D03*
D15*
X133900000Y-149400000D03*
X135800000Y-149400000D03*
D17*
X133500000Y-159550000D03*
D18*
X131000000Y-159550000D03*
D19*
X132500000Y-156850000D03*
D17*
X126500000Y-159550000D03*
D18*
X129000000Y-159550000D03*
D20*
X128700000Y-156850000D03*
X129350000Y-156850000D03*
X130000000Y-156850000D03*
X130650000Y-156850000D03*
X131300000Y-156850000D03*
D19*
X127500000Y-156850000D03*
D21*
X117050000Y-148050000D03*
X117050000Y-145850000D03*
D22*
X130750000Y-152900000D03*
X130750000Y-150200000D03*
X128650000Y-152900000D03*
X128650000Y-150200000D03*
D23*
X86150000Y-157750000D03*
D24*
X85000000Y-152250000D03*
D23*
X83850000Y-157750000D03*
D25*
X160000000Y-150000000D03*
X156000000Y-150000000D03*
X152000000Y-150000000D03*
X170500000Y-150000000D03*
X166500000Y-150000000D03*
D26*
X148000000Y-150000000D03*
D25*
X174500000Y-150000000D03*
D21*
X119350000Y-154350000D03*
X116050000Y-154350000D03*
X119350000Y-151350000D03*
X122650000Y-151350000D03*
D27*
X124300000Y-154550000D03*
X126500000Y-154550000D03*
D28*
X110450000Y-151900000D03*
X110450000Y-156400000D03*
X103950000Y-151900000D03*
X103950000Y-156400000D03*
D15*
X135150000Y-132300000D03*
X137050000Y-132300000D03*
X135150000Y-130750000D03*
X137050000Y-130750000D03*
X123800000Y-146650000D03*
X121900000Y-146650000D03*
D21*
X110450000Y-145850000D03*
X110450000Y-148050000D03*
D29*
X142950000Y-143150000D03*
X142950000Y-137950000D03*
D30*
X124100000Y-149050000D03*
X136750000Y-134450000D03*
X124250000Y-144000000D03*
X124250000Y-136450000D03*
X127700000Y-132850000D03*
X138950000Y-141750000D03*
X128600000Y-136950000D03*
X130900000Y-143850000D03*
X124600000Y-151650000D03*
X131300000Y-155000000D03*
X132500000Y-144650000D03*
X128500000Y-144550000D03*
D31*
X136850000Y-145850000D03*
X149150000Y-127200000D03*
X146850000Y-113400000D03*
X105350000Y-113400000D03*
X102100000Y-141950000D03*
X134100000Y-147400000D03*
X150900000Y-127250000D03*
X146850000Y-111750000D03*
X100950000Y-142000000D03*
X105400000Y-111750000D03*
X105350000Y-108900000D03*
X134900000Y-147250000D03*
X149850000Y-129400000D03*
X149850000Y-115800000D03*
X133100000Y-143350000D03*
X120050000Y-140850000D03*
X160000000Y-128500000D03*
X128500000Y-122300000D03*
X156000000Y-130400000D03*
X130900000Y-123100000D03*
X152000000Y-123550000D03*
X129300000Y-123150000D03*
D30*
X127500000Y-139950000D03*
X135900000Y-142550000D03*
X127500000Y-136150000D03*
X134900000Y-136150000D03*
D32*
X126000000Y-142550000D02*
X123800000Y-142550000D01*
D33*
X135700000Y-134450000D02*
X136750000Y-134450000D01*
X126000000Y-143350000D02*
X124900000Y-143350000D01*
X124900000Y-143350000D02*
X124250000Y-144000000D01*
X126000000Y-136950000D02*
X124750000Y-136950000D01*
X124750000Y-136950000D02*
X124250000Y-136450000D01*
X127700000Y-134450000D02*
X127700000Y-132850000D01*
X137400000Y-141750000D02*
X138950000Y-141750000D01*
X126000000Y-136950000D02*
X128600000Y-136950000D01*
X130900000Y-143850000D02*
X130900000Y-145850000D01*
X131300000Y-156850000D02*
X131300000Y-155000000D01*
D32*
X146900000Y-143150000D02*
X142950000Y-143150000D01*
X142950000Y-143150000D02*
X140750000Y-140950000D01*
X140750000Y-140950000D02*
X137400000Y-140950000D01*
X142950000Y-137950000D02*
X146900000Y-137950000D01*
X142950000Y-137950000D02*
X140750000Y-140150000D01*
X140750000Y-140150000D02*
X137400000Y-140150000D01*
X131700000Y-145850000D02*
X131700000Y-148450000D01*
X132650000Y-149400000D02*
X133900000Y-149400000D01*
X131700000Y-148450000D02*
X132650000Y-149400000D01*
D33*
X128500000Y-145850000D02*
X128500000Y-144550000D01*
X132500000Y-144650000D02*
X132500000Y-145850000D01*
X122650000Y-151350000D02*
X123550000Y-151350000D01*
X128500000Y-147600000D02*
X128500000Y-145850000D01*
X128150000Y-147950000D02*
X128500000Y-147600000D01*
X126950000Y-147950000D02*
X128150000Y-147950000D01*
X123550000Y-151350000D02*
X126950000Y-147950000D01*
D32*
X124300000Y-154550000D02*
X123850000Y-154550000D01*
D33*
X123850000Y-154550000D02*
X122650000Y-153350000D01*
X122650000Y-153350000D02*
X122650000Y-151350000D01*
D32*
X85000000Y-152250000D02*
X85000000Y-117950000D01*
X85000000Y-117950000D02*
X95080000Y-107870000D01*
X95080000Y-107870000D02*
X95080000Y-90000000D01*
X126000000Y-139350000D02*
X122000000Y-139350000D01*
X97620000Y-97370000D02*
X97620000Y-90000000D01*
X116900000Y-116650000D02*
X97620000Y-97370000D01*
X116900000Y-134250000D02*
X116900000Y-116650000D01*
X122000000Y-139350000D02*
X116900000Y-134250000D01*
X126000000Y-138550000D02*
X123500000Y-138550000D01*
X100160000Y-95660000D02*
X100160000Y-90000000D01*
X119400000Y-114900000D02*
X100160000Y-95660000D01*
X119400000Y-134450000D02*
X119400000Y-114900000D01*
X123500000Y-138550000D02*
X119400000Y-134450000D01*
X126000000Y-137750000D02*
X124300000Y-137750000D01*
X102700000Y-95250000D02*
X102700000Y-90000000D01*
X121550000Y-114100000D02*
X102700000Y-95250000D01*
X121550000Y-135000000D02*
X121550000Y-114100000D01*
X124300000Y-137750000D02*
X121550000Y-135000000D01*
X131700000Y-134450000D02*
X131700000Y-113300000D01*
X115400000Y-97000000D02*
X115400000Y-90000000D01*
X131700000Y-113300000D02*
X115400000Y-97000000D01*
X132500000Y-134450000D02*
X132500000Y-111550000D01*
X117940000Y-96990000D02*
X117940000Y-90000000D01*
X132500000Y-111550000D02*
X117940000Y-96990000D01*
X120480000Y-90000000D02*
X120480000Y-97280000D01*
X133300000Y-110100000D02*
X133300000Y-134450000D01*
X120480000Y-97280000D02*
X133300000Y-110100000D01*
X134100000Y-134450000D02*
X134100000Y-108650000D01*
X123020000Y-97570000D02*
X123020000Y-90000000D01*
X134100000Y-108650000D02*
X123020000Y-97570000D01*
X123050000Y-90030000D02*
X123020000Y-90000000D01*
X136850000Y-145850000D02*
X135700000Y-145850000D01*
X149150000Y-115700000D02*
X149150000Y-127200000D01*
X146850000Y-113400000D02*
X149150000Y-115700000D01*
X102100000Y-116650000D02*
X105350000Y-113400000D01*
X102100000Y-141950000D02*
X102100000Y-116650000D01*
X134100000Y-145850000D02*
X134100000Y-147400000D01*
X150900000Y-115800000D02*
X150900000Y-127250000D01*
X100950000Y-142000000D02*
X100950000Y-116150000D01*
X100950000Y-116150000D02*
X105350000Y-111750000D01*
X105350000Y-111750000D02*
X105400000Y-111750000D01*
X146850000Y-111750000D02*
X150900000Y-115800000D01*
X90210000Y-154460000D02*
X89400000Y-153650000D01*
X89400000Y-153650000D02*
X89400000Y-117350000D01*
X89400000Y-117350000D02*
X97850000Y-108900000D01*
X97850000Y-108900000D02*
X105350000Y-108900000D01*
X92460000Y-154460000D02*
X90210000Y-154460000D01*
X134900000Y-147250000D02*
X134900000Y-145850000D01*
X149850000Y-115800000D02*
X149850000Y-129400000D01*
X117050000Y-145850000D02*
X110450000Y-145850000D01*
X110450000Y-145850000D02*
X110450000Y-143800000D01*
X133100000Y-143350000D02*
X137400000Y-143350000D01*
X113400000Y-140850000D02*
X120050000Y-140850000D01*
X110450000Y-143800000D02*
X113400000Y-140850000D01*
X95000000Y-151920000D02*
X95000000Y-150700000D01*
X99850000Y-145850000D02*
X110450000Y-145850000D01*
X95000000Y-150700000D02*
X99850000Y-145850000D01*
X160000000Y-128500000D02*
X160000000Y-150000000D01*
X128500000Y-134450000D02*
X128500000Y-122300000D01*
X130900000Y-134450000D02*
X130900000Y-123100000D01*
X156000000Y-130400000D02*
X156000000Y-150000000D01*
X129300000Y-134450000D02*
X129300000Y-123150000D01*
X152000000Y-123550000D02*
X152000000Y-150000000D01*
X129350000Y-156850000D02*
X129350000Y-153600000D01*
X129350000Y-153600000D02*
X128650000Y-152900000D01*
X130000000Y-156850000D02*
X130000000Y-153650000D01*
X130000000Y-153650000D02*
X130750000Y-152900000D01*
X130750000Y-150200000D02*
X130100000Y-149550000D01*
X130100000Y-149550000D02*
X130100000Y-145850000D01*
X128650000Y-150200000D02*
X129400000Y-149450000D01*
X129400000Y-149450000D02*
X129400000Y-145950000D01*
X129400000Y-145950000D02*
X129300000Y-145850000D01*
D33*
X134900000Y-130500000D02*
X134900000Y-106550000D01*
X134900000Y-106550000D02*
X125560000Y-97210000D01*
X125560000Y-97210000D02*
X125560000Y-90000000D01*
X134900000Y-130500000D02*
X135150000Y-130750000D01*
X135150000Y-132300000D02*
X135150000Y-130750000D01*
X134900000Y-134450000D02*
X134900000Y-132550000D01*
X134900000Y-132550000D02*
X135150000Y-132300000D01*
X137400000Y-142550000D02*
X139200000Y-142550000D01*
X143100000Y-150000000D02*
X148000000Y-150000000D01*
X140600000Y-147500000D02*
X143100000Y-150000000D01*
X140600000Y-143950000D02*
X140600000Y-147500000D01*
X139200000Y-142550000D02*
X140600000Y-143950000D01*
X119350000Y-151350000D02*
X118700000Y-151350000D01*
X117050000Y-149700000D02*
X117050000Y-148050000D01*
X118700000Y-151350000D02*
X117050000Y-149700000D01*
X126000000Y-144150000D02*
X127000000Y-144150000D01*
X127500000Y-143650000D02*
X127500000Y-139950000D01*
X127000000Y-144150000D02*
X127500000Y-143650000D01*
X123800000Y-146650000D02*
X124700000Y-146650000D01*
X126000000Y-145350000D02*
X126000000Y-144150000D01*
X124700000Y-146650000D02*
X126000000Y-145350000D01*
X119350000Y-151350000D02*
X119950000Y-151350000D01*
X123800000Y-147500000D02*
X123800000Y-146650000D01*
X119950000Y-151350000D02*
X123800000Y-147500000D01*
X135900000Y-142550000D02*
X137400000Y-142550000D01*
X127500000Y-136150000D02*
X126000000Y-136150000D01*
X134900000Y-136150000D02*
X134900000Y-134450000D01*
X125560000Y-90000000D02*
X125500000Y-90000000D01*
X125500000Y-90000000D02*
X123800000Y-88300000D01*
X123800000Y-88300000D02*
X93250000Y-88300000D01*
X93250000Y-88300000D02*
X92540000Y-89010000D01*
X92540000Y-89010000D02*
X92540000Y-90000000D01*
X92540000Y-105960000D02*
X92540000Y-90000000D01*
X92540000Y-90000000D02*
X92540000Y-89010000D01*
X81150000Y-117350000D02*
X92540000Y-105960000D01*
X81150000Y-157250000D02*
X81150000Y-117350000D01*
X81650000Y-157750000D02*
X81150000Y-157250000D01*
X119350000Y-154350000D02*
X119350000Y-151350000D01*
D32*
X147750000Y-150250000D02*
X147850000Y-150150000D01*
D33*
X83850000Y-157750000D02*
X81650000Y-157750000D01*
X92460000Y-157000000D02*
X92460000Y-158910000D01*
X92460000Y-158910000D02*
X93050000Y-159500000D01*
X93050000Y-159500000D02*
X113050000Y-159500000D01*
X113050000Y-159500000D02*
X115950000Y-156600000D01*
X115950000Y-156600000D02*
X115950000Y-154450000D01*
D32*
X115950000Y-154450000D02*
X116050000Y-154350000D01*
X92400000Y-157060000D02*
X92460000Y-157000000D01*
D33*
X128700000Y-156850000D02*
X128700000Y-155500000D01*
X127750000Y-154550000D02*
X126500000Y-154550000D01*
X128700000Y-155500000D02*
X127750000Y-154550000D01*
D32*
X110450000Y-151900000D02*
X110450000Y-148050000D01*
D34*
G36*
X178290000Y-160290000D02*
X134503941Y-160290000D01*
X134580000Y-159907624D01*
X134580000Y-159192376D01*
X134497790Y-158779078D01*
X134263675Y-158428701D01*
X133913298Y-158194586D01*
X133500000Y-158112376D01*
X133086702Y-158194586D01*
X132736325Y-158428701D01*
X132502210Y-158779078D01*
X132420000Y-159192376D01*
X132420000Y-159907624D01*
X132496059Y-160290000D01*
X132385000Y-160290000D01*
X132385000Y-159835750D01*
X132226250Y-159677000D01*
X131127000Y-159677000D01*
X131127000Y-159697000D01*
X130873000Y-159697000D01*
X130873000Y-159677000D01*
X129127000Y-159677000D01*
X129127000Y-159697000D01*
X128873000Y-159697000D01*
X128873000Y-159677000D01*
X127773750Y-159677000D01*
X127615000Y-159835750D01*
X127615000Y-160290000D01*
X127503941Y-160290000D01*
X127580000Y-159907624D01*
X127580000Y-159192376D01*
X127497790Y-158779078D01*
X127263675Y-158428701D01*
X126913298Y-158194586D01*
X126500000Y-158112376D01*
X126086702Y-158194586D01*
X125736325Y-158428701D01*
X125502210Y-158779078D01*
X125420000Y-159192376D01*
X125420000Y-159907624D01*
X125496059Y-160290000D01*
X113276229Y-160290000D01*
X113369541Y-160271439D01*
X113640434Y-160090434D01*
X116540434Y-157190434D01*
X116714143Y-156930460D01*
X116721439Y-156919541D01*
X116785000Y-156600000D01*
X116785000Y-155521192D01*
X116951441Y-155414090D01*
X117096431Y-155201890D01*
X117147440Y-154950000D01*
X117147440Y-153750000D01*
X117103162Y-153514683D01*
X116964090Y-153298559D01*
X116751890Y-153153569D01*
X116500000Y-153102560D01*
X115600000Y-153102560D01*
X115364683Y-153146838D01*
X115148559Y-153285910D01*
X115003569Y-153498110D01*
X114952560Y-153750000D01*
X114952560Y-154950000D01*
X114996838Y-155185317D01*
X115115000Y-155368946D01*
X115115000Y-156254132D01*
X112704132Y-158665000D01*
X93395868Y-158665000D01*
X93295000Y-158564132D01*
X93295000Y-158213187D01*
X93539147Y-158050054D01*
X93539971Y-158048821D01*
X93546838Y-158085317D01*
X93685910Y-158301441D01*
X93898110Y-158446431D01*
X94150000Y-158497440D01*
X95850000Y-158497440D01*
X96085317Y-158453162D01*
X96301441Y-158314090D01*
X96446431Y-158101890D01*
X96497440Y-157850000D01*
X96497440Y-157552532D01*
X102977073Y-157552532D01*
X103075736Y-157819387D01*
X103685461Y-158045908D01*
X104335460Y-158021856D01*
X104824264Y-157819387D01*
X104922927Y-157552532D01*
X109477073Y-157552532D01*
X109575736Y-157819387D01*
X110185461Y-158045908D01*
X110835460Y-158021856D01*
X111324264Y-157819387D01*
X111422927Y-157552532D01*
X110450000Y-156579605D01*
X109477073Y-157552532D01*
X104922927Y-157552532D01*
X103950000Y-156579605D01*
X102977073Y-157552532D01*
X96497440Y-157552532D01*
X96497440Y-156150000D01*
X96494705Y-156135461D01*
X102304092Y-156135461D01*
X102328144Y-156785460D01*
X102530613Y-157274264D01*
X102797468Y-157372927D01*
X103770395Y-156400000D01*
X104129605Y-156400000D01*
X105102532Y-157372927D01*
X105369387Y-157274264D01*
X105595908Y-156664539D01*
X105576331Y-156135461D01*
X108804092Y-156135461D01*
X108828144Y-156785460D01*
X109030613Y-157274264D01*
X109297468Y-157372927D01*
X110270395Y-156400000D01*
X110629605Y-156400000D01*
X111602532Y-157372927D01*
X111869387Y-157274264D01*
X112095908Y-156664539D01*
X112071856Y-156014540D01*
X111869387Y-155525736D01*
X111602532Y-155427073D01*
X110629605Y-156400000D01*
X110270395Y-156400000D01*
X109297468Y-155427073D01*
X109030613Y-155525736D01*
X108804092Y-156135461D01*
X105576331Y-156135461D01*
X105571856Y-156014540D01*
X105369387Y-155525736D01*
X105102532Y-155427073D01*
X104129605Y-156400000D01*
X103770395Y-156400000D01*
X102797468Y-155427073D01*
X102530613Y-155525736D01*
X102304092Y-156135461D01*
X96494705Y-156135461D01*
X96453162Y-155914683D01*
X96314090Y-155698559D01*
X96101890Y-155553569D01*
X96034459Y-155539914D01*
X96079147Y-155510054D01*
X96254600Y-155247468D01*
X102977073Y-155247468D01*
X103950000Y-156220395D01*
X104922927Y-155247468D01*
X109477073Y-155247468D01*
X110450000Y-156220395D01*
X111422927Y-155247468D01*
X111324264Y-154980613D01*
X110714539Y-154754092D01*
X110064540Y-154778144D01*
X109575736Y-154980613D01*
X109477073Y-155247468D01*
X104922927Y-155247468D01*
X104824264Y-154980613D01*
X104214539Y-154754092D01*
X103564540Y-154778144D01*
X103075736Y-154980613D01*
X102977073Y-155247468D01*
X96254600Y-155247468D01*
X96401054Y-155028285D01*
X96514093Y-154460000D01*
X96401054Y-153891715D01*
X96079147Y-153409946D01*
X95749974Y-153190000D01*
X96079147Y-152970054D01*
X96401054Y-152488285D01*
X96453664Y-152223795D01*
X102314716Y-152223795D01*
X102563106Y-152824943D01*
X103022637Y-153285278D01*
X103623352Y-153534716D01*
X104273795Y-153535284D01*
X104874943Y-153286894D01*
X105335278Y-152827363D01*
X105584716Y-152226648D01*
X105585284Y-151576205D01*
X105336894Y-150975057D01*
X104877363Y-150514722D01*
X104276648Y-150265284D01*
X103626205Y-150264716D01*
X103025057Y-150513106D01*
X102564722Y-150972637D01*
X102315284Y-151573352D01*
X102314716Y-152223795D01*
X96453664Y-152223795D01*
X96514093Y-151920000D01*
X96401054Y-151351715D01*
X96079147Y-150869946D01*
X95974667Y-150800135D01*
X100164802Y-146610000D01*
X109382666Y-146610000D01*
X109396838Y-146685317D01*
X109535910Y-146901441D01*
X109605711Y-146949134D01*
X109548559Y-146985910D01*
X109403569Y-147198110D01*
X109352560Y-147450000D01*
X109352560Y-148650000D01*
X109396838Y-148885317D01*
X109535910Y-149101441D01*
X109690000Y-149206726D01*
X109690000Y-150444953D01*
X109525057Y-150513106D01*
X109064722Y-150972637D01*
X108815284Y-151573352D01*
X108814716Y-152223795D01*
X109063106Y-152824943D01*
X109522637Y-153285278D01*
X110123352Y-153534716D01*
X110773795Y-153535284D01*
X111374943Y-153286894D01*
X111835278Y-152827363D01*
X112084716Y-152226648D01*
X112085284Y-151576205D01*
X111836894Y-150975057D01*
X111377363Y-150514722D01*
X111210000Y-150445227D01*
X111210000Y-149205105D01*
X111351441Y-149114090D01*
X111496431Y-148901890D01*
X111547440Y-148650000D01*
X111547440Y-147450000D01*
X111503162Y-147214683D01*
X111364090Y-146998559D01*
X111294289Y-146950866D01*
X111351441Y-146914090D01*
X111496431Y-146701890D01*
X111515039Y-146610000D01*
X115982666Y-146610000D01*
X115996838Y-146685317D01*
X116135910Y-146901441D01*
X116205711Y-146949134D01*
X116148559Y-146985910D01*
X116003569Y-147198110D01*
X115952560Y-147450000D01*
X115952560Y-148650000D01*
X115996838Y-148885317D01*
X116135910Y-149101441D01*
X116215000Y-149155481D01*
X116215000Y-149700000D01*
X116278561Y-150019541D01*
X116399140Y-150200000D01*
X116459566Y-150290434D01*
X118109566Y-151940434D01*
X118271065Y-152048344D01*
X118296838Y-152185317D01*
X118435910Y-152401441D01*
X118515000Y-152455481D01*
X118515000Y-153243156D01*
X118448559Y-153285910D01*
X118303569Y-153498110D01*
X118252560Y-153750000D01*
X118252560Y-154950000D01*
X118296838Y-155185317D01*
X118435910Y-155401441D01*
X118648110Y-155546431D01*
X118900000Y-155597440D01*
X119800000Y-155597440D01*
X120035317Y-155553162D01*
X120251441Y-155414090D01*
X120396431Y-155201890D01*
X120447440Y-154950000D01*
X120447440Y-153750000D01*
X120403162Y-153514683D01*
X120264090Y-153298559D01*
X120185000Y-153244519D01*
X120185000Y-152456844D01*
X120251441Y-152414090D01*
X120396431Y-152201890D01*
X120435128Y-152010797D01*
X120540434Y-151940434D01*
X121552560Y-150928308D01*
X121552560Y-151950000D01*
X121596838Y-152185317D01*
X121735910Y-152401441D01*
X121815000Y-152455481D01*
X121815000Y-153350000D01*
X121878561Y-153669541D01*
X121997705Y-153847852D01*
X122059566Y-153940434D01*
X123052560Y-154933428D01*
X123052560Y-155000000D01*
X123096838Y-155235317D01*
X123235910Y-155451441D01*
X123448110Y-155596431D01*
X123700000Y-155647440D01*
X124900000Y-155647440D01*
X125135317Y-155603162D01*
X125351441Y-155464090D01*
X125399134Y-155394289D01*
X125435910Y-155451441D01*
X125648110Y-155596431D01*
X125900000Y-155647440D01*
X127100000Y-155647440D01*
X127335317Y-155603162D01*
X127509932Y-155490800D01*
X127780100Y-155760968D01*
X127674685Y-155740000D01*
X127325315Y-155740000D01*
X126900536Y-155824494D01*
X126540426Y-156065111D01*
X126299809Y-156425221D01*
X126215315Y-156850000D01*
X126299809Y-157274779D01*
X126540426Y-157634889D01*
X126900536Y-157875506D01*
X127325315Y-157960000D01*
X127674685Y-157960000D01*
X127985542Y-157898167D01*
X128035910Y-157976441D01*
X128248110Y-158121431D01*
X128339806Y-158140000D01*
X128123691Y-158140000D01*
X127890302Y-158236673D01*
X127711673Y-158415301D01*
X127615000Y-158648690D01*
X127615000Y-159264250D01*
X127773750Y-159423000D01*
X128873000Y-159423000D01*
X128873000Y-159403000D01*
X129127000Y-159403000D01*
X129127000Y-159423000D01*
X130873000Y-159423000D01*
X130873000Y-159403000D01*
X131127000Y-159403000D01*
X131127000Y-159423000D01*
X132226250Y-159423000D01*
X132385000Y-159264250D01*
X132385000Y-158648690D01*
X132288327Y-158415301D01*
X132109698Y-158236673D01*
X131876309Y-158140000D01*
X131674593Y-158140000D01*
X131859698Y-158063327D01*
X132023134Y-157899892D01*
X132325315Y-157960000D01*
X132674685Y-157960000D01*
X133099464Y-157875506D01*
X133459574Y-157634889D01*
X133700191Y-157274779D01*
X133784685Y-156850000D01*
X133700191Y-156425221D01*
X133459574Y-156065111D01*
X133099464Y-155824494D01*
X132674685Y-155740000D01*
X132325315Y-155740000D01*
X132023134Y-155800108D01*
X131859698Y-155636673D01*
X131626309Y-155540000D01*
X131558750Y-155540000D01*
X131400000Y-155698750D01*
X131400000Y-155857067D01*
X131314090Y-155723559D01*
X131101890Y-155578569D01*
X131074215Y-155572965D01*
X131041250Y-155540000D01*
X130973691Y-155540000D01*
X130953247Y-155548468D01*
X130850000Y-155527560D01*
X130760000Y-155527560D01*
X130760000Y-154297440D01*
X131400000Y-154297440D01*
X131635317Y-154253162D01*
X131851441Y-154114090D01*
X131996431Y-153901890D01*
X132047440Y-153650000D01*
X132047440Y-152150000D01*
X132003162Y-151914683D01*
X131864090Y-151698559D01*
X131651890Y-151553569D01*
X131638803Y-151550919D01*
X131851441Y-151414090D01*
X131996431Y-151201890D01*
X132047440Y-150950000D01*
X132047440Y-149872242D01*
X132112599Y-149937401D01*
X132359161Y-150102148D01*
X132650000Y-150160000D01*
X132793156Y-150160000D01*
X132835910Y-150226441D01*
X133048110Y-150371431D01*
X133300000Y-150422440D01*
X134500000Y-150422440D01*
X134735317Y-150378162D01*
X134838646Y-150311671D01*
X134840302Y-150313327D01*
X135073691Y-150410000D01*
X135514250Y-150410000D01*
X135673000Y-150251250D01*
X135673000Y-149527000D01*
X135927000Y-149527000D01*
X135927000Y-150251250D01*
X136085750Y-150410000D01*
X136526309Y-150410000D01*
X136759698Y-150313327D01*
X136938327Y-150134699D01*
X137035000Y-149901310D01*
X137035000Y-149685750D01*
X136876250Y-149527000D01*
X135927000Y-149527000D01*
X135673000Y-149527000D01*
X135653000Y-149527000D01*
X135653000Y-149273000D01*
X135673000Y-149273000D01*
X135673000Y-148548750D01*
X135927000Y-148548750D01*
X135927000Y-149273000D01*
X136876250Y-149273000D01*
X137035000Y-149114250D01*
X137035000Y-148898690D01*
X136938327Y-148665301D01*
X136759698Y-148486673D01*
X136526309Y-148390000D01*
X136085750Y-148390000D01*
X135927000Y-148548750D01*
X135673000Y-148548750D01*
X135514250Y-148390000D01*
X135073691Y-148390000D01*
X134840302Y-148486673D01*
X134838932Y-148488043D01*
X134751890Y-148428569D01*
X134500000Y-148377560D01*
X133300000Y-148377560D01*
X133064683Y-148421838D01*
X132871165Y-148546363D01*
X132460000Y-148135198D01*
X132460000Y-147247440D01*
X132775000Y-147247440D01*
X132904589Y-147223056D01*
X133025000Y-147247440D01*
X133165132Y-147247440D01*
X133164838Y-147585167D01*
X133306883Y-147928943D01*
X133569673Y-148192192D01*
X133913201Y-148334838D01*
X134285167Y-148335162D01*
X134628943Y-148193117D01*
X134659552Y-148162561D01*
X134713201Y-148184838D01*
X135085167Y-148185162D01*
X135428943Y-148043117D01*
X135692192Y-147780327D01*
X135834838Y-147436799D01*
X135835003Y-147247440D01*
X135975000Y-147247440D01*
X136210317Y-147203162D01*
X136426441Y-147064090D01*
X136571431Y-146851890D01*
X136591074Y-146754888D01*
X136663201Y-146784838D01*
X137035167Y-146785162D01*
X137378943Y-146643117D01*
X137642192Y-146380327D01*
X137784838Y-146036799D01*
X137785162Y-145664833D01*
X137643117Y-145321057D01*
X137394933Y-145072440D01*
X138150000Y-145072440D01*
X138385317Y-145028162D01*
X138601441Y-144889090D01*
X138746431Y-144676890D01*
X138797440Y-144425000D01*
X138797440Y-143875000D01*
X138773056Y-143745411D01*
X138797440Y-143625000D01*
X138797440Y-143385000D01*
X138854132Y-143385000D01*
X139765000Y-144295868D01*
X139765000Y-147500000D01*
X139828561Y-147819541D01*
X140009566Y-148090434D01*
X142509566Y-150590434D01*
X142780459Y-150771439D01*
X143100000Y-150835000D01*
X146252560Y-150835000D01*
X146252560Y-151100000D01*
X146296838Y-151335317D01*
X146435910Y-151551441D01*
X146648110Y-151696431D01*
X146900000Y-151747440D01*
X149100000Y-151747440D01*
X149335317Y-151703162D01*
X149551441Y-151564090D01*
X149696431Y-151351890D01*
X149747440Y-151100000D01*
X149747440Y-148900000D01*
X149703162Y-148664683D01*
X149564090Y-148448559D01*
X149351890Y-148303569D01*
X149100000Y-148252560D01*
X146900000Y-148252560D01*
X146664683Y-148296838D01*
X146448559Y-148435910D01*
X146303569Y-148648110D01*
X146252560Y-148900000D01*
X146252560Y-149165000D01*
X143445868Y-149165000D01*
X141435000Y-147154132D01*
X141435000Y-145453310D01*
X141498110Y-145496431D01*
X141750000Y-145547440D01*
X144150000Y-145547440D01*
X144385317Y-145503162D01*
X144601441Y-145364090D01*
X144746431Y-145151890D01*
X144797440Y-144900000D01*
X144797440Y-143910000D01*
X145907666Y-143910000D01*
X145921838Y-143985317D01*
X146060910Y-144201441D01*
X146273110Y-144346431D01*
X146525000Y-144397440D01*
X147275000Y-144397440D01*
X147510317Y-144353162D01*
X147726441Y-144214090D01*
X147871431Y-144001890D01*
X147922440Y-143750000D01*
X147922440Y-142550000D01*
X147878162Y-142314683D01*
X147811671Y-142211354D01*
X147813327Y-142209698D01*
X147910000Y-141976309D01*
X147910000Y-141535750D01*
X147751250Y-141377000D01*
X147027000Y-141377000D01*
X147027000Y-141397000D01*
X146773000Y-141397000D01*
X146773000Y-141377000D01*
X146048750Y-141377000D01*
X145890000Y-141535750D01*
X145890000Y-141976309D01*
X145986673Y-142209698D01*
X145988043Y-142211068D01*
X145928569Y-142298110D01*
X145909961Y-142390000D01*
X144797440Y-142390000D01*
X144797440Y-141400000D01*
X144753162Y-141164683D01*
X144614090Y-140948559D01*
X144401890Y-140803569D01*
X144150000Y-140752560D01*
X141750000Y-140752560D01*
X141646784Y-140771982D01*
X141424802Y-140550000D01*
X141451111Y-140523691D01*
X145890000Y-140523691D01*
X145890000Y-140964250D01*
X146048750Y-141123000D01*
X146773000Y-141123000D01*
X146773000Y-140173750D01*
X147027000Y-140173750D01*
X147027000Y-141123000D01*
X147751250Y-141123000D01*
X147910000Y-140964250D01*
X147910000Y-140523691D01*
X147813327Y-140290302D01*
X147634699Y-140111673D01*
X147401310Y-140015000D01*
X147185750Y-140015000D01*
X147027000Y-140173750D01*
X146773000Y-140173750D01*
X146614250Y-140015000D01*
X146398690Y-140015000D01*
X146165301Y-140111673D01*
X145986673Y-140290302D01*
X145890000Y-140523691D01*
X141451111Y-140523691D01*
X141648015Y-140326787D01*
X141750000Y-140347440D01*
X144150000Y-140347440D01*
X144385317Y-140303162D01*
X144601441Y-140164090D01*
X144746431Y-139951890D01*
X144797440Y-139700000D01*
X144797440Y-138710000D01*
X145907666Y-138710000D01*
X145921838Y-138785317D01*
X146060910Y-139001441D01*
X146273110Y-139146431D01*
X146525000Y-139197440D01*
X147275000Y-139197440D01*
X147510317Y-139153162D01*
X147726441Y-139014090D01*
X147871431Y-138801890D01*
X147922440Y-138550000D01*
X147922440Y-137350000D01*
X147878162Y-137114683D01*
X147811671Y-137011354D01*
X147813327Y-137009698D01*
X147910000Y-136776309D01*
X147910000Y-136335750D01*
X147751250Y-136177000D01*
X147027000Y-136177000D01*
X147027000Y-136197000D01*
X146773000Y-136197000D01*
X146773000Y-136177000D01*
X146048750Y-136177000D01*
X145890000Y-136335750D01*
X145890000Y-136776309D01*
X145986673Y-137009698D01*
X145988043Y-137011068D01*
X145928569Y-137098110D01*
X145909961Y-137190000D01*
X144797440Y-137190000D01*
X144797440Y-136200000D01*
X144753162Y-135964683D01*
X144614090Y-135748559D01*
X144401890Y-135603569D01*
X144150000Y-135552560D01*
X141750000Y-135552560D01*
X141514683Y-135596838D01*
X141298559Y-135735910D01*
X141153569Y-135948110D01*
X141102560Y-136200000D01*
X141102560Y-138722638D01*
X140435198Y-139390000D01*
X138797440Y-139390000D01*
X138797440Y-139075000D01*
X138773056Y-138945411D01*
X138797440Y-138825000D01*
X138797440Y-138275000D01*
X138773056Y-138145411D01*
X138797440Y-138025000D01*
X138797440Y-137475000D01*
X138773056Y-137345411D01*
X138797440Y-137225000D01*
X138797440Y-136675000D01*
X138773056Y-136545411D01*
X138797440Y-136425000D01*
X138797440Y-135875000D01*
X138753162Y-135639683D01*
X138614090Y-135423559D01*
X138467929Y-135323691D01*
X145890000Y-135323691D01*
X145890000Y-135764250D01*
X146048750Y-135923000D01*
X146773000Y-135923000D01*
X146773000Y-134973750D01*
X147027000Y-134973750D01*
X147027000Y-135923000D01*
X147751250Y-135923000D01*
X147910000Y-135764250D01*
X147910000Y-135323691D01*
X147813327Y-135090302D01*
X147634699Y-134911673D01*
X147401310Y-134815000D01*
X147185750Y-134815000D01*
X147027000Y-134973750D01*
X146773000Y-134973750D01*
X146614250Y-134815000D01*
X146398690Y-134815000D01*
X146165301Y-134911673D01*
X145986673Y-135090302D01*
X145890000Y-135323691D01*
X138467929Y-135323691D01*
X138401890Y-135278569D01*
X138150000Y-135227560D01*
X136650000Y-135227560D01*
X136610000Y-135235087D01*
X136610000Y-134735750D01*
X136451250Y-134577000D01*
X135827000Y-134577000D01*
X135827000Y-134597000D01*
X135822440Y-134597000D01*
X135822440Y-134303000D01*
X135827000Y-134303000D01*
X135827000Y-134323000D01*
X136451250Y-134323000D01*
X136610000Y-134164250D01*
X136610000Y-133573691D01*
X136513327Y-133340302D01*
X136483025Y-133310000D01*
X136764250Y-133310000D01*
X136923000Y-133151250D01*
X136923000Y-132427000D01*
X137177000Y-132427000D01*
X137177000Y-133151250D01*
X137335750Y-133310000D01*
X137776309Y-133310000D01*
X138009698Y-133213327D01*
X138188327Y-133034699D01*
X138285000Y-132801310D01*
X138285000Y-132585750D01*
X138126250Y-132427000D01*
X137177000Y-132427000D01*
X136923000Y-132427000D01*
X136903000Y-132427000D01*
X136903000Y-132173000D01*
X136923000Y-132173000D01*
X136923000Y-130877000D01*
X137177000Y-130877000D01*
X137177000Y-132173000D01*
X138126250Y-132173000D01*
X138285000Y-132014250D01*
X138285000Y-131798690D01*
X138188327Y-131565301D01*
X138148026Y-131525000D01*
X138188327Y-131484699D01*
X138285000Y-131251310D01*
X138285000Y-131035750D01*
X138126250Y-130877000D01*
X137177000Y-130877000D01*
X136923000Y-130877000D01*
X136903000Y-130877000D01*
X136903000Y-130623000D01*
X136923000Y-130623000D01*
X136923000Y-129898750D01*
X137177000Y-129898750D01*
X137177000Y-130623000D01*
X138126250Y-130623000D01*
X138285000Y-130464250D01*
X138285000Y-130248690D01*
X138188327Y-130015301D01*
X138009698Y-129836673D01*
X137776309Y-129740000D01*
X137335750Y-129740000D01*
X137177000Y-129898750D01*
X136923000Y-129898750D01*
X136764250Y-129740000D01*
X136323691Y-129740000D01*
X136090302Y-129836673D01*
X136088932Y-129838043D01*
X136001890Y-129778569D01*
X135750000Y-129727560D01*
X135735000Y-129727560D01*
X135735000Y-111935167D01*
X145914838Y-111935167D01*
X146056883Y-112278943D01*
X146319673Y-112542192D01*
X146398452Y-112574904D01*
X146321057Y-112606883D01*
X146057808Y-112869673D01*
X145915162Y-113213201D01*
X145914838Y-113585167D01*
X146056883Y-113928943D01*
X146319673Y-114192192D01*
X146663201Y-114334838D01*
X146710077Y-114334879D01*
X148390000Y-116014802D01*
X148390000Y-126637537D01*
X148357808Y-126669673D01*
X148215162Y-127013201D01*
X148214838Y-127385167D01*
X148356883Y-127728943D01*
X148619673Y-127992192D01*
X148963201Y-128134838D01*
X149090000Y-128134948D01*
X149090000Y-128837537D01*
X149057808Y-128869673D01*
X148915162Y-129213201D01*
X148914838Y-129585167D01*
X149056883Y-129928943D01*
X149319673Y-130192192D01*
X149663201Y-130334838D01*
X150035167Y-130335162D01*
X150378943Y-130193117D01*
X150642192Y-129930327D01*
X150784838Y-129586799D01*
X150785162Y-129214833D01*
X150643117Y-128871057D01*
X150610000Y-128837882D01*
X150610000Y-128141985D01*
X150713201Y-128184838D01*
X151085167Y-128185162D01*
X151240000Y-128121186D01*
X151240000Y-148436753D01*
X151018485Y-148528281D01*
X150529996Y-149015918D01*
X150265301Y-149653373D01*
X150264699Y-150343599D01*
X150528281Y-150981515D01*
X151015918Y-151470004D01*
X151653373Y-151734699D01*
X152343599Y-151735301D01*
X152981515Y-151471719D01*
X153470004Y-150984082D01*
X153734699Y-150346627D01*
X153734701Y-150343599D01*
X154264699Y-150343599D01*
X154528281Y-150981515D01*
X155015918Y-151470004D01*
X155653373Y-151734699D01*
X156343599Y-151735301D01*
X156981515Y-151471719D01*
X157470004Y-150984082D01*
X157734699Y-150346627D01*
X157734701Y-150343599D01*
X158264699Y-150343599D01*
X158528281Y-150981515D01*
X159015918Y-151470004D01*
X159653373Y-151734699D01*
X160343599Y-151735301D01*
X160981515Y-151471719D01*
X161470004Y-150984082D01*
X161734699Y-150346627D01*
X161734701Y-150343599D01*
X164764699Y-150343599D01*
X165028281Y-150981515D01*
X165515918Y-151470004D01*
X166153373Y-151734699D01*
X166843599Y-151735301D01*
X167481515Y-151471719D01*
X167970004Y-150984082D01*
X168234699Y-150346627D01*
X168234701Y-150343599D01*
X168764699Y-150343599D01*
X169028281Y-150981515D01*
X169515918Y-151470004D01*
X170153373Y-151734699D01*
X170843599Y-151735301D01*
X171481515Y-151471719D01*
X171728797Y-151224868D01*
X173454737Y-151224868D01*
X173565641Y-151502099D01*
X174211593Y-151745323D01*
X174901453Y-151722836D01*
X175434359Y-151502099D01*
X175545263Y-151224868D01*
X174500000Y-150179605D01*
X173454737Y-151224868D01*
X171728797Y-151224868D01*
X171970004Y-150984082D01*
X172234699Y-150346627D01*
X172235252Y-149711593D01*
X172754677Y-149711593D01*
X172777164Y-150401453D01*
X172997901Y-150934359D01*
X173275132Y-151045263D01*
X174320395Y-150000000D01*
X174679605Y-150000000D01*
X175724868Y-151045263D01*
X176002099Y-150934359D01*
X176245323Y-150288407D01*
X176222836Y-149598547D01*
X176002099Y-149065641D01*
X175724868Y-148954737D01*
X174679605Y-150000000D01*
X174320395Y-150000000D01*
X173275132Y-148954737D01*
X172997901Y-149065641D01*
X172754677Y-149711593D01*
X172235252Y-149711593D01*
X172235301Y-149656401D01*
X171971719Y-149018485D01*
X171728791Y-148775132D01*
X173454737Y-148775132D01*
X174500000Y-149820395D01*
X175545263Y-148775132D01*
X175434359Y-148497901D01*
X174788407Y-148254677D01*
X174098547Y-148277164D01*
X173565641Y-148497901D01*
X173454737Y-148775132D01*
X171728791Y-148775132D01*
X171484082Y-148529996D01*
X170846627Y-148265301D01*
X170156401Y-148264699D01*
X169518485Y-148528281D01*
X169029996Y-149015918D01*
X168765301Y-149653373D01*
X168764699Y-150343599D01*
X168234701Y-150343599D01*
X168235301Y-149656401D01*
X167971719Y-149018485D01*
X167484082Y-148529996D01*
X166846627Y-148265301D01*
X166156401Y-148264699D01*
X165518485Y-148528281D01*
X165029996Y-149015918D01*
X164765301Y-149653373D01*
X164764699Y-150343599D01*
X161734701Y-150343599D01*
X161735301Y-149656401D01*
X161471719Y-149018485D01*
X160984082Y-148529996D01*
X160760000Y-148436949D01*
X160760000Y-129062463D01*
X160792192Y-129030327D01*
X160934838Y-128686799D01*
X160935162Y-128314833D01*
X160793117Y-127971057D01*
X160530327Y-127707808D01*
X160186799Y-127565162D01*
X159814833Y-127564838D01*
X159471057Y-127706883D01*
X159207808Y-127969673D01*
X159065162Y-128313201D01*
X159064838Y-128685167D01*
X159206883Y-129028943D01*
X159240000Y-129062118D01*
X159240000Y-148436753D01*
X159018485Y-148528281D01*
X158529996Y-149015918D01*
X158265301Y-149653373D01*
X158264699Y-150343599D01*
X157734701Y-150343599D01*
X157735301Y-149656401D01*
X157471719Y-149018485D01*
X156984082Y-148529996D01*
X156760000Y-148436949D01*
X156760000Y-130962463D01*
X156792192Y-130930327D01*
X156934838Y-130586799D01*
X156935162Y-130214833D01*
X156793117Y-129871057D01*
X156530327Y-129607808D01*
X156186799Y-129465162D01*
X155814833Y-129464838D01*
X155471057Y-129606883D01*
X155207808Y-129869673D01*
X155065162Y-130213201D01*
X155064838Y-130585167D01*
X155206883Y-130928943D01*
X155240000Y-130962118D01*
X155240000Y-148436753D01*
X155018485Y-148528281D01*
X154529996Y-149015918D01*
X154265301Y-149653373D01*
X154264699Y-150343599D01*
X153734701Y-150343599D01*
X153735301Y-149656401D01*
X153471719Y-149018485D01*
X152984082Y-148529996D01*
X152760000Y-148436949D01*
X152760000Y-124112463D01*
X152792192Y-124080327D01*
X152934838Y-123736799D01*
X152935162Y-123364833D01*
X152793117Y-123021057D01*
X152530327Y-122757808D01*
X152186799Y-122615162D01*
X151814833Y-122614838D01*
X151660000Y-122678814D01*
X151660000Y-115800000D01*
X151602148Y-115509161D01*
X151437401Y-115262599D01*
X147785122Y-111610320D01*
X147785162Y-111564833D01*
X147643117Y-111221057D01*
X147380327Y-110957808D01*
X147036799Y-110815162D01*
X146664833Y-110814838D01*
X146321057Y-110956883D01*
X146057808Y-111219673D01*
X145915162Y-111563201D01*
X145914838Y-111935167D01*
X135735000Y-111935167D01*
X135735000Y-106550000D01*
X135671440Y-106230460D01*
X135490434Y-105959566D01*
X126395000Y-96864132D01*
X126395000Y-91222841D01*
X126610054Y-91079147D01*
X126837702Y-90738447D01*
X126904817Y-90881358D01*
X127333076Y-91271645D01*
X127743110Y-91441476D01*
X127973000Y-91320155D01*
X127973000Y-90127000D01*
X128227000Y-90127000D01*
X128227000Y-91320155D01*
X128456890Y-91441476D01*
X128866924Y-91271645D01*
X129295183Y-90881358D01*
X129541486Y-90356892D01*
X129420819Y-90127000D01*
X128227000Y-90127000D01*
X127973000Y-90127000D01*
X127953000Y-90127000D01*
X127953000Y-89873000D01*
X127973000Y-89873000D01*
X127973000Y-88679845D01*
X128227000Y-88679845D01*
X128227000Y-89873000D01*
X129420819Y-89873000D01*
X129541486Y-89643108D01*
X129295183Y-89118642D01*
X128866924Y-88728355D01*
X128456890Y-88558524D01*
X128227000Y-88679845D01*
X127973000Y-88679845D01*
X127743110Y-88558524D01*
X127333076Y-88728355D01*
X126904817Y-89118642D01*
X126837702Y-89261553D01*
X126610054Y-88920853D01*
X126128285Y-88598946D01*
X125560000Y-88485907D01*
X125232015Y-88551147D01*
X124390868Y-87710000D01*
X178290000Y-87710000D01*
X178290000Y-160290000D01*
X178290000Y-160290000D01*
G37*
X178290000Y-160290000D02*
X134503941Y-160290000D01*
X134580000Y-159907624D01*
X134580000Y-159192376D01*
X134497790Y-158779078D01*
X134263675Y-158428701D01*
X133913298Y-158194586D01*
X133500000Y-158112376D01*
X133086702Y-158194586D01*
X132736325Y-158428701D01*
X132502210Y-158779078D01*
X132420000Y-159192376D01*
X132420000Y-159907624D01*
X132496059Y-160290000D01*
X132385000Y-160290000D01*
X132385000Y-159835750D01*
X132226250Y-159677000D01*
X131127000Y-159677000D01*
X131127000Y-159697000D01*
X130873000Y-159697000D01*
X130873000Y-159677000D01*
X129127000Y-159677000D01*
X129127000Y-159697000D01*
X128873000Y-159697000D01*
X128873000Y-159677000D01*
X127773750Y-159677000D01*
X127615000Y-159835750D01*
X127615000Y-160290000D01*
X127503941Y-160290000D01*
X127580000Y-159907624D01*
X127580000Y-159192376D01*
X127497790Y-158779078D01*
X127263675Y-158428701D01*
X126913298Y-158194586D01*
X126500000Y-158112376D01*
X126086702Y-158194586D01*
X125736325Y-158428701D01*
X125502210Y-158779078D01*
X125420000Y-159192376D01*
X125420000Y-159907624D01*
X125496059Y-160290000D01*
X113276229Y-160290000D01*
X113369541Y-160271439D01*
X113640434Y-160090434D01*
X116540434Y-157190434D01*
X116714143Y-156930460D01*
X116721439Y-156919541D01*
X116785000Y-156600000D01*
X116785000Y-155521192D01*
X116951441Y-155414090D01*
X117096431Y-155201890D01*
X117147440Y-154950000D01*
X117147440Y-153750000D01*
X117103162Y-153514683D01*
X116964090Y-153298559D01*
X116751890Y-153153569D01*
X116500000Y-153102560D01*
X115600000Y-153102560D01*
X115364683Y-153146838D01*
X115148559Y-153285910D01*
X115003569Y-153498110D01*
X114952560Y-153750000D01*
X114952560Y-154950000D01*
X114996838Y-155185317D01*
X115115000Y-155368946D01*
X115115000Y-156254132D01*
X112704132Y-158665000D01*
X93395868Y-158665000D01*
X93295000Y-158564132D01*
X93295000Y-158213187D01*
X93539147Y-158050054D01*
X93539971Y-158048821D01*
X93546838Y-158085317D01*
X93685910Y-158301441D01*
X93898110Y-158446431D01*
X94150000Y-158497440D01*
X95850000Y-158497440D01*
X96085317Y-158453162D01*
X96301441Y-158314090D01*
X96446431Y-158101890D01*
X96497440Y-157850000D01*
X96497440Y-157552532D01*
X102977073Y-157552532D01*
X103075736Y-157819387D01*
X103685461Y-158045908D01*
X104335460Y-158021856D01*
X104824264Y-157819387D01*
X104922927Y-157552532D01*
X109477073Y-157552532D01*
X109575736Y-157819387D01*
X110185461Y-158045908D01*
X110835460Y-158021856D01*
X111324264Y-157819387D01*
X111422927Y-157552532D01*
X110450000Y-156579605D01*
X109477073Y-157552532D01*
X104922927Y-157552532D01*
X103950000Y-156579605D01*
X102977073Y-157552532D01*
X96497440Y-157552532D01*
X96497440Y-156150000D01*
X96494705Y-156135461D01*
X102304092Y-156135461D01*
X102328144Y-156785460D01*
X102530613Y-157274264D01*
X102797468Y-157372927D01*
X103770395Y-156400000D01*
X104129605Y-156400000D01*
X105102532Y-157372927D01*
X105369387Y-157274264D01*
X105595908Y-156664539D01*
X105576331Y-156135461D01*
X108804092Y-156135461D01*
X108828144Y-156785460D01*
X109030613Y-157274264D01*
X109297468Y-157372927D01*
X110270395Y-156400000D01*
X110629605Y-156400000D01*
X111602532Y-157372927D01*
X111869387Y-157274264D01*
X112095908Y-156664539D01*
X112071856Y-156014540D01*
X111869387Y-155525736D01*
X111602532Y-155427073D01*
X110629605Y-156400000D01*
X110270395Y-156400000D01*
X109297468Y-155427073D01*
X109030613Y-155525736D01*
X108804092Y-156135461D01*
X105576331Y-156135461D01*
X105571856Y-156014540D01*
X105369387Y-155525736D01*
X105102532Y-155427073D01*
X104129605Y-156400000D01*
X103770395Y-156400000D01*
X102797468Y-155427073D01*
X102530613Y-155525736D01*
X102304092Y-156135461D01*
X96494705Y-156135461D01*
X96453162Y-155914683D01*
X96314090Y-155698559D01*
X96101890Y-155553569D01*
X96034459Y-155539914D01*
X96079147Y-155510054D01*
X96254600Y-155247468D01*
X102977073Y-155247468D01*
X103950000Y-156220395D01*
X104922927Y-155247468D01*
X109477073Y-155247468D01*
X110450000Y-156220395D01*
X111422927Y-155247468D01*
X111324264Y-154980613D01*
X110714539Y-154754092D01*
X110064540Y-154778144D01*
X109575736Y-154980613D01*
X109477073Y-155247468D01*
X104922927Y-155247468D01*
X104824264Y-154980613D01*
X104214539Y-154754092D01*
X103564540Y-154778144D01*
X103075736Y-154980613D01*
X102977073Y-155247468D01*
X96254600Y-155247468D01*
X96401054Y-155028285D01*
X96514093Y-154460000D01*
X96401054Y-153891715D01*
X96079147Y-153409946D01*
X95749974Y-153190000D01*
X96079147Y-152970054D01*
X96401054Y-152488285D01*
X96453664Y-152223795D01*
X102314716Y-152223795D01*
X102563106Y-152824943D01*
X103022637Y-153285278D01*
X103623352Y-153534716D01*
X104273795Y-153535284D01*
X104874943Y-153286894D01*
X105335278Y-152827363D01*
X105584716Y-152226648D01*
X105585284Y-151576205D01*
X105336894Y-150975057D01*
X104877363Y-150514722D01*
X104276648Y-150265284D01*
X103626205Y-150264716D01*
X103025057Y-150513106D01*
X102564722Y-150972637D01*
X102315284Y-151573352D01*
X102314716Y-152223795D01*
X96453664Y-152223795D01*
X96514093Y-151920000D01*
X96401054Y-151351715D01*
X96079147Y-150869946D01*
X95974667Y-150800135D01*
X100164802Y-146610000D01*
X109382666Y-146610000D01*
X109396838Y-146685317D01*
X109535910Y-146901441D01*
X109605711Y-146949134D01*
X109548559Y-146985910D01*
X109403569Y-147198110D01*
X109352560Y-147450000D01*
X109352560Y-148650000D01*
X109396838Y-148885317D01*
X109535910Y-149101441D01*
X109690000Y-149206726D01*
X109690000Y-150444953D01*
X109525057Y-150513106D01*
X109064722Y-150972637D01*
X108815284Y-151573352D01*
X108814716Y-152223795D01*
X109063106Y-152824943D01*
X109522637Y-153285278D01*
X110123352Y-153534716D01*
X110773795Y-153535284D01*
X111374943Y-153286894D01*
X111835278Y-152827363D01*
X112084716Y-152226648D01*
X112085284Y-151576205D01*
X111836894Y-150975057D01*
X111377363Y-150514722D01*
X111210000Y-150445227D01*
X111210000Y-149205105D01*
X111351441Y-149114090D01*
X111496431Y-148901890D01*
X111547440Y-148650000D01*
X111547440Y-147450000D01*
X111503162Y-147214683D01*
X111364090Y-146998559D01*
X111294289Y-146950866D01*
X111351441Y-146914090D01*
X111496431Y-146701890D01*
X111515039Y-146610000D01*
X115982666Y-146610000D01*
X115996838Y-146685317D01*
X116135910Y-146901441D01*
X116205711Y-146949134D01*
X116148559Y-146985910D01*
X116003569Y-147198110D01*
X115952560Y-147450000D01*
X115952560Y-148650000D01*
X115996838Y-148885317D01*
X116135910Y-149101441D01*
X116215000Y-149155481D01*
X116215000Y-149700000D01*
X116278561Y-150019541D01*
X116399140Y-150200000D01*
X116459566Y-150290434D01*
X118109566Y-151940434D01*
X118271065Y-152048344D01*
X118296838Y-152185317D01*
X118435910Y-152401441D01*
X118515000Y-152455481D01*
X118515000Y-153243156D01*
X118448559Y-153285910D01*
X118303569Y-153498110D01*
X118252560Y-153750000D01*
X118252560Y-154950000D01*
X118296838Y-155185317D01*
X118435910Y-155401441D01*
X118648110Y-155546431D01*
X118900000Y-155597440D01*
X119800000Y-155597440D01*
X120035317Y-155553162D01*
X120251441Y-155414090D01*
X120396431Y-155201890D01*
X120447440Y-154950000D01*
X120447440Y-153750000D01*
X120403162Y-153514683D01*
X120264090Y-153298559D01*
X120185000Y-153244519D01*
X120185000Y-152456844D01*
X120251441Y-152414090D01*
X120396431Y-152201890D01*
X120435128Y-152010797D01*
X120540434Y-151940434D01*
X121552560Y-150928308D01*
X121552560Y-151950000D01*
X121596838Y-152185317D01*
X121735910Y-152401441D01*
X121815000Y-152455481D01*
X121815000Y-153350000D01*
X121878561Y-153669541D01*
X121997705Y-153847852D01*
X122059566Y-153940434D01*
X123052560Y-154933428D01*
X123052560Y-155000000D01*
X123096838Y-155235317D01*
X123235910Y-155451441D01*
X123448110Y-155596431D01*
X123700000Y-155647440D01*
X124900000Y-155647440D01*
X125135317Y-155603162D01*
X125351441Y-155464090D01*
X125399134Y-155394289D01*
X125435910Y-155451441D01*
X125648110Y-155596431D01*
X125900000Y-155647440D01*
X127100000Y-155647440D01*
X127335317Y-155603162D01*
X127509932Y-155490800D01*
X127780100Y-155760968D01*
X127674685Y-155740000D01*
X127325315Y-155740000D01*
X126900536Y-155824494D01*
X126540426Y-156065111D01*
X126299809Y-156425221D01*
X126215315Y-156850000D01*
X126299809Y-157274779D01*
X126540426Y-157634889D01*
X126900536Y-157875506D01*
X127325315Y-157960000D01*
X127674685Y-157960000D01*
X127985542Y-157898167D01*
X128035910Y-157976441D01*
X128248110Y-158121431D01*
X128339806Y-158140000D01*
X128123691Y-158140000D01*
X127890302Y-158236673D01*
X127711673Y-158415301D01*
X127615000Y-158648690D01*
X127615000Y-159264250D01*
X127773750Y-159423000D01*
X128873000Y-159423000D01*
X128873000Y-159403000D01*
X129127000Y-159403000D01*
X129127000Y-159423000D01*
X130873000Y-159423000D01*
X130873000Y-159403000D01*
X131127000Y-159403000D01*
X131127000Y-159423000D01*
X132226250Y-159423000D01*
X132385000Y-159264250D01*
X132385000Y-158648690D01*
X132288327Y-158415301D01*
X132109698Y-158236673D01*
X131876309Y-158140000D01*
X131674593Y-158140000D01*
X131859698Y-158063327D01*
X132023134Y-157899892D01*
X132325315Y-157960000D01*
X132674685Y-157960000D01*
X133099464Y-157875506D01*
X133459574Y-157634889D01*
X133700191Y-157274779D01*
X133784685Y-156850000D01*
X133700191Y-156425221D01*
X133459574Y-156065111D01*
X133099464Y-155824494D01*
X132674685Y-155740000D01*
X132325315Y-155740000D01*
X132023134Y-155800108D01*
X131859698Y-155636673D01*
X131626309Y-155540000D01*
X131558750Y-155540000D01*
X131400000Y-155698750D01*
X131400000Y-155857067D01*
X131314090Y-155723559D01*
X131101890Y-155578569D01*
X131074215Y-155572965D01*
X131041250Y-155540000D01*
X130973691Y-155540000D01*
X130953247Y-155548468D01*
X130850000Y-155527560D01*
X130760000Y-155527560D01*
X130760000Y-154297440D01*
X131400000Y-154297440D01*
X131635317Y-154253162D01*
X131851441Y-154114090D01*
X131996431Y-153901890D01*
X132047440Y-153650000D01*
X132047440Y-152150000D01*
X132003162Y-151914683D01*
X131864090Y-151698559D01*
X131651890Y-151553569D01*
X131638803Y-151550919D01*
X131851441Y-151414090D01*
X131996431Y-151201890D01*
X132047440Y-150950000D01*
X132047440Y-149872242D01*
X132112599Y-149937401D01*
X132359161Y-150102148D01*
X132650000Y-150160000D01*
X132793156Y-150160000D01*
X132835910Y-150226441D01*
X133048110Y-150371431D01*
X133300000Y-150422440D01*
X134500000Y-150422440D01*
X134735317Y-150378162D01*
X134838646Y-150311671D01*
X134840302Y-150313327D01*
X135073691Y-150410000D01*
X135514250Y-150410000D01*
X135673000Y-150251250D01*
X135673000Y-149527000D01*
X135927000Y-149527000D01*
X135927000Y-150251250D01*
X136085750Y-150410000D01*
X136526309Y-150410000D01*
X136759698Y-150313327D01*
X136938327Y-150134699D01*
X137035000Y-149901310D01*
X137035000Y-149685750D01*
X136876250Y-149527000D01*
X135927000Y-149527000D01*
X135673000Y-149527000D01*
X135653000Y-149527000D01*
X135653000Y-149273000D01*
X135673000Y-149273000D01*
X135673000Y-148548750D01*
X135927000Y-148548750D01*
X135927000Y-149273000D01*
X136876250Y-149273000D01*
X137035000Y-149114250D01*
X137035000Y-148898690D01*
X136938327Y-148665301D01*
X136759698Y-148486673D01*
X136526309Y-148390000D01*
X136085750Y-148390000D01*
X135927000Y-148548750D01*
X135673000Y-148548750D01*
X135514250Y-148390000D01*
X135073691Y-148390000D01*
X134840302Y-148486673D01*
X134838932Y-148488043D01*
X134751890Y-148428569D01*
X134500000Y-148377560D01*
X133300000Y-148377560D01*
X133064683Y-148421838D01*
X132871165Y-148546363D01*
X132460000Y-148135198D01*
X132460000Y-147247440D01*
X132775000Y-147247440D01*
X132904589Y-147223056D01*
X133025000Y-147247440D01*
X133165132Y-147247440D01*
X133164838Y-147585167D01*
X133306883Y-147928943D01*
X133569673Y-148192192D01*
X133913201Y-148334838D01*
X134285167Y-148335162D01*
X134628943Y-148193117D01*
X134659552Y-148162561D01*
X134713201Y-148184838D01*
X135085167Y-148185162D01*
X135428943Y-148043117D01*
X135692192Y-147780327D01*
X135834838Y-147436799D01*
X135835003Y-147247440D01*
X135975000Y-147247440D01*
X136210317Y-147203162D01*
X136426441Y-147064090D01*
X136571431Y-146851890D01*
X136591074Y-146754888D01*
X136663201Y-146784838D01*
X137035167Y-146785162D01*
X137378943Y-146643117D01*
X137642192Y-146380327D01*
X137784838Y-146036799D01*
X137785162Y-145664833D01*
X137643117Y-145321057D01*
X137394933Y-145072440D01*
X138150000Y-145072440D01*
X138385317Y-145028162D01*
X138601441Y-144889090D01*
X138746431Y-144676890D01*
X138797440Y-144425000D01*
X138797440Y-143875000D01*
X138773056Y-143745411D01*
X138797440Y-143625000D01*
X138797440Y-143385000D01*
X138854132Y-143385000D01*
X139765000Y-144295868D01*
X139765000Y-147500000D01*
X139828561Y-147819541D01*
X140009566Y-148090434D01*
X142509566Y-150590434D01*
X142780459Y-150771439D01*
X143100000Y-150835000D01*
X146252560Y-150835000D01*
X146252560Y-151100000D01*
X146296838Y-151335317D01*
X146435910Y-151551441D01*
X146648110Y-151696431D01*
X146900000Y-151747440D01*
X149100000Y-151747440D01*
X149335317Y-151703162D01*
X149551441Y-151564090D01*
X149696431Y-151351890D01*
X149747440Y-151100000D01*
X149747440Y-148900000D01*
X149703162Y-148664683D01*
X149564090Y-148448559D01*
X149351890Y-148303569D01*
X149100000Y-148252560D01*
X146900000Y-148252560D01*
X146664683Y-148296838D01*
X146448559Y-148435910D01*
X146303569Y-148648110D01*
X146252560Y-148900000D01*
X146252560Y-149165000D01*
X143445868Y-149165000D01*
X141435000Y-147154132D01*
X141435000Y-145453310D01*
X141498110Y-145496431D01*
X141750000Y-145547440D01*
X144150000Y-145547440D01*
X144385317Y-145503162D01*
X144601441Y-145364090D01*
X144746431Y-145151890D01*
X144797440Y-144900000D01*
X144797440Y-143910000D01*
X145907666Y-143910000D01*
X145921838Y-143985317D01*
X146060910Y-144201441D01*
X146273110Y-144346431D01*
X146525000Y-144397440D01*
X147275000Y-144397440D01*
X147510317Y-144353162D01*
X147726441Y-144214090D01*
X147871431Y-144001890D01*
X147922440Y-143750000D01*
X147922440Y-142550000D01*
X147878162Y-142314683D01*
X147811671Y-142211354D01*
X147813327Y-142209698D01*
X147910000Y-141976309D01*
X147910000Y-141535750D01*
X147751250Y-141377000D01*
X147027000Y-141377000D01*
X147027000Y-141397000D01*
X146773000Y-141397000D01*
X146773000Y-141377000D01*
X146048750Y-141377000D01*
X145890000Y-141535750D01*
X145890000Y-141976309D01*
X145986673Y-142209698D01*
X145988043Y-142211068D01*
X145928569Y-142298110D01*
X145909961Y-142390000D01*
X144797440Y-142390000D01*
X144797440Y-141400000D01*
X144753162Y-141164683D01*
X144614090Y-140948559D01*
X144401890Y-140803569D01*
X144150000Y-140752560D01*
X141750000Y-140752560D01*
X141646784Y-140771982D01*
X141424802Y-140550000D01*
X141451111Y-140523691D01*
X145890000Y-140523691D01*
X145890000Y-140964250D01*
X146048750Y-141123000D01*
X146773000Y-141123000D01*
X146773000Y-140173750D01*
X147027000Y-140173750D01*
X147027000Y-141123000D01*
X147751250Y-141123000D01*
X147910000Y-140964250D01*
X147910000Y-140523691D01*
X147813327Y-140290302D01*
X147634699Y-140111673D01*
X147401310Y-140015000D01*
X147185750Y-140015000D01*
X147027000Y-140173750D01*
X146773000Y-140173750D01*
X146614250Y-140015000D01*
X146398690Y-140015000D01*
X146165301Y-140111673D01*
X145986673Y-140290302D01*
X145890000Y-140523691D01*
X141451111Y-140523691D01*
X141648015Y-140326787D01*
X141750000Y-140347440D01*
X144150000Y-140347440D01*
X144385317Y-140303162D01*
X144601441Y-140164090D01*
X144746431Y-139951890D01*
X144797440Y-139700000D01*
X144797440Y-138710000D01*
X145907666Y-138710000D01*
X145921838Y-138785317D01*
X146060910Y-139001441D01*
X146273110Y-139146431D01*
X146525000Y-139197440D01*
X147275000Y-139197440D01*
X147510317Y-139153162D01*
X147726441Y-139014090D01*
X147871431Y-138801890D01*
X147922440Y-138550000D01*
X147922440Y-137350000D01*
X147878162Y-137114683D01*
X147811671Y-137011354D01*
X147813327Y-137009698D01*
X147910000Y-136776309D01*
X147910000Y-136335750D01*
X147751250Y-136177000D01*
X147027000Y-136177000D01*
X147027000Y-136197000D01*
X146773000Y-136197000D01*
X146773000Y-136177000D01*
X146048750Y-136177000D01*
X145890000Y-136335750D01*
X145890000Y-136776309D01*
X145986673Y-137009698D01*
X145988043Y-137011068D01*
X145928569Y-137098110D01*
X145909961Y-137190000D01*
X144797440Y-137190000D01*
X144797440Y-136200000D01*
X144753162Y-135964683D01*
X144614090Y-135748559D01*
X144401890Y-135603569D01*
X144150000Y-135552560D01*
X141750000Y-135552560D01*
X141514683Y-135596838D01*
X141298559Y-135735910D01*
X141153569Y-135948110D01*
X141102560Y-136200000D01*
X141102560Y-138722638D01*
X140435198Y-139390000D01*
X138797440Y-139390000D01*
X138797440Y-139075000D01*
X138773056Y-138945411D01*
X138797440Y-138825000D01*
X138797440Y-138275000D01*
X138773056Y-138145411D01*
X138797440Y-138025000D01*
X138797440Y-137475000D01*
X138773056Y-137345411D01*
X138797440Y-137225000D01*
X138797440Y-136675000D01*
X138773056Y-136545411D01*
X138797440Y-136425000D01*
X138797440Y-135875000D01*
X138753162Y-135639683D01*
X138614090Y-135423559D01*
X138467929Y-135323691D01*
X145890000Y-135323691D01*
X145890000Y-135764250D01*
X146048750Y-135923000D01*
X146773000Y-135923000D01*
X146773000Y-134973750D01*
X147027000Y-134973750D01*
X147027000Y-135923000D01*
X147751250Y-135923000D01*
X147910000Y-135764250D01*
X147910000Y-135323691D01*
X147813327Y-135090302D01*
X147634699Y-134911673D01*
X147401310Y-134815000D01*
X147185750Y-134815000D01*
X147027000Y-134973750D01*
X146773000Y-134973750D01*
X146614250Y-134815000D01*
X146398690Y-134815000D01*
X146165301Y-134911673D01*
X145986673Y-135090302D01*
X145890000Y-135323691D01*
X138467929Y-135323691D01*
X138401890Y-135278569D01*
X138150000Y-135227560D01*
X136650000Y-135227560D01*
X136610000Y-135235087D01*
X136610000Y-134735750D01*
X136451250Y-134577000D01*
X135827000Y-134577000D01*
X135827000Y-134597000D01*
X135822440Y-134597000D01*
X135822440Y-134303000D01*
X135827000Y-134303000D01*
X135827000Y-134323000D01*
X136451250Y-134323000D01*
X136610000Y-134164250D01*
X136610000Y-133573691D01*
X136513327Y-133340302D01*
X136483025Y-133310000D01*
X136764250Y-133310000D01*
X136923000Y-133151250D01*
X136923000Y-132427000D01*
X137177000Y-132427000D01*
X137177000Y-133151250D01*
X137335750Y-133310000D01*
X137776309Y-133310000D01*
X138009698Y-133213327D01*
X138188327Y-133034699D01*
X138285000Y-132801310D01*
X138285000Y-132585750D01*
X138126250Y-132427000D01*
X137177000Y-132427000D01*
X136923000Y-132427000D01*
X136903000Y-132427000D01*
X136903000Y-132173000D01*
X136923000Y-132173000D01*
X136923000Y-130877000D01*
X137177000Y-130877000D01*
X137177000Y-132173000D01*
X138126250Y-132173000D01*
X138285000Y-132014250D01*
X138285000Y-131798690D01*
X138188327Y-131565301D01*
X138148026Y-131525000D01*
X138188327Y-131484699D01*
X138285000Y-131251310D01*
X138285000Y-131035750D01*
X138126250Y-130877000D01*
X137177000Y-130877000D01*
X136923000Y-130877000D01*
X136903000Y-130877000D01*
X136903000Y-130623000D01*
X136923000Y-130623000D01*
X136923000Y-129898750D01*
X137177000Y-129898750D01*
X137177000Y-130623000D01*
X138126250Y-130623000D01*
X138285000Y-130464250D01*
X138285000Y-130248690D01*
X138188327Y-130015301D01*
X138009698Y-129836673D01*
X137776309Y-129740000D01*
X137335750Y-129740000D01*
X137177000Y-129898750D01*
X136923000Y-129898750D01*
X136764250Y-129740000D01*
X136323691Y-129740000D01*
X136090302Y-129836673D01*
X136088932Y-129838043D01*
X136001890Y-129778569D01*
X135750000Y-129727560D01*
X135735000Y-129727560D01*
X135735000Y-111935167D01*
X145914838Y-111935167D01*
X146056883Y-112278943D01*
X146319673Y-112542192D01*
X146398452Y-112574904D01*
X146321057Y-112606883D01*
X146057808Y-112869673D01*
X145915162Y-113213201D01*
X145914838Y-113585167D01*
X146056883Y-113928943D01*
X146319673Y-114192192D01*
X146663201Y-114334838D01*
X146710077Y-114334879D01*
X148390000Y-116014802D01*
X148390000Y-126637537D01*
X148357808Y-126669673D01*
X148215162Y-127013201D01*
X148214838Y-127385167D01*
X148356883Y-127728943D01*
X148619673Y-127992192D01*
X148963201Y-128134838D01*
X149090000Y-128134948D01*
X149090000Y-128837537D01*
X149057808Y-128869673D01*
X148915162Y-129213201D01*
X148914838Y-129585167D01*
X149056883Y-129928943D01*
X149319673Y-130192192D01*
X149663201Y-130334838D01*
X150035167Y-130335162D01*
X150378943Y-130193117D01*
X150642192Y-129930327D01*
X150784838Y-129586799D01*
X150785162Y-129214833D01*
X150643117Y-128871057D01*
X150610000Y-128837882D01*
X150610000Y-128141985D01*
X150713201Y-128184838D01*
X151085167Y-128185162D01*
X151240000Y-128121186D01*
X151240000Y-148436753D01*
X151018485Y-148528281D01*
X150529996Y-149015918D01*
X150265301Y-149653373D01*
X150264699Y-150343599D01*
X150528281Y-150981515D01*
X151015918Y-151470004D01*
X151653373Y-151734699D01*
X152343599Y-151735301D01*
X152981515Y-151471719D01*
X153470004Y-150984082D01*
X153734699Y-150346627D01*
X153734701Y-150343599D01*
X154264699Y-150343599D01*
X154528281Y-150981515D01*
X155015918Y-151470004D01*
X155653373Y-151734699D01*
X156343599Y-151735301D01*
X156981515Y-151471719D01*
X157470004Y-150984082D01*
X157734699Y-150346627D01*
X157734701Y-150343599D01*
X158264699Y-150343599D01*
X158528281Y-150981515D01*
X159015918Y-151470004D01*
X159653373Y-151734699D01*
X160343599Y-151735301D01*
X160981515Y-151471719D01*
X161470004Y-150984082D01*
X161734699Y-150346627D01*
X161734701Y-150343599D01*
X164764699Y-150343599D01*
X165028281Y-150981515D01*
X165515918Y-151470004D01*
X166153373Y-151734699D01*
X166843599Y-151735301D01*
X167481515Y-151471719D01*
X167970004Y-150984082D01*
X168234699Y-150346627D01*
X168234701Y-150343599D01*
X168764699Y-150343599D01*
X169028281Y-150981515D01*
X169515918Y-151470004D01*
X170153373Y-151734699D01*
X170843599Y-151735301D01*
X171481515Y-151471719D01*
X171728797Y-151224868D01*
X173454737Y-151224868D01*
X173565641Y-151502099D01*
X174211593Y-151745323D01*
X174901453Y-151722836D01*
X175434359Y-151502099D01*
X175545263Y-151224868D01*
X174500000Y-150179605D01*
X173454737Y-151224868D01*
X171728797Y-151224868D01*
X171970004Y-150984082D01*
X172234699Y-150346627D01*
X172235252Y-149711593D01*
X172754677Y-149711593D01*
X172777164Y-150401453D01*
X172997901Y-150934359D01*
X173275132Y-151045263D01*
X174320395Y-150000000D01*
X174679605Y-150000000D01*
X175724868Y-151045263D01*
X176002099Y-150934359D01*
X176245323Y-150288407D01*
X176222836Y-149598547D01*
X176002099Y-149065641D01*
X175724868Y-148954737D01*
X174679605Y-150000000D01*
X174320395Y-150000000D01*
X173275132Y-148954737D01*
X172997901Y-149065641D01*
X172754677Y-149711593D01*
X172235252Y-149711593D01*
X172235301Y-149656401D01*
X171971719Y-149018485D01*
X171728791Y-148775132D01*
X173454737Y-148775132D01*
X174500000Y-149820395D01*
X175545263Y-148775132D01*
X175434359Y-148497901D01*
X174788407Y-148254677D01*
X174098547Y-148277164D01*
X173565641Y-148497901D01*
X173454737Y-148775132D01*
X171728791Y-148775132D01*
X171484082Y-148529996D01*
X170846627Y-148265301D01*
X170156401Y-148264699D01*
X169518485Y-148528281D01*
X169029996Y-149015918D01*
X168765301Y-149653373D01*
X168764699Y-150343599D01*
X168234701Y-150343599D01*
X168235301Y-149656401D01*
X167971719Y-149018485D01*
X167484082Y-148529996D01*
X166846627Y-148265301D01*
X166156401Y-148264699D01*
X165518485Y-148528281D01*
X165029996Y-149015918D01*
X164765301Y-149653373D01*
X164764699Y-150343599D01*
X161734701Y-150343599D01*
X161735301Y-149656401D01*
X161471719Y-149018485D01*
X160984082Y-148529996D01*
X160760000Y-148436949D01*
X160760000Y-129062463D01*
X160792192Y-129030327D01*
X160934838Y-128686799D01*
X160935162Y-128314833D01*
X160793117Y-127971057D01*
X160530327Y-127707808D01*
X160186799Y-127565162D01*
X159814833Y-127564838D01*
X159471057Y-127706883D01*
X159207808Y-127969673D01*
X159065162Y-128313201D01*
X159064838Y-128685167D01*
X159206883Y-129028943D01*
X159240000Y-129062118D01*
X159240000Y-148436753D01*
X159018485Y-148528281D01*
X158529996Y-149015918D01*
X158265301Y-149653373D01*
X158264699Y-150343599D01*
X157734701Y-150343599D01*
X157735301Y-149656401D01*
X157471719Y-149018485D01*
X156984082Y-148529996D01*
X156760000Y-148436949D01*
X156760000Y-130962463D01*
X156792192Y-130930327D01*
X156934838Y-130586799D01*
X156935162Y-130214833D01*
X156793117Y-129871057D01*
X156530327Y-129607808D01*
X156186799Y-129465162D01*
X155814833Y-129464838D01*
X155471057Y-129606883D01*
X155207808Y-129869673D01*
X155065162Y-130213201D01*
X155064838Y-130585167D01*
X155206883Y-130928943D01*
X155240000Y-130962118D01*
X155240000Y-148436753D01*
X155018485Y-148528281D01*
X154529996Y-149015918D01*
X154265301Y-149653373D01*
X154264699Y-150343599D01*
X153734701Y-150343599D01*
X153735301Y-149656401D01*
X153471719Y-149018485D01*
X152984082Y-148529996D01*
X152760000Y-148436949D01*
X152760000Y-124112463D01*
X152792192Y-124080327D01*
X152934838Y-123736799D01*
X152935162Y-123364833D01*
X152793117Y-123021057D01*
X152530327Y-122757808D01*
X152186799Y-122615162D01*
X151814833Y-122614838D01*
X151660000Y-122678814D01*
X151660000Y-115800000D01*
X151602148Y-115509161D01*
X151437401Y-115262599D01*
X147785122Y-111610320D01*
X147785162Y-111564833D01*
X147643117Y-111221057D01*
X147380327Y-110957808D01*
X147036799Y-110815162D01*
X146664833Y-110814838D01*
X146321057Y-110956883D01*
X146057808Y-111219673D01*
X145915162Y-111563201D01*
X145914838Y-111935167D01*
X135735000Y-111935167D01*
X135735000Y-106550000D01*
X135671440Y-106230460D01*
X135490434Y-105959566D01*
X126395000Y-96864132D01*
X126395000Y-91222841D01*
X126610054Y-91079147D01*
X126837702Y-90738447D01*
X126904817Y-90881358D01*
X127333076Y-91271645D01*
X127743110Y-91441476D01*
X127973000Y-91320155D01*
X127973000Y-90127000D01*
X128227000Y-90127000D01*
X128227000Y-91320155D01*
X128456890Y-91441476D01*
X128866924Y-91271645D01*
X129295183Y-90881358D01*
X129541486Y-90356892D01*
X129420819Y-90127000D01*
X128227000Y-90127000D01*
X127973000Y-90127000D01*
X127953000Y-90127000D01*
X127953000Y-89873000D01*
X127973000Y-89873000D01*
X127973000Y-88679845D01*
X128227000Y-88679845D01*
X128227000Y-89873000D01*
X129420819Y-89873000D01*
X129541486Y-89643108D01*
X129295183Y-89118642D01*
X128866924Y-88728355D01*
X128456890Y-88558524D01*
X128227000Y-88679845D01*
X127973000Y-88679845D01*
X127743110Y-88558524D01*
X127333076Y-88728355D01*
X126904817Y-89118642D01*
X126837702Y-89261553D01*
X126610054Y-88920853D01*
X126128285Y-88598946D01*
X125560000Y-88485907D01*
X125232015Y-88551147D01*
X124390868Y-87710000D01*
X178290000Y-87710000D01*
X178290000Y-160290000D01*
G36*
X91949566Y-88419566D02*
X91768561Y-88690459D01*
X91758415Y-88741468D01*
X91489946Y-88920853D01*
X91460597Y-88964777D01*
X91388327Y-88790302D01*
X91209699Y-88611673D01*
X90976310Y-88515000D01*
X90285750Y-88515000D01*
X90127000Y-88673750D01*
X90127000Y-89873000D01*
X90147000Y-89873000D01*
X90147000Y-90127000D01*
X90127000Y-90127000D01*
X90127000Y-91326250D01*
X90285750Y-91485000D01*
X90976310Y-91485000D01*
X91209699Y-91388327D01*
X91388327Y-91209698D01*
X91460597Y-91035223D01*
X91489946Y-91079147D01*
X91705000Y-91222841D01*
X91705000Y-105614132D01*
X80559566Y-116759566D01*
X80378561Y-117030459D01*
X80315000Y-117350000D01*
X80315000Y-157250000D01*
X80378561Y-157569541D01*
X80499140Y-157750000D01*
X80559566Y-157840434D01*
X81059566Y-158340434D01*
X81330460Y-158521440D01*
X81650000Y-158585000D01*
X82587370Y-158585000D01*
X82596838Y-158635317D01*
X82735910Y-158851441D01*
X82948110Y-158996431D01*
X83200000Y-159047440D01*
X84500000Y-159047440D01*
X84735317Y-159003162D01*
X84951441Y-158864090D01*
X84997969Y-158795994D01*
X85140301Y-158938327D01*
X85373690Y-159035000D01*
X85864250Y-159035000D01*
X86023000Y-158876250D01*
X86023000Y-157877000D01*
X86277000Y-157877000D01*
X86277000Y-158876250D01*
X86435750Y-159035000D01*
X86926310Y-159035000D01*
X87159699Y-158938327D01*
X87338327Y-158759698D01*
X87435000Y-158526309D01*
X87435000Y-158035750D01*
X87276250Y-157877000D01*
X86277000Y-157877000D01*
X86023000Y-157877000D01*
X86003000Y-157877000D01*
X86003000Y-157623000D01*
X86023000Y-157623000D01*
X86023000Y-156623750D01*
X86277000Y-156623750D01*
X86277000Y-157623000D01*
X87276250Y-157623000D01*
X87435000Y-157464250D01*
X87435000Y-156973691D01*
X87338327Y-156740302D01*
X87159699Y-156561673D01*
X86926310Y-156465000D01*
X86435750Y-156465000D01*
X86277000Y-156623750D01*
X86023000Y-156623750D01*
X85864250Y-156465000D01*
X85373690Y-156465000D01*
X85140301Y-156561673D01*
X84999064Y-156702911D01*
X84964090Y-156648559D01*
X84751890Y-156503569D01*
X84500000Y-156452560D01*
X83200000Y-156452560D01*
X82964683Y-156496838D01*
X82748559Y-156635910D01*
X82603569Y-156848110D01*
X82590023Y-156915000D01*
X81995868Y-156915000D01*
X81985000Y-156904132D01*
X81985000Y-117695868D01*
X93130434Y-106550434D01*
X93130724Y-106550000D01*
X93311439Y-106279541D01*
X93375000Y-105960000D01*
X93375000Y-91222841D01*
X93590054Y-91079147D01*
X93810000Y-90749974D01*
X94029946Y-91079147D01*
X94320000Y-91272954D01*
X94320000Y-107555198D01*
X84462599Y-117412599D01*
X84297852Y-117659161D01*
X84240000Y-117950000D01*
X84240000Y-150952560D01*
X84000000Y-150952560D01*
X83764683Y-150996838D01*
X83548559Y-151135910D01*
X83403569Y-151348110D01*
X83352560Y-151600000D01*
X83352560Y-152900000D01*
X83396838Y-153135317D01*
X83535910Y-153351441D01*
X83748110Y-153496431D01*
X84000000Y-153547440D01*
X86000000Y-153547440D01*
X86235317Y-153503162D01*
X86451441Y-153364090D01*
X86596431Y-153151890D01*
X86647440Y-152900000D01*
X86647440Y-151600000D01*
X86603162Y-151364683D01*
X86464090Y-151148559D01*
X86251890Y-151003569D01*
X86000000Y-150952560D01*
X85760000Y-150952560D01*
X85760000Y-118264802D01*
X95617401Y-108407401D01*
X95782148Y-108160839D01*
X95840000Y-107870000D01*
X95840000Y-91272954D01*
X96130054Y-91079147D01*
X96350000Y-90749974D01*
X96569946Y-91079147D01*
X96860000Y-91272954D01*
X96860000Y-97370000D01*
X96917852Y-97660839D01*
X97082599Y-97907401D01*
X116140000Y-116964802D01*
X116140000Y-134250000D01*
X116197852Y-134540839D01*
X116362599Y-134787401D01*
X121462599Y-139887401D01*
X121709160Y-140052148D01*
X122000000Y-140110000D01*
X124602560Y-140110000D01*
X124602560Y-140425000D01*
X124626944Y-140554589D01*
X124602560Y-140675000D01*
X124602560Y-141225000D01*
X124626944Y-141354589D01*
X124602560Y-141475000D01*
X124602560Y-141568579D01*
X124400000Y-141527560D01*
X123200000Y-141527560D01*
X122964683Y-141571838D01*
X122861354Y-141638329D01*
X122859698Y-141636673D01*
X122626309Y-141540000D01*
X122185750Y-141540000D01*
X122027000Y-141698750D01*
X122027000Y-142423000D01*
X122047000Y-142423000D01*
X122047000Y-142677000D01*
X122027000Y-142677000D01*
X122027000Y-143401250D01*
X122185750Y-143560000D01*
X122626309Y-143560000D01*
X122859698Y-143463327D01*
X122861068Y-143461957D01*
X122948110Y-143521431D01*
X123200000Y-143572440D01*
X124400000Y-143572440D01*
X124635317Y-143528162D01*
X124714822Y-143477002D01*
X124753400Y-143477002D01*
X124709505Y-143541245D01*
X124615000Y-143635750D01*
X124615000Y-143751310D01*
X124623468Y-143771753D01*
X124602560Y-143875000D01*
X124602560Y-144425000D01*
X124646838Y-144660317D01*
X124785910Y-144876441D01*
X124998110Y-145021431D01*
X125122509Y-145046623D01*
X124517731Y-145651401D01*
X124400000Y-145627560D01*
X123200000Y-145627560D01*
X122964683Y-145671838D01*
X122861354Y-145738329D01*
X122859698Y-145736673D01*
X122626309Y-145640000D01*
X122185750Y-145640000D01*
X122027000Y-145798750D01*
X122027000Y-146523000D01*
X122047000Y-146523000D01*
X122047000Y-146777000D01*
X122027000Y-146777000D01*
X122027000Y-147501250D01*
X122185750Y-147660000D01*
X122459132Y-147660000D01*
X119980101Y-150139031D01*
X119800000Y-150102560D01*
X118900000Y-150102560D01*
X118675644Y-150144776D01*
X117885000Y-149354132D01*
X117885000Y-149156844D01*
X117951441Y-149114090D01*
X118096431Y-148901890D01*
X118147440Y-148650000D01*
X118147440Y-147450000D01*
X118103162Y-147214683D01*
X117964090Y-146998559D01*
X117894289Y-146950866D01*
X117917780Y-146935750D01*
X120665000Y-146935750D01*
X120665000Y-147151310D01*
X120761673Y-147384699D01*
X120940302Y-147563327D01*
X121173691Y-147660000D01*
X121614250Y-147660000D01*
X121773000Y-147501250D01*
X121773000Y-146777000D01*
X120823750Y-146777000D01*
X120665000Y-146935750D01*
X117917780Y-146935750D01*
X117951441Y-146914090D01*
X118096431Y-146701890D01*
X118147440Y-146450000D01*
X118147440Y-146148690D01*
X120665000Y-146148690D01*
X120665000Y-146364250D01*
X120823750Y-146523000D01*
X121773000Y-146523000D01*
X121773000Y-145798750D01*
X121614250Y-145640000D01*
X121173691Y-145640000D01*
X120940302Y-145736673D01*
X120761673Y-145915301D01*
X120665000Y-146148690D01*
X118147440Y-146148690D01*
X118147440Y-145250000D01*
X118103162Y-145014683D01*
X117964090Y-144798559D01*
X117751890Y-144653569D01*
X117500000Y-144602560D01*
X116600000Y-144602560D01*
X116364683Y-144646838D01*
X116148559Y-144785910D01*
X116003569Y-144998110D01*
X115984961Y-145090000D01*
X111517334Y-145090000D01*
X111503162Y-145014683D01*
X111364090Y-144798559D01*
X111210000Y-144693274D01*
X111210000Y-144114802D01*
X112489052Y-142835750D01*
X120665000Y-142835750D01*
X120665000Y-143051310D01*
X120761673Y-143284699D01*
X120940302Y-143463327D01*
X121173691Y-143560000D01*
X121614250Y-143560000D01*
X121773000Y-143401250D01*
X121773000Y-142677000D01*
X120823750Y-142677000D01*
X120665000Y-142835750D01*
X112489052Y-142835750D01*
X113276112Y-142048690D01*
X120665000Y-142048690D01*
X120665000Y-142264250D01*
X120823750Y-142423000D01*
X121773000Y-142423000D01*
X121773000Y-141698750D01*
X121614250Y-141540000D01*
X121173691Y-141540000D01*
X120940302Y-141636673D01*
X120761673Y-141815301D01*
X120665000Y-142048690D01*
X113276112Y-142048690D01*
X113714802Y-141610000D01*
X119487537Y-141610000D01*
X119519673Y-141642192D01*
X119863201Y-141784838D01*
X120235167Y-141785162D01*
X120578943Y-141643117D01*
X120842192Y-141380327D01*
X120984838Y-141036799D01*
X120985162Y-140664833D01*
X120843117Y-140321057D01*
X120580327Y-140057808D01*
X120236799Y-139915162D01*
X119864833Y-139914838D01*
X119521057Y-140056883D01*
X119487882Y-140090000D01*
X113400000Y-140090000D01*
X113109161Y-140147852D01*
X112862599Y-140312599D01*
X109912599Y-143262599D01*
X109747852Y-143509161D01*
X109690000Y-143800000D01*
X109690000Y-144694895D01*
X109548559Y-144785910D01*
X109403569Y-144998110D01*
X109384961Y-145090000D01*
X99850000Y-145090000D01*
X99559161Y-145147852D01*
X99312599Y-145312599D01*
X94462599Y-150162599D01*
X94297852Y-150409161D01*
X94249933Y-150650062D01*
X93920853Y-150869946D01*
X93731655Y-151153101D01*
X93731645Y-151153076D01*
X93341358Y-150724817D01*
X92816892Y-150478514D01*
X92587000Y-150599181D01*
X92587000Y-151793000D01*
X92607000Y-151793000D01*
X92607000Y-152047000D01*
X92587000Y-152047000D01*
X92587000Y-152067000D01*
X92333000Y-152067000D01*
X92333000Y-152047000D01*
X91139845Y-152047000D01*
X91018524Y-152276890D01*
X91188355Y-152686924D01*
X91578642Y-153115183D01*
X91721553Y-153182298D01*
X91380853Y-153409946D01*
X91187046Y-153700000D01*
X90524802Y-153700000D01*
X90160000Y-153335198D01*
X90160000Y-151563110D01*
X91018524Y-151563110D01*
X91139845Y-151793000D01*
X92333000Y-151793000D01*
X92333000Y-150599181D01*
X92103108Y-150478514D01*
X91578642Y-150724817D01*
X91188355Y-151153076D01*
X91018524Y-151563110D01*
X90160000Y-151563110D01*
X90160000Y-142185167D01*
X100014838Y-142185167D01*
X100156883Y-142528943D01*
X100419673Y-142792192D01*
X100763201Y-142934838D01*
X101135167Y-142935162D01*
X101478943Y-142793117D01*
X101549850Y-142722334D01*
X101569673Y-142742192D01*
X101913201Y-142884838D01*
X102285167Y-142885162D01*
X102628943Y-142743117D01*
X102892192Y-142480327D01*
X103034838Y-142136799D01*
X103035162Y-141764833D01*
X102893117Y-141421057D01*
X102860000Y-141387882D01*
X102860000Y-116964802D01*
X105489680Y-114335122D01*
X105535167Y-114335162D01*
X105878943Y-114193117D01*
X106142192Y-113930327D01*
X106284838Y-113586799D01*
X106285162Y-113214833D01*
X106143117Y-112871057D01*
X105880327Y-112607808D01*
X105826486Y-112585451D01*
X105928943Y-112543117D01*
X106192192Y-112280327D01*
X106334838Y-111936799D01*
X106335162Y-111564833D01*
X106193117Y-111221057D01*
X105930327Y-110957808D01*
X105586799Y-110815162D01*
X105214833Y-110814838D01*
X104871057Y-110956883D01*
X104607808Y-111219673D01*
X104467409Y-111557789D01*
X100412599Y-115612599D01*
X100247852Y-115859161D01*
X100190000Y-116150000D01*
X100190000Y-141437537D01*
X100157808Y-141469673D01*
X100015162Y-141813201D01*
X100014838Y-142185167D01*
X90160000Y-142185167D01*
X90160000Y-117664802D01*
X98164802Y-109660000D01*
X104787537Y-109660000D01*
X104819673Y-109692192D01*
X105163201Y-109834838D01*
X105535167Y-109835162D01*
X105878943Y-109693117D01*
X106142192Y-109430327D01*
X106284838Y-109086799D01*
X106285162Y-108714833D01*
X106143117Y-108371057D01*
X105880327Y-108107808D01*
X105536799Y-107965162D01*
X105164833Y-107964838D01*
X104821057Y-108106883D01*
X104787882Y-108140000D01*
X97850000Y-108140000D01*
X97559161Y-108197852D01*
X97312599Y-108362599D01*
X88862599Y-116812599D01*
X88697852Y-117059161D01*
X88640000Y-117350000D01*
X88640000Y-153650000D01*
X88697852Y-153940839D01*
X88862599Y-154187401D01*
X89672599Y-154997401D01*
X89919161Y-155162148D01*
X90210000Y-155220000D01*
X91187046Y-155220000D01*
X91380853Y-155510054D01*
X91710026Y-155730000D01*
X91380853Y-155949946D01*
X91058946Y-156431715D01*
X90945907Y-157000000D01*
X91058946Y-157568285D01*
X91380853Y-158050054D01*
X91625000Y-158213187D01*
X91625000Y-158910000D01*
X91688561Y-159229541D01*
X91711753Y-159264250D01*
X91869566Y-159500434D01*
X92459566Y-160090434D01*
X92730459Y-160271439D01*
X92823771Y-160290000D01*
X79710000Y-160290000D01*
X79710000Y-90285750D01*
X88515000Y-90285750D01*
X88515000Y-90976309D01*
X88611673Y-91209698D01*
X88790301Y-91388327D01*
X89023690Y-91485000D01*
X89714250Y-91485000D01*
X89873000Y-91326250D01*
X89873000Y-90127000D01*
X88673750Y-90127000D01*
X88515000Y-90285750D01*
X79710000Y-90285750D01*
X79710000Y-89023691D01*
X88515000Y-89023691D01*
X88515000Y-89714250D01*
X88673750Y-89873000D01*
X89873000Y-89873000D01*
X89873000Y-88673750D01*
X89714250Y-88515000D01*
X89023690Y-88515000D01*
X88790301Y-88611673D01*
X88611673Y-88790302D01*
X88515000Y-89023691D01*
X79710000Y-89023691D01*
X79710000Y-87710000D01*
X92659132Y-87710000D01*
X91949566Y-88419566D01*
X91949566Y-88419566D01*
G37*
X91949566Y-88419566D02*
X91768561Y-88690459D01*
X91758415Y-88741468D01*
X91489946Y-88920853D01*
X91460597Y-88964777D01*
X91388327Y-88790302D01*
X91209699Y-88611673D01*
X90976310Y-88515000D01*
X90285750Y-88515000D01*
X90127000Y-88673750D01*
X90127000Y-89873000D01*
X90147000Y-89873000D01*
X90147000Y-90127000D01*
X90127000Y-90127000D01*
X90127000Y-91326250D01*
X90285750Y-91485000D01*
X90976310Y-91485000D01*
X91209699Y-91388327D01*
X91388327Y-91209698D01*
X91460597Y-91035223D01*
X91489946Y-91079147D01*
X91705000Y-91222841D01*
X91705000Y-105614132D01*
X80559566Y-116759566D01*
X80378561Y-117030459D01*
X80315000Y-117350000D01*
X80315000Y-157250000D01*
X80378561Y-157569541D01*
X80499140Y-157750000D01*
X80559566Y-157840434D01*
X81059566Y-158340434D01*
X81330460Y-158521440D01*
X81650000Y-158585000D01*
X82587370Y-158585000D01*
X82596838Y-158635317D01*
X82735910Y-158851441D01*
X82948110Y-158996431D01*
X83200000Y-159047440D01*
X84500000Y-159047440D01*
X84735317Y-159003162D01*
X84951441Y-158864090D01*
X84997969Y-158795994D01*
X85140301Y-158938327D01*
X85373690Y-159035000D01*
X85864250Y-159035000D01*
X86023000Y-158876250D01*
X86023000Y-157877000D01*
X86277000Y-157877000D01*
X86277000Y-158876250D01*
X86435750Y-159035000D01*
X86926310Y-159035000D01*
X87159699Y-158938327D01*
X87338327Y-158759698D01*
X87435000Y-158526309D01*
X87435000Y-158035750D01*
X87276250Y-157877000D01*
X86277000Y-157877000D01*
X86023000Y-157877000D01*
X86003000Y-157877000D01*
X86003000Y-157623000D01*
X86023000Y-157623000D01*
X86023000Y-156623750D01*
X86277000Y-156623750D01*
X86277000Y-157623000D01*
X87276250Y-157623000D01*
X87435000Y-157464250D01*
X87435000Y-156973691D01*
X87338327Y-156740302D01*
X87159699Y-156561673D01*
X86926310Y-156465000D01*
X86435750Y-156465000D01*
X86277000Y-156623750D01*
X86023000Y-156623750D01*
X85864250Y-156465000D01*
X85373690Y-156465000D01*
X85140301Y-156561673D01*
X84999064Y-156702911D01*
X84964090Y-156648559D01*
X84751890Y-156503569D01*
X84500000Y-156452560D01*
X83200000Y-156452560D01*
X82964683Y-156496838D01*
X82748559Y-156635910D01*
X82603569Y-156848110D01*
X82590023Y-156915000D01*
X81995868Y-156915000D01*
X81985000Y-156904132D01*
X81985000Y-117695868D01*
X93130434Y-106550434D01*
X93130724Y-106550000D01*
X93311439Y-106279541D01*
X93375000Y-105960000D01*
X93375000Y-91222841D01*
X93590054Y-91079147D01*
X93810000Y-90749974D01*
X94029946Y-91079147D01*
X94320000Y-91272954D01*
X94320000Y-107555198D01*
X84462599Y-117412599D01*
X84297852Y-117659161D01*
X84240000Y-117950000D01*
X84240000Y-150952560D01*
X84000000Y-150952560D01*
X83764683Y-150996838D01*
X83548559Y-151135910D01*
X83403569Y-151348110D01*
X83352560Y-151600000D01*
X83352560Y-152900000D01*
X83396838Y-153135317D01*
X83535910Y-153351441D01*
X83748110Y-153496431D01*
X84000000Y-153547440D01*
X86000000Y-153547440D01*
X86235317Y-153503162D01*
X86451441Y-153364090D01*
X86596431Y-153151890D01*
X86647440Y-152900000D01*
X86647440Y-151600000D01*
X86603162Y-151364683D01*
X86464090Y-151148559D01*
X86251890Y-151003569D01*
X86000000Y-150952560D01*
X85760000Y-150952560D01*
X85760000Y-118264802D01*
X95617401Y-108407401D01*
X95782148Y-108160839D01*
X95840000Y-107870000D01*
X95840000Y-91272954D01*
X96130054Y-91079147D01*
X96350000Y-90749974D01*
X96569946Y-91079147D01*
X96860000Y-91272954D01*
X96860000Y-97370000D01*
X96917852Y-97660839D01*
X97082599Y-97907401D01*
X116140000Y-116964802D01*
X116140000Y-134250000D01*
X116197852Y-134540839D01*
X116362599Y-134787401D01*
X121462599Y-139887401D01*
X121709160Y-140052148D01*
X122000000Y-140110000D01*
X124602560Y-140110000D01*
X124602560Y-140425000D01*
X124626944Y-140554589D01*
X124602560Y-140675000D01*
X124602560Y-141225000D01*
X124626944Y-141354589D01*
X124602560Y-141475000D01*
X124602560Y-141568579D01*
X124400000Y-141527560D01*
X123200000Y-141527560D01*
X122964683Y-141571838D01*
X122861354Y-141638329D01*
X122859698Y-141636673D01*
X122626309Y-141540000D01*
X122185750Y-141540000D01*
X122027000Y-141698750D01*
X122027000Y-142423000D01*
X122047000Y-142423000D01*
X122047000Y-142677000D01*
X122027000Y-142677000D01*
X122027000Y-143401250D01*
X122185750Y-143560000D01*
X122626309Y-143560000D01*
X122859698Y-143463327D01*
X122861068Y-143461957D01*
X122948110Y-143521431D01*
X123200000Y-143572440D01*
X124400000Y-143572440D01*
X124635317Y-143528162D01*
X124714822Y-143477002D01*
X124753400Y-143477002D01*
X124709505Y-143541245D01*
X124615000Y-143635750D01*
X124615000Y-143751310D01*
X124623468Y-143771753D01*
X124602560Y-143875000D01*
X124602560Y-144425000D01*
X124646838Y-144660317D01*
X124785910Y-144876441D01*
X124998110Y-145021431D01*
X125122509Y-145046623D01*
X124517731Y-145651401D01*
X124400000Y-145627560D01*
X123200000Y-145627560D01*
X122964683Y-145671838D01*
X122861354Y-145738329D01*
X122859698Y-145736673D01*
X122626309Y-145640000D01*
X122185750Y-145640000D01*
X122027000Y-145798750D01*
X122027000Y-146523000D01*
X122047000Y-146523000D01*
X122047000Y-146777000D01*
X122027000Y-146777000D01*
X122027000Y-147501250D01*
X122185750Y-147660000D01*
X122459132Y-147660000D01*
X119980101Y-150139031D01*
X119800000Y-150102560D01*
X118900000Y-150102560D01*
X118675644Y-150144776D01*
X117885000Y-149354132D01*
X117885000Y-149156844D01*
X117951441Y-149114090D01*
X118096431Y-148901890D01*
X118147440Y-148650000D01*
X118147440Y-147450000D01*
X118103162Y-147214683D01*
X117964090Y-146998559D01*
X117894289Y-146950866D01*
X117917780Y-146935750D01*
X120665000Y-146935750D01*
X120665000Y-147151310D01*
X120761673Y-147384699D01*
X120940302Y-147563327D01*
X121173691Y-147660000D01*
X121614250Y-147660000D01*
X121773000Y-147501250D01*
X121773000Y-146777000D01*
X120823750Y-146777000D01*
X120665000Y-146935750D01*
X117917780Y-146935750D01*
X117951441Y-146914090D01*
X118096431Y-146701890D01*
X118147440Y-146450000D01*
X118147440Y-146148690D01*
X120665000Y-146148690D01*
X120665000Y-146364250D01*
X120823750Y-146523000D01*
X121773000Y-146523000D01*
X121773000Y-145798750D01*
X121614250Y-145640000D01*
X121173691Y-145640000D01*
X120940302Y-145736673D01*
X120761673Y-145915301D01*
X120665000Y-146148690D01*
X118147440Y-146148690D01*
X118147440Y-145250000D01*
X118103162Y-145014683D01*
X117964090Y-144798559D01*
X117751890Y-144653569D01*
X117500000Y-144602560D01*
X116600000Y-144602560D01*
X116364683Y-144646838D01*
X116148559Y-144785910D01*
X116003569Y-144998110D01*
X115984961Y-145090000D01*
X111517334Y-145090000D01*
X111503162Y-145014683D01*
X111364090Y-144798559D01*
X111210000Y-144693274D01*
X111210000Y-144114802D01*
X112489052Y-142835750D01*
X120665000Y-142835750D01*
X120665000Y-143051310D01*
X120761673Y-143284699D01*
X120940302Y-143463327D01*
X121173691Y-143560000D01*
X121614250Y-143560000D01*
X121773000Y-143401250D01*
X121773000Y-142677000D01*
X120823750Y-142677000D01*
X120665000Y-142835750D01*
X112489052Y-142835750D01*
X113276112Y-142048690D01*
X120665000Y-142048690D01*
X120665000Y-142264250D01*
X120823750Y-142423000D01*
X121773000Y-142423000D01*
X121773000Y-141698750D01*
X121614250Y-141540000D01*
X121173691Y-141540000D01*
X120940302Y-141636673D01*
X120761673Y-141815301D01*
X120665000Y-142048690D01*
X113276112Y-142048690D01*
X113714802Y-141610000D01*
X119487537Y-141610000D01*
X119519673Y-141642192D01*
X119863201Y-141784838D01*
X120235167Y-141785162D01*
X120578943Y-141643117D01*
X120842192Y-141380327D01*
X120984838Y-141036799D01*
X120985162Y-140664833D01*
X120843117Y-140321057D01*
X120580327Y-140057808D01*
X120236799Y-139915162D01*
X119864833Y-139914838D01*
X119521057Y-140056883D01*
X119487882Y-140090000D01*
X113400000Y-140090000D01*
X113109161Y-140147852D01*
X112862599Y-140312599D01*
X109912599Y-143262599D01*
X109747852Y-143509161D01*
X109690000Y-143800000D01*
X109690000Y-144694895D01*
X109548559Y-144785910D01*
X109403569Y-144998110D01*
X109384961Y-145090000D01*
X99850000Y-145090000D01*
X99559161Y-145147852D01*
X99312599Y-145312599D01*
X94462599Y-150162599D01*
X94297852Y-150409161D01*
X94249933Y-150650062D01*
X93920853Y-150869946D01*
X93731655Y-151153101D01*
X93731645Y-151153076D01*
X93341358Y-150724817D01*
X92816892Y-150478514D01*
X92587000Y-150599181D01*
X92587000Y-151793000D01*
X92607000Y-151793000D01*
X92607000Y-152047000D01*
X92587000Y-152047000D01*
X92587000Y-152067000D01*
X92333000Y-152067000D01*
X92333000Y-152047000D01*
X91139845Y-152047000D01*
X91018524Y-152276890D01*
X91188355Y-152686924D01*
X91578642Y-153115183D01*
X91721553Y-153182298D01*
X91380853Y-153409946D01*
X91187046Y-153700000D01*
X90524802Y-153700000D01*
X90160000Y-153335198D01*
X90160000Y-151563110D01*
X91018524Y-151563110D01*
X91139845Y-151793000D01*
X92333000Y-151793000D01*
X92333000Y-150599181D01*
X92103108Y-150478514D01*
X91578642Y-150724817D01*
X91188355Y-151153076D01*
X91018524Y-151563110D01*
X90160000Y-151563110D01*
X90160000Y-142185167D01*
X100014838Y-142185167D01*
X100156883Y-142528943D01*
X100419673Y-142792192D01*
X100763201Y-142934838D01*
X101135167Y-142935162D01*
X101478943Y-142793117D01*
X101549850Y-142722334D01*
X101569673Y-142742192D01*
X101913201Y-142884838D01*
X102285167Y-142885162D01*
X102628943Y-142743117D01*
X102892192Y-142480327D01*
X103034838Y-142136799D01*
X103035162Y-141764833D01*
X102893117Y-141421057D01*
X102860000Y-141387882D01*
X102860000Y-116964802D01*
X105489680Y-114335122D01*
X105535167Y-114335162D01*
X105878943Y-114193117D01*
X106142192Y-113930327D01*
X106284838Y-113586799D01*
X106285162Y-113214833D01*
X106143117Y-112871057D01*
X105880327Y-112607808D01*
X105826486Y-112585451D01*
X105928943Y-112543117D01*
X106192192Y-112280327D01*
X106334838Y-111936799D01*
X106335162Y-111564833D01*
X106193117Y-111221057D01*
X105930327Y-110957808D01*
X105586799Y-110815162D01*
X105214833Y-110814838D01*
X104871057Y-110956883D01*
X104607808Y-111219673D01*
X104467409Y-111557789D01*
X100412599Y-115612599D01*
X100247852Y-115859161D01*
X100190000Y-116150000D01*
X100190000Y-141437537D01*
X100157808Y-141469673D01*
X100015162Y-141813201D01*
X100014838Y-142185167D01*
X90160000Y-142185167D01*
X90160000Y-117664802D01*
X98164802Y-109660000D01*
X104787537Y-109660000D01*
X104819673Y-109692192D01*
X105163201Y-109834838D01*
X105535167Y-109835162D01*
X105878943Y-109693117D01*
X106142192Y-109430327D01*
X106284838Y-109086799D01*
X106285162Y-108714833D01*
X106143117Y-108371057D01*
X105880327Y-108107808D01*
X105536799Y-107965162D01*
X105164833Y-107964838D01*
X104821057Y-108106883D01*
X104787882Y-108140000D01*
X97850000Y-108140000D01*
X97559161Y-108197852D01*
X97312599Y-108362599D01*
X88862599Y-116812599D01*
X88697852Y-117059161D01*
X88640000Y-117350000D01*
X88640000Y-153650000D01*
X88697852Y-153940839D01*
X88862599Y-154187401D01*
X89672599Y-154997401D01*
X89919161Y-155162148D01*
X90210000Y-155220000D01*
X91187046Y-155220000D01*
X91380853Y-155510054D01*
X91710026Y-155730000D01*
X91380853Y-155949946D01*
X91058946Y-156431715D01*
X90945907Y-157000000D01*
X91058946Y-157568285D01*
X91380853Y-158050054D01*
X91625000Y-158213187D01*
X91625000Y-158910000D01*
X91688561Y-159229541D01*
X91711753Y-159264250D01*
X91869566Y-159500434D01*
X92459566Y-160090434D01*
X92730459Y-160271439D01*
X92823771Y-160290000D01*
X79710000Y-160290000D01*
X79710000Y-90285750D01*
X88515000Y-90285750D01*
X88515000Y-90976309D01*
X88611673Y-91209698D01*
X88790301Y-91388327D01*
X89023690Y-91485000D01*
X89714250Y-91485000D01*
X89873000Y-91326250D01*
X89873000Y-90127000D01*
X88673750Y-90127000D01*
X88515000Y-90285750D01*
X79710000Y-90285750D01*
X79710000Y-89023691D01*
X88515000Y-89023691D01*
X88515000Y-89714250D01*
X88673750Y-89873000D01*
X89873000Y-89873000D01*
X89873000Y-88673750D01*
X89714250Y-88515000D01*
X89023690Y-88515000D01*
X88790301Y-88611673D01*
X88611673Y-88790302D01*
X88515000Y-89023691D01*
X79710000Y-89023691D01*
X79710000Y-87710000D01*
X92659132Y-87710000D01*
X91949566Y-88419566D01*
G36*
X128640000Y-148802560D02*
X128000000Y-148802560D01*
X127764683Y-148846838D01*
X127548559Y-148985910D01*
X127403569Y-149198110D01*
X127352560Y-149450000D01*
X127352560Y-150950000D01*
X127396838Y-151185317D01*
X127535910Y-151401441D01*
X127748110Y-151546431D01*
X127761197Y-151549081D01*
X127548559Y-151685910D01*
X127403569Y-151898110D01*
X127352560Y-152150000D01*
X127352560Y-153504027D01*
X127351890Y-153503569D01*
X127100000Y-153452560D01*
X125900000Y-153452560D01*
X125664683Y-153496838D01*
X125448559Y-153635910D01*
X125400866Y-153705711D01*
X125364090Y-153648559D01*
X125151890Y-153503569D01*
X124900000Y-153452560D01*
X123933428Y-153452560D01*
X123485000Y-153004132D01*
X123485000Y-152456844D01*
X123551441Y-152414090D01*
X123696431Y-152201890D01*
X123706141Y-152153941D01*
X123869541Y-152121439D01*
X124140434Y-151940434D01*
X127295868Y-148785000D01*
X128150000Y-148785000D01*
X128469541Y-148721439D01*
X128640000Y-148607542D01*
X128640000Y-148802560D01*
X128640000Y-148802560D01*
G37*
X128640000Y-148802560D02*
X128000000Y-148802560D01*
X127764683Y-148846838D01*
X127548559Y-148985910D01*
X127403569Y-149198110D01*
X127352560Y-149450000D01*
X127352560Y-150950000D01*
X127396838Y-151185317D01*
X127535910Y-151401441D01*
X127748110Y-151546431D01*
X127761197Y-151549081D01*
X127548559Y-151685910D01*
X127403569Y-151898110D01*
X127352560Y-152150000D01*
X127352560Y-153504027D01*
X127351890Y-153503569D01*
X127100000Y-153452560D01*
X125900000Y-153452560D01*
X125664683Y-153496838D01*
X125448559Y-153635910D01*
X125400866Y-153705711D01*
X125364090Y-153648559D01*
X125151890Y-153503569D01*
X124900000Y-153452560D01*
X123933428Y-153452560D01*
X123485000Y-153004132D01*
X123485000Y-152456844D01*
X123551441Y-152414090D01*
X123696431Y-152201890D01*
X123706141Y-152153941D01*
X123869541Y-152121439D01*
X124140434Y-151940434D01*
X127295868Y-148785000D01*
X128150000Y-148785000D01*
X128469541Y-148721439D01*
X128640000Y-148607542D01*
X128640000Y-148802560D01*
G36*
X135985750Y-135835000D02*
X136010660Y-135835000D01*
X136002560Y-135875000D01*
X136002560Y-136425000D01*
X136026944Y-136554589D01*
X136002560Y-136675000D01*
X136002560Y-137225000D01*
X136026944Y-137354589D01*
X136002560Y-137475000D01*
X136002560Y-138025000D01*
X136026944Y-138154589D01*
X136002560Y-138275000D01*
X136002560Y-138825000D01*
X136026944Y-138954589D01*
X136002560Y-139075000D01*
X136002560Y-139625000D01*
X136026944Y-139754589D01*
X136002560Y-139875000D01*
X136002560Y-140425000D01*
X136026944Y-140554589D01*
X136002560Y-140675000D01*
X136002560Y-141225000D01*
X136022450Y-141330705D01*
X136015000Y-141348690D01*
X136015000Y-141464250D01*
X136111401Y-141560651D01*
X136120699Y-141575101D01*
X136096788Y-141565172D01*
X135704931Y-141564830D01*
X135342771Y-141714471D01*
X135065445Y-141991314D01*
X134915172Y-142353212D01*
X134914965Y-142590000D01*
X133662463Y-142590000D01*
X133630327Y-142557808D01*
X133286799Y-142415162D01*
X132914833Y-142414838D01*
X132571057Y-142556883D01*
X132307808Y-142819673D01*
X132165162Y-143163201D01*
X132164838Y-143535167D01*
X132231030Y-143695365D01*
X131942771Y-143814471D01*
X131665445Y-144091314D01*
X131515443Y-144452560D01*
X131425000Y-144452560D01*
X131319295Y-144472450D01*
X131301310Y-144465000D01*
X131185750Y-144465000D01*
X131089349Y-144561401D01*
X130973559Y-144635910D01*
X130900116Y-144743397D01*
X130839090Y-144648559D01*
X130708755Y-144559505D01*
X130614250Y-144465000D01*
X130498690Y-144465000D01*
X130478247Y-144473468D01*
X130375000Y-144452560D01*
X129825000Y-144452560D01*
X129695411Y-144476944D01*
X129575000Y-144452560D01*
X129485085Y-144452560D01*
X129485170Y-144354931D01*
X129335529Y-143992771D01*
X129058686Y-143715445D01*
X128696788Y-143565172D01*
X128335000Y-143564856D01*
X128335000Y-140507614D01*
X128484828Y-140146788D01*
X128485170Y-139754931D01*
X128335529Y-139392771D01*
X128058686Y-139115445D01*
X127696788Y-138965172D01*
X127376722Y-138964893D01*
X127373056Y-138945411D01*
X127397440Y-138825000D01*
X127397440Y-138275000D01*
X127373056Y-138145411D01*
X127397440Y-138025000D01*
X127397440Y-137475000D01*
X127377550Y-137369295D01*
X127385000Y-137351310D01*
X127385000Y-137235750D01*
X127288599Y-137139349D01*
X127279301Y-137124899D01*
X127303212Y-137134828D01*
X127695069Y-137135170D01*
X128057229Y-136985529D01*
X128334555Y-136708686D01*
X128484828Y-136346788D01*
X128485170Y-135954931D01*
X128440756Y-135847440D01*
X128775000Y-135847440D01*
X128904589Y-135823056D01*
X129025000Y-135847440D01*
X129575000Y-135847440D01*
X129704589Y-135823056D01*
X129825000Y-135847440D01*
X130375000Y-135847440D01*
X130504589Y-135823056D01*
X130625000Y-135847440D01*
X131175000Y-135847440D01*
X131304589Y-135823056D01*
X131425000Y-135847440D01*
X131975000Y-135847440D01*
X132104589Y-135823056D01*
X132225000Y-135847440D01*
X132775000Y-135847440D01*
X132904589Y-135823056D01*
X133025000Y-135847440D01*
X133575000Y-135847440D01*
X133704589Y-135823056D01*
X133825000Y-135847440D01*
X133959092Y-135847440D01*
X133915172Y-135953212D01*
X133914830Y-136345069D01*
X134064471Y-136707229D01*
X134341314Y-136984555D01*
X134703212Y-137134828D01*
X135095069Y-137135170D01*
X135457229Y-136985529D01*
X135734555Y-136708686D01*
X135884828Y-136346788D01*
X135885170Y-135954931D01*
X135827002Y-135814153D01*
X135827002Y-135676252D01*
X135985750Y-135835000D01*
X135985750Y-135835000D01*
G37*
X135985750Y-135835000D02*
X136010660Y-135835000D01*
X136002560Y-135875000D01*
X136002560Y-136425000D01*
X136026944Y-136554589D01*
X136002560Y-136675000D01*
X136002560Y-137225000D01*
X136026944Y-137354589D01*
X136002560Y-137475000D01*
X136002560Y-138025000D01*
X136026944Y-138154589D01*
X136002560Y-138275000D01*
X136002560Y-138825000D01*
X136026944Y-138954589D01*
X136002560Y-139075000D01*
X136002560Y-139625000D01*
X136026944Y-139754589D01*
X136002560Y-139875000D01*
X136002560Y-140425000D01*
X136026944Y-140554589D01*
X136002560Y-140675000D01*
X136002560Y-141225000D01*
X136022450Y-141330705D01*
X136015000Y-141348690D01*
X136015000Y-141464250D01*
X136111401Y-141560651D01*
X136120699Y-141575101D01*
X136096788Y-141565172D01*
X135704931Y-141564830D01*
X135342771Y-141714471D01*
X135065445Y-141991314D01*
X134915172Y-142353212D01*
X134914965Y-142590000D01*
X133662463Y-142590000D01*
X133630327Y-142557808D01*
X133286799Y-142415162D01*
X132914833Y-142414838D01*
X132571057Y-142556883D01*
X132307808Y-142819673D01*
X132165162Y-143163201D01*
X132164838Y-143535167D01*
X132231030Y-143695365D01*
X131942771Y-143814471D01*
X131665445Y-144091314D01*
X131515443Y-144452560D01*
X131425000Y-144452560D01*
X131319295Y-144472450D01*
X131301310Y-144465000D01*
X131185750Y-144465000D01*
X131089349Y-144561401D01*
X130973559Y-144635910D01*
X130900116Y-144743397D01*
X130839090Y-144648559D01*
X130708755Y-144559505D01*
X130614250Y-144465000D01*
X130498690Y-144465000D01*
X130478247Y-144473468D01*
X130375000Y-144452560D01*
X129825000Y-144452560D01*
X129695411Y-144476944D01*
X129575000Y-144452560D01*
X129485085Y-144452560D01*
X129485170Y-144354931D01*
X129335529Y-143992771D01*
X129058686Y-143715445D01*
X128696788Y-143565172D01*
X128335000Y-143564856D01*
X128335000Y-140507614D01*
X128484828Y-140146788D01*
X128485170Y-139754931D01*
X128335529Y-139392771D01*
X128058686Y-139115445D01*
X127696788Y-138965172D01*
X127376722Y-138964893D01*
X127373056Y-138945411D01*
X127397440Y-138825000D01*
X127397440Y-138275000D01*
X127373056Y-138145411D01*
X127397440Y-138025000D01*
X127397440Y-137475000D01*
X127377550Y-137369295D01*
X127385000Y-137351310D01*
X127385000Y-137235750D01*
X127288599Y-137139349D01*
X127279301Y-137124899D01*
X127303212Y-137134828D01*
X127695069Y-137135170D01*
X128057229Y-136985529D01*
X128334555Y-136708686D01*
X128484828Y-136346788D01*
X128485170Y-135954931D01*
X128440756Y-135847440D01*
X128775000Y-135847440D01*
X128904589Y-135823056D01*
X129025000Y-135847440D01*
X129575000Y-135847440D01*
X129704589Y-135823056D01*
X129825000Y-135847440D01*
X130375000Y-135847440D01*
X130504589Y-135823056D01*
X130625000Y-135847440D01*
X131175000Y-135847440D01*
X131304589Y-135823056D01*
X131425000Y-135847440D01*
X131975000Y-135847440D01*
X132104589Y-135823056D01*
X132225000Y-135847440D01*
X132775000Y-135847440D01*
X132904589Y-135823056D01*
X133025000Y-135847440D01*
X133575000Y-135847440D01*
X133704589Y-135823056D01*
X133825000Y-135847440D01*
X133959092Y-135847440D01*
X133915172Y-135953212D01*
X133914830Y-136345069D01*
X134064471Y-136707229D01*
X134341314Y-136984555D01*
X134703212Y-137134828D01*
X135095069Y-137135170D01*
X135457229Y-136985529D01*
X135734555Y-136708686D01*
X135884828Y-136346788D01*
X135885170Y-135954931D01*
X135827002Y-135814153D01*
X135827002Y-135676252D01*
X135985750Y-135835000D01*
G36*
X114349946Y-91079147D02*
X114640000Y-91272954D01*
X114640000Y-97000000D01*
X114697852Y-97290839D01*
X114862599Y-97537401D01*
X130940000Y-113614802D01*
X130940000Y-122165034D01*
X130714833Y-122164838D01*
X130371057Y-122306883D01*
X130107808Y-122569673D01*
X130088424Y-122616355D01*
X129830327Y-122357808D01*
X129486799Y-122215162D01*
X129435075Y-122215117D01*
X129435162Y-122114833D01*
X129293117Y-121771057D01*
X129030327Y-121507808D01*
X128686799Y-121365162D01*
X128314833Y-121364838D01*
X127971057Y-121506883D01*
X127707808Y-121769673D01*
X127565162Y-122113201D01*
X127564838Y-122485167D01*
X127706883Y-122828943D01*
X127740000Y-122862118D01*
X127740000Y-133285025D01*
X127628569Y-133448110D01*
X127577560Y-133700000D01*
X127577560Y-134597000D01*
X127573000Y-134597000D01*
X127573000Y-134577000D01*
X126948750Y-134577000D01*
X126790000Y-134735750D01*
X126790000Y-135235660D01*
X126750000Y-135227560D01*
X125250000Y-135227560D01*
X125014683Y-135271838D01*
X124798559Y-135410910D01*
X124653569Y-135623110D01*
X124602560Y-135875000D01*
X124602560Y-136425000D01*
X124622450Y-136530705D01*
X124615000Y-136548690D01*
X124615000Y-136664250D01*
X124711401Y-136760651D01*
X124785910Y-136876441D01*
X124893397Y-136949884D01*
X124831054Y-136990000D01*
X124614802Y-136990000D01*
X122310000Y-134685198D01*
X122310000Y-133573691D01*
X126790000Y-133573691D01*
X126790000Y-134164250D01*
X126948750Y-134323000D01*
X127573000Y-134323000D01*
X127573000Y-133223750D01*
X127414250Y-133065000D01*
X127298690Y-133065000D01*
X127065301Y-133161673D01*
X126886673Y-133340302D01*
X126790000Y-133573691D01*
X122310000Y-133573691D01*
X122310000Y-114100000D01*
X122252148Y-113809161D01*
X122087401Y-113562599D01*
X103460000Y-94935198D01*
X103460000Y-91272954D01*
X103750054Y-91079147D01*
X103970000Y-90749974D01*
X104189946Y-91079147D01*
X104671715Y-91401054D01*
X105240000Y-91514093D01*
X105808285Y-91401054D01*
X106290054Y-91079147D01*
X106510000Y-90749974D01*
X106729946Y-91079147D01*
X107211715Y-91401054D01*
X107780000Y-91514093D01*
X108348285Y-91401054D01*
X108830054Y-91079147D01*
X109050000Y-90749974D01*
X109269946Y-91079147D01*
X109751715Y-91401054D01*
X110320000Y-91514093D01*
X110888285Y-91401054D01*
X111370054Y-91079147D01*
X111590000Y-90749974D01*
X111809946Y-91079147D01*
X112291715Y-91401054D01*
X112860000Y-91514093D01*
X113428285Y-91401054D01*
X113910054Y-91079147D01*
X114130000Y-90749974D01*
X114349946Y-91079147D01*
X114349946Y-91079147D01*
G37*
X114349946Y-91079147D02*
X114640000Y-91272954D01*
X114640000Y-97000000D01*
X114697852Y-97290839D01*
X114862599Y-97537401D01*
X130940000Y-113614802D01*
X130940000Y-122165034D01*
X130714833Y-122164838D01*
X130371057Y-122306883D01*
X130107808Y-122569673D01*
X130088424Y-122616355D01*
X129830327Y-122357808D01*
X129486799Y-122215162D01*
X129435075Y-122215117D01*
X129435162Y-122114833D01*
X129293117Y-121771057D01*
X129030327Y-121507808D01*
X128686799Y-121365162D01*
X128314833Y-121364838D01*
X127971057Y-121506883D01*
X127707808Y-121769673D01*
X127565162Y-122113201D01*
X127564838Y-122485167D01*
X127706883Y-122828943D01*
X127740000Y-122862118D01*
X127740000Y-133285025D01*
X127628569Y-133448110D01*
X127577560Y-133700000D01*
X127577560Y-134597000D01*
X127573000Y-134597000D01*
X127573000Y-134577000D01*
X126948750Y-134577000D01*
X126790000Y-134735750D01*
X126790000Y-135235660D01*
X126750000Y-135227560D01*
X125250000Y-135227560D01*
X125014683Y-135271838D01*
X124798559Y-135410910D01*
X124653569Y-135623110D01*
X124602560Y-135875000D01*
X124602560Y-136425000D01*
X124622450Y-136530705D01*
X124615000Y-136548690D01*
X124615000Y-136664250D01*
X124711401Y-136760651D01*
X124785910Y-136876441D01*
X124893397Y-136949884D01*
X124831054Y-136990000D01*
X124614802Y-136990000D01*
X122310000Y-134685198D01*
X122310000Y-133573691D01*
X126790000Y-133573691D01*
X126790000Y-134164250D01*
X126948750Y-134323000D01*
X127573000Y-134323000D01*
X127573000Y-133223750D01*
X127414250Y-133065000D01*
X127298690Y-133065000D01*
X127065301Y-133161673D01*
X126886673Y-133340302D01*
X126790000Y-133573691D01*
X122310000Y-133573691D01*
X122310000Y-114100000D01*
X122252148Y-113809161D01*
X122087401Y-113562599D01*
X103460000Y-94935198D01*
X103460000Y-91272954D01*
X103750054Y-91079147D01*
X103970000Y-90749974D01*
X104189946Y-91079147D01*
X104671715Y-91401054D01*
X105240000Y-91514093D01*
X105808285Y-91401054D01*
X106290054Y-91079147D01*
X106510000Y-90749974D01*
X106729946Y-91079147D01*
X107211715Y-91401054D01*
X107780000Y-91514093D01*
X108348285Y-91401054D01*
X108830054Y-91079147D01*
X109050000Y-90749974D01*
X109269946Y-91079147D01*
X109751715Y-91401054D01*
X110320000Y-91514093D01*
X110888285Y-91401054D01*
X111370054Y-91079147D01*
X111590000Y-90749974D01*
X111809946Y-91079147D01*
X112291715Y-91401054D01*
X112860000Y-91514093D01*
X113428285Y-91401054D01*
X113910054Y-91079147D01*
X114130000Y-90749974D01*
X114349946Y-91079147D01*
M02*
