G04 #@! TF.FileFunction,Soldermask,Bot*
%FSLAX46Y46*%
G04 Gerber Fmt 4.6, Leading zero omitted, Abs format (unit mm)*
G04 Created by KiCad (PCBNEW 4.0.7-e2-6376~58~ubuntu16.04.1) date Wed Jan 10 16:59:47 2018*
%MOMM*%
%LPD*%
G01*
G04 APERTURE LIST*
%ADD10C,0.100000*%
%ADD11C,4.400000*%
%ADD12C,2.400000*%
%ADD13R,2.100000X2.100000*%
%ADD14O,2.100000X2.100000*%
%ADD15C,2.600000*%
%ADD16R,2.600000X2.600000*%
%ADD17O,0.990000X1.650000*%
%ADD18O,1.350000X1.050000*%
G04 APERTURE END LIST*
D10*
D11*
X175500000Y-144500000D03*
X82500000Y-144500000D03*
X175500000Y-89500000D03*
D12*
X134950000Y-151150000D03*
X134950000Y-155650000D03*
X128450000Y-151150000D03*
X128450000Y-155650000D03*
D13*
X90000000Y-89540000D03*
D14*
X92540000Y-89540000D03*
X95080000Y-89540000D03*
X97620000Y-89540000D03*
X100160000Y-89540000D03*
X102700000Y-89540000D03*
X105240000Y-89540000D03*
X107780000Y-89540000D03*
X110320000Y-89540000D03*
X112860000Y-89540000D03*
X115400000Y-89540000D03*
X117940000Y-89540000D03*
X120480000Y-89540000D03*
X123020000Y-89540000D03*
X125560000Y-89540000D03*
X128100000Y-89540000D03*
D11*
X82500000Y-89500000D03*
D15*
X158500000Y-150100000D03*
X154500000Y-150100000D03*
X150500000Y-150100000D03*
X169000000Y-150100000D03*
X165000000Y-150100000D03*
D16*
X146500000Y-150100000D03*
D15*
X173000000Y-150100000D03*
D13*
X120200000Y-153200000D03*
D14*
X120200000Y-155740000D03*
X117660000Y-153200000D03*
X117660000Y-155740000D03*
X115120000Y-153200000D03*
X115120000Y-155740000D03*
D17*
X106550000Y-159550000D03*
D18*
X105550000Y-156850000D03*
D17*
X99550000Y-159550000D03*
D18*
X100550000Y-156850000D03*
M02*
